<svg width="320" height="330" viewBox="0 0 320 330" fill="none" xmlns="http://www.w3.org/2000/svg">
<path d="M173.638 246.805C234.454 279.696 225.608 330 225.608 330H0.310959V31.4926C0.310959 31.4926 46.7206 38.6789 59.5909 83.3168C72.4613 127.955 110.44 106.939 135.611 127.955C160.783 148.971 112.821 213.914 173.638 246.805Z" fill="#7F7CF9" fill-opacity="0.93"/>
<path d="M196.965 238.889C261.671 281.616 248.996 330 248.996 330H0.311005V0.398071C0.311005 0.398071 51.5383 8.33295 65.7447 57.6206C79.9511 106.908 121.872 83.7034 149.657 106.908C177.441 130.113 132.259 196.163 196.965 238.889Z" fill="#7774F1" fill-opacity="0.18"/>
<path d="M135.417 221.635C146.003 170.048 142.879 138.302 142.879 138.302L123.134 123.843C123.134 123.843 113.288 148.332 90.6622 174.909C79.0028 188.604 70.6301 194.912 54.8818 202.357C34.2555 212.107 -6.10352e-05 206.411 -6.10352e-05 206.411V291.983C-6.10352e-05 291.983 51.1019 296.876 80.8986 285.167C118.306 270.468 126.866 263.302 135.417 221.635Z" fill="#BAC0FC" fill-opacity="0.37"/>
<path d="M169.033 218.168C169.033 218.168 156.234 214.401 150.656 217.622L135.914 226.133C131.132 228.894 129.617 234.55 132.377 239.331C132.377 239.331 132.377 239.331 132.607 239.73C135.368 244.511 141.422 245.796 145.805 243.266L160.149 234.985C166.692 230.676 169.033 218.168 169.033 218.168Z" fill="url(#paint0_linear)"/>
<path d="M121.416 135.691C121.416 135.691 108.616 131.925 103.038 135.145L88.2963 143.657C83.5151 146.417 81.9995 152.073 84.7599 156.855C84.7599 156.855 84.76 156.855 84.99 157.253C87.7504 162.034 93.8051 163.32 98.1878 160.789L112.531 152.508C119.075 148.199 121.416 135.691 121.416 135.691Z" fill="url(#paint1_linear)"/>
<path d="M106.427 280.875L130.768 236.541L122.873 232.068L95.0247 283.208L101.691 280.953C101.691 280.953 105.339 279.91 106.427 280.875Z" fill="url(#paint2_linear)"/>
<path d="M94.1531 241.212L85.3391 286.675L95.0248 283.208L122.873 232.068L94.1531 241.212Z" fill="url(#paint3_linear)"/>
<path d="M35.8061 158.556C35.9745 157.928 35.9745 157.928 35.8061 158.556C35.5761 158.158 35.5761 158.158 35.3461 157.759C34.4876 157.193 31.6369 157.776 26.0588 160.996L8.49924 177.509L14.1554 179.025L33.3704 162.619C33.3704 162.619 36.0978 159.982 35.8061 158.556Z" fill="#FF5A74"/>
<path d="M35.8067 158.555C35.6999 160.211 33.3709 162.618 33.3709 162.618L28.0845 167.264L86.2976 168.716L86.3713 159.643L35.8067 158.555Z" fill="url(#paint4_linear)"/>
<path d="M28.0844 167.264L20.2391 173.918L64.0183 189.017L86.2975 168.716L28.0844 167.264Z" fill="url(#paint5_linear)"/>
<path d="M35.416 157.769C35.416 157.769 35.8144 157.539 35.416 157.769C35.646 158.168 35.646 158.168 35.646 158.168C35.646 158.168 35.646 158.168 35.8761 158.566L35.9498 149.493C35.7198 149.094 35.7198 149.094 35.4897 148.696C34.6312 148.129 31.7805 148.712 26.2025 151.933L8.64286 168.446L8.56914 177.519L26.1287 161.006C32.1052 157.556 34.5575 157.203 35.416 157.769Z" fill="url(#paint6_linear)"/>
<path d="M54.4969 229.577C64.3884 246.709 78.3379 252.468 83.916 249.247L51.9411 193.865C46.5931 197.484 44.6054 212.444 54.4969 229.577Z" fill="url(#paint7_linear)"/>
<path d="M95.5175 150.644C72.8068 163.756 56.3688 188.653 53.3046 192.547C47.7265 195.767 46.3673 210.896 56.2588 228.028C66.3804 245.559 79.9314 251.548 85.5095 248.327C85.5095 248.327 119.336 245.266 140.514 234.101C137.709 232.002 95.5175 150.644 95.5175 150.644Z" fill="url(#paint8_linear)"/>
<path d="M221.227 188.032L139.549 235.19C129.493 232.495 114.821 218.123 104.929 200.99C94.5774 183.061 92.0878 162.186 94.3221 151.334L173.61 105.557C183.969 99.5759 203.316 112.843 216.428 135.554C229.54 158.264 231.587 182.051 221.227 188.032Z" fill="url(#paint9_linear)"/>
<path opacity="0.32" d="M130.968 191.801C130.968 191.801 115.868 184.05 110.29 187.27L95.5479 195.782C87.1808 200.612 84.0264 209.871 88.3971 217.441C91.1575 222.222 101.78 224.058 106.163 221.528L120.506 213.247C130.865 207.266 130.968 191.801 130.968 191.801Z" fill="url(#paint10_linear)"/>
<path opacity="0.32" d="M120.221 136.38L78.3856 160.534C78.3856 160.534 83.4013 171.982 97.3464 163.931L105.315 159.33C112.088 155.419 119.962 142.373 120.221 136.38Z" fill="url(#paint11_linear)"/>
<path d="M133.785 183.8C133.785 183.8 120.986 180.033 115.408 183.254L100.666 191.765C95.8845 194.526 94.369 200.182 97.1294 204.963C97.1294 204.963 97.1294 204.963 97.3595 205.361C100.12 210.143 106.174 211.428 110.557 208.898L124.901 200.616C131.444 196.307 133.785 183.8 133.785 183.8Z" fill="url(#paint12_linear)"/>
<path d="M220.83 188.262C216.431 187.083 209.058 184.434 203.784 178.979C202.432 170.197 198.903 159.485 192.922 149.126C187.171 139.165 180.287 130.921 173.357 125.359C171.669 117.834 172.433 109.956 173.78 104.928C173.78 104.928 150.671 118.27 149.874 118.73C139.515 124.711 141.331 148.1 154.443 170.811C167.555 193.521 186.503 207.018 197.261 200.807C197.721 201.604 220.83 188.262 220.83 188.262Z" fill="url(#paint13_linear)"/>
<path d="M178.409 158.036C191.495 180.701 210.665 194.131 221.227 188.033C231.79 181.935 229.744 158.618 216.659 135.953C203.573 113.288 184.403 99.8576 173.84 105.956C163.278 112.054 165.324 135.371 178.409 158.036Z" fill="#5752D0"/>
<path d="M212.342 153.32C212.646 144.645 206.267 134.516 198.832 130.839C191.167 126.765 185.022 130.844 184.718 139.519C184.414 148.194 190.794 158.324 198.229 162C205.663 165.676 211.808 161.597 212.342 153.32Z" fill="white"/>
<path d="M212.112 152.923C212.416 144.247 206.266 134.517 198.601 130.442C190.936 126.367 184.791 130.446 184.488 139.122C184.184 147.797 190.333 157.528 197.998 161.602C205.433 165.278 211.808 161.598 212.112 152.923Z" fill="#FCFCFC"/>
<path d="M211.715 153.151C211.62 144.706 205.869 134.745 198.434 131.069C190.999 127.392 184.624 131.073 184.489 139.12C184.584 147.565 190.335 157.526 197.769 161.202C205.434 165.277 211.579 161.198 211.715 153.151Z" fill="#F9F9FA"/>
<path d="M211.714 153.152C211.85 145.105 206.099 135.145 198.664 131.468C191.229 127.792 185.253 131.243 184.719 139.52C184.584 147.567 190.334 157.527 197.769 161.203C205.204 164.88 211.579 161.199 211.714 153.152Z" fill="#F6F6F7"/>
<path d="M211.485 152.752C211.62 144.706 205.869 134.745 198.434 131.069C190.999 127.392 185.023 130.843 184.887 138.89C184.752 146.937 190.503 156.897 197.938 160.573C205.204 164.878 211.579 161.198 211.485 152.752Z" fill="#F3F3F4"/>
<path d="M211.484 152.754C211.62 144.707 206.099 135.145 198.664 131.468C191.229 127.792 185.253 131.243 185.117 139.29C184.982 147.336 190.503 156.899 197.938 160.575C204.974 164.481 211.349 160.801 211.484 152.754Z" fill="#F0F0F2"/>
<path d="M211.484 152.753C211.62 144.706 206.099 135.143 198.664 131.467C191.229 127.791 185.483 131.64 185.117 139.289C184.982 147.335 190.503 156.898 197.938 160.574C204.974 164.48 211.349 160.799 211.484 152.753Z" fill="#EDEEEF"/>
<path d="M210.855 152.585C210.991 144.538 205.7 135.374 198.265 131.698C191.459 128.19 185.482 131.641 185.117 139.289C184.981 147.336 190.272 156.5 197.707 160.176C205.142 163.852 210.72 160.632 210.855 152.585Z" fill="#EAEBEC"/>
<path d="M210.855 152.586C210.99 144.539 205.301 135.605 198.494 132.097C191.688 128.59 185.711 132.04 185.346 139.688C185.211 147.735 190.9 156.669 197.706 160.177C205.141 163.853 210.719 160.633 210.855 152.586Z" fill="#E7E8EA"/>
<path d="M210.855 152.586C211.22 144.937 205.301 135.605 198.494 132.097C191.688 128.59 185.711 132.04 185.346 139.688C184.981 147.337 190.9 156.669 197.706 160.177C204.911 163.455 210.489 160.234 210.855 152.586Z" fill="#E4E5E7"/>
<path d="M210.624 152.187C210.99 144.539 205.301 135.605 198.494 132.097C191.688 128.59 185.711 132.04 185.744 139.458C185.379 147.107 191.068 156.041 197.875 159.548C204.911 163.455 210.489 160.234 210.624 152.187Z" fill="#E1E2E4"/>
<path d="M210.625 152.187C210.99 144.539 205.301 135.605 198.725 132.496C191.918 128.988 186.34 132.208 185.975 139.857C185.609 147.505 191.299 156.439 197.875 159.548C204.681 163.056 210.259 159.836 210.625 152.187Z" fill="#DFDFE2"/>
<path d="M210.225 152.417C210.192 144.999 205.132 136.233 198.325 132.726C191.519 129.218 186.171 132.837 185.974 139.857C186.007 147.275 191.068 156.041 197.874 159.548C204.68 163.056 210.259 159.836 210.225 152.417Z" fill="#DCDCDF"/>
<path d="M210.225 152.417C210.192 144.999 205.132 136.234 198.555 133.124C191.979 130.015 186.401 133.235 186.204 140.255C186.237 147.674 191.298 156.439 197.874 159.548C204.45 162.658 210.028 159.437 210.225 152.417Z" fill="#D9D9DC"/>
<path d="M209.995 152.019C209.962 144.601 205.132 136.234 198.325 132.726C191.749 129.617 186.569 132.607 185.974 139.857C186.007 147.276 190.838 155.643 197.644 159.15C204.45 162.658 210.028 159.438 209.995 152.019Z" fill="#D6D6DA"/>
<path d="M209.995 152.019C210.192 144.999 205.132 136.234 198.555 133.124C191.979 130.015 186.799 133.005 186.602 140.025C186.405 147.045 191.466 155.811 198.042 158.92C204.22 162.259 209.798 159.039 209.995 152.019Z" fill="#D3D3D7"/>
<path d="M209.995 152.019C210.192 144.999 205.362 136.632 198.785 133.523C192.607 130.183 187.029 133.404 186.832 140.424C186.635 147.444 191.466 155.811 198.042 158.92C204.619 162.029 209.798 159.039 209.995 152.019Z" fill="#D0D1D4"/>
<path d="M209.369 151.85C209.566 144.83 204.735 136.463 198.159 133.353C191.981 130.014 186.403 133.234 186.604 140.024C186.407 147.044 191.238 155.411 197.814 158.521C204.222 162.258 209.57 158.639 209.369 151.85Z" fill="#CDCED2"/>
<path d="M209.369 151.849C209.566 144.83 204.337 136.692 198.389 133.752C192.211 130.412 187.261 133.801 186.834 140.423C186.637 147.442 191.866 155.58 197.814 158.52C203.992 161.86 209.172 158.869 209.369 151.849Z" fill="#CACBCF"/>
<path d="M209.369 151.85C209.566 144.83 204.567 137.091 198.389 133.752C192.441 130.811 187.261 133.802 186.834 140.423C186.637 147.443 191.636 155.182 197.814 158.521C204.391 161.63 208.942 158.471 209.369 151.85Z" fill="#C7C8CC"/>
<path d="M209.139 151.451C209.336 144.432 204.337 136.693 198.389 133.752C192.441 130.811 187.261 133.802 187.233 140.193C187.036 147.213 192.035 154.952 197.983 157.892C204.161 161.232 208.942 158.471 209.139 151.451Z" fill="#C4C5CA"/>
<path d="M209.137 151.453C209.166 145.061 204.565 137.092 198.618 134.152C192.67 131.211 187.888 133.971 187.461 140.593C187.433 146.984 192.033 154.953 197.981 157.894C204.159 161.233 208.71 158.074 209.137 151.453Z" fill="#C1C2C7"/>
<path d="M212.372 146.928C211.895 142.422 208.215 136.047 204.551 133.382C201.745 131.283 199.523 132.034 198.62 134.15C199.646 134.088 200.903 134.425 201.992 135.39C206.054 137.826 209.505 143.802 209.813 148.937C210.105 150.362 209.768 151.619 209.6 152.248C211.025 151.956 212.557 150.009 212.372 146.928Z" fill="#CE7436"/>
<path d="M205.631 158.259L212.005 154.578L197.973 130.274L191.2 134.185C189.208 135.335 188.304 137.45 188.091 140.761C188.062 147.152 192.831 154.492 198.381 157.663C201.354 159.134 203.638 159.409 205.631 158.259Z" fill="url(#paint14_linear)"/>
<path d="M214.885 147.602C214.914 141.211 210.145 133.871 204.595 130.7C199.046 127.529 194.663 130.059 194.635 136.451C194.606 142.842 199.375 150.182 204.925 153.353C210.474 156.524 214.857 153.994 214.885 147.602Z" fill="url(#paint15_linear)"/>
<path d="M212.372 146.929C211.895 142.423 208.215 136.048 204.551 133.382C201.117 131.115 198.496 132.096 198.052 135.009C197.884 135.637 197.716 136.266 198.176 137.062C198.652 141.569 202.333 147.943 205.997 150.609C206.625 150.778 207.085 151.574 207.484 151.344C210.458 152.815 212.618 151.036 212.372 146.929Z" fill="url(#paint16_linear)"/>
<path d="M204.338 136.692C202.222 135.789 199.708 135.115 197.885 135.637C197.716 136.265 197.548 136.894 198.008 137.69C198.484 142.196 202.165 148.571 205.829 151.237C206.458 151.406 206.918 152.202 207.316 151.972C207.714 151.742 207.883 151.114 208.051 150.485C211.054 145.564 209.427 139.066 204.338 136.692Z" fill="url(#paint17_linear)"/>
<path d="M212.372 146.928C211.895 142.422 208.215 136.047 204.551 133.382C201.745 131.283 199.523 132.034 198.62 134.15C199.646 134.088 200.903 134.425 201.992 135.39C206.054 137.826 209.505 143.802 209.813 148.937C210.105 150.362 209.768 151.619 209.6 152.248C211.025 151.956 212.557 150.009 212.372 146.928Z" fill="#CE7436"/>
<path d="M205.631 158.259L212.005 154.578L197.973 130.274L191.2 134.185C189.208 135.335 188.304 137.45 188.091 140.761C188.062 147.152 192.831 154.492 198.381 157.663C201.354 159.134 203.638 159.409 205.631 158.259Z" fill="url(#paint18_linear)"/>
<path d="M214.885 147.602C214.914 141.211 210.145 133.871 204.595 130.7C199.046 127.529 194.663 130.059 194.635 136.451C194.606 142.842 199.375 150.182 204.925 153.353C210.474 156.524 214.857 153.994 214.885 147.602Z" fill="url(#paint19_linear)"/>
<path d="M212.372 146.929C211.895 142.423 208.215 136.048 204.551 133.382C201.117 131.115 198.496 132.096 198.052 135.009C197.884 135.637 197.716 136.266 198.176 137.062C198.652 141.569 202.333 147.943 205.997 150.609C206.625 150.778 207.085 151.574 207.484 151.344C210.458 152.815 212.618 151.036 212.372 146.929Z" fill="#445DCF"/>
<path d="M204.338 136.692C202.222 135.789 199.708 135.115 197.885 135.637C197.716 136.265 197.548 136.894 198.008 137.69C198.484 142.196 202.165 148.571 205.829 151.237C206.458 151.406 206.918 152.202 207.316 151.972C207.714 151.742 207.883 151.114 208.051 150.485C211.054 145.564 209.427 139.066 204.338 136.692Z" fill="url(#paint20_linear)"/>
<path d="M202.526 127.113C202.128 127.343 199.569 129.352 199.064 131.237C197.823 134.61 198.008 137.691 198.821 140.94C200.847 147.208 208.59 156.018 216.957 151.188C208.327 148.202 200.904 134.425 202.526 127.113Z" fill="#231B7E"/>
<path d="M221.828 143.062C221.643 139.981 218.406 130.694 212.166 126.328C210.219 124.796 206.617 123.157 202.127 127.343C199.967 129.121 199.186 133.291 199.203 137C199.618 140.479 202.148 144.862 203.467 146.225C204.785 147.589 206.334 149.351 207.821 150.087C209.538 151.22 211.653 152.124 214.336 152.169C218.443 151.922 222.473 146.94 221.828 143.062Z" fill="url(#paint21_linear)"/>
<path d="M204.394 123.91C203.996 124.14 201.667 126.547 201.162 128.433C199.921 131.805 200.566 135.683 201.38 138.932C203.865 145.997 212.068 155.604 220.665 151.172C211.176 147.619 203.232 132.019 204.394 123.91Z" fill="#231B7E"/>
<path d="M204.793 123.68C204.394 123.91 202.065 126.317 201.56 128.202C200.32 131.575 200.965 135.452 201.778 138.701C204.263 145.766 212.466 155.374 221.064 150.942C211.973 147.159 203.63 131.788 204.793 123.68Z" fill="url(#paint22_linear)"/>
<path d="M225.705 142.418C225.52 139.337 221.593 128.855 214.894 123.692C212.947 122.16 208.884 119.724 204.395 123.91C202.234 125.688 201.684 130.256 201.93 134.364C202.575 138.241 205.336 143.022 206.654 144.386C208.203 146.148 209.751 147.91 211.238 148.646C213.185 150.178 215.301 151.081 217.983 151.126C222.551 151.677 225.952 146.526 225.705 142.418Z" fill="url(#paint23_linear)"/>
<path d="M207.122 121.272C206.724 121.502 204.395 123.909 203.89 125.795C202.649 129.167 203.524 133.443 204.338 136.692C207.053 144.155 215.716 154.56 224.083 149.729C214.993 145.946 206.19 129.779 207.122 121.272Z" fill="#231B7E"/>
<path d="M207.521 121.041C207.123 121.271 204.794 123.678 204.289 125.564C203.048 128.936 203.923 133.212 204.737 136.461C207.452 143.925 216.115 154.329 224.482 149.498C215.392 145.715 206.589 129.548 207.521 121.041Z" fill="url(#paint24_linear)"/>
<path d="M229.123 140.975C228.708 137.496 224.551 126.615 217.851 121.452C215.904 119.919 211.842 117.484 207.352 121.669C205.192 123.448 204.871 128.414 205.118 132.522C205.763 136.399 208.753 141.579 210.302 143.341C211.851 145.103 213.399 146.865 215.116 147.999C217.063 149.531 219.409 150.833 222.091 150.878C226.199 150.632 229.6 145.481 229.123 140.975Z" fill="url(#paint25_linear)"/>
<path d="M228.573 145.543C229.982 141.542 228.815 135.841 225.594 130.263C222.374 124.685 218.02 120.824 213.851 120.044C213.222 119.875 212.195 119.937 211.168 119.998C210.54 119.83 209.743 120.29 208.946 120.75C208.548 120.98 208.548 120.98 208.149 121.21C207.352 121.67 207.184 122.299 206.617 123.157C204.58 126.99 205.18 133.55 208.86 139.925C212.541 146.299 217.922 150.099 221.861 150.481C222.489 150.649 223.516 150.588 224.313 150.127C224.712 149.897 225.11 149.667 225.11 149.667C225.509 149.437 226.305 148.977 226.474 148.349C227.838 147.03 228.404 146.172 228.573 145.543Z" fill="#231B7E"/>
<path d="M229.37 145.082C230.779 141.081 229.613 135.38 226.392 129.802C223.172 124.224 218.817 120.363 214.648 119.583C214.02 119.414 212.993 119.476 211.966 119.537C211.337 119.369 210.541 119.829 209.744 120.289C209.345 120.519 209.345 120.519 208.947 120.749C208.15 121.209 207.982 121.838 207.415 122.696C205.377 126.529 205.977 133.089 209.658 139.464C213.338 145.838 218.719 149.638 222.659 150.02C223.287 150.188 224.314 150.127 225.111 149.667C225.509 149.436 225.908 149.206 225.908 149.206C226.306 148.976 227.103 148.516 227.271 147.888C228.635 146.569 228.804 145.941 229.37 145.082Z" fill="url(#paint26_linear)"/>
<path d="M224.965 130.095C220.365 122.126 213.558 118.619 209.972 120.689C206.386 122.759 206.021 130.408 210.622 138.376C215.222 146.345 222.029 149.853 225.615 147.782C229.201 145.712 229.566 138.064 224.965 130.095Z" fill="url(#paint27_linear)"/>
<path d="M261.913 110.357C261.683 109.958 261.453 109.56 261.453 109.56C255.012 98.4037 241.186 94.699 230.029 101.14C226.045 103.44 223.149 106.706 221.51 110.308C219.305 114.769 215.382 118.097 210.999 120.627C209.007 121.777 207.705 124.123 207.722 127.832C207.525 134.852 212.585 143.617 218.763 146.956C221.967 148.825 223.623 148.932 226.642 147.72C231.024 145.19 236.097 143.855 241.063 144.175C245.401 144.327 250.075 143.222 253.83 140.523C263.729 133.745 267.664 120.317 261.913 110.357Z" fill="url(#paint28_linear)"/>
<g opacity="0.55">
<path opacity="0.55" d="M262.743 117.316C261.318 117.608 259.892 117.9 258.467 118.191C258.82 120.644 258.377 123.556 257.473 125.671C258.73 126.008 260.217 126.743 261.474 127.08C262.714 123.708 263.158 120.796 262.743 117.316Z" fill="url(#paint29_linear)"/>
<path opacity="0.55" d="M257.839 118.023C256.413 118.315 254.988 118.606 253.563 118.898C253.456 120.553 253.349 122.209 252.844 124.094C254.101 124.431 255.588 125.166 256.845 125.503C257.518 122.989 257.794 120.705 257.839 118.023Z" fill="url(#paint30_linear)"/>
<path opacity="0.55" d="M257.137 126.928C255.835 129.274 254.532 131.619 252.77 133.168C253.46 134.363 254.549 135.328 255.469 136.922C258.028 134.913 260.127 132.108 261.367 128.735C259.482 128.23 258.225 127.893 257.137 126.928Z" fill="url(#paint31_linear)"/>
<path opacity="0.55" d="M252.277 124.952C251.542 126.439 250.807 127.926 249.213 128.847C249.903 130.042 250.992 131.007 251.912 132.601C253.674 131.052 255.206 129.105 256.11 126.99C255.021 126.024 253.764 125.688 252.277 124.952Z" fill="url(#paint32_linear)"/>
</g>
<path d="M246.312 118.301C250.123 124.903 256.067 128.607 259.588 126.574C263.109 124.541 262.873 117.542 259.062 110.94C255.25 104.339 249.307 100.635 245.786 102.668C242.265 104.701 242.501 111.7 246.312 118.301Z" fill="url(#paint33_radial)"/>
<path d="M249.5 116.461C252.422 121.522 256.575 124.595 258.775 123.325C260.976 122.054 260.391 116.921 257.469 111.86C254.547 106.799 250.394 103.726 248.193 104.997C245.993 106.267 246.578 111.4 249.5 116.461Z" fill="url(#paint34_radial)"/>
<path d="M245.516 118.761C242.755 113.98 236.471 112.296 231.689 115.056L214.158 125.178C212.565 126.098 212.059 127.983 212.98 129.577C213.9 131.171 215.785 131.676 217.379 130.756L234.91 120.634C236.902 119.484 239.416 120.158 240.566 122.15C241.716 124.142 241.043 126.656 239.05 127.806L221.519 137.928C219.926 138.848 219.421 140.733 220.341 142.327C221.261 143.921 223.146 144.426 224.74 143.506L242.271 133.384C246.592 129.827 248.276 123.542 245.516 118.761Z" fill="url(#paint35_linear)"/>
<path d="M216.566 127.507C217.074 128.387 218.021 128.792 218.681 128.411C219.342 128.03 219.465 127.007 218.957 126.127C218.448 125.247 217.501 124.842 216.841 125.223C216.181 125.604 216.058 126.627 216.566 127.507Z" fill="url(#paint36_radial)"/>
<path d="M220.948 124.977C221.456 125.857 222.403 126.262 223.063 125.88C223.723 125.499 223.846 124.477 223.338 123.597C222.83 122.716 221.883 122.312 221.223 122.693C220.563 123.074 220.439 124.097 220.948 124.977Z" fill="url(#paint37_radial)"/>
<path d="M225.729 122.217C226.238 123.097 227.185 123.502 227.845 123.121C228.505 122.74 228.628 121.717 228.12 120.837C227.612 119.957 226.665 119.552 226.005 119.933C225.344 120.314 225.221 121.337 225.729 122.217Z" fill="url(#paint38_radial)"/>
<path d="M230.511 119.455C231.019 120.335 231.966 120.74 232.627 120.358C233.287 119.977 233.41 118.955 232.902 118.075C232.394 117.194 231.446 116.79 230.786 117.171C230.126 117.552 230.003 118.575 230.511 119.455Z" fill="url(#paint39_radial)"/>
<path d="M235.122 117.325C235.631 118.205 236.578 118.609 237.238 118.228C237.898 117.847 238.021 116.825 237.513 115.944C237.005 115.064 236.058 114.66 235.398 115.041C234.737 115.422 234.614 116.444 235.122 117.325Z" fill="url(#paint40_radial)"/>
<path d="M239.983 119.3C240.491 120.18 241.438 120.584 242.098 120.203C242.758 119.822 242.882 118.8 242.373 117.919C241.865 117.039 240.918 116.635 240.258 117.016C239.598 117.397 239.475 118.419 239.983 119.3Z" fill="url(#paint41_radial)"/>
<path d="M223.467 139.46C223.975 140.34 224.922 140.745 225.582 140.364C226.243 139.983 226.366 138.96 225.858 138.08C225.349 137.2 224.402 136.795 223.742 137.176C223.082 137.558 222.959 138.58 223.467 139.46Z" fill="url(#paint42_radial)"/>
<path d="M227.849 136.93C228.357 137.81 229.304 138.215 229.964 137.834C230.624 137.452 230.747 136.43 230.239 135.55C229.731 134.67 228.784 134.265 228.124 134.646C227.464 135.027 227.341 136.05 227.849 136.93Z" fill="url(#paint43_radial)"/>
<path d="M232.63 134.17C233.139 135.05 234.086 135.454 234.746 135.073C235.406 134.692 235.529 133.67 235.021 132.79C234.513 131.909 233.566 131.505 232.906 131.886C232.245 132.267 232.122 133.29 232.63 134.17Z" fill="url(#paint44_radial)"/>
<path d="M237.412 131.409C237.92 132.289 238.868 132.693 239.528 132.312C240.188 131.931 240.311 130.908 239.803 130.028C239.295 129.148 238.348 128.744 237.687 129.125C237.027 129.506 236.904 130.528 237.412 131.409Z" fill="url(#paint45_radial)"/>
<path d="M241.563 128.481C242.072 129.361 243.019 129.766 243.679 129.385C244.339 129.004 244.462 127.981 243.954 127.101C243.446 126.221 242.499 125.816 241.839 126.197C241.179 126.579 241.055 127.601 241.563 128.481Z" fill="url(#paint46_radial)"/>
<path d="M242.283 123.284C242.791 124.164 243.738 124.568 244.398 124.187C245.059 123.806 245.182 122.783 244.674 121.903C244.166 121.023 243.218 120.619 242.558 121C241.898 121.381 241.775 122.403 242.283 123.284Z" fill="url(#paint47_radial)"/>
<path opacity="0.13" d="M223.451 187.28L221.459 188.431C211.099 194.411 191.752 181.144 178.64 158.434C166.448 137.317 163.667 115.017 172.079 107.504L178.853 103.593C218.297 80.8196 297.603 90.2817 297.603 90.2817C297.373 89.8833 271.263 159.676 223.451 187.28Z" fill="url(#paint48_linear)"/>
<path opacity="0.4" d="M187.95 134.996C188.458 135.876 189.584 136.178 190.464 135.67C191.344 135.161 191.646 134.036 191.138 133.156C190.629 132.276 189.504 131.974 188.624 132.482C187.744 132.99 187.442 134.116 187.95 134.996Z" fill="white"/>
<path d="M205.159 167.56C205.667 168.44 206.792 168.742 207.673 168.234C208.553 167.725 208.854 166.6 208.346 165.72C207.838 164.84 206.713 164.538 205.832 165.046C204.952 165.554 204.651 166.68 205.159 167.56Z" fill="white"/>
<path opacity="0.4" d="M221.67 133.591C222.178 134.471 223.303 134.773 224.184 134.265C225.064 133.757 225.365 132.631 224.857 131.751C224.349 130.871 223.223 130.569 222.343 131.077C221.463 131.586 221.162 132.711 221.67 133.591Z" fill="white"/>
<path opacity="0.4" d="M215.8 135.386C216.181 136.046 217.025 136.272 217.685 135.891C218.346 135.51 218.572 134.666 218.191 134.006C217.809 133.346 216.965 133.12 216.305 133.501C215.645 133.882 215.419 134.726 215.8 135.386Z" fill="white"/>
<path opacity="0.8" d="M217.439 131.782C217.693 132.223 218.256 132.373 218.696 132.119C219.136 131.865 219.287 131.302 219.032 130.862C218.778 130.422 218.216 130.271 217.776 130.525C217.335 130.78 217.185 131.342 217.439 131.782Z" fill="white"/>
<path opacity="0.8" d="M216.96 164.996C217.215 165.436 217.777 165.587 218.217 165.333C218.658 165.079 218.808 164.516 218.554 164.076C218.3 163.636 217.737 163.485 217.297 163.739C216.857 163.993 216.706 164.556 216.96 164.996Z" fill="white"/>
<path opacity="0.4" d="M211.702 111.721C212.464 113.041 214.152 113.493 215.473 112.731C216.793 111.969 217.245 110.281 216.483 108.96C215.721 107.64 214.032 107.188 212.712 107.95C211.392 108.712 210.939 110.401 211.702 111.721Z" fill="white"/>
<path d="M189.524 116.557C189.905 117.217 190.749 117.443 191.409 117.062C192.07 116.681 192.296 115.837 191.915 115.177C191.533 114.517 190.689 114.29 190.029 114.672C189.369 115.053 189.143 115.897 189.524 116.557Z" fill="white"/>
<path opacity="0.4" d="M207.188 136.108C207.569 136.768 208.413 136.994 209.073 136.613C209.733 136.232 209.959 135.388 209.578 134.728C209.197 134.067 208.353 133.841 207.693 134.222C207.033 134.603 206.806 135.448 207.188 136.108Z" fill="white"/>
<path opacity="0.4" d="M229.54 106.734C229.922 107.394 230.766 107.621 231.426 107.239C232.086 106.858 232.312 106.014 231.931 105.354C231.55 104.694 230.706 104.468 230.046 104.849C229.385 105.23 229.159 106.074 229.54 106.734Z" fill="white"/>
<path opacity="0.4" d="M197.813 106.991C198.194 107.651 199.038 107.877 199.698 107.496C200.359 107.115 200.585 106.27 200.204 105.61C199.822 104.95 198.978 104.724 198.318 105.105C197.658 105.486 197.432 106.33 197.813 106.991Z" fill="white"/>
<path opacity="0.4" d="M223.946 157.776C224.327 158.436 225.171 158.662 225.832 158.281C226.492 157.9 226.718 157.056 226.337 156.396C225.956 155.735 225.111 155.509 224.451 155.89C223.791 156.271 223.565 157.116 223.946 157.776Z" fill="white"/>
<path opacity="0.4" d="M240.308 128.142C240.689 128.803 241.533 129.029 242.193 128.648C242.853 128.266 243.079 127.422 242.698 126.762C242.317 126.102 241.473 125.876 240.813 126.257C240.153 126.638 239.926 127.482 240.308 128.142Z" fill="white"/>
<path d="M247.441 154.305C247.568 154.525 247.85 154.6 248.07 154.473C248.29 154.346 248.365 154.065 248.238 153.845C248.111 153.625 247.83 153.549 247.61 153.676C247.39 153.803 247.314 154.085 247.441 154.305Z" fill="white"/>
<path opacity="0.4" d="M194.235 136.679C194.489 137.119 195.052 137.27 195.492 137.016C195.932 136.762 196.083 136.199 195.829 135.759C195.575 135.319 195.012 135.168 194.572 135.422C194.132 135.677 193.981 136.239 194.235 136.679Z" fill="white"/>
<path d="M224.561 116.515C224.815 116.955 225.378 117.106 225.818 116.852C226.258 116.598 226.409 116.035 226.155 115.595C225.901 115.155 225.338 115.004 224.898 115.258C224.458 115.512 224.307 116.075 224.561 116.515Z" fill="white"/>
<path d="M214.103 100.241C214.23 100.461 214.511 100.536 214.731 100.409C214.951 100.282 215.027 100.001 214.9 99.7808C214.773 99.5607 214.491 99.4853 214.271 99.6123C214.051 99.7394 213.976 100.021 214.103 100.241Z" fill="white"/>
<path d="M201.387 115.02C201.641 115.46 202.204 115.611 202.644 115.357C203.084 115.103 203.235 114.54 202.981 114.1C202.727 113.66 202.164 113.509 201.724 113.763C201.284 114.017 201.133 114.58 201.387 115.02Z" fill="white"/>
<path d="M199.793 115.94C199.92 116.16 200.202 116.235 200.422 116.108C200.642 115.981 200.717 115.7 200.59 115.479C200.463 115.259 200.182 115.184 199.962 115.311C199.742 115.438 199.666 115.719 199.793 115.94Z" fill="white"/>
<path opacity="0.4" d="M237.906 101.904C238.415 102.784 239.54 103.086 240.42 102.577C241.3 102.069 241.602 100.944 241.094 100.063C240.586 99.1833 239.46 98.8817 238.58 99.3899C237.7 99.8981 237.398 101.024 237.906 101.904Z" fill="white"/>
<path opacity="0.4" d="M247.839 102.545C248.22 103.205 249.064 103.432 249.724 103.05C250.385 102.669 250.611 101.825 250.23 101.165C249.848 100.505 249.004 100.279 248.344 100.66C247.684 101.041 247.458 101.885 247.839 102.545Z" fill="white"/>
<path opacity="0.8" d="M246.768 105.288C247.022 105.728 247.585 105.879 248.025 105.625C248.465 105.371 248.616 104.808 248.362 104.368C248.108 103.928 247.545 103.777 247.105 104.031C246.665 104.285 246.514 104.848 246.768 105.288Z" fill="white"/>
<path opacity="0.4" d="M260.586 132.903C261.348 134.223 263.037 134.676 264.357 133.913C265.677 133.151 266.13 131.463 265.367 130.143C264.605 128.822 262.917 128.37 261.597 129.132C260.276 129.894 259.824 131.583 260.586 132.903Z" fill="white"/>
<path opacity="0.4" d="M248.966 124.737C249.347 125.397 250.191 125.623 250.851 125.242C251.512 124.861 251.738 124.017 251.357 123.357C250.975 122.697 250.131 122.471 249.471 122.852C248.811 123.233 248.585 124.077 248.966 124.737Z" fill="white"/>
<path opacity="0.4" d="M241.264 150.966C241.645 151.626 242.489 151.852 243.149 151.471C243.809 151.09 244.035 150.246 243.654 149.585C243.273 148.925 242.429 148.699 241.769 149.08C241.109 149.461 240.883 150.305 241.264 150.966Z" fill="white"/>
<path opacity="0.4" d="M282.065 99.2527C282.446 99.9129 283.29 100.139 283.95 99.758C284.61 99.3768 284.837 98.5327 284.455 97.8726C284.074 97.2124 283.23 96.9862 282.57 97.3674C281.91 97.7485 281.684 98.5926 282.065 99.2527Z" fill="white"/>
<path opacity="0.4" d="M266.205 113.19C266.586 113.85 267.43 114.077 268.091 113.695C268.751 113.314 268.977 112.47 268.596 111.81C268.215 111.15 267.37 110.924 266.71 111.305C266.05 111.686 265.824 112.53 266.205 113.19Z" fill="white"/>
<path d="M274.628 95.5773C274.755 95.7973 275.036 95.8727 275.256 95.7457C275.476 95.6186 275.552 95.3373 275.425 95.1172C275.298 94.8972 275.016 94.8218 274.796 94.9488C274.576 95.0758 274.501 95.3572 274.628 95.5773Z" fill="white"/>
<path d="M258.162 126.864C258.416 127.305 258.979 127.455 259.419 127.201C259.859 126.947 260.01 126.384 259.756 125.944C259.502 125.504 258.939 125.353 258.499 125.608C258.059 125.862 257.908 126.424 258.162 126.864Z" fill="white"/>
<path d="M246.546 132.509C246.673 132.729 246.955 132.804 247.175 132.677C247.395 132.55 247.47 132.269 247.343 132.049C247.216 131.829 246.935 131.753 246.715 131.88C246.495 132.007 246.419 132.289 246.546 132.509Z" fill="white"/>
<path d="M245.108 142.903C245.362 143.343 245.925 143.493 246.365 143.239C246.805 142.985 246.956 142.422 246.702 141.982C246.448 141.542 245.885 141.392 245.445 141.646C245.005 141.9 244.854 142.462 245.108 142.903Z" fill="white"/>
<path d="M248.325 134.67C248.452 134.89 248.733 134.965 248.953 134.838C249.173 134.711 249.249 134.43 249.122 134.209C248.995 133.989 248.713 133.914 248.493 134.041C248.273 134.168 248.198 134.45 248.325 134.67Z" fill="white"/>
<path opacity="0.4" d="M198.816 127.13C198.943 127.35 199.224 127.425 199.444 127.298C199.664 127.171 199.74 126.889 199.613 126.669C199.486 126.449 199.204 126.374 198.984 126.501C198.764 126.628 198.689 126.909 198.816 127.13Z" fill="white"/>
<path opacity="0.4" d="M214.245 157.533C214.372 157.753 214.654 157.829 214.874 157.702C215.094 157.575 215.169 157.293 215.042 157.073C214.915 156.853 214.634 156.778 214.414 156.905C214.194 157.032 214.118 157.313 214.245 157.533Z" fill="white"/>
<path d="M261.559 107.904C261.94 108.564 262.784 108.79 263.444 108.409C264.104 108.028 264.33 107.184 263.949 106.524C263.568 105.864 262.724 105.638 262.064 106.019C261.404 106.4 261.178 107.244 261.559 107.904Z" fill="white"/>
<path opacity="0.13" d="M223.451 187.28C223.451 187.28 255.477 164.539 256.849 139.311C257.764 127.095 290.682 112.339 280.869 99.9427C268.418 84.8188 243.293 119.512 230.107 105.875C219.559 94.9657 178.622 103.194 178.622 103.194C218.067 80.4207 297.373 89.8828 297.373 89.8828C297.373 89.8828 271.263 159.676 223.451 187.28Z" fill="url(#paint49_linear)"/>
<path opacity="0.13" d="M223.451 187.281L221.458 188.431C211.099 194.412 191.752 181.144 178.64 158.434C166.448 137.317 207.069 147.864 217.646 152.382C237.083 160.285 226.981 108.743 253.27 117.471C269.044 122.708 268.148 100.913 297.603 90.2818C297.373 89.8834 271.263 159.676 223.451 187.281Z" fill="url(#paint50_linear)"/>
<path d="M105.15 280.626C105.15 280.626 105.548 280.396 105.15 280.626C104.92 280.228 104.92 280.228 104.92 280.228C104.92 280.228 104.92 280.228 104.69 279.829C103.203 279.094 99.9536 279.907 99.9536 279.907L93.287 282.163L83.6014 285.63L76.1379 288.345L74.6224 294.001L97.7028 287.051C103.679 283.6 105.211 281.653 105.15 280.626Z" fill="#FF5A74"/>
<path d="M113.044 285.098C112.814 284.7 112.814 284.7 112.584 284.301L104.69 279.828C104.69 279.828 104.689 279.828 104.92 280.227L105.15 280.625C105.211 281.652 103.281 283.829 97.7026 287.049L74.6222 294L82.5171 298.473L105.598 291.523C111.176 288.302 113.106 286.125 113.044 285.098Z" fill="url(#paint51_linear)"/>
<defs>
<linearGradient id="paint0_linear" x1="145.585" y1="220.341" x2="155.382" y2="237.309" gradientUnits="userSpaceOnUse">
<stop stop-color="#FF6279"/>
<stop offset="1" stop-color="#FFAD60"/>
</linearGradient>
<linearGradient id="paint1_linear" x1="98.0176" y1="137.951" x2="107.814" y2="154.92" gradientUnits="userSpaceOnUse">
<stop stop-color="#FF6279"/>
<stop offset="1" stop-color="#FFAD60"/>
</linearGradient>
<linearGradient id="paint2_linear" x1="103.328" y1="243.124" x2="120.393" y2="272.682" gradientUnits="userSpaceOnUse">
<stop stop-color="#F0F0FB"/>
<stop offset="1" stop-color="#D2D7F6"/>
</linearGradient>
<linearGradient id="paint3_linear" x1="93.8183" y1="241.398" x2="112.176" y2="273.195" gradientUnits="userSpaceOnUse">
<stop offset="8e-08" stop-color="#C8D6F9"/>
<stop offset="1" stop-color="#BAC1E8"/>
</linearGradient>
<linearGradient id="paint4_linear" x1="49.891" y1="150.568" x2="66.9571" y2="180.127" gradientUnits="userSpaceOnUse">
<stop stop-color="#F0F0FB"/>
<stop offset="1" stop-color="#D2D7F6"/>
</linearGradient>
<linearGradient id="paint5_linear" x1="45.3389" y1="157.429" x2="63.6969" y2="189.226" gradientUnits="userSpaceOnUse">
<stop offset="8e-08" stop-color="#C8D6F9"/>
<stop offset="1" stop-color="#BAC1E8"/>
</linearGradient>
<linearGradient id="paint6_linear" x1="31.7005" y1="156.008" x2="3.06198" y2="172.543" gradientUnits="userSpaceOnUse">
<stop stop-color="#FF6279"/>
<stop offset="1" stop-color="#FFAD60"/>
</linearGradient>
<linearGradient id="paint7_linear" x1="45.391" y1="197.985" x2="77.2566" y2="253.178" gradientUnits="userSpaceOnUse">
<stop stop-color="#FF6279"/>
<stop offset="1" stop-color="#FFAD60"/>
</linearGradient>
<linearGradient id="paint8_linear" x1="64.0244" y1="168.895" x2="111.589" y2="251.28" gradientUnits="userSpaceOnUse">
<stop stop-color="#F0F0FB"/>
<stop offset="1" stop-color="#D2D7F6"/>
</linearGradient>
<linearGradient id="paint9_linear" x1="136.753" y1="126.902" x2="184.321" y2="209.293" gradientUnits="userSpaceOnUse">
<stop stop-color="#F0F0FB"/>
<stop offset="1" stop-color="#D2D7F6"/>
</linearGradient>
<linearGradient id="paint10_linear" x1="108.467" y1="201.867" x2="106.123" y2="216.97" gradientUnits="userSpaceOnUse">
<stop stop-color="#8390AC"/>
<stop offset="0.9441" stop-color="#8390AC" stop-opacity="0"/>
</linearGradient>
<linearGradient id="paint11_linear" x1="100.115" y1="144.413" x2="97.5417" y2="160.99" gradientUnits="userSpaceOnUse">
<stop stop-color="#8390AC"/>
<stop offset="0.9441" stop-color="#8390AC" stop-opacity="0"/>
</linearGradient>
<linearGradient id="paint12_linear" x1="110.203" y1="185.844" x2="120" y2="202.812" gradientUnits="userSpaceOnUse">
<stop stop-color="#FF6279"/>
<stop offset="1" stop-color="#FFAD60"/>
</linearGradient>
<linearGradient id="paint13_linear" x1="152.344" y1="117.899" x2="199.913" y2="200.291" gradientUnits="userSpaceOnUse">
<stop stop-color="#5752D0"/>
<stop offset="1" stop-color="#7F7CF9"/>
</linearGradient>
<linearGradient id="paint14_linear" x1="191.082" y1="134.014" x2="205.112" y2="158.315" gradientUnits="userSpaceOnUse">
<stop stop-color="#FFDFB9"/>
<stop offset="1" stop-color="#E83155"/>
</linearGradient>
<linearGradient id="paint15_linear" x1="212.207" y1="137.92" x2="195.122" y2="147.784" gradientUnits="userSpaceOnUse">
<stop stop-color="#FFDFB9"/>
<stop offset="1" stop-color="#E83155"/>
</linearGradient>
<linearGradient id="paint16_linear" x1="209.764" y1="139.331" x2="202.443" y2="143.557" gradientUnits="userSpaceOnUse">
<stop stop-color="#0085F2"/>
<stop offset="1" stop-color="#003286"/>
</linearGradient>
<linearGradient id="paint17_linear" x1="204.642" y1="137.369" x2="202.105" y2="146.837" gradientUnits="userSpaceOnUse">
<stop stop-color="#00D0FF"/>
<stop offset="1" stop-color="#007FD9"/>
</linearGradient>
<linearGradient id="paint18_linear" x1="191.082" y1="134.014" x2="205.112" y2="158.315" gradientUnits="userSpaceOnUse">
<stop offset="8e-08" stop-color="#C8D6F9"/>
<stop offset="1" stop-color="#BAC1E8"/>
</linearGradient>
<linearGradient id="paint19_linear" x1="197.796" y1="130.124" x2="211.754" y2="154.298" gradientUnits="userSpaceOnUse">
<stop stop-color="#F0F0FB"/>
<stop offset="1" stop-color="#D2D7F6"/>
</linearGradient>
<linearGradient id="paint20_linear" x1="199.529" y1="134.272" x2="209.002" y2="150.68" gradientUnits="userSpaceOnUse">
<stop stop-color="#FF6279"/>
<stop offset="1" stop-color="#FFAD60"/>
</linearGradient>
<linearGradient id="paint21_linear" x1="202.988" y1="126.461" x2="217.206" y2="151.087" gradientUnits="userSpaceOnUse">
<stop stop-color="#5752D0"/>
<stop offset="1" stop-color="#7F7CF9"/>
</linearGradient>
<linearGradient id="paint22_linear" x1="200.293" y1="126.207" x2="216.16" y2="153.689" gradientUnits="userSpaceOnUse">
<stop stop-color="#5752D0"/>
<stop offset="1" stop-color="#7F7CF9"/>
</linearGradient>
<linearGradient id="paint23_linear" x1="205.186" y1="123.196" x2="221.132" y2="150.816" gradientUnits="userSpaceOnUse">
<stop stop-color="#5752D0"/>
<stop offset="1" stop-color="#7F7CF9"/>
</linearGradient>
<linearGradient id="paint24_linear" x1="203.159" y1="123.62" x2="219.836" y2="152.505" gradientUnits="userSpaceOnUse">
<stop stop-color="#5752D0"/>
<stop offset="1" stop-color="#7F7CF9"/>
</linearGradient>
<linearGradient id="paint25_linear" x1="208.043" y1="120.606" x2="224.803" y2="149.634" gradientUnits="userSpaceOnUse">
<stop stop-color="#5752D0"/>
<stop offset="1" stop-color="#7F7CF9"/>
</linearGradient>
<linearGradient id="paint26_linear" x1="209.802" y1="119.778" x2="226.429" y2="148.577" gradientUnits="userSpaceOnUse">
<stop stop-color="#5752D0"/>
<stop offset="1" stop-color="#7F7CF9"/>
</linearGradient>
<linearGradient id="paint27_linear" x1="210.319" y1="120.686" x2="225.901" y2="147.675" gradientUnits="userSpaceOnUse">
<stop stop-color="#0085F2"/>
<stop offset="1" stop-color="#003286"/>
</linearGradient>
<linearGradient id="paint28_linear" x1="230.372" y1="146.594" x2="242.161" y2="102.596" gradientUnits="userSpaceOnUse">
<stop stop-color="#FF6279"/>
<stop offset="1" stop-color="#FFAD60"/>
</linearGradient>
<linearGradient id="paint29_linear" x1="257.958" y1="117.447" x2="266.034" y2="131.435" gradientUnits="userSpaceOnUse">
<stop stop-color="white"/>
<stop offset="0.0390585" stop-color="#F3F3F3"/>
<stop offset="0.3989" stop-color="#8D8D8D"/>
<stop offset="0.6885" stop-color="#414141"/>
<stop offset="0.8938" stop-color="#121212"/>
<stop offset="0.9961"/>
<stop offset="1"/>
</linearGradient>
<linearGradient id="paint30_linear" x1="249.889" y1="111.883" x2="256.656" y2="123.604" gradientUnits="userSpaceOnUse">
<stop stop-color="white"/>
<stop offset="0.0390585" stop-color="#F3F3F3"/>
<stop offset="0.3989" stop-color="#8D8D8D"/>
<stop offset="0.6885" stop-color="#414141"/>
<stop offset="0.8938" stop-color="#121212"/>
<stop offset="0.9961"/>
<stop offset="1"/>
</linearGradient>
<linearGradient id="paint31_linear" x1="254.657" y1="127.544" x2="259.929" y2="136.676" gradientUnits="userSpaceOnUse">
<stop stop-color="white"/>
<stop offset="0.0390585" stop-color="#F3F3F3"/>
<stop offset="0.3989" stop-color="#8D8D8D"/>
<stop offset="0.6885" stop-color="#414141"/>
<stop offset="0.8938" stop-color="#121212"/>
<stop offset="0.9961"/>
<stop offset="1"/>
</linearGradient>
<linearGradient id="paint32_linear" x1="248.298" y1="119.999" x2="253.505" y2="129.017" gradientUnits="userSpaceOnUse">
<stop stop-color="white"/>
<stop offset="0.0390585" stop-color="#F3F3F3"/>
<stop offset="0.3989" stop-color="#8D8D8D"/>
<stop offset="0.6885" stop-color="#414141"/>
<stop offset="0.8938" stop-color="#121212"/>
<stop offset="0.9961"/>
<stop offset="1"/>
</linearGradient>
<radialGradient id="paint33_radial" cx="0" cy="0" r="1" gradientUnits="userSpaceOnUse" gradientTransform="translate(252.666 114.716) rotate(60) scale(10.9405)">
<stop offset="8e-08" stop-color="white"/>
<stop offset="0.9961"/>
<stop offset="1"/>
</radialGradient>
<radialGradient id="paint34_radial" cx="0" cy="0" r="1" gradientUnits="userSpaceOnUse" gradientTransform="translate(253.615 114.166) rotate(60) scale(8.06918)">
<stop offset="8e-08" stop-color="white"/>
<stop offset="0.9961"/>
<stop offset="1"/>
</radialGradient>
<linearGradient id="paint35_linear" x1="218.524" y1="134.41" x2="245.799" y2="118.662" gradientUnits="userSpaceOnUse">
<stop offset="8e-08" stop-color="#3C61A1"/>
<stop offset="1" stop-color="white"/>
</linearGradient>
<radialGradient id="paint36_radial" cx="0" cy="0" r="1" gradientUnits="userSpaceOnUse" gradientTransform="translate(217.661 126.815) rotate(60) scale(1.59964)">
<stop stop-color="white"/>
<stop offset="0.9961"/>
<stop offset="1"/>
</radialGradient>
<radialGradient id="paint37_radial" cx="0" cy="0" r="1" gradientUnits="userSpaceOnUse" gradientTransform="translate(222.298 124.137) rotate(60) scale(1.60194)">
<stop stop-color="white"/>
<stop offset="0.9961"/>
<stop offset="1"/>
</radialGradient>
<radialGradient id="paint38_radial" cx="0" cy="0" r="1" gradientUnits="userSpaceOnUse" gradientTransform="translate(226.929 121.465) rotate(60) scale(1.59964)">
<stop stop-color="white"/>
<stop offset="0.9961"/>
<stop offset="1"/>
</radialGradient>
<radialGradient id="paint39_radial" cx="0" cy="0" r="1" gradientUnits="userSpaceOnUse" gradientTransform="translate(231.568 118.785) rotate(60) scale(1.60194)">
<stop stop-color="white"/>
<stop offset="0.9961"/>
<stop offset="1"/>
</radialGradient>
<radialGradient id="paint40_radial" cx="0" cy="0" r="1" gradientUnits="userSpaceOnUse" gradientTransform="translate(236.566 116.753) rotate(60) scale(1.59967)">
<stop stop-color="white"/>
<stop offset="0.9961"/>
<stop offset="1"/>
</radialGradient>
<radialGradient id="paint41_radial" cx="0" cy="0" r="1" gradientUnits="userSpaceOnUse" gradientTransform="translate(241.24 118.556) rotate(60) scale(1.60194)">
<stop stop-color="white"/>
<stop offset="0.9961"/>
<stop offset="1"/>
</radialGradient>
<radialGradient id="paint42_radial" cx="0" cy="0" r="1" gradientUnits="userSpaceOnUse" gradientTransform="translate(224.683 138.976) rotate(60) scale(1.59964)">
<stop stop-color="white"/>
<stop offset="0.9961"/>
<stop offset="1"/>
</radialGradient>
<radialGradient id="paint43_radial" cx="0" cy="0" r="1" gradientUnits="userSpaceOnUse" gradientTransform="translate(229.32 136.299) rotate(60) scale(1.60194)">
<stop stop-color="white"/>
<stop offset="0.9961"/>
<stop offset="1"/>
</radialGradient>
<radialGradient id="paint44_radial" cx="0" cy="0" r="1" gradientUnits="userSpaceOnUse" gradientTransform="translate(233.95 133.625) rotate(60) scale(1.59964)">
<stop stop-color="white"/>
<stop offset="0.9961"/>
<stop offset="1"/>
</radialGradient>
<radialGradient id="paint45_radial" cx="0" cy="0" r="1" gradientUnits="userSpaceOnUse" gradientTransform="translate(238.589 130.947) rotate(60) scale(1.60194)">
<stop stop-color="white"/>
<stop offset="0.9961"/>
<stop offset="1"/>
</radialGradient>
<radialGradient id="paint46_radial" cx="0" cy="0" r="1" gradientUnits="userSpaceOnUse" gradientTransform="translate(242.847 127.633) rotate(60) scale(1.59967)">
<stop stop-color="white"/>
<stop offset="0.9961"/>
<stop offset="1"/>
</radialGradient>
<radialGradient id="paint47_radial" cx="0" cy="0" r="1" gradientUnits="userSpaceOnUse" gradientTransform="translate(243.624 122.686) rotate(60) scale(1.60102)">
<stop stop-color="white"/>
<stop offset="0.9961"/>
<stop offset="1"/>
</radialGradient>
<linearGradient id="paint48_linear" x1="216.368" y1="86.6021" x2="263.809" y2="168.773" gradientUnits="userSpaceOnUse">
<stop stop-color="#5752D0"/>
<stop offset="1" stop-color="#7F7CF9"/>
</linearGradient>
<linearGradient id="paint49_linear" x1="226.827" y1="80.5631" x2="274.268" y2="162.734" gradientUnits="userSpaceOnUse">
<stop stop-color="#5752D0"/>
<stop offset="1" stop-color="#7F7CF9"/>
</linearGradient>
<linearGradient id="paint50_linear" x1="234.426" y1="117.88" x2="262.974" y2="167.326" gradientUnits="userSpaceOnUse">
<stop stop-color="#5752D0"/>
<stop offset="1" stop-color="#7F7CF9"/>
</linearGradient>
<linearGradient id="paint51_linear" x1="95.0869" y1="280.513" x2="94.0907" y2="288.528" gradientUnits="userSpaceOnUse">
<stop stop-color="#FF6279"/>
<stop offset="1" stop-color="#FFAD60"/>
</linearGradient>
</defs>
</svg>
