<svg width="870" height="859" viewBox="0 0 870 859" fill="none" xmlns="http://www.w3.org/2000/svg">
<path d="M75.5001 203.5C99.5108 143.769 125.056 111.336 177.5 74.0003C292.135 -7.61169 563.551 -50.5843 550 107.5C544 177.5 512 192.5 498.5 192.5C446.711 192.5 419.492 123.567 434.5 74.0003C454.233 8.82693 606.615 -6.66502 673 8.49982C777.706 32.4185 807.5 54.4999 844 116.5C880.5 178.5 879.016 247.064 821 296C632.5 454.999 514.5 390.5 440 380.5C315.195 363.747 162.5 379 109.5 447.5C82.0427 482.987 118.741 529.785 224.5 553C265.5 562 306.5 557.5 325 544.5C343.5 531.5 381 447.5 269.5 447.5C148.005 447.5 -20.9404 503.916 2.8626 570.5C39.8626 674 358.112 656.165 445.863 665.5C539.863 675.5 599.5 794 582 829.5" stroke="#37474F" stroke-dasharray="5 5"/>
<circle cx="74" cy="162" r="50" fill="#DFDEFD"/>
<circle cx="574" cy="399" r="50" fill="#DFDEFD"/>
<circle cx="76" cy="614" r="50" fill="#DFDEFD"/>
<circle cx="575" cy="809" r="50" fill="#DFDEFD"/>
<path d="M79.364 149.4V177H70.256V156.438H64.276V149.4H79.364Z" fill="#FFA364"/>
<path d="M586.45 405.054V412H561.38V407.078L573.478 397.694C574.582 396.835 575.333 396.099 575.732 395.486C576.161 394.873 576.376 394.244 576.376 393.6C576.376 392.803 576.023 392.174 575.318 391.714C574.643 391.223 573.647 390.978 572.328 390.978C569.629 390.978 567.667 392.051 566.44 394.198L559.678 390.61C560.935 388.463 562.699 386.792 564.968 385.596C567.237 384.369 569.936 383.756 573.064 383.756C575.517 383.756 577.679 384.155 579.55 384.952C581.451 385.719 582.923 386.777 583.966 388.126C585.009 389.475 585.53 390.993 585.53 392.68C585.53 394.428 585.147 395.977 584.38 397.326C583.613 398.645 582.157 400.086 580.01 401.65L575.64 405.054H586.45Z" fill="#FFA364"/>
<path d="M80.078 611.28C82.746 611.832 84.7853 612.936 86.196 614.592C87.6373 616.217 88.358 618.195 88.358 620.526C88.358 622.427 87.8367 624.191 86.794 625.816C85.782 627.441 84.218 628.745 82.102 629.726C80.0167 630.738 77.4253 631.244 74.328 631.244C72.0587 631.244 69.8047 630.968 67.566 630.416C65.358 629.864 63.4413 629.082 61.816 628.07L65.128 621.216C66.3853 622.075 67.796 622.734 69.36 623.194C70.9547 623.654 72.5187 623.884 74.052 623.884C75.616 623.884 76.858 623.593 77.778 623.01C78.698 622.427 79.158 621.599 79.158 620.526C79.158 618.441 77.5173 617.398 74.236 617.398H70.418V611.648L76.168 605.438H63.472V598.4H86.748V604.104L80.078 611.28Z" fill="#FFA364"/>
<path d="M590.924 822.436H586.14V828.6H577.262V822.436H560.242V816.502L574.686 796.4H584.116L571.006 815.214H577.538V809.74H586.14V815.214H590.924V822.436Z" fill="#FFA364"/>
</svg>
