<svg width="712" height="653" viewBox="0 0 712 653" fill="none" xmlns="http://www.w3.org/2000/svg">
<path d="M331.155 494.333C447.142 557.062 430.271 653 430.271 653H0.593048V83.6978C0.593048 83.6978 89.1037 97.4031 113.65 182.535C138.196 267.667 210.627 227.586 258.633 267.667C306.639 307.747 215.169 431.605 331.155 494.333Z" fill="#7F7CF9" fill-opacity="0.93"/>
<path d="M375.644 479.237C499.049 560.723 474.875 653 474.875 653H0.59317V24.3954C0.59317 24.3954 98.2919 39.5285 125.386 133.528C152.48 227.528 232.43 183.272 285.42 227.528C338.409 271.783 252.239 397.751 375.644 479.237Z" fill="#7774F1" fill-opacity="0.18"/>
<path d="M258.262 446.331C278.452 347.947 272.494 287.401 272.494 287.401L234.837 259.826C234.837 259.826 216.058 306.531 172.908 357.217C150.671 383.336 134.703 395.365 104.669 409.564C65.331 428.16 0.00012207 417.297 0.00012207 417.297V580.496C0.00012207 580.496 97.4599 589.828 154.287 567.498C225.629 539.463 241.954 525.796 258.262 446.331Z" fill="#BAC0FC" fill-opacity="0.37"/>
<path d="M419.733 346.972C419.733 346.972 397.435 340.411 387.717 346.021L362.035 360.849C353.705 365.658 351.065 375.511 355.874 383.841C355.874 383.841 355.874 383.841 356.275 384.535C361.084 392.864 371.632 395.104 379.267 390.696L404.255 376.269C415.654 368.762 419.733 346.972 419.733 346.972Z" fill="url(#paint0_linear)"/>
<path d="M336.778 203.29C336.778 203.29 314.48 196.728 304.762 202.339L279.08 217.166C270.75 221.975 268.11 231.829 272.919 240.159C272.919 240.159 272.919 240.159 273.32 240.853C278.129 249.182 288.677 251.422 296.312 247.013L321.3 232.587C332.699 225.08 336.778 203.29 336.778 203.29Z" fill="url(#paint1_linear)"/>
<path d="M310.666 456.215L353.071 378.98L339.317 371.188L290.802 460.28L302.415 456.351C302.415 456.351 308.77 454.534 310.666 456.215Z" fill="url(#paint2_linear)"/>
<path d="M289.283 387.119L273.928 466.321L290.802 460.281L339.317 371.188L289.283 387.119Z" fill="url(#paint3_linear)"/>
<path d="M187.636 243.123C187.929 242.028 187.929 242.028 187.636 243.123C187.235 242.429 187.235 242.429 186.834 241.735C185.339 240.747 180.373 241.763 170.655 247.374L140.064 276.141L149.918 278.782L183.392 250.2C183.392 250.2 188.144 245.606 187.636 243.123Z" fill="#FF5A74"/>
<path d="M187.637 243.122C187.451 246.006 183.393 250.199 183.393 250.199L174.184 258.293L275.598 260.823L275.726 245.016L187.637 243.122Z" fill="url(#paint4_linear)"/>
<path d="M174.184 258.293L160.516 269.886L236.785 296.189L275.598 260.824L174.184 258.293Z" fill="url(#paint5_linear)"/>
<path d="M186.956 241.752C186.956 241.752 187.65 241.351 186.956 241.752C187.357 242.446 187.357 242.446 187.357 242.446C187.357 242.446 187.357 242.446 187.758 243.14L187.886 227.333C187.485 226.639 187.485 226.639 187.085 225.945C185.589 224.957 180.623 225.973 170.905 231.584L140.314 260.351L140.186 276.159L170.777 247.391C181.188 241.38 185.461 240.765 186.956 241.752Z" fill="url(#paint6_linear)"/>
<path d="M220.198 366.848C237.43 396.695 261.731 406.727 271.449 401.117L215.745 304.635C206.428 310.939 202.965 337.001 220.198 366.848Z" fill="url(#paint7_linear)"/>
<path d="M291.66 229.338C252.095 252.181 223.458 295.553 218.12 302.337C208.402 307.948 206.034 334.303 223.267 364.15C240.899 394.691 264.507 405.124 274.225 399.514C274.225 399.514 333.154 394.181 370.049 374.73C365.161 371.074 291.66 229.338 291.66 229.338Z" fill="url(#paint8_linear)"/>
<path d="M510.661 294.474L368.367 376.627C350.85 371.933 325.288 346.895 308.056 317.048C290.022 285.813 285.685 249.447 289.577 230.541L427.706 150.792C445.753 140.372 479.458 163.485 502.301 203.05C525.144 242.614 528.708 284.054 510.661 294.474Z" fill="url(#paint9_linear)"/>
<path opacity="0.32" d="M353.419 301.039C353.419 301.039 327.113 287.536 317.395 293.146L291.713 307.974C277.137 316.39 271.641 332.519 279.256 345.708C284.065 354.037 302.57 357.235 310.205 352.827L335.193 338.4C353.24 327.981 353.419 301.039 353.419 301.039Z" fill="url(#paint10_linear)"/>
<path opacity="0.32" d="M334.696 204.491L261.814 246.57C261.814 246.57 270.552 266.513 294.846 252.487L308.728 244.472C320.528 237.659 334.246 214.932 334.696 204.491Z" fill="url(#paint11_linear)"/>
<path d="M358.327 287.099C358.327 287.099 336.029 280.538 326.311 286.148L300.629 300.976C292.3 305.785 289.659 315.639 294.468 323.968C294.468 323.968 294.468 323.968 294.869 324.662C299.678 332.991 310.226 335.231 317.861 330.823L342.849 316.396C354.248 308.889 358.327 287.099 358.327 287.099Z" fill="url(#paint12_linear)"/>
<path d="M509.969 294.874C502.305 292.82 489.46 288.205 480.272 278.702C477.917 263.403 471.77 244.74 461.35 226.693C451.332 209.34 439.338 194.979 427.266 185.29C424.324 172.18 425.655 158.455 428.002 149.696C428.002 149.696 387.743 172.939 386.355 173.741C368.308 184.16 371.472 224.906 394.314 264.471C417.157 304.035 450.168 327.549 468.909 316.729C469.711 318.117 509.969 294.874 509.969 294.874Z" fill="url(#paint13_linear)"/>
<path d="M436.067 242.217C458.863 281.702 492.26 305.098 510.661 294.475C529.062 283.851 525.498 243.23 502.702 203.745C479.905 164.26 446.508 140.863 428.107 151.487C409.706 162.111 413.27 202.732 436.067 242.217Z" fill="#5752D0"/>
<path d="M495.182 233.999C495.711 218.886 484.597 201.24 471.645 194.836C458.292 187.737 447.587 194.843 447.058 209.957C446.528 225.07 457.642 242.716 470.594 249.12C483.547 255.525 494.252 248.419 495.182 233.999Z" fill="white"/>
<path d="M494.781 233.306C495.311 218.192 484.598 201.24 471.245 194.142C457.892 187.043 447.186 194.149 446.657 209.263C446.128 224.376 456.841 241.328 470.194 248.426C483.146 254.831 494.252 248.419 494.781 233.306Z" fill="#FCFCFC"/>
<path d="M494.089 233.706C493.924 218.993 483.905 201.64 470.953 195.236C458 188.832 446.894 195.244 446.659 209.262C446.823 223.975 456.842 241.328 469.795 247.732C483.148 254.83 493.853 247.724 494.089 233.706Z" fill="#F9F9FA"/>
<path d="M494.088 233.706C494.324 219.687 484.305 202.334 471.353 195.93C458.401 189.526 447.989 195.537 447.059 209.956C446.823 223.975 456.842 241.327 469.794 247.732C482.747 254.136 493.852 247.724 494.088 233.706Z" fill="#F6F6F7"/>
<path d="M493.688 233.011C493.924 218.993 483.905 201.64 470.953 195.236C458 188.832 447.589 194.843 447.353 208.861C447.117 222.88 457.136 240.233 470.088 246.637C482.747 254.136 493.853 247.724 493.688 233.011Z" fill="#F3F3F4"/>
<path d="M493.687 233.011C493.923 218.993 484.305 202.334 471.353 195.93C458.401 189.526 447.989 195.537 447.753 209.555C447.517 223.574 457.135 240.233 470.088 246.637C482.346 253.442 493.452 247.03 493.687 233.011Z" fill="#F0F0F2"/>
<path d="M493.687 233.011C493.923 218.993 484.305 202.334 471.353 195.93C458.4 189.525 448.389 196.231 447.753 209.555C447.517 223.574 457.135 240.232 470.087 246.637C482.346 253.442 493.451 247.03 493.687 233.011Z" fill="#EDEEEF"/>
<path d="M492.591 232.718C492.827 218.7 483.61 202.735 470.658 196.331C458.8 190.22 448.388 196.231 447.752 209.556C447.516 223.574 456.733 239.539 469.686 245.943C482.638 252.347 492.356 246.737 492.591 232.718Z" fill="#EAEBEC"/>
<path d="M492.59 232.719C492.826 218.701 482.915 203.137 471.057 197.026C459.2 190.915 448.788 196.926 448.152 210.25C447.916 224.269 457.827 239.833 469.685 245.944C482.637 252.348 492.355 246.737 492.59 232.719Z" fill="#E7E8EA"/>
<path d="M492.59 232.719C493.227 219.395 482.915 203.137 471.057 197.026C459.2 190.915 448.788 196.926 448.152 210.25C447.515 223.575 457.827 239.833 469.685 245.944C482.236 251.654 491.954 246.043 492.59 232.719Z" fill="#E4E5E7"/>
<path d="M492.19 232.025C492.826 218.701 482.915 203.137 471.057 197.026C459.2 190.915 448.788 196.926 448.846 209.85C448.209 223.174 458.12 238.738 469.978 244.849C482.236 251.654 491.954 246.043 492.19 232.025Z" fill="#E1E2E4"/>
<path d="M492.19 232.025C492.826 218.701 482.915 203.137 471.458 197.72C459.601 191.609 449.883 197.22 449.247 210.544C448.61 223.869 458.521 239.432 469.978 244.849C481.836 250.96 491.553 245.35 492.19 232.025Z" fill="#DFDFE2"/>
<path d="M491.494 232.427C491.437 219.503 482.62 204.233 470.763 198.122C458.905 192.011 449.588 198.315 449.245 210.545C449.303 223.468 458.119 238.739 469.977 244.85C481.834 250.961 491.552 245.35 491.494 232.427Z" fill="#DCDCDF"/>
<path d="M491.494 232.426C491.437 219.503 482.62 204.232 471.163 198.815C459.707 193.399 449.989 199.009 449.646 211.238C449.703 224.162 458.52 239.433 469.977 244.849C481.433 250.266 491.151 244.656 491.494 232.426Z" fill="#D9D9DC"/>
<path d="M491.093 231.733C491.036 218.809 482.62 204.233 470.762 198.122C459.306 192.705 450.282 197.915 449.245 210.545C449.303 223.468 457.718 238.045 469.576 244.156C481.433 250.267 491.151 244.656 491.093 231.733Z" fill="#D6D6DA"/>
<path d="M491.093 231.732C491.437 219.502 482.62 204.232 471.163 198.815C459.707 193.399 450.683 198.608 450.34 210.838C449.997 223.067 458.813 238.338 470.27 243.754C481.033 249.572 490.75 243.961 491.093 231.732Z" fill="#D3D3D7"/>
<path d="M491.093 231.732C491.436 219.503 483.021 204.926 471.564 199.51C460.801 193.692 451.084 199.303 450.741 211.532C450.397 223.762 458.813 238.338 470.27 243.755C481.727 249.171 490.75 243.962 491.093 231.732Z" fill="#D0D1D4"/>
<path d="M490.002 231.437C490.345 219.207 481.93 204.631 470.473 199.214C459.71 193.397 449.993 199.007 450.344 210.836C450 223.065 458.416 237.642 469.873 243.059C481.036 249.57 490.353 243.266 490.002 231.437Z" fill="#CDCED2"/>
<path d="M490.002 231.437C490.345 219.207 481.236 205.031 470.874 199.908C460.111 194.091 451.488 199.994 450.744 211.53C450.401 223.759 459.511 237.935 469.873 243.058C480.635 248.876 489.659 243.666 490.002 231.437Z" fill="#CACBCF"/>
<path d="M490.002 231.437C490.346 219.208 481.637 205.726 470.874 199.909C460.512 194.785 451.488 199.995 450.745 211.531C450.401 223.76 459.11 237.242 469.873 243.059C481.33 248.476 489.258 242.973 490.002 231.437Z" fill="#C7C8CC"/>
<path d="M489.602 230.743C489.945 218.514 481.236 205.032 470.874 199.909C460.512 194.785 451.489 199.995 451.439 211.13C451.095 223.359 459.804 236.841 470.166 241.964C480.929 247.782 489.258 242.973 489.602 230.743Z" fill="#C4C5CA"/>
<path d="M489.599 230.745C489.649 219.61 481.634 205.728 471.272 200.604C460.91 195.481 452.581 200.29 451.837 211.825C451.787 222.96 459.802 236.842 470.164 241.966C480.926 247.783 488.855 242.28 489.599 230.745Z" fill="#C1C2C7"/>
<path d="M495.234 222.865C494.404 215.015 487.992 203.909 481.609 199.265C476.721 195.608 472.85 196.918 471.276 200.603C473.065 200.496 475.254 201.082 477.151 202.764C484.228 207.007 490.239 217.419 490.776 226.364C491.284 228.847 490.697 231.037 490.404 232.132C492.887 231.624 495.556 228.232 495.234 222.865Z" fill="#CE7436"/>
<path d="M483.49 242.602L494.595 236.19L470.15 193.849L458.35 200.661C454.879 202.665 453.305 206.35 452.933 212.118C452.883 223.253 461.191 236.04 470.859 241.564C476.04 244.126 480.019 244.605 483.49 242.602Z" fill="url(#paint14_linear)"/>
<path d="M499.613 224.038C499.662 212.903 491.354 200.116 481.686 194.592C472.019 189.067 464.383 193.476 464.334 204.61C464.284 215.745 472.592 228.532 482.26 234.057C491.928 239.581 499.563 235.172 499.613 224.038Z" fill="url(#paint15_linear)"/>
<path d="M495.234 222.864C494.403 215.014 487.991 203.908 481.608 199.264C475.626 195.314 471.06 197.025 470.288 202.098C469.994 203.193 469.701 204.288 470.502 205.676C471.333 213.526 477.745 224.632 484.128 229.276C485.223 229.569 486.024 230.958 486.718 230.557C491.899 233.119 495.663 230.02 495.234 222.864Z" fill="url(#paint16_linear)"/>
<path d="M481.237 205.031C477.552 203.457 473.172 202.283 469.995 203.192C469.702 204.287 469.408 205.382 470.21 206.77C471.04 214.62 477.452 225.726 483.835 230.37C484.93 230.663 485.732 232.052 486.426 231.651C487.12 231.25 487.413 230.155 487.707 229.06C492.937 220.487 490.103 209.167 481.237 205.031Z" fill="url(#paint17_linear)"/>
<path d="M495.234 222.865C494.404 215.015 487.992 203.909 481.609 199.265C476.721 195.608 472.85 196.918 471.276 200.603C473.065 200.496 475.254 201.082 477.151 202.764C484.228 207.007 490.239 217.419 490.776 226.364C491.284 228.847 490.697 231.037 490.404 232.132C492.887 231.624 495.556 228.232 495.234 222.865Z" fill="#CE7436"/>
<path d="M483.49 242.602L494.595 236.19L470.15 193.849L458.35 200.661C454.879 202.665 453.305 206.35 452.933 212.118C452.883 223.253 461.191 236.04 470.859 241.564C476.04 244.126 480.019 244.605 483.49 242.602Z" fill="url(#paint18_linear)"/>
<path d="M499.613 224.038C499.662 212.903 491.354 200.116 481.686 194.592C472.019 189.067 464.383 193.476 464.334 204.61C464.284 215.745 472.592 228.532 482.26 234.057C491.928 239.581 499.563 235.172 499.613 224.038Z" fill="url(#paint19_linear)"/>
<path d="M495.234 222.864C494.403 215.014 487.991 203.908 481.608 199.264C475.626 195.314 471.06 197.025 470.288 202.098C469.994 203.193 469.701 204.288 470.502 205.676C471.333 213.526 477.745 224.632 484.128 229.276C485.223 229.569 486.024 230.958 486.718 230.557C491.899 233.119 495.663 230.02 495.234 222.864Z" fill="#445DCF"/>
<path d="M481.237 205.031C477.552 203.457 473.172 202.283 469.995 203.192C469.702 204.287 469.408 205.382 470.21 206.77C471.04 214.62 477.452 225.726 483.835 230.37C484.93 230.663 485.732 232.052 486.426 231.651C487.12 231.25 487.413 230.155 487.707 229.06C492.937 220.487 490.103 209.167 481.237 205.031Z" fill="url(#paint20_linear)"/>
<path d="M478.081 188.344C477.387 188.745 472.929 192.244 472.049 195.529C469.888 201.404 470.21 206.771 471.627 212.431C475.155 223.351 488.645 238.7 503.221 230.284C488.186 225.082 475.255 201.081 478.081 188.344Z" fill="#231B7E"/>
<path d="M511.707 216.129C511.385 210.763 505.745 194.583 494.875 186.977C491.483 184.308 485.208 181.452 477.386 188.744C473.622 191.843 472.263 199.106 472.292 205.568C473.015 211.629 477.423 219.265 479.72 221.64C482.017 224.016 484.715 227.086 487.305 228.367C490.297 230.342 493.982 231.916 498.655 231.994C505.811 231.565 512.83 222.885 511.707 216.129Z" fill="url(#paint21_linear)"/>
<path d="M481.336 182.764C480.642 183.164 476.584 187.358 475.704 190.643C473.543 196.518 474.667 203.273 476.084 208.933C480.414 221.241 494.704 237.979 509.681 230.257C493.151 224.067 479.311 196.89 481.336 182.764Z" fill="#231B7E"/>
<path d="M482.03 182.363C481.336 182.763 477.279 186.957 476.398 190.241C474.238 196.117 475.361 202.872 476.778 208.532C481.108 220.84 495.399 237.577 510.376 229.856C494.539 223.266 480.005 196.489 482.03 182.363Z" fill="url(#paint22_linear)"/>
<path d="M518.462 215.007C518.14 209.64 511.298 191.378 499.627 182.384C496.235 179.715 489.158 175.471 481.336 182.763C477.572 185.862 476.614 193.819 477.043 200.975C478.167 207.73 482.976 216.06 485.273 218.436C487.971 221.505 490.669 224.575 493.259 225.856C496.651 228.525 500.336 230.099 505.009 230.178C512.967 231.137 518.892 222.163 518.462 215.007Z" fill="url(#paint23_linear)"/>
<path d="M486.088 178.169C485.394 178.57 481.337 182.763 480.457 186.048C478.296 191.923 479.82 199.372 481.237 205.032C485.968 218.034 501.06 236.16 515.636 227.744C499.8 221.154 484.464 192.989 486.088 178.169Z" fill="#231B7E"/>
<path d="M486.783 177.767C486.089 178.168 482.032 182.361 481.152 185.646C478.991 191.521 480.515 198.97 481.932 204.631C486.663 217.633 501.755 235.758 516.331 227.343C500.495 220.752 485.159 192.587 486.783 177.767Z" fill="url(#paint24_linear)"/>
<path d="M524.416 212.493C523.693 206.432 516.451 187.476 504.78 178.482C501.388 175.812 494.31 171.569 486.489 178.861C482.725 181.96 482.167 190.611 482.597 197.767C483.72 204.522 488.93 213.546 491.628 216.616C494.326 219.686 497.024 222.755 500.015 224.73C503.407 227.399 507.493 229.668 512.166 229.746C519.322 229.317 525.247 220.343 524.416 212.493Z" fill="url(#paint25_linear)"/>
<path d="M523.458 220.451C525.912 213.481 523.879 203.549 518.269 193.831C512.658 184.114 505.073 177.387 497.81 176.028C496.715 175.735 494.926 175.842 493.137 175.949C492.042 175.656 490.654 176.457 489.266 177.259C488.571 177.66 488.571 177.66 487.877 178.06C486.489 178.862 486.196 179.957 485.208 181.452C481.659 188.129 482.704 199.557 489.116 210.663C495.528 221.769 504.902 228.388 511.765 229.053C512.86 229.346 514.649 229.239 516.037 228.438C516.731 228.037 517.425 227.636 517.425 227.636C518.119 227.235 519.508 226.434 519.801 225.339C522.177 223.042 523.164 221.546 523.458 220.451Z" fill="#231B7E"/>
<path d="M524.847 219.649C527.301 212.679 525.269 202.747 519.658 193.029C514.048 183.312 506.462 176.585 499.199 175.226C498.104 174.933 496.315 175.04 494.526 175.147C493.431 174.854 492.043 175.655 490.655 176.457C489.961 176.858 489.961 176.858 489.267 177.258C487.879 178.06 487.585 179.155 486.598 180.65C483.049 187.327 484.094 198.755 490.506 209.861C496.917 220.967 506.292 227.586 513.154 228.251C514.249 228.544 516.038 228.437 517.426 227.636C518.121 227.235 518.815 226.834 518.815 226.834C519.509 226.433 520.897 225.632 521.19 224.537C523.566 222.24 523.859 221.145 524.847 219.649Z" fill="url(#paint26_linear)"/>
<path d="M517.173 193.539C509.158 179.657 497.3 173.546 491.053 177.153C484.806 180.76 484.17 194.084 492.185 207.966C500.2 221.849 512.057 227.96 518.304 224.353C524.551 220.746 525.188 207.422 517.173 193.539Z" fill="url(#paint27_linear)"/>
<path d="M581.54 159.153C581.139 158.459 580.738 157.765 580.738 157.765C569.517 138.329 545.43 131.875 525.995 143.096C519.054 147.104 514.009 152.793 511.154 159.069C507.312 166.84 500.478 172.637 492.842 177.045C489.372 179.049 487.104 183.135 487.132 189.596C486.789 201.826 495.606 217.096 506.368 222.914C511.95 226.17 514.834 226.356 520.093 224.245C527.729 219.836 536.566 217.51 545.218 218.068C552.774 218.333 560.918 216.408 567.458 211.706C584.704 199.899 591.558 176.506 581.54 159.153Z" fill="url(#paint28_linear)"/>
<g opacity="0.55">
<path opacity="0.55" d="M582.986 171.276C580.503 171.784 578.02 172.292 575.537 172.8C576.152 177.072 575.379 182.146 573.805 185.831C575.995 186.418 578.585 187.699 580.775 188.285C582.936 182.41 583.709 177.337 582.986 171.276Z" fill="url(#paint29_linear)"/>
<path opacity="0.55" d="M574.442 172.506C571.959 173.015 569.476 173.523 566.993 174.031C566.807 176.915 566.621 179.799 565.741 183.083C567.93 183.67 570.521 184.951 572.711 185.537C573.884 181.158 574.363 177.179 574.442 172.506Z" fill="url(#paint30_linear)"/>
<path opacity="0.55" d="M573.219 188.02C570.951 192.107 568.682 196.193 565.613 198.89C566.815 200.973 568.711 202.654 570.314 205.431C574.772 201.932 578.429 197.044 580.59 191.169C577.305 190.289 575.115 189.702 573.219 188.02Z" fill="url(#paint31_linear)"/>
<path opacity="0.55" d="M564.754 184.578C563.473 187.168 562.192 189.759 559.416 191.362C560.618 193.444 562.514 195.126 564.117 197.902C567.187 195.204 569.856 191.812 571.43 188.127C569.534 186.446 567.344 185.859 564.754 184.578Z" fill="url(#paint32_linear)"/>
</g>
<path d="M554.361 172.993C561.001 184.494 571.356 190.946 577.49 187.405C583.623 183.864 583.213 171.67 576.573 160.169C569.933 148.669 559.578 142.217 553.445 145.758C547.311 149.299 547.721 161.493 554.361 172.993Z" fill="url(#paint33_radial)"/>
<path d="M559.915 169.787C565.006 178.604 572.24 183.957 576.074 181.744C579.907 179.531 578.888 170.589 573.798 161.772C568.707 152.955 561.473 147.601 557.639 149.815C553.806 152.028 554.825 160.97 559.915 169.787Z" fill="url(#paint34_radial)"/>
<path d="M552.974 173.795C548.165 165.465 537.216 162.532 528.887 167.341L498.346 184.974C495.57 186.577 494.69 189.861 496.292 192.638C497.895 195.414 501.18 196.294 503.957 194.691L534.498 177.058C537.968 175.055 542.348 176.228 544.351 179.699C546.355 183.169 545.182 187.549 541.711 189.552L511.17 207.185C508.394 208.788 507.513 212.073 509.116 214.849C510.719 217.626 514.004 218.506 516.78 216.903L547.321 199.27C554.849 193.073 557.783 182.124 552.974 173.795Z" fill="url(#paint35_linear)"/>
<path d="M502.54 189.03C503.426 190.563 505.076 191.268 506.226 190.604C507.376 189.94 507.59 188.159 506.705 186.625C505.82 185.092 504.17 184.387 503.02 185.051C501.87 185.715 501.655 187.496 502.54 189.03Z" fill="url(#paint36_radial)"/>
<path d="M510.174 184.623C511.059 186.156 512.709 186.861 513.859 186.197C515.009 185.533 515.224 183.751 514.338 182.218C513.453 180.685 511.803 179.98 510.653 180.644C509.503 181.308 509.288 183.089 510.174 184.623Z" fill="url(#paint37_radial)"/>
<path d="M518.504 179.813C519.389 181.347 521.039 182.051 522.189 181.387C523.339 180.723 523.554 178.942 522.669 177.409C521.783 175.875 520.133 175.171 518.983 175.835C517.833 176.499 517.619 178.28 518.504 179.813Z" fill="url(#paint38_radial)"/>
<path d="M526.834 175.003C527.72 176.537 529.37 177.242 530.52 176.578C531.67 175.914 531.885 174.132 530.999 172.599C530.114 171.066 528.464 170.361 527.314 171.025C526.164 171.689 525.949 173.47 526.834 175.003Z" fill="url(#paint39_radial)"/>
<path d="M534.868 171.291C535.753 172.824 537.403 173.529 538.553 172.865C539.703 172.201 539.918 170.42 539.032 168.887C538.147 167.353 536.497 166.648 535.347 167.312C534.197 167.976 533.983 169.758 534.868 171.291Z" fill="url(#paint40_radial)"/>
<path d="M543.335 174.732C544.22 176.265 545.87 176.97 547.02 176.306C548.17 175.642 548.385 173.861 547.5 172.327C546.614 170.794 544.964 170.089 543.814 170.753C542.664 171.417 542.45 173.198 543.335 174.732Z" fill="url(#paint41_radial)"/>
<path d="M514.563 209.854C515.448 211.387 517.098 212.092 518.248 211.428C519.398 210.764 519.613 208.982 518.727 207.449C517.842 205.916 516.192 205.211 515.042 205.875C513.892 206.539 513.677 208.32 514.563 209.854Z" fill="url(#paint42_radial)"/>
<path d="M522.196 205.446C523.081 206.979 524.731 207.684 525.881 207.02C527.032 206.356 527.246 204.575 526.361 203.041C525.475 201.508 523.826 200.803 522.676 201.467C521.526 202.131 521.311 203.912 522.196 205.446Z" fill="url(#paint43_radial)"/>
<path d="M530.526 200.637C531.412 202.17 533.062 202.875 534.212 202.211C535.362 201.547 535.576 199.766 534.691 198.232C533.806 196.699 532.156 195.994 531.006 196.658C529.856 197.322 529.641 199.103 530.526 200.637Z" fill="url(#paint44_radial)"/>
<path d="M538.857 195.827C539.742 197.361 541.392 198.065 542.542 197.401C543.692 196.737 543.907 194.956 543.021 193.423C542.136 191.889 540.486 191.185 539.336 191.848C538.186 192.512 537.971 194.294 538.857 195.827Z" fill="url(#paint45_radial)"/>
<path d="M546.089 190.727C546.974 192.26 548.624 192.965 549.774 192.301C550.924 191.637 551.139 189.855 550.253 188.322C549.368 186.789 547.718 186.084 546.568 186.748C545.418 187.412 545.203 189.193 546.089 190.727Z" fill="url(#paint46_radial)"/>
<path d="M547.342 181.673C548.228 183.206 549.878 183.911 551.028 183.247C552.178 182.583 552.392 180.802 551.507 179.268C550.622 177.735 548.972 177.03 547.822 177.694C546.672 178.358 546.457 180.139 547.342 181.673Z" fill="url(#paint47_radial)"/>
<path opacity="0.13" d="M514.534 293.164L511.064 295.168C493.017 305.587 459.312 282.474 436.469 242.91C415.23 206.121 410.384 167.272 425.039 154.184L436.839 147.371C505.557 107.697 643.716 124.181 643.716 124.181C643.316 123.487 597.828 245.074 514.534 293.164Z" fill="url(#paint48_linear)"/>
<path opacity="0.4" d="M452.688 202.079C453.574 203.612 455.534 204.137 457.068 203.252C458.601 202.367 459.127 200.406 458.241 198.873C457.356 197.339 455.395 196.814 453.862 197.699C452.329 198.585 451.803 200.545 452.688 202.079Z" fill="white"/>
<path d="M482.668 258.809C483.553 260.343 485.514 260.868 487.047 259.983C488.58 259.098 489.106 257.137 488.22 255.603C487.335 254.07 485.374 253.545 483.841 254.43C482.308 255.315 481.782 257.276 482.668 258.809Z" fill="white"/>
<path opacity="0.4" d="M511.432 199.63C512.317 201.164 514.278 201.689 515.811 200.804C517.344 199.918 517.87 197.958 516.985 196.424C516.099 194.891 514.138 194.365 512.605 195.251C511.072 196.136 510.546 198.097 511.432 199.63Z" fill="white"/>
<path opacity="0.4" d="M501.206 202.757C501.87 203.907 503.34 204.301 504.491 203.637C505.641 202.973 506.035 201.502 505.371 200.352C504.707 199.202 503.236 198.808 502.086 199.472C500.936 200.136 500.542 201.607 501.206 202.757Z" fill="white"/>
<path opacity="0.8" d="M504.061 196.48C504.503 197.247 505.484 197.51 506.25 197.067C507.017 196.625 507.28 195.644 506.837 194.877C506.394 194.111 505.414 193.848 504.647 194.291C503.881 194.733 503.618 195.714 504.061 196.48Z" fill="white"/>
<path opacity="0.8" d="M503.228 254.343C503.67 255.109 504.651 255.372 505.417 254.929C506.184 254.487 506.447 253.506 506.004 252.74C505.562 251.973 504.581 251.71 503.814 252.153C503.048 252.596 502.785 253.576 503.228 254.343Z" fill="white"/>
<path opacity="0.4" d="M494.066 161.53C495.394 163.83 498.335 164.618 500.636 163.29C502.936 161.962 503.724 159.021 502.396 156.721C501.068 154.421 498.127 153.633 495.827 154.961C493.526 156.289 492.738 159.23 494.066 161.53Z" fill="white"/>
<path d="M455.43 169.954C456.094 171.104 457.565 171.498 458.715 170.834C459.865 170.17 460.259 168.7 459.595 167.55C458.931 166.4 457.46 166.006 456.31 166.67C455.16 167.334 454.766 168.804 455.43 169.954Z" fill="white"/>
<path opacity="0.4" d="M486.202 204.016C486.866 205.166 488.337 205.56 489.487 204.896C490.637 204.232 491.031 202.761 490.367 201.611C489.703 200.461 488.232 200.067 487.082 200.731C485.932 201.395 485.538 202.866 486.202 204.016Z" fill="white"/>
<path opacity="0.4" d="M525.143 152.843C525.807 153.993 527.278 154.387 528.428 153.723C529.578 153.059 529.972 151.588 529.308 150.438C528.644 149.288 527.173 148.894 526.023 149.558C524.873 150.222 524.479 151.693 525.143 152.843Z" fill="white"/>
<path opacity="0.4" d="M469.871 153.289C470.535 154.439 472.005 154.833 473.155 154.169C474.305 153.505 474.699 152.034 474.035 150.884C473.371 149.734 471.901 149.34 470.751 150.004C469.601 150.668 469.207 152.139 469.871 153.289Z" fill="white"/>
<path opacity="0.4" d="M515.397 241.763C516.061 242.913 517.532 243.307 518.682 242.643C519.832 241.979 520.226 240.508 519.562 239.358C518.898 238.208 517.427 237.814 516.277 238.478C515.127 239.142 514.733 240.613 515.397 241.763Z" fill="white"/>
<path opacity="0.4" d="M543.901 190.138C544.565 191.288 546.036 191.682 547.186 191.018C548.336 190.354 548.73 188.884 548.066 187.733C547.402 186.583 545.931 186.189 544.781 186.853C543.631 187.517 543.237 188.988 543.901 190.138Z" fill="white"/>
<path d="M556.329 235.716C556.55 236.1 557.04 236.231 557.424 236.01C557.807 235.789 557.938 235.298 557.717 234.915C557.496 234.532 557.006 234.4 556.622 234.622C556.239 234.843 556.108 235.333 556.329 235.716Z" fill="white"/>
<path opacity="0.4" d="M463.638 205.011C464.081 205.778 465.061 206.041 465.828 205.598C466.594 205.155 466.857 204.175 466.414 203.408C465.972 202.642 464.991 202.379 464.225 202.822C463.458 203.264 463.195 204.244 463.638 205.011Z" fill="white"/>
<path d="M516.469 169.882C516.911 170.649 517.892 170.912 518.658 170.469C519.425 170.026 519.688 169.046 519.245 168.279C518.802 167.513 517.822 167.25 517.055 167.693C516.289 168.135 516.026 169.116 516.469 169.882Z" fill="white"/>
<path d="M498.249 141.531C498.471 141.914 498.961 142.045 499.344 141.824C499.728 141.603 499.859 141.113 499.638 140.729C499.416 140.346 498.926 140.215 498.543 140.436C498.159 140.657 498.028 141.147 498.249 141.531Z" fill="white"/>
<path d="M476.097 167.278C476.54 168.045 477.52 168.307 478.287 167.865C479.053 167.422 479.316 166.442 478.874 165.675C478.431 164.908 477.45 164.646 476.684 165.088C475.917 165.531 475.654 166.511 476.097 167.278Z" fill="white"/>
<path d="M473.32 168.881C473.542 169.264 474.032 169.395 474.415 169.174C474.799 168.953 474.93 168.462 474.709 168.079C474.487 167.696 473.997 167.564 473.614 167.786C473.23 168.007 473.099 168.497 473.32 168.881Z" fill="white"/>
<path opacity="0.4" d="M539.718 144.428C540.603 145.961 542.564 146.487 544.097 145.602C545.631 144.716 546.156 142.755 545.271 141.222C544.385 139.689 542.425 139.163 540.891 140.049C539.358 140.934 538.832 142.895 539.718 144.428Z" fill="white"/>
<path opacity="0.4" d="M557.022 145.544C557.686 146.694 559.156 147.088 560.306 146.424C561.456 145.76 561.85 144.29 561.186 143.139C560.522 141.989 559.052 141.595 557.902 142.259C556.752 142.923 556.358 144.394 557.022 145.544Z" fill="white"/>
<path opacity="0.8" d="M555.156 150.323C555.599 151.09 556.579 151.352 557.346 150.91C558.113 150.467 558.376 149.487 557.933 148.72C557.49 147.953 556.51 147.69 555.743 148.133C554.976 148.576 554.714 149.556 555.156 150.323Z" fill="white"/>
<path opacity="0.4" d="M579.229 198.432C580.557 200.732 583.498 201.52 585.798 200.192C588.098 198.864 588.886 195.923 587.558 193.622C586.23 191.322 583.289 190.534 580.989 191.862C578.689 193.19 577.901 196.131 579.229 198.432Z" fill="white"/>
<path opacity="0.4" d="M558.985 184.206C559.649 185.356 561.119 185.75 562.269 185.086C563.419 184.422 563.814 182.951 563.15 181.801C562.486 180.651 561.015 180.257 559.865 180.921C558.715 181.585 558.321 183.056 558.985 184.206Z" fill="white"/>
<path opacity="0.4" d="M545.567 229.899C546.231 231.049 547.701 231.443 548.851 230.779C550.002 230.115 550.396 228.644 549.732 227.494C549.068 226.344 547.597 225.95 546.447 226.614C545.297 227.278 544.903 228.749 545.567 229.899Z" fill="white"/>
<path opacity="0.4" d="M616.647 139.809C617.311 140.959 618.781 141.353 619.932 140.689C621.082 140.025 621.476 138.555 620.812 137.405C620.148 136.255 618.677 135.861 617.527 136.525C616.377 137.189 615.983 138.659 616.647 139.809Z" fill="white"/>
<path opacity="0.4" d="M589.018 164.091C589.682 165.241 591.152 165.635 592.302 164.971C593.452 164.307 593.846 162.836 593.182 161.686C592.518 160.536 591.048 160.142 589.898 160.806C588.748 161.47 588.354 162.941 589.018 164.091Z" fill="white"/>
<path d="M603.691 133.406C603.913 133.79 604.403 133.921 604.786 133.7C605.169 133.478 605.301 132.988 605.079 132.605C604.858 132.221 604.368 132.09 603.985 132.311C603.601 132.533 603.47 133.023 603.691 133.406Z" fill="white"/>
<path d="M575.005 187.913C575.448 188.68 576.428 188.943 577.195 188.5C577.962 188.057 578.224 187.077 577.782 186.31C577.339 185.543 576.359 185.281 575.592 185.723C574.825 186.166 574.563 187.146 575.005 187.913Z" fill="white"/>
<path d="M554.769 197.746C554.991 198.129 555.481 198.26 555.864 198.039C556.248 197.818 556.379 197.327 556.158 196.944C555.936 196.561 555.446 196.429 555.063 196.651C554.679 196.872 554.548 197.362 554.769 197.746Z" fill="white"/>
<path d="M552.264 215.852C552.706 216.619 553.687 216.881 554.454 216.438C555.22 215.996 555.483 215.016 555.04 214.249C554.598 213.482 553.617 213.219 552.851 213.662C552.084 214.105 551.821 215.085 552.264 215.852Z" fill="white"/>
<path d="M557.868 201.509C558.089 201.892 558.58 202.024 558.963 201.802C559.346 201.581 559.478 201.091 559.256 200.708C559.035 200.324 558.545 200.193 558.162 200.414C557.778 200.636 557.647 201.126 557.868 201.509Z" fill="white"/>
<path opacity="0.4" d="M471.618 188.374C471.839 188.757 472.329 188.888 472.713 188.667C473.096 188.446 473.228 187.955 473.006 187.572C472.785 187.189 472.295 187.057 471.911 187.279C471.528 187.5 471.397 187.99 471.618 188.374Z" fill="white"/>
<path opacity="0.4" d="M498.497 241.341C498.719 241.724 499.209 241.855 499.592 241.634C499.976 241.413 500.107 240.922 499.886 240.539C499.664 240.156 499.174 240.024 498.791 240.246C498.407 240.467 498.276 240.957 498.497 241.341Z" fill="white"/>
<path d="M580.923 154.882C581.587 156.032 583.057 156.426 584.208 155.762C585.358 155.098 585.751 153.627 585.088 152.477C584.424 151.327 582.953 150.933 581.803 151.597C580.653 152.261 580.259 153.732 580.923 154.882Z" fill="white"/>
<path opacity="0.13" d="M514.534 293.164C514.534 293.164 570.328 253.547 572.717 209.596C574.312 188.314 631.659 162.609 614.563 141.012C592.873 114.665 549.102 175.105 526.131 151.347C507.754 132.342 436.438 146.677 436.438 146.677C505.156 107.003 643.315 123.487 643.315 123.487C643.315 123.487 597.828 245.074 514.534 293.164Z" fill="url(#paint49_linear)"/>
<path opacity="0.13" d="M514.534 293.163L511.064 295.167C493.017 305.587 459.312 282.474 436.469 242.909C415.229 206.121 485.995 224.496 504.421 232.367C538.284 246.134 520.685 156.342 566.483 171.547C593.962 180.67 592.401 142.701 643.716 124.18C643.315 123.486 597.828 245.074 514.534 293.163Z" fill="url(#paint50_linear)"/>
<path d="M308.44 455.782C308.44 455.782 309.135 455.381 308.44 455.782C308.04 455.088 308.04 455.088 308.04 455.088C308.04 455.088 308.04 455.088 307.639 454.394C305.049 453.113 299.388 454.53 299.388 454.53L287.774 458.459L270.901 464.499L257.898 469.229L255.258 479.083L295.467 466.974C305.879 460.963 308.548 457.571 308.44 455.782Z" fill="#FF5A74"/>
<path d="M322.194 463.573C321.793 462.879 321.793 462.879 321.393 462.185L307.639 454.392C307.639 454.392 307.639 454.392 308.039 455.086L308.44 455.781C308.548 457.57 305.184 461.362 295.467 466.973L255.258 479.082L269.012 486.874L309.221 474.765C318.938 469.155 322.301 465.362 322.194 463.573Z" fill="url(#paint51_linear)"/>
<defs>
<linearGradient id="paint0_linear" x1="378.883" y1="350.758" x2="395.95" y2="380.319" gradientUnits="userSpaceOnUse">
<stop stop-color="#FF6279"/>
<stop offset="1" stop-color="#FFAD60"/>
</linearGradient>
<linearGradient id="paint1_linear" x1="296.015" y1="207.227" x2="313.082" y2="236.788" gradientUnits="userSpaceOnUse">
<stop stop-color="#FF6279"/>
<stop offset="1" stop-color="#FFAD60"/>
</linearGradient>
<linearGradient id="paint2_linear" x1="305.267" y1="390.449" x2="334.996" y2="441.942" gradientUnits="userSpaceOnUse">
<stop stop-color="#F0F0FB"/>
<stop offset="1" stop-color="#D2D7F6"/>
</linearGradient>
<linearGradient id="paint3_linear" x1="288.7" y1="387.442" x2="320.681" y2="442.836" gradientUnits="userSpaceOnUse">
<stop offset="8e-08" stop-color="#C8D6F9"/>
<stop offset="1" stop-color="#BAC1E8"/>
</linearGradient>
<linearGradient id="paint4_linear" x1="212.173" y1="229.206" x2="241.904" y2="280.702" gradientUnits="userSpaceOnUse">
<stop stop-color="#F0F0FB"/>
<stop offset="1" stop-color="#D2D7F6"/>
</linearGradient>
<linearGradient id="paint5_linear" x1="204.243" y1="241.16" x2="236.225" y2="296.553" gradientUnits="userSpaceOnUse">
<stop offset="8e-08" stop-color="#C8D6F9"/>
<stop offset="1" stop-color="#BAC1E8"/>
</linearGradient>
<linearGradient id="paint6_linear" x1="180.483" y1="238.684" x2="130.592" y2="267.489" gradientUnits="userSpaceOnUse">
<stop stop-color="#FF6279"/>
<stop offset="1" stop-color="#FFAD60"/>
</linearGradient>
<linearGradient id="paint7_linear" x1="204.334" y1="311.811" x2="259.848" y2="407.964" gradientUnits="userSpaceOnUse">
<stop stop-color="#FF6279"/>
<stop offset="1" stop-color="#FFAD60"/>
</linearGradient>
<linearGradient id="paint8_linear" x1="236.795" y1="261.134" x2="319.658" y2="404.657" gradientUnits="userSpaceOnUse">
<stop stop-color="#F0F0FB"/>
<stop offset="1" stop-color="#D2D7F6"/>
</linearGradient>
<linearGradient id="paint9_linear" x1="363.496" y1="187.978" x2="446.366" y2="331.512" gradientUnits="userSpaceOnUse">
<stop stop-color="#F0F0FB"/>
<stop offset="1" stop-color="#D2D7F6"/>
</linearGradient>
<linearGradient id="paint10_linear" x1="314.22" y1="318.575" x2="310.135" y2="344.887" gradientUnits="userSpaceOnUse">
<stop stop-color="#8390AC"/>
<stop offset="0.9441" stop-color="#8390AC" stop-opacity="0"/>
</linearGradient>
<linearGradient id="paint11_linear" x1="299.67" y1="218.484" x2="295.186" y2="247.363" gradientUnits="userSpaceOnUse">
<stop stop-color="#8390AC"/>
<stop offset="0.9441" stop-color="#8390AC" stop-opacity="0"/>
</linearGradient>
<linearGradient id="paint12_linear" x1="317.245" y1="290.66" x2="334.312" y2="320.221" gradientUnits="userSpaceOnUse">
<stop stop-color="#FF6279"/>
<stop offset="1" stop-color="#FFAD60"/>
</linearGradient>
<linearGradient id="paint13_linear" x1="390.658" y1="172.292" x2="473.529" y2="315.83" gradientUnits="userSpaceOnUse">
<stop stop-color="#5752D0"/>
<stop offset="1" stop-color="#7F7CF9"/>
</linearGradient>
<linearGradient id="paint14_linear" x1="458.144" y1="200.365" x2="482.586" y2="242.699" gradientUnits="userSpaceOnUse">
<stop stop-color="#FFDFB9"/>
<stop offset="1" stop-color="#E83155"/>
</linearGradient>
<linearGradient id="paint15_linear" x1="494.946" y1="207.17" x2="465.183" y2="224.354" gradientUnits="userSpaceOnUse">
<stop stop-color="#FFDFB9"/>
<stop offset="1" stop-color="#E83155"/>
</linearGradient>
<linearGradient id="paint16_linear" x1="490.69" y1="209.627" x2="477.936" y2="216.991" gradientUnits="userSpaceOnUse">
<stop stop-color="#0085F2"/>
<stop offset="1" stop-color="#003286"/>
</linearGradient>
<linearGradient id="paint17_linear" x1="481.768" y1="206.21" x2="477.348" y2="222.705" gradientUnits="userSpaceOnUse">
<stop stop-color="#00D0FF"/>
<stop offset="1" stop-color="#007FD9"/>
</linearGradient>
<linearGradient id="paint18_linear" x1="458.144" y1="200.365" x2="482.586" y2="242.699" gradientUnits="userSpaceOnUse">
<stop offset="8e-08" stop-color="#C8D6F9"/>
<stop offset="1" stop-color="#BAC1E8"/>
</linearGradient>
<linearGradient id="paint19_linear" x1="469.842" y1="193.588" x2="494.157" y2="235.702" gradientUnits="userSpaceOnUse">
<stop stop-color="#F0F0FB"/>
<stop offset="1" stop-color="#D2D7F6"/>
</linearGradient>
<linearGradient id="paint20_linear" x1="472.86" y1="200.815" x2="489.363" y2="229.4" gradientUnits="userSpaceOnUse">
<stop stop-color="#FF6279"/>
<stop offset="1" stop-color="#FFAD60"/>
</linearGradient>
<linearGradient id="paint21_linear" x1="478.886" y1="187.209" x2="503.655" y2="230.11" gradientUnits="userSpaceOnUse">
<stop stop-color="#5752D0"/>
<stop offset="1" stop-color="#7F7CF9"/>
</linearGradient>
<linearGradient id="paint22_linear" x1="474.191" y1="186.766" x2="501.833" y2="234.643" gradientUnits="userSpaceOnUse">
<stop stop-color="#5752D0"/>
<stop offset="1" stop-color="#7F7CF9"/>
</linearGradient>
<linearGradient id="paint23_linear" x1="482.714" y1="181.521" x2="510.494" y2="229.638" gradientUnits="userSpaceOnUse">
<stop stop-color="#5752D0"/>
<stop offset="1" stop-color="#7F7CF9"/>
</linearGradient>
<linearGradient id="paint24_linear" x1="479.185" y1="182.261" x2="508.237" y2="232.581" gradientUnits="userSpaceOnUse">
<stop stop-color="#5752D0"/>
<stop offset="1" stop-color="#7F7CF9"/>
</linearGradient>
<linearGradient id="paint25_linear" x1="487.693" y1="177.008" x2="516.89" y2="227.579" gradientUnits="userSpaceOnUse">
<stop stop-color="#5752D0"/>
<stop offset="1" stop-color="#7F7CF9"/>
</linearGradient>
<linearGradient id="paint26_linear" x1="490.757" y1="175.566" x2="519.723" y2="225.737" gradientUnits="userSpaceOnUse">
<stop stop-color="#5752D0"/>
<stop offset="1" stop-color="#7F7CF9"/>
</linearGradient>
<linearGradient id="paint27_linear" x1="491.657" y1="177.148" x2="518.804" y2="224.166" gradientUnits="userSpaceOnUse">
<stop stop-color="#0085F2"/>
<stop offset="1" stop-color="#003286"/>
</linearGradient>
<linearGradient id="paint28_linear" x1="526.592" y1="222.282" x2="547.129" y2="145.633" gradientUnits="userSpaceOnUse">
<stop stop-color="#FF6279"/>
<stop offset="1" stop-color="#FFAD60"/>
</linearGradient>
<linearGradient id="paint29_linear" x1="574.649" y1="171.503" x2="588.719" y2="195.872" gradientUnits="userSpaceOnUse">
<stop stop-color="white"/>
<stop offset="0.0390585" stop-color="#F3F3F3"/>
<stop offset="0.3989" stop-color="#8D8D8D"/>
<stop offset="0.6885" stop-color="#414141"/>
<stop offset="0.8938" stop-color="#121212"/>
<stop offset="0.9961"/>
<stop offset="1"/>
</linearGradient>
<linearGradient id="paint30_linear" x1="560.593" y1="161.809" x2="572.382" y2="182.229" gradientUnits="userSpaceOnUse">
<stop stop-color="white"/>
<stop offset="0.0390585" stop-color="#F3F3F3"/>
<stop offset="0.3989" stop-color="#8D8D8D"/>
<stop offset="0.6885" stop-color="#414141"/>
<stop offset="0.8938" stop-color="#121212"/>
<stop offset="0.9961"/>
<stop offset="1"/>
</linearGradient>
<linearGradient id="paint31_linear" x1="568.899" y1="189.094" x2="578.084" y2="205.003" gradientUnits="userSpaceOnUse">
<stop stop-color="white"/>
<stop offset="0.0390585" stop-color="#F3F3F3"/>
<stop offset="0.3989" stop-color="#8D8D8D"/>
<stop offset="0.6885" stop-color="#414141"/>
<stop offset="0.8938" stop-color="#121212"/>
<stop offset="0.9961"/>
<stop offset="1"/>
</linearGradient>
<linearGradient id="paint32_linear" x1="557.821" y1="175.948" x2="566.892" y2="191.658" gradientUnits="userSpaceOnUse">
<stop stop-color="white"/>
<stop offset="0.0390585" stop-color="#F3F3F3"/>
<stop offset="0.3989" stop-color="#8D8D8D"/>
<stop offset="0.6885" stop-color="#414141"/>
<stop offset="0.8938" stop-color="#121212"/>
<stop offset="0.9961"/>
<stop offset="1"/>
</linearGradient>
<radialGradient id="paint33_radial" cx="0" cy="0" r="1" gradientUnits="userSpaceOnUse" gradientTransform="translate(565.43 166.747) rotate(60) scale(19.0596)">
<stop offset="8e-08" stop-color="white"/>
<stop offset="0.9961"/>
<stop offset="1"/>
</radialGradient>
<radialGradient id="paint34_radial" cx="0" cy="0" r="1" gradientUnits="userSpaceOnUse" gradientTransform="translate(567.083 165.788) rotate(60) scale(14.0574)">
<stop offset="8e-08" stop-color="white"/>
<stop offset="0.9961"/>
<stop offset="1"/>
</radialGradient>
<linearGradient id="paint35_linear" x1="505.951" y1="201.056" x2="553.468" y2="173.622" gradientUnits="userSpaceOnUse">
<stop offset="8e-08" stop-color="#3C61A1"/>
<stop offset="1" stop-color="white"/>
</linearGradient>
<radialGradient id="paint36_radial" cx="0" cy="0" r="1" gradientUnits="userSpaceOnUse" gradientTransform="translate(504.449 187.824) rotate(60) scale(2.78676)">
<stop stop-color="white"/>
<stop offset="0.9961"/>
<stop offset="1"/>
</radialGradient>
<radialGradient id="paint37_radial" cx="0" cy="0" r="1" gradientUnits="userSpaceOnUse" gradientTransform="translate(512.527 183.16) rotate(60) scale(2.79076)">
<stop stop-color="white"/>
<stop offset="0.9961"/>
<stop offset="1"/>
</radialGradient>
<radialGradient id="paint38_radial" cx="0" cy="0" r="1" gradientUnits="userSpaceOnUse" gradientTransform="translate(520.594 178.503) rotate(60) scale(2.78676)">
<stop stop-color="white"/>
<stop offset="0.9961"/>
<stop offset="1"/>
</radialGradient>
<radialGradient id="paint39_radial" cx="0" cy="0" r="1" gradientUnits="userSpaceOnUse" gradientTransform="translate(528.676 173.837) rotate(60) scale(2.79076)">
<stop stop-color="white"/>
<stop offset="0.9961"/>
<stop offset="1"/>
</radialGradient>
<radialGradient id="paint40_radial" cx="0" cy="0" r="1" gradientUnits="userSpaceOnUse" gradientTransform="translate(537.383 170.296) rotate(60) scale(2.78681)">
<stop stop-color="white"/>
<stop offset="0.9961"/>
<stop offset="1"/>
</radialGradient>
<radialGradient id="paint41_radial" cx="0" cy="0" r="1" gradientUnits="userSpaceOnUse" gradientTransform="translate(545.524 173.436) rotate(60) scale(2.79076)">
<stop stop-color="white"/>
<stop offset="0.9961"/>
<stop offset="1"/>
</radialGradient>
<radialGradient id="paint42_radial" cx="0" cy="0" r="1" gradientUnits="userSpaceOnUse" gradientTransform="translate(516.68 209.01) rotate(60) scale(2.78676)">
<stop stop-color="white"/>
<stop offset="0.9961"/>
<stop offset="1"/>
</radialGradient>
<radialGradient id="paint43_radial" cx="0" cy="0" r="1" gradientUnits="userSpaceOnUse" gradientTransform="translate(524.759 204.346) rotate(60) scale(2.79076)">
<stop stop-color="white"/>
<stop offset="0.9961"/>
<stop offset="1"/>
</radialGradient>
<radialGradient id="paint44_radial" cx="0" cy="0" r="1" gradientUnits="userSpaceOnUse" gradientTransform="translate(532.826 199.689) rotate(60) scale(2.78676)">
<stop stop-color="white"/>
<stop offset="0.9961"/>
<stop offset="1"/>
</radialGradient>
<radialGradient id="paint45_radial" cx="0" cy="0" r="1" gradientUnits="userSpaceOnUse" gradientTransform="translate(540.907 195.023) rotate(60) scale(2.79076)">
<stop stop-color="white"/>
<stop offset="0.9961"/>
<stop offset="1"/>
</radialGradient>
<radialGradient id="paint46_radial" cx="0" cy="0" r="1" gradientUnits="userSpaceOnUse" gradientTransform="translate(548.325 189.249) rotate(60) scale(2.78681)">
<stop stop-color="white"/>
<stop offset="0.9961"/>
<stop offset="1"/>
</radialGradient>
<radialGradient id="paint47_radial" cx="0" cy="0" r="1" gradientUnits="userSpaceOnUse" gradientTransform="translate(549.678 180.631) rotate(60) scale(2.78916)">
<stop stop-color="white"/>
<stop offset="0.9961"/>
<stop offset="1"/>
</radialGradient>
<linearGradient id="paint48_linear" x1="502.195" y1="117.771" x2="584.844" y2="260.921" gradientUnits="userSpaceOnUse">
<stop stop-color="#5752D0"/>
<stop offset="1" stop-color="#7F7CF9"/>
</linearGradient>
<linearGradient id="paint49_linear" x1="520.416" y1="107.251" x2="603.064" y2="250.402" gradientUnits="userSpaceOnUse">
<stop stop-color="#5752D0"/>
<stop offset="1" stop-color="#7F7CF9"/>
</linearGradient>
<linearGradient id="paint50_linear" x1="533.654" y1="172.259" x2="583.388" y2="258.4" gradientUnits="userSpaceOnUse">
<stop stop-color="#5752D0"/>
<stop offset="1" stop-color="#7F7CF9"/>
</linearGradient>
<linearGradient id="paint51_linear" x1="290.91" y1="455.585" x2="289.174" y2="469.549" gradientUnits="userSpaceOnUse">
<stop stop-color="#FF6279"/>
<stop offset="1" stop-color="#FFAD60"/>
</linearGradient>
</defs>
</svg>
