<svg width="103" height="122" viewBox="0 0 103 122" fill="none" xmlns="http://www.w3.org/2000/svg">
<path d="M86.9138 78.3518C66.7415 68.591 34.531 69.2417 14.6841 79.3278C-5.16284 89.414 -4.83749 105.682 15.3348 115.117C35.507 124.553 67.7176 124.227 87.5645 114.141C107.086 104.055 106.761 87.7872 86.9138 78.3518Z" fill="white"/>
<path d="M86.2631 78.3516C66.4162 68.9162 34.531 69.2415 15.0094 79.3277C-4.51214 89.4138 -4.18676 105.356 15.6601 114.792C35.5071 124.227 67.3922 123.902 86.9138 113.816C106.761 103.73 106.435 87.787 86.2631 78.3516Z" fill="#FCFCFC"/>
<path d="M85.9377 78.6772C66.4162 69.2418 34.531 69.8925 15.3348 79.6533C-3.86143 89.7394 -3.53605 105.357 15.9855 114.792C35.507 124.227 67.3922 123.577 86.5884 113.816C106.11 103.73 105.785 88.1126 85.9377 78.6772Z" fill="#F9F9FA"/>
<path d="M85.6123 78.6772C66.0907 69.2418 34.8562 69.8925 15.9854 79.6533C-3.21078 89.414 -2.88543 105.031 16.6361 114.467C36.1577 123.902 67.3922 123.251 86.263 113.491C105.459 103.73 105.134 88.1126 85.6123 78.6772Z" fill="#F6F6F7"/>
<path d="M85.2869 79.0024C66.0907 69.8923 35.1816 70.2177 16.3108 79.9785C-2.56006 89.7393 -2.23471 105.031 16.9615 114.467C36.1577 123.577 67.0668 123.251 85.9376 113.49C104.808 103.73 104.483 88.1124 85.2869 79.0024Z" fill="#F3F3F4"/>
<path d="M84.9615 79.3276C66.0907 70.2175 35.5069 70.5429 16.6361 80.3037C-1.90936 90.0644 -1.58399 105.031 17.2868 114.141C36.1577 123.251 66.7414 122.926 85.6123 113.165C104.158 103.404 103.832 88.4376 84.9615 79.3276Z" fill="#F0F0F2"/>
<path d="M84.3109 79.3277C65.4401 70.2177 35.1817 70.8684 16.9616 80.3038C-1.58392 89.7392 -1.25855 104.706 17.6123 113.816C36.4831 122.926 66.7415 122.275 84.9616 112.84C103.507 103.404 103.182 88.4378 84.3109 79.3277Z" fill="#EDEEEF"/>
<path d="M83.9856 79.6531C65.4401 70.8684 35.507 71.1938 17.2869 80.6292C-0.93319 90.0646 -0.607841 105.031 17.9376 113.816C36.4831 122.6 66.4162 122.275 84.6363 112.84C102.856 103.404 102.531 88.4378 83.9856 79.6531Z" fill="#EAEBEC"/>
<path d="M83.6603 79.6533C65.4402 70.8686 35.8325 71.5194 17.9377 80.6294C0.0429688 89.7395 0.368318 104.706 18.5884 113.491C36.8085 122.275 66.4162 121.95 84.6364 112.515C102.206 103.405 102.206 88.438 83.6603 79.6533Z" fill="#E7E8EA"/>
<path d="M83.3347 79.9786C65.1146 71.1939 36.1577 71.8446 18.2629 80.9547C0.368151 90.0647 0.693526 104.706 18.9136 113.491C37.1338 122.275 66.0907 121.625 83.9855 112.515C101.88 103.079 101.555 88.7633 83.3347 79.9786Z" fill="#E4E5E7"/>
<path d="M83.0094 80.3037C65.1146 71.8444 36.1577 72.1697 18.5883 81.2798C1.01887 90.3899 1.34425 104.706 19.239 113.165C37.1338 121.624 66.0907 121.299 83.6601 112.189C101.229 103.079 100.904 88.7631 83.0094 80.3037Z" fill="#E1E2E4"/>
<path d="M82.6841 80.3037C65.1147 71.8444 36.4831 72.1697 19.2391 81.2798C1.99502 90.3899 1.99501 104.38 19.8898 112.84C37.4592 121.299 66.0908 120.974 83.3348 111.864C100.579 103.079 100.253 88.7631 82.6841 80.3037Z" fill="#DFDFE2"/>
<path d="M82.0334 80.6291C64.464 72.1698 36.4831 72.8205 19.2391 81.6052C1.99505 90.3899 2.3204 104.38 19.8898 112.84C37.4592 121.299 65.4401 120.648 82.6841 111.864C99.9282 103.079 99.6028 89.0885 82.0334 80.6291Z" fill="#DCDCDF"/>
<path d="M81.708 80.9545C64.464 72.8205 36.8085 73.1459 19.5644 81.9306C2.32039 90.7153 2.9711 104.38 20.2151 112.84C37.4592 120.974 65.1147 120.648 82.3587 111.864C99.2774 102.754 98.9521 89.0884 81.708 80.9545Z" fill="#D9D9DC"/>
<path d="M81.3827 80.9545C64.464 72.8205 36.8085 73.1459 20.2152 81.9306C3.62184 90.7153 3.62185 104.38 20.8659 112.514C37.7846 120.648 65.4401 120.323 82.0334 111.538C98.6267 102.754 98.3014 89.0884 81.3827 80.9545Z" fill="#D6D6DA"/>
<path d="M81.0573 81.2798C64.1386 73.1458 37.1338 73.4712 20.5405 82.2559C3.94713 90.7152 4.27248 104.38 21.1912 112.189C38.1098 120.323 65.1146 119.998 81.708 111.213C98.3013 102.428 97.9759 89.4138 81.0573 81.2798Z" fill="#D3D3D7"/>
<path d="M80.732 81.28C64.1387 73.4714 37.4592 73.7968 21.1913 82.2561C4.9233 90.7155 5.24865 104.055 21.842 111.864C38.4353 119.672 65.1147 119.347 81.3827 110.888C97.6507 102.754 97.3253 89.414 80.732 81.28Z" fill="#D0D1D4"/>
<path d="M80.0813 81.6054C63.8133 73.7967 37.1339 74.1221 21.1913 82.5814C5.24869 91.0408 5.24868 104.055 21.842 111.864C38.11 119.672 64.7894 119.347 80.732 110.888C97 102.428 96.6746 89.414 80.0813 81.6054Z" fill="#CDCED2"/>
<path d="M79.7559 81.9306C63.4879 74.1219 37.4592 74.4473 21.5166 82.9066C5.57402 91.0406 5.89939 104.055 22.1674 111.864C38.4353 119.672 64.464 119.347 80.4066 110.888C96.3492 102.428 96.0239 89.4138 79.7559 81.9306Z" fill="#CACBCF"/>
<path d="M79.4304 81.9308C63.4878 74.4475 37.7844 74.7729 22.1672 82.9068C6.54996 91.0408 6.87531 103.73 22.8179 111.538C38.7605 119.022 64.4639 118.696 80.0811 110.562C95.6984 102.428 95.373 89.7394 79.4304 81.9308Z" fill="#C7C8CC"/>
<path d="M79.1051 82.256C63.4879 74.7728 38.1099 75.0981 22.4926 83.2321C6.8754 91.3661 7.20075 103.73 23.1433 111.213C38.7606 118.696 64.1386 118.371 79.7559 110.237C95.0477 102.428 94.7224 89.7393 79.1051 82.256Z" fill="#C4C5CA"/>
<path d="M78.7798 82.256C63.1625 74.7728 38.1099 75.0981 23.1434 83.2321C8.17686 91.3661 8.17687 103.404 23.7941 110.888C39.4114 118.371 64.464 118.046 79.4305 109.912C94.397 102.103 94.397 89.7393 78.7798 82.256Z" fill="#C1C2C7"/>
<path d="M40.0621 21.4139C60.8851 21.4139 62.5118 40.6101 70.6458 49.0695C75.5262 54.2752 86.9138 54.2752 93.0956 66.6389C103.832 87.4618 87.8899 104.055 81.708 107.309C74.2248 111.538 66.4162 114.792 58.2822 115.443C46.2439 116.419 4.59792 112.84 10.129 77.3757C12.4065 64.036 24.4448 21.4139 40.0621 21.4139Z" fill="url(#paint0_linear)"/>
<path d="M10.1291 77.7012C12.4066 64.0361 23.4688 27.9213 34.8564 22.7155C33.8803 24.017 29.3253 26.2945 27.3731 34.4285C26.3971 38.9835 30.6267 42.5624 32.5789 46.7921C33.555 48.7442 36.4832 51.9978 30.6267 54.2754C20.2152 57.8543 7.52623 81.6055 23.1435 89.0888C31.6028 93.3185 41.689 99.5003 50.1483 105.031C67.067 117.72 84.6364 84.5337 96.3493 84.5337C95.0479 96.8974 85.6124 105.682 81.3828 107.96C73.8995 112.189 66.0909 115.443 57.9569 116.094C46.244 116.744 4.598 113.165 10.1291 77.7012Z" fill="#5752D0"/>
<path d="M46.8948 62.7347C72.2728 59.1557 79.756 68.5912 79.756 74.1223C80.0814 81.6055 68.0431 85.8352 59.9091 85.1845C54.378 84.8591 53.0766 81.9309 49.1723 78.0266C41.3636 70.2179 27.0479 79.6534 27.0479 74.4476C27.0479 70.5433 39.7369 63.7108 46.8948 62.7347Z" fill="#5752D0"/>
<path d="M91.1436 96.2463C93.0957 96.897 98.9522 96.897 100.579 98.1985C102.206 99.8253 100.254 101.127 97.9761 101.777C95.6986 102.103 94.0718 102.103 93.0957 101.777C92.1197 101.452 89.5168 101.127 86.5886 101.452C84.311 101.777 83.6603 99.8253 83.6603 99.1745C83.6603 98.1985 83.335 95.9209 83.335 95.9209L89.8421 93.9688C90.4929 93.6434 90.4929 95.921 91.1436 96.2463Z" fill="#201778"/>
<path d="M90.8181 62.7346C91.7942 68.9165 91.1435 90.7155 91.1435 93.9691C91.1435 95.5959 83.3349 98.5241 82.6842 94.9452C80.4067 82.5815 81.3827 67.2897 81.3827 65.6629C81.3827 60.4571 90.1674 58.8303 90.8181 62.7346Z" fill="#0D0848"/>
<path d="M58.6077 51.0215C71.2967 52.323 87.2393 58.5048 88.5407 59.4809C94.0718 63.3852 89.5168 69.567 85.6125 69.2416C82.6843 69.2416 56.9809 67.9402 54.378 66.3134C43.9665 61.433 48.5216 50.3708 58.6077 51.0215Z" fill="#0D0848"/>
<path d="M69.019 104.055C69.019 102.754 69.6698 101.778 69.6698 101.778L75.5262 102.754C75.5262 102.754 75.8516 103.404 75.5262 104.055C75.5262 104.38 75.8516 107.959 76.177 109.586C76.5023 111.213 76.5023 114.141 74.5502 114.792C72.2727 115.443 71.6219 114.792 69.9951 113.165C68.3683 111.213 68.3683 109.586 68.6937 108.61C69.0191 107.634 68.6937 105.031 69.019 104.055Z" fill="#201778"/>
<path d="M69.9952 72.4952C70.9713 67.6148 82.0335 66.6387 82.0335 70.8684C82.0335 77.0502 77.1531 99.5 76.5024 102.754C76.177 104.38 68.3684 105.031 68.3684 101.452C68.3684 88.4378 69.6698 74.122 69.9952 72.4952Z" fill="#3531A1"/>
<path d="M52.751 54.9259C65.1146 57.8541 78.7797 65.9881 80.0812 67.2896C84.9616 72.17 78.7797 78.6771 74.8754 78.0264C71.9472 77.3757 48.8467 71.1939 45.9185 69.8924C37.1338 64.6867 43.3156 52.6484 52.751 54.9259Z" fill="#3531A1"/>
<path d="M89.842 39.3084C90.1673 39.3084 92.1195 38.983 92.7702 39.3084C93.4209 39.6337 95.0477 39.6337 95.3731 39.3084C96.6745 38.6577 98.3013 39.3084 97.9759 38.3323C97.6506 37.6816 96.6745 37.6816 96.0238 37.6816C95.6984 37.6816 95.3731 37.6816 95.3731 37.3562C96.0238 36.3801 100.253 35.0787 100.579 34.428C100.579 33.7773 99.9281 34.1026 99.9281 34.1026C98.3013 34.1026 97.9759 32.4758 96.3492 32.8012C95.0477 33.1266 92.7702 34.428 92.1195 34.7534C91.4688 35.0787 88.5405 35.7294 88.5405 35.7294L89.842 39.3084Z" fill="#FFD1AA"/>
<path d="M95.0478 34.1029C96.3492 33.4522 96.9999 35.079 98.6267 34.7537C98.9521 34.7537 99.2775 34.7537 99.2775 35.079C99.2775 35.4044 95.0478 37.3566 94.7224 38.0073C94.7224 38.3326 95.0478 38.3326 95.0478 38.3326C95.3731 38.0073 95.6985 38.0073 96.0239 38.0073C95.6985 38.0073 95.3731 38.0073 95.6985 37.6819C96.3492 36.7058 100.579 35.4044 100.904 34.7537C100.904 34.103 100.254 34.4283 100.254 34.4283C98.6267 34.4283 98.3014 32.8015 96.6746 33.1269C95.3731 33.4522 93.0956 34.7537 92.4449 35.079C91.7942 35.4044 88.866 36.0551 88.866 36.0551C88.866 36.0551 88.866 36.3805 89.1913 37.0312C89.842 36.7058 92.1196 37.6819 92.4449 37.6819C93.421 37.3566 91.7942 35.7297 95.0478 34.1029Z" fill="#FFB78D"/>
<path d="M73.2487 40.9353C79.7559 38.007 89.8421 35.0788 89.8421 35.0788C89.8421 35.0788 92.7703 36.0549 92.4449 39.9592C92.4449 39.9592 81.7081 46.4664 75.2009 47.4425C68.6937 48.7439 69.6698 42.5621 73.2487 40.9353Z" fill="#D2D7F6"/>
<path d="M63.1625 22.0646C61.8611 23.6914 59.9089 26.945 62.8372 34.4282C65.7654 41.9115 69.019 45.8158 70.3204 46.4665C71.6218 47.4426 77.153 48.4187 75.8515 41.9115C74.2247 33.4521 69.6697 24.6674 69.3443 23.6914C68.0429 20.4378 64.464 20.1124 63.1625 22.0646Z" fill="#D2D7F6"/>
<path d="M63.8133 17.8349C63.8133 17.8349 60.5597 15.2321 56.6554 15.2321C52.7511 15.2321 52.7511 15.8828 53.0765 16.5335C53.4018 17.1842 53.0764 18.811 54.3779 18.811C55.6793 19.1364 63.488 20.7632 64.464 20.1124C65.1148 19.7871 63.8133 17.8349 63.8133 17.8349Z" fill="#E2E2E7"/>
<path d="M55.0286 18.1602C55.0286 18.1602 50.1482 17.8349 46.5693 22.3899C42.9903 26.6196 43.3157 56.878 42.3396 60.1316C42.3396 60.1316 56.33 61.1076 65.7655 56.878C65.7655 56.878 66.7415 30.8492 67.3922 28.5717C67.7176 26.6196 67.3923 19.4617 62.8372 18.811C58.2822 18.1602 55.0286 18.1602 55.0286 18.1602Z" fill="url(#paint1_linear)"/>
<path d="M59.2582 53.95C60.5597 52.3232 60.5597 49.7203 58.2822 48.7442C56.33 47.7681 54.0525 48.4188 52.1003 48.4188L54.0525 39.6341C56.6554 40.2849 59.2582 38.0074 60.5597 36.0552C61.5358 34.7538 62.1865 33.127 62.5118 31.5002C62.8372 29.548 61.8611 27.5959 61.5358 25.6437C61.2104 24.0169 61.5358 22.0647 60.5597 20.438C59.909 19.4619 58.9329 18.8112 58.2822 17.8351C59.5836 17.8351 61.2104 17.8351 63.1626 18.4858C67.7176 19.4619 68.043 26.6198 67.7176 28.2466C67.3922 30.1987 66.0908 56.5528 66.0908 56.5528C61.8611 58.505 56.6554 58.505 52.4257 58.1796H52.7511C56.0046 57.5289 57.3061 56.2275 59.2582 53.95Z" fill="#D2D7F6"/>
<path d="M63.1625 18.4854C63.1625 18.4854 61.8611 21.0883 60.2343 20.7629C58.2822 20.7629 55.6793 19.4615 55.0286 18.16C55.0286 18.16 57.9568 15.8825 57.6314 12.9543C57.3061 10.026 63.8133 15.2318 63.1625 18.4854Z" fill="#FFB78D"/>
<path d="M65.1146 4.82042C65.1146 4.82042 66.0907 6.44721 66.0907 7.74865C66.0907 9.05009 65.7653 9.05009 66.0907 11.0022C66.4161 12.9544 65.7653 15.2319 63.8132 16.5333C61.861 17.8348 58.6074 15.2319 57.306 13.2798C56.6553 11.9783 55.6792 10.6769 55.6792 7.42329C55.6792 4.1697 60.885 0.590754 65.1146 4.82042Z" fill="#FFD1AA"/>
<path d="M55.6792 2.86835C55.6792 2.86835 57.306 2.54299 59.5835 5.14587C61.861 8.0741 63.1625 5.14587 65.44 5.79659C68.0428 6.44731 67.0668 8.0741 67.0668 8.0741C67.0668 8.0741 69.3443 5.47122 66.0907 2.86835C62.8371 0.265477 57.6314 -2.01204 55.6792 2.86835Z" fill="#1D1273"/>
<path d="M55.6794 2.86839C55.6794 2.86839 53.0766 2.54303 53.4019 6.12198C53.7273 9.70093 55.0287 9.70094 55.3541 11.9785C55.3541 11.9785 57.9569 11.3277 59.2584 9.37557C60.5598 7.42341 60.2345 6.44734 59.9091 5.79662C59.5837 5.1459 56.0048 1.89231 55.6794 2.86839Z" fill="#1D1273"/>
<path d="M57.6314 10.6771C57.6314 10.6771 57.306 10.0264 56.3299 10.0264C55.3539 10.0264 55.3538 10.6771 55.6792 11.9785C56.0046 13.28 56.9806 13.6053 57.306 13.9307C57.6314 14.256 58.2821 14.256 58.2821 12.9546C58.6074 11.6532 57.6314 10.6771 57.6314 10.6771Z" fill="#FFD1AA"/>
<path d="M56.9808 15.5572C56.9808 15.5572 52.7511 14.9065 53.7272 16.8587C54.3779 18.8108 56.9808 22.0644 57.9569 24.3419C59.2583 27.5955 56.9808 37.6816 57.9569 47.117C58.9329 55.251 64.7894 59.1553 64.7894 59.1553C55.0286 59.1553 49.4975 74.7726 38.1099 68.5908C38.1099 68.5908 37.7846 44.8395 44.9425 25.6433C45.9186 23.3658 45.9186 21.4137 49.8229 19.4615C54.3779 17.184 52.7511 15.8826 54.3779 15.2319C55.0286 14.9065 57.3061 14.5811 57.9569 14.9065L56.9808 15.5572Z" fill="url(#paint2_linear)"/>
<path d="M63.8134 17.8351C63.8134 17.8351 64.1387 19.7872 63.1627 21.7394C62.8373 22.7155 63.1627 23.6915 63.1627 24.0169C65.7655 35.0791 64.7895 50.371 65.4402 53.95C66.0909 58.8303 71.622 58.1796 71.622 58.1796C71.622 58.1796 73.8995 59.1557 78.7799 55.9021C78.7799 55.9021 69.9952 51.6724 69.9952 43.2131C69.9952 34.7538 70.9713 27.9212 69.3445 24.0169C67.7177 20.1126 65.7655 20.7633 63.8134 17.8351Z" fill="url(#paint3_linear)"/>
<path d="M77.153 63.3853L81.708 60.7824C82.0333 60.4571 82.6841 60.4571 83.0094 60.7824L86.5884 62.7346C86.9137 63.0599 86.9137 63.3853 86.5884 63.3853L82.0333 65.9882C81.708 66.3135 81.0573 66.3135 80.7319 65.9882L77.153 64.036C76.8276 63.7106 76.8276 63.3853 77.153 63.3853Z" fill="white"/>
<path d="M53.0764 62.0839L78.7797 46.4666C79.1051 46.1413 79.7558 46.1413 80.0812 46.4666L98.3013 57.2035C98.6266 57.5288 98.6266 57.8542 98.3013 57.8542L72.5979 73.4714C72.2726 73.7968 71.6218 73.7968 71.2965 73.4714L53.0764 62.7346C52.751 62.4092 52.4257 62.0839 53.0764 62.0839Z" fill="#BAC1E8"/>
<path d="M76.8277 53.9497C77.153 53.9497 77.153 54.6005 76.8277 54.6005L67.3923 60.4569H67.0669L61.2104 57.2033L70.9712 51.3469L76.8277 53.9497Z" fill="#CFCFED"/>
<path d="M76.1768 53.9498L70.9711 51.3469L71.2964 51.0215L77.1529 53.9498C77.4782 53.9498 77.4782 54.6005 77.1529 54.6005L67.7175 60.457H67.3921L76.5022 54.9258C76.5022 54.2751 76.5022 53.9498 76.1768 53.9498Z" fill="url(#paint4_linear)"/>
<path d="M53.0764 62.7344L71.2965 73.4713C71.2965 73.4713 71.2965 73.4713 71.6218 73.4713L97.3252 57.854V58.5047L71.6218 74.122C71.6218 74.122 71.6218 74.122 71.2965 74.122L53.0764 63.3851C52.751 63.0597 52.751 63.0598 53.0764 62.7344L52.751 62.409C52.751 62.409 52.751 62.7344 53.0764 62.7344Z" fill="url(#paint5_linear)"/>
<path d="M61.861 65.0122C61.861 65.3376 61.861 65.3376 61.861 65.3376L62.8371 65.9883L63.4878 65.6629V65.9883L64.4639 66.639L65.4399 65.9883V65.6629L66.416 65.0122V65.3376L67.0667 65.6629L64.4639 67.2897L63.4878 66.639V66.9644L64.4639 67.6151V67.9404L65.4399 68.5912V68.9165L66.416 69.5672L66.7414 69.2419V69.5672L67.7175 70.218V70.5433L68.6935 71.194L69.6696 70.5433V70.218L70.6457 69.5672V69.2419L71.6218 68.5912V68.2658L72.5979 67.6151V67.2897L73.5739 66.639V66.3136L81.0572 61.7586V61.4333L82.0333 60.7826V60.4572L83.0093 59.8065V59.4811L83.9854 58.8304V58.505L84.9615 57.8543V57.529L83.9854 58.1797L83.0093 57.529V57.8543L83.6601 58.1797L82.684 58.8304L81.7079 58.1797H82.0333V57.8543L82.684 57.529V57.2036L83.9854 56.5529V56.2275L85.2869 57.2036L86.2629 56.5529V56.2275L85.2869 56.8782L83.0093 55.5768L83.6601 55.2514V54.9261L82.684 55.5768L80.4065 54.2754L81.0572 53.95V53.6246L79.7558 54.2754L78.7797 53.6246L79.7558 52.9739V52.6486L75.8515 54.9261L74.8754 54.2754L75.5261 53.95V53.6246L76.5022 52.9739V52.6486L77.4783 51.9978V51.6725L76.5022 52.3232L75.5261 51.6725V51.9978L76.1768 52.3232L75.2007 52.9739L74.2247 52.3232V52.6486L74.8754 52.9739L73.8993 53.6246L72.9232 52.9739V53.2993L73.5739 53.6246L72.5979 54.2754L71.6218 53.6246V53.95L72.2725 54.2754L71.2964 54.9261L70.3203 54.2754V54.6007L70.9711 54.9261L69.995 55.5768L69.0189 54.9261V55.2514L69.6696 55.5768L68.6935 56.2275L67.7175 55.5768V55.9022L68.3682 56.2275L67.3921 56.8782L66.416 56.2275V56.5529L67.0667 56.8782L66.0907 57.529L65.1146 56.8782V57.2036L65.7653 57.529L64.7892 58.1797L63.8132 57.529V57.8543L64.4639 58.1797L63.4878 58.8304L62.5117 58.1797V58.505L63.1624 58.8304L62.1864 59.4811L61.2103 58.8304V59.1558L61.861 59.4811L60.8849 60.1318L59.9089 59.4811V59.8065L60.5596 60.1318L59.5835 60.7826L63.4878 64.3615V64.6869L64.1385 65.0122L63.1624 65.6629L61.861 65.0122C61.861 65.3376 61.861 65.0122 61.861 65.0122ZM83.6601 55.2514C83.6601 55.2514 83.6601 54.9261 83.6601 55.2514L83.9854 54.9261L84.9615 54.2754V54.6007L85.9376 55.2514L86.2629 54.9261V55.2514L87.239 55.9022V56.2275L87.8897 56.5529L86.2629 57.529L85.2869 56.8782L86.2629 56.2275V55.9022L83.9854 57.2036L83.0093 56.5529L83.3347 56.2275V55.9022L83.6601 56.2275V55.9022V55.2514Z" fill="#BAC1E8"/>
<path d="M89.5166 54.9257V54.6003L90.8181 55.2511L89.5166 55.9018L88.5405 55.2511L89.5166 54.9257Z" fill="url(#paint6_linear)"/>
<path d="M87.8897 54.2754C88.2151 53.95 88.2151 53.95 88.2151 53.95L88.5404 53.6246V53.95L89.5165 54.6007L88.2151 55.2514L87.239 54.6007L87.8897 54.2754Z" fill="url(#paint7_linear)"/>
<path d="M86.9137 53.6246L87.8898 54.2754L86.5884 54.9261L85.6123 54.2754L86.9137 53.6246Z" fill="url(#paint8_linear)"/>
<path d="M84.6362 57.5289C84.9616 57.5289 84.9616 57.5289 84.6362 57.5289C84.9616 57.5289 84.9616 57.5289 84.6362 57.5289C84.9616 57.5289 84.9616 57.5289 84.6362 57.5289C84.9616 57.5289 84.9616 57.5289 84.6362 57.5289C84.9616 57.5289 84.9616 57.5289 84.6362 57.5289C84.9616 57.5289 84.9616 57.5289 84.6362 57.5289C84.9616 57.5289 84.9616 57.5289 84.6362 57.5289C84.9616 57.5289 84.9616 57.5289 84.6362 57.5289C84.9616 57.5289 84.9616 57.5289 84.6362 57.5289C84.9616 57.5289 84.9616 57.5289 84.9616 57.5289L86.263 56.8782V57.2036L86.9137 57.5289L85.9377 58.1796L84.6362 57.5289C84.6362 57.8543 84.6362 57.8543 84.6362 57.5289C84.6362 57.8543 84.6362 57.8543 84.6362 57.5289C84.6362 57.8543 84.6362 57.8543 84.6362 57.5289Z" fill="url(#paint9_linear)"/>
<path d="M83.9855 60.1314C83.9855 59.8061 83.9855 59.8061 83.9855 60.1314C83.9855 59.8061 83.9855 59.8061 83.9855 60.1314C83.9855 59.8061 83.9855 59.8061 83.9855 60.1314C83.9855 59.8061 83.9855 59.8061 83.9855 60.1314V59.8061V60.1314C83.9855 59.8061 83.9855 59.8061 83.9855 60.1314C83.9855 59.8061 83.9855 59.8061 83.9855 60.1314C83.9855 59.8061 83.9855 59.8061 83.9855 60.1314C83.9855 59.8061 84.3109 59.8061 83.9855 60.1314C84.3109 59.8061 84.3109 59.8061 83.9855 60.1314C84.3109 59.8061 84.3109 59.8061 83.9855 60.1314C84.3109 59.8061 84.3109 59.8061 83.9855 60.1314C84.3109 59.8061 84.3109 59.8061 84.3109 59.8061L84.9616 59.4807V59.8061L85.6123 60.1314L84.6362 60.7822L83.6602 60.1314H83.9855Z" fill="url(#paint10_linear)"/>
<path d="M82.3586 61.1077C82.3586 60.7823 82.3586 60.7823 82.3586 61.1077C82.3586 60.7823 82.3586 60.7823 82.3586 61.1077C82.3586 60.7823 82.3586 60.7823 82.3586 61.1077C82.3586 60.7823 82.3586 60.7823 82.3586 61.1077V60.7823V61.1077C82.3586 60.7823 82.3586 60.7823 82.3586 61.1077C82.3586 60.7823 82.3586 60.7823 82.3586 61.1077C82.3586 60.7823 82.3586 60.7823 82.3586 61.1077C82.6839 60.7823 82.6839 60.7823 82.3586 61.1077C82.6839 60.7823 82.6839 60.7823 82.3586 61.1077C82.6839 60.7823 82.6839 60.7823 82.3586 61.1077C82.6839 60.7823 82.6839 60.7823 82.3586 61.1077C82.6839 60.7823 82.6839 60.7823 82.6839 60.7823L83.3346 60.457V60.7823L83.9854 61.1077L83.0093 61.7584L82.0332 61.1077H82.3586Z" fill="url(#paint11_linear)"/>
<path d="M80.7319 62.084C80.7319 62.084 80.7319 61.7586 80.7319 62.084C80.7319 61.7586 80.7319 61.7586 80.7319 62.084C80.7319 61.7586 80.7319 61.7586 80.7319 62.084C80.7319 61.7586 80.7319 61.7586 80.7319 62.084C80.7319 61.7586 80.7319 61.7586 80.7319 62.084V61.7586V62.084C80.7319 61.7586 80.7319 61.7586 80.7319 62.084C80.7319 61.7586 80.7319 61.7586 80.7319 62.084C81.0572 61.7586 81.0572 61.7586 80.7319 62.084C81.0572 61.7586 81.0572 61.7586 80.7319 62.084C81.0572 61.7586 81.0572 61.7586 80.7319 62.084C81.0572 61.7586 81.0572 61.7586 80.7319 62.084C81.0572 61.7586 81.0572 61.7586 80.7319 62.084C81.0572 61.7586 81.0572 61.7586 80.7319 62.084C81.0572 61.7586 81.0572 61.7586 81.0572 61.7586L81.7079 61.4332V61.7586L82.3587 62.084L81.3826 62.7347L80.4065 62.084H80.7319Z" fill="url(#paint12_linear)"/>
<path d="M79.1052 63.0598C79.1052 62.7344 79.1052 62.7344 79.1052 63.0598C79.1052 62.7344 79.1052 62.7344 79.1052 63.0598C79.1052 62.7344 79.1052 62.7344 79.1052 63.0598C79.1052 62.7344 79.1052 62.7344 79.1052 63.0598C79.1052 62.7344 79.1052 62.7344 79.1052 63.0598V62.7344V63.0598C79.1052 62.7344 79.1052 62.7344 79.1052 63.0598C79.4305 62.7344 79.4305 62.7344 79.1052 63.0598C79.4305 62.7344 79.4305 62.7344 79.1052 63.0598C79.4305 62.7344 79.4305 62.7344 79.1052 63.0598C79.4305 62.7344 79.4305 62.7344 79.1052 63.0598C79.4305 62.7344 79.4305 62.7344 79.1052 63.0598C79.4305 62.7344 79.4305 62.7344 79.1052 63.0598C79.4305 62.7344 79.4305 62.7344 79.1052 63.0598C79.4305 62.7344 79.4305 62.7344 79.4305 62.7344L80.0812 62.4091V62.7344L80.732 63.0598L79.7559 63.7105L78.7798 63.0598H79.1052Z" fill="url(#paint13_linear)"/>
<path d="M77.4782 64.036C77.4782 63.7107 77.4782 63.7107 77.4782 64.036C77.4782 63.7107 77.4782 63.7107 77.4782 64.036C77.4782 63.7107 77.4782 63.7107 77.4782 64.036C77.4782 63.7107 77.4782 63.7107 77.4782 64.036C77.4782 63.7107 77.4782 63.7107 77.4782 64.036C77.4782 63.7107 77.4782 63.7107 77.4782 64.036V63.7107V64.036C77.4782 63.7107 77.8036 63.7107 77.4782 64.036C77.8036 63.7107 77.8036 63.7107 77.4782 64.036C77.8036 63.7107 77.8036 63.7107 77.4782 64.036C77.8036 63.7107 77.8036 63.7107 77.4782 64.036C77.8036 63.7107 77.8036 63.7107 77.4782 64.036C77.8036 63.7107 77.8036 63.7107 77.4782 64.036C77.8036 63.7107 77.8036 63.7107 77.4782 64.036C77.8036 63.7107 77.8036 63.7107 77.8036 63.7107L78.4543 63.3853V63.7107L79.105 64.036L78.1289 64.6868L77.1528 64.036H77.4782Z" fill="url(#paint14_linear)"/>
<path d="M75.8515 65.0119C75.8515 64.6865 75.8515 64.6865 75.8515 65.0119C75.8515 64.6865 75.8515 64.6865 75.8515 65.0119C75.8515 64.6865 75.8515 64.6865 75.8515 65.0119C75.8515 64.6865 75.8515 64.6865 75.8515 65.0119C75.8515 64.6865 75.8515 64.6865 75.8515 65.0119C75.8515 64.6865 75.8515 64.6865 75.8515 65.0119V64.6865V65.0119C76.1769 64.6865 76.1769 64.6865 75.8515 65.0119C76.1769 64.6865 76.1769 64.6865 75.8515 65.0119C76.1769 64.6865 76.1769 64.6865 75.8515 65.0119C76.1769 64.6865 76.1769 64.6865 75.8515 65.0119C76.1769 64.6865 76.1769 64.6865 75.8515 65.0119C76.1769 64.6865 76.1769 64.6865 75.8515 65.0119C76.1769 64.6865 76.1769 64.6865 75.8515 65.0119L76.1769 64.6865L76.8276 64.3611V64.6865L77.4783 65.0119L76.5022 65.6626L75.5261 65.0119H75.8515Z" fill="url(#paint15_linear)"/>
<path d="M74.2245 65.988C74.2245 65.6627 74.2245 65.6627 74.2245 65.988C74.2245 65.6627 74.2245 65.6627 74.2245 65.988C74.2245 65.6627 74.2245 65.6627 74.2245 65.988C74.2245 65.6627 74.2245 65.6627 74.2245 65.988C74.2245 65.6627 74.2245 65.6627 74.2245 65.988V65.6627V65.988C74.5499 65.6627 74.5499 65.6627 74.2245 65.988C74.5499 65.6627 74.5499 65.6627 74.2245 65.988C74.5499 65.6627 74.5499 65.6627 74.2245 65.988C74.5499 65.6627 74.5499 65.6627 74.2245 65.988C74.5499 65.6627 74.5499 65.6627 74.2245 65.988C74.5499 65.6627 74.5499 65.6627 74.2245 65.988C74.5499 65.6627 74.5499 65.6627 74.2245 65.988C74.5499 65.6627 74.5499 65.6627 74.2245 65.988C74.5499 65.6627 74.5499 65.6627 74.5499 65.6627L75.2006 65.3373V65.6627L75.8513 65.988L74.8753 66.6388L73.8992 65.988H74.2245Z" fill="url(#paint16_linear)"/>
<path d="M72.5978 66.9643C72.5978 66.639 72.5978 66.639 72.5978 66.9643C72.5978 66.639 72.5978 66.639 72.5978 66.9643C72.5978 66.639 72.5978 66.639 72.5978 66.9643C72.5978 66.639 72.5978 66.639 72.5978 66.9643C72.5978 66.639 72.5978 66.639 72.5978 66.9643V66.639V66.9643C72.9232 66.639 72.9232 66.639 72.5978 66.9643C72.9232 66.639 72.9232 66.639 72.5978 66.9643C72.9232 66.639 72.9232 66.639 72.5978 66.9643C72.9232 66.639 72.9232 66.639 72.5978 66.9643C72.9232 66.639 72.9232 66.639 72.5978 66.9643C72.9232 66.639 72.9232 66.639 72.5978 66.9643C72.9232 66.639 72.9232 66.639 72.5978 66.9643C72.9232 66.639 72.9232 66.639 72.5978 66.9643C72.9232 66.639 72.9232 66.639 72.9232 66.639L73.5739 66.3136V66.639L74.2246 66.9643L73.2485 67.615L72.2725 66.9643H72.5978Z" fill="url(#paint17_linear)"/>
<path d="M70.9711 67.9403C70.9711 67.6149 70.9711 67.6149 70.9711 67.9403C70.9711 67.6149 70.9711 67.6149 70.9711 67.9403C70.9711 67.6149 70.9711 67.6149 70.9711 67.9403C70.9711 67.6149 70.9711 67.6149 70.9711 67.9403V67.6149V67.9403C71.2965 67.6149 71.2965 67.6149 70.9711 67.9403C71.2965 67.6149 71.2965 67.6149 70.9711 67.9403C71.2965 67.6149 71.2965 67.6149 70.9711 67.9403C71.2965 67.6149 71.2965 67.6149 70.9711 67.9403C71.2965 67.6149 71.2965 67.6149 70.9711 67.9403C71.2965 67.6149 71.2965 67.6149 70.9711 67.9403C71.2965 67.6149 71.2965 67.6149 71.2965 67.6149L71.9472 67.2896V67.6149L72.5979 67.9403L71.6218 68.591L70.6458 67.9403H70.9711Z" fill="url(#paint18_linear)"/>
<path d="M69.3444 64.0362C69.3444 63.7108 69.3444 63.7108 69.3444 64.0362C69.3444 63.7108 69.3444 63.7108 69.3444 64.0362V63.7109V64.0362C69.3444 63.7108 69.3444 63.7108 69.3444 64.0362C69.3444 63.7108 69.3444 63.7108 69.3444 64.0362C69.3444 63.7108 69.3444 63.7108 69.3444 64.0362C69.3444 63.7108 69.3444 63.7108 69.3444 64.0362C69.6697 63.7108 69.6697 63.7108 69.3444 64.0362C69.6697 63.7108 69.6697 63.7108 69.3444 64.0362C69.6697 63.7108 69.6697 63.7108 69.3444 64.0362C69.6697 63.7108 69.6697 63.7108 69.3444 64.0362L69.6697 63.7109L70.6458 63.0601V63.3855L71.2965 63.7109L70.3204 64.3616L69.3444 64.0362C69.019 64.0362 69.019 64.0362 69.3444 64.0362Z" fill="url(#paint19_linear)"/>
<path d="M70.9711 63.0599C70.9711 62.7346 70.9711 62.7346 70.9711 63.0599C70.9711 62.7346 70.9711 62.7346 70.9711 63.0599V62.7346V63.0599C70.9711 62.7346 70.9711 62.7346 70.9711 63.0599C70.9711 62.7346 70.9711 62.7346 70.9711 63.0599C70.9711 62.7346 70.9711 62.7346 70.9711 63.0599C70.9711 62.7346 70.9711 62.7346 70.9711 63.0599C70.9711 62.7346 70.9711 62.7346 70.9711 63.0599C71.2964 62.7346 71.2964 62.7346 70.9711 63.0599C71.2964 62.7346 71.2964 62.7346 70.9711 63.0599C71.2964 62.7346 71.2964 62.7346 70.9711 63.0599C71.2964 62.7346 71.2964 62.7346 71.2964 62.7346L72.2725 62.0839V62.4092L72.9232 62.7346L71.9471 63.3853L70.9711 63.0599C70.6457 63.0599 70.6457 63.0599 70.9711 63.0599Z" fill="url(#paint20_linear)"/>
<path d="M72.5978 62.0836C72.5978 62.0836 72.5978 61.7582 72.5978 62.0836C72.5978 61.7582 72.5978 61.7582 72.5978 62.0836V61.7582V62.0836C72.5978 61.7582 72.5978 61.7582 72.5978 62.0836C72.5978 61.7582 72.5978 61.7582 72.5978 62.0836C72.5978 61.7582 72.5978 61.7582 72.5978 62.0836C72.5978 61.7582 72.5978 61.7582 72.5978 62.0836C72.5978 61.7582 72.5978 61.7582 72.5978 62.0836C72.9231 61.7582 72.9231 61.7582 72.5978 62.0836C72.9231 61.7582 72.9231 61.7582 72.5978 62.0836L72.9231 61.7582L73.8992 61.1075V61.4328L74.5499 61.7582L73.5738 62.4089L72.5978 62.0836C72.2724 62.0836 72.2724 62.0836 72.5978 62.0836Z" fill="url(#paint21_linear)"/>
<path d="M74.2247 61.1079C74.2247 61.1079 74.2247 60.7825 74.2247 61.1079V60.7825V61.1079C74.2247 60.7825 74.2247 60.7825 74.2247 61.1079C74.2247 60.7825 74.2247 60.7825 74.2247 61.1079C74.2247 60.7825 74.2247 60.7825 74.2247 61.1079C74.2247 60.7825 74.2247 60.7825 74.2247 61.1079C74.2247 60.7825 74.2247 60.7825 74.2247 61.1079C74.2247 60.7825 74.2247 60.7825 74.2247 61.1079C74.2247 60.7825 74.5501 60.7825 74.2247 61.1079C74.5501 60.7825 74.5501 60.7825 74.2247 61.1079C74.5501 60.7825 74.5501 60.7825 74.5501 60.7825L75.5261 60.1318V60.4572L76.1769 60.7825L75.2008 61.4332L74.2247 61.1079C73.8994 61.1079 73.8994 61.1079 74.2247 61.1079Z" fill="url(#paint22_linear)"/>
<path d="M75.8514 60.1316C75.8514 60.1316 75.8514 59.8062 75.8514 60.1316V59.8062V60.1316C75.8514 59.8062 75.8514 59.8062 75.8514 60.1316C75.8514 59.8062 75.8514 59.8062 75.8514 60.1316C75.8514 59.8062 75.8514 59.8062 75.8514 60.1316C75.8514 59.8062 75.8514 59.8062 75.8514 60.1316C75.8514 59.8062 75.8514 59.8062 75.8514 60.1316C75.8514 59.8062 75.8514 59.8062 75.8514 60.1316C75.8514 59.8062 75.8514 59.8062 75.8514 60.1316C75.8514 59.8062 75.8514 59.8062 75.8514 60.1316C76.1768 59.8062 76.1768 59.8062 76.1768 59.8062L77.1529 59.1555V59.4809L77.8036 59.8062L76.8275 60.457L75.8514 60.1316C75.5261 60.1316 75.5261 60.1316 75.8514 60.1316Z" fill="url(#paint23_linear)"/>
<path d="M77.1528 59.1558C77.4782 59.1558 77.4782 59.1558 77.1528 59.1558C77.4782 59.1558 77.4782 59.1558 77.1528 59.1558C77.4782 59.1558 77.4782 59.1558 77.1528 59.1558C77.4782 59.1558 77.4782 59.1558 77.1528 59.1558C77.4782 59.1558 77.4782 59.1558 77.1528 59.1558C77.4782 59.1558 77.4782 59.1558 77.1528 59.1558V58.8304V59.1558C77.4782 58.8304 77.4782 58.8304 77.1528 59.1558C77.4782 58.8304 77.4782 58.8304 77.1528 59.1558C77.4782 58.8304 77.4782 58.8304 77.1528 59.1558C77.4782 58.8304 77.4782 58.8304 77.1528 59.1558C77.4782 58.8304 77.4782 58.8304 77.1528 59.1558C77.4782 58.8304 77.4782 58.8304 77.1528 59.1558C77.4782 58.8304 77.4782 58.8304 77.1528 59.1558C77.4782 58.8304 77.4782 58.8304 77.1528 59.1558C77.4782 58.8304 77.4782 58.8304 77.4782 58.8304L78.4543 58.1797V58.505L79.105 58.8304L78.1289 59.4811L77.1528 59.1558Z" fill="url(#paint24_linear)"/>
<path d="M78.7798 58.1796C79.1051 58.1796 79.1051 58.1796 78.7798 58.1796C79.1051 58.1796 79.1051 58.1796 78.7798 58.1796C79.1051 58.1796 79.1051 58.1796 78.7798 58.1796C79.1051 58.1796 79.1051 58.1796 78.7798 58.1796V57.8542V58.1796C79.1051 57.8542 79.1051 57.8542 78.7798 58.1796C79.1051 57.8542 79.1051 57.8542 78.7798 58.1796C79.1051 57.8542 79.1051 57.8542 78.7798 58.1796C79.1051 57.8542 79.1051 57.8542 78.7798 58.1796C79.1051 57.8542 79.1051 57.8542 78.7798 58.1796C79.1051 57.8542 79.1051 57.8542 78.7798 58.1796C79.1051 57.8542 79.1051 57.8542 78.7798 58.1796C79.1051 57.8542 79.1051 57.8542 78.7798 58.1796C79.1051 57.8542 79.1052 57.8542 79.1052 57.8542L80.0812 57.2035V57.5288L80.732 57.8542L79.7559 58.5049L78.7798 58.1796Z" fill="url(#paint25_linear)"/>
<path d="M80.4065 57.2033C80.7319 57.2033 80.7319 57.2033 80.4065 57.2033C80.7319 57.2033 80.7319 57.2033 80.4065 57.2033V56.8779V57.2033C80.7319 56.878 80.7319 56.878 80.4065 57.2033C80.7319 56.878 80.7319 56.878 80.4065 57.2033C80.7319 56.878 80.7319 56.878 80.4065 57.2033C80.7319 56.878 80.7319 56.878 80.4065 57.2033C80.7319 56.878 80.7319 56.878 80.4065 57.2033C80.7319 56.878 80.7319 56.878 80.4065 57.2033C80.7319 56.878 80.7319 56.878 80.4065 57.2033C80.7319 56.878 80.7319 56.878 80.4065 57.2033C80.7319 56.878 80.7319 56.8779 80.7319 56.8779L81.7079 56.2272V56.5526L82.3587 56.8779L81.3826 57.5287L80.4065 57.2033Z" fill="url(#paint26_linear)"/>
<path d="M82.0332 56.2275V55.9021V56.2275C82.3586 55.9021 82.3586 55.9021 82.0332 56.2275C82.3586 55.9021 82.3586 55.9021 82.0332 56.2275C82.3586 55.9021 82.3586 55.9021 82.0332 56.2275C82.3586 55.9021 82.3586 55.9021 82.0332 56.2275C82.3586 55.9021 82.3586 55.9021 82.0332 56.2275C82.3586 55.9021 82.3586 55.9021 82.0332 56.2275C82.3586 55.9021 82.3586 55.9021 82.0332 56.2275C82.3586 55.9021 82.3586 55.9021 82.0332 56.2275L82.3586 55.9021L83.3346 55.2514V55.5768L83.9854 55.9021L83.0093 56.5528L82.0332 56.2275Z" fill="url(#paint27_linear)"/>
<path d="M82.684 57.5289C82.684 57.2035 82.684 57.2035 82.684 57.5289V57.2036V57.5289C83.0094 57.2035 83.0094 57.2035 82.684 57.5289C83.0094 57.2035 83.0094 57.2035 82.684 57.5289C83.0094 57.2035 83.0094 57.2035 82.684 57.5289C83.0094 57.2035 83.0094 57.2035 82.684 57.5289C83.0094 57.2035 83.0094 57.2035 82.684 57.5289C83.0094 57.2035 83.0094 57.2035 82.684 57.5289C83.0094 57.2035 83.0094 57.2035 82.684 57.5289C83.0094 57.2035 83.0094 57.2035 82.684 57.5289L83.0094 57.2036L83.6601 56.8782V57.2036L84.3108 57.5289L83.3347 58.1796L82.3586 57.5289H82.684Z" fill="url(#paint28_linear)"/>
<path d="M81.3826 59.8063C81.7079 59.4809 81.7079 59.4809 81.3826 59.8063C81.7079 59.4809 81.7079 59.4809 81.3826 59.8063C81.7079 59.4809 81.7079 59.4809 81.3826 59.8063C81.7079 59.4809 81.7079 59.4809 81.3826 59.8063C81.7079 59.4809 81.7079 59.4809 81.3826 59.8063C81.7079 59.4809 81.7079 59.4809 81.3826 59.8063C81.7079 59.4809 81.7079 59.4809 81.3826 59.8063C81.7079 59.4809 81.7079 59.4809 81.3826 59.8063C81.7079 59.4809 81.7079 59.4809 81.3826 59.8063C81.7079 59.4809 81.7079 59.4809 81.7079 59.4809L82.684 58.8302V59.1556L83.3347 59.4809L82.3587 60.1316L81.3826 59.8063Z" fill="url(#paint29_linear)"/>
<path d="M80.0812 60.4572C80.0812 60.4572 80.4065 60.4572 80.0812 60.4572C80.4065 60.4572 80.4065 60.4572 80.4065 60.4572L81.3826 59.8065V60.1318L82.0333 60.4572L81.0573 61.1079L80.0812 60.4572C79.7558 60.7825 79.7558 60.7825 80.0812 60.4572C79.7558 60.7825 79.7558 60.7825 80.0812 60.4572C79.7558 60.7825 79.7558 60.7825 80.0812 60.4572Z" fill="url(#paint30_linear)"/>
<path d="M78.1289 61.7584C78.4543 61.433 78.4543 61.433 78.1289 61.7584C78.4543 61.433 78.4543 61.433 78.1289 61.7584C78.4543 61.433 78.4543 61.433 78.1289 61.7584C78.4543 61.433 78.4543 61.433 78.1289 61.7584C78.4543 61.433 78.4543 61.433 78.1289 61.7584C78.4543 61.433 78.4543 61.433 78.1289 61.7584C78.4543 61.433 78.4543 61.433 78.1289 61.7584C78.4543 61.433 78.4543 61.433 78.1289 61.7584C78.4543 61.433 78.4543 61.433 78.1289 61.7584C78.4543 61.433 78.4543 61.433 78.1289 61.7584C78.4543 61.433 78.4543 61.433 78.1289 61.7584C78.4543 61.433 78.4543 61.433 78.4543 61.433L79.4303 60.7823V61.1076L80.0811 61.433L79.105 62.0837L78.1289 61.7584C78.4543 61.7584 78.1289 61.7584 78.1289 61.7584Z" fill="url(#paint31_linear)"/>
<path d="M76.8275 62.7346C76.8275 62.4092 76.8275 62.4092 76.8275 62.7346C76.8275 62.4092 76.8275 62.4092 76.8275 62.7346C76.8275 62.4092 76.8275 62.4092 76.8275 62.7346C76.8275 62.4092 76.8275 62.4092 76.8275 62.7346C76.8275 62.4092 76.8275 62.4092 76.8275 62.7346C76.8275 62.4092 76.8275 62.4092 76.8275 62.7346C76.8275 62.4092 76.8275 62.4092 76.8275 62.7346C76.8275 62.4092 76.8275 62.4092 76.8275 62.7346C76.8275 62.4092 76.8275 62.4092 76.8275 62.7346C76.8275 62.4092 76.8275 62.4092 76.8275 62.7346C76.8275 62.4092 76.8275 62.4092 76.8275 62.7346C77.1528 62.7346 77.1528 62.7346 77.1528 62.7346L78.1289 62.0839V62.4092L78.7796 62.7346L77.8036 63.3853L76.8275 62.7346C76.5021 62.7346 76.8275 62.7346 76.8275 62.7346Z" fill="url(#paint32_linear)"/>
<path d="M75.2007 63.7105C75.2007 63.3851 75.2007 63.3851 75.2007 63.7105C75.2007 63.3851 75.2007 63.3851 75.2007 63.7105C75.2007 63.3851 75.2007 63.3851 75.2007 63.7105C75.2007 63.3851 75.2007 63.3851 75.2007 63.7105C75.2007 63.3851 75.2007 63.3851 75.2007 63.7105C75.2007 63.3851 75.2007 63.3851 75.2007 63.7105C75.2007 63.3851 75.2007 63.3851 75.2007 63.7105C75.2007 63.3851 75.2007 63.3851 75.2007 63.7105C75.526 63.3851 75.526 63.3851 75.526 63.3851L76.5021 62.7344V63.0597L77.1528 63.3851L76.1768 64.0358L75.2007 63.7105Z" fill="url(#paint33_linear)"/>
<path d="M73.574 64.6867C73.574 64.3613 73.574 64.3613 73.574 64.6867C73.574 64.3613 73.574 64.3613 73.574 64.6867C73.574 64.3613 73.574 64.3613 73.574 64.6867C73.574 64.3613 73.574 64.3613 73.574 64.6867C73.574 64.3613 73.574 64.3613 73.574 64.6867C73.574 64.3613 73.574 64.3613 73.574 64.6867C73.574 64.3613 73.574 64.3613 73.574 64.6867C73.574 64.3613 73.574 64.3613 73.574 64.6867C73.574 64.3613 73.8993 64.3613 73.574 64.6867C73.8993 64.3613 73.8993 64.3613 73.8993 64.3613L74.8754 63.7106V64.036L75.5261 64.3613L74.5501 65.012L73.574 64.6867Z" fill="url(#paint34_linear)"/>
<path d="M71.947 65.6629C71.947 65.3376 71.947 65.3376 71.947 65.6629C71.947 65.3376 71.947 65.3376 71.947 65.6629C71.947 65.3376 71.947 65.3376 71.947 65.6629C71.947 65.3376 71.947 65.3376 71.947 65.6629C71.947 65.3376 71.947 65.3376 71.947 65.6629C71.947 65.3376 71.947 65.3376 71.947 65.6629C71.947 65.3376 71.947 65.3376 71.947 65.6629C72.2724 65.3376 72.2724 65.3376 71.947 65.6629C72.2724 65.3376 72.2724 65.3376 71.947 65.6629C72.2724 65.3376 72.2724 65.3376 71.947 65.6629C72.2724 65.3376 72.2724 65.3376 72.2724 65.3376L73.2485 64.6868V65.0122L73.8992 65.3376L72.9231 65.9883L71.947 65.6629Z" fill="url(#paint35_linear)"/>
<path d="M71.6217 64.3613C71.6217 64.3613 71.6217 64.036 71.6217 64.3613C71.6217 64.036 71.6217 64.036 71.6217 64.3613C71.6217 64.036 71.6217 64.036 71.6217 64.3613C71.6217 64.036 71.6217 64.036 71.6217 64.3613C71.6217 64.036 71.6217 64.036 71.6217 64.3613V64.036V64.3613C71.6217 64.036 71.6217 64.036 71.6217 64.3613C71.6217 64.036 71.6217 64.036 71.6217 64.3613C71.6217 64.036 71.6217 64.036 71.6217 64.3613C71.6217 64.036 71.6217 64.036 71.6217 64.3613C71.6217 64.036 71.6217 64.036 71.6217 64.3613C71.6217 64.036 71.6217 64.036 71.6217 64.3613C71.6217 64.036 71.9471 64.036 71.6217 64.3613C71.9471 64.036 71.9471 64.036 71.6217 64.3613C71.9471 64.036 71.9471 64.036 71.9471 64.036L72.5978 63.7106V64.036L73.2485 64.3613L72.2724 65.012L71.2964 64.3613H71.6217Z" fill="url(#paint36_linear)"/>
<path d="M73.2487 63.3851C73.2487 63.0597 73.2487 63.0597 73.2487 63.3851C73.2487 63.0597 73.2487 63.0597 73.2487 63.3851C73.2487 63.0597 73.2487 63.0597 73.2487 63.3851V63.0597V63.3851C73.2487 63.0597 73.2487 63.0597 73.2487 63.3851C73.2487 63.0597 73.2487 63.0597 73.2487 63.3851C73.2487 63.0597 73.2487 63.0597 73.2487 63.3851C73.2487 63.0597 73.2487 63.0597 73.2487 63.3851C73.2487 63.0597 73.2487 63.0597 73.2487 63.3851C73.2487 63.0597 73.2487 63.0597 73.2487 63.3851C73.2487 63.0597 73.2487 63.0597 73.2487 63.3851C73.2487 63.0597 73.2487 63.0597 73.2487 63.3851C73.5741 63.0597 73.574 63.0597 73.574 63.0597L74.2248 62.7344V63.0597L74.8755 63.3851L73.8994 64.0358L72.9233 63.3851H73.2487Z" fill="url(#paint37_linear)"/>
<path d="M74.55 62.4093C74.55 62.4093 74.8753 62.4093 74.55 62.4093C74.8753 62.4093 74.8753 62.4093 74.55 62.4093C74.8753 62.4093 74.8753 62.4093 74.55 62.4093C74.8753 62.4093 74.8753 62.0839 74.55 62.4093C74.8753 62.0839 74.8753 62.0839 74.55 62.4093C74.8753 62.0839 74.8753 62.0839 74.55 62.4093V62.0839V62.4093C74.8753 62.0839 74.8753 62.0839 74.55 62.4093C74.8753 62.0839 74.8753 62.0839 74.55 62.4093C74.8753 62.0839 74.8753 62.0839 74.55 62.4093C74.8753 62.0839 74.8753 62.0839 74.55 62.4093C74.8753 62.0839 74.8753 62.0839 74.55 62.4093C74.8753 62.0839 74.8753 62.0839 74.55 62.4093C74.8753 62.0839 74.8753 62.0839 74.55 62.4093C74.8753 62.0839 74.8753 62.0839 74.55 62.4093C74.8753 62.0839 74.8753 62.0839 74.8753 62.0839L75.526 61.7585V62.0839L76.1768 62.4093L75.2007 63.06L74.2246 62.4093H74.55Z" fill="url(#paint38_linear)"/>
<path d="M76.1769 61.433C76.5023 61.433 76.5023 61.433 76.1769 61.433C76.5023 61.433 76.5023 61.1076 76.1769 61.433C76.5023 61.1076 76.5023 61.1076 76.1769 61.433C76.5023 61.1076 76.5023 61.1076 76.1769 61.433V61.1076V61.433C76.5023 61.1076 76.5023 61.1076 76.1769 61.433C76.5023 61.1076 76.5023 61.1076 76.1769 61.433C76.5023 61.1076 76.5023 61.1076 76.1769 61.433C76.5023 61.1076 76.5023 61.1076 76.1769 61.433C76.5023 61.1076 76.5023 61.1076 76.1769 61.433C76.5023 61.1076 76.5023 61.1076 76.1769 61.433C76.5023 61.1076 76.5023 61.1076 76.1769 61.433C76.5023 61.1076 76.5023 61.1076 76.1769 61.433C76.5023 61.1076 76.5023 61.1076 76.5023 61.1076L77.153 60.7823V61.1076L77.8037 61.433L76.8276 62.0837L75.8516 61.433H76.1769Z" fill="url(#paint39_linear)"/>
<path d="M77.8036 60.4572C77.8036 60.4572 78.129 60.4572 77.8036 60.4572C78.129 60.1318 78.129 60.1318 77.8036 60.4572C78.129 60.1318 78.129 60.1318 77.8036 60.4572C78.129 60.1318 78.129 60.1318 77.8036 60.4572V60.1318V60.4572C78.129 60.1318 78.129 60.1318 77.8036 60.4572C78.129 60.1318 78.129 60.1318 77.8036 60.4572C78.129 60.1318 78.129 60.1318 77.8036 60.4572C78.129 60.1318 78.129 60.1318 77.8036 60.4572C78.129 60.1318 78.129 60.1318 77.8036 60.4572C78.129 60.1318 78.129 60.1318 77.8036 60.4572C78.129 60.1318 78.129 60.1318 77.8036 60.4572C78.129 60.1318 78.129 60.1318 77.8036 60.4572C78.129 60.1318 78.129 60.1318 78.129 60.1318L78.7797 59.8065V60.1318L79.4304 60.4572L78.4543 61.1079L77.4783 60.4572H77.8036Z" fill="url(#paint40_linear)"/>
<path d="M79.4303 59.4809C79.4303 59.1555 79.4303 59.1555 79.4303 59.4809C79.4303 59.1555 79.4303 59.1555 79.4303 59.4809V59.1556V59.4809C79.7557 59.1555 79.7557 59.1555 79.4303 59.4809C79.7557 59.1555 79.7557 59.1555 79.4303 59.4809C79.7557 59.1555 79.7557 59.1555 79.4303 59.4809C79.7557 59.1555 79.7557 59.1555 79.4303 59.4809C79.7557 59.1555 79.7557 59.1555 79.4303 59.4809C79.7557 59.1555 79.7557 59.1555 79.4303 59.4809C79.7557 59.1555 79.7557 59.1555 79.4303 59.4809C79.7557 59.1555 79.7557 59.1556 79.7557 59.1556L80.4064 58.8302V59.1556L81.0571 59.4809L80.081 60.1316L79.105 59.4809H79.4303Z" fill="url(#paint41_linear)"/>
<path d="M81.0573 58.5047C81.0573 58.5047 81.0573 58.1794 81.0573 58.5047C81.0573 58.1794 81.0573 58.1794 81.0573 58.5047V58.1794V58.5047C81.3826 58.1794 81.3826 58.1794 81.0573 58.5047C81.3826 58.1794 81.3826 58.1794 81.0573 58.5047C81.3826 58.1794 81.3826 58.1794 81.0573 58.5047C81.3826 58.1794 81.3826 58.1794 81.0573 58.5047C81.3826 58.1794 81.3826 58.1794 81.0573 58.5047C81.3826 58.1794 81.3826 58.1794 81.0573 58.5047C81.3826 58.1794 81.3826 58.1794 81.0573 58.5047C81.3826 58.1794 81.3826 58.1794 81.0573 58.5047C81.3826 58.1794 81.3826 58.1794 81.3826 58.1794L82.0334 57.854V58.1794L82.6841 58.5047L81.708 59.1554L80.7319 58.5047H81.0573Z" fill="url(#paint42_linear)"/>
<path d="M69.995 65.3376C69.995 65.0122 69.995 65.0122 69.995 65.3376C69.995 65.0122 69.995 65.0122 69.995 65.3376C69.995 65.0122 69.995 65.0122 69.995 65.3376C69.995 65.0122 69.995 65.0122 69.995 65.3376V65.0122V65.3376C69.995 65.0122 69.995 65.0122 69.995 65.3376C69.995 65.0122 69.995 65.0122 69.995 65.3376C69.995 65.0122 69.995 65.0122 69.995 65.3376C69.995 65.0122 69.995 65.0122 69.995 65.3376C69.995 65.0122 69.995 65.0122 69.995 65.3376C69.995 65.0122 69.995 65.0122 69.995 65.3376C70.3204 65.0122 70.3204 65.0122 69.995 65.3376C70.3204 65.0122 70.3204 65.0122 69.995 65.3376C70.3204 65.0122 70.3204 65.0122 70.3204 65.0122L70.9711 64.6868V65.0122L71.6218 65.3376L70.6457 65.9883L69.6697 65.3376H69.995Z" fill="url(#paint43_linear)"/>
<path d="M70.3203 66.6387C70.3203 66.3134 70.3203 66.3134 70.3203 66.6387C70.3203 66.3134 70.3203 66.3134 70.3203 66.6387C70.3203 66.3134 70.3203 66.3134 70.3203 66.6387C70.3203 66.3134 70.3203 66.3134 70.3203 66.6387C70.3203 66.3134 70.3203 66.3134 70.3203 66.6387C70.3203 66.3134 70.3203 66.3134 70.3203 66.6387C70.3203 66.3134 70.3203 66.3134 70.3203 66.6387C70.6457 66.3134 70.6457 66.3134 70.3203 66.6387C70.6457 66.3134 70.6457 66.3134 70.3203 66.6387C70.6457 66.3134 70.6457 66.3134 70.3203 66.6387C70.6457 66.3134 70.6457 66.3134 70.6457 66.3134L71.6218 65.6627V65.988L72.2725 66.3134L71.2964 66.9641L70.3203 66.6387Z" fill="url(#paint44_linear)"/>
<path d="M83.0093 58.5047C83.3346 58.5047 83.3346 58.5047 83.0093 58.5047C83.3346 58.5047 83.3346 58.5047 83.0093 58.5047C83.3346 58.5047 83.3346 58.5047 83.0093 58.5047C83.3346 58.5047 83.3346 58.5047 83.0093 58.5047C83.3346 58.5047 83.3346 58.5047 83.0093 58.5047C83.3346 58.5047 83.3346 58.5047 83.0093 58.5047C83.3346 58.5047 83.3346 58.5047 83.0093 58.5047C83.3346 58.5047 83.3346 58.5047 83.0093 58.5047C83.3346 58.5047 83.3346 58.5047 83.0093 58.5047C83.3346 58.5047 83.3346 58.5047 83.0093 58.5047C83.3346 58.5047 83.3346 58.5047 83.3346 58.5047L84.3107 57.854V58.1794L84.9614 58.5047L83.9854 59.1554L83.0093 58.5047C83.0093 58.8301 83.0093 58.8301 83.0093 58.5047C83.0093 58.8301 83.0093 58.8301 83.0093 58.5047C83.0093 58.8301 83.0093 58.8301 83.0093 58.5047Z" fill="url(#paint45_linear)"/>
<path d="M81.7079 54.6005C82.0333 54.6005 82.0333 54.6005 81.7079 54.6005C82.0333 54.6005 82.0333 54.6005 81.7079 54.6005V54.2752V54.6005C82.0333 54.2752 82.0333 54.2752 81.7079 54.6005C82.0333 54.2752 82.0333 54.2752 81.7079 54.6005C82.0333 54.2752 82.0333 54.2752 81.7079 54.6005C82.0333 54.2752 82.0333 54.2752 81.7079 54.6005C82.0333 54.2752 82.0333 54.2752 81.7079 54.6005C82.0333 54.6005 82.0333 54.6005 81.7079 54.6005C82.0333 54.6005 82.0333 54.6005 81.7079 54.6005C82.0333 54.2752 82.0333 54.2752 82.0333 54.2752L82.684 53.9498V54.2752L83.3347 54.6005L82.3587 55.2512L81.3826 54.6005H81.7079Z" fill="url(#paint46_linear)"/>
<path d="M80.0812 55.5768C80.4066 55.5768 80.4066 55.5768 80.0812 55.5768C80.4066 55.5768 80.4066 55.5768 80.0812 55.5768C80.4066 55.5768 80.4066 55.5768 80.0812 55.5768C80.4066 55.5768 80.4066 55.5768 80.0812 55.5768V55.2514V55.5768C80.4066 55.2515 80.4066 55.2515 80.0812 55.5768C80.4066 55.2515 80.4066 55.2515 80.0812 55.5768C80.4066 55.2515 80.4066 55.2515 80.0812 55.5768C80.4066 55.2515 80.4066 55.2515 80.0812 55.5768C80.4066 55.2515 80.4066 55.2515 80.0812 55.5768C80.4066 55.5768 80.4066 55.5768 80.0812 55.5768C80.4066 55.5768 80.4066 55.5768 80.0812 55.5768C80.4066 55.5768 80.4066 55.5768 80.0812 55.5768C80.4066 55.5768 80.4066 55.5768 80.0812 55.5768C80.4066 55.2515 80.4066 55.2514 80.4066 55.2514L81.0573 54.9261V55.2514L81.708 55.5768L80.7319 56.2275L79.7559 55.5768H80.0812Z" fill="url(#paint47_linear)"/>
<path d="M78.4543 56.5526C78.7796 56.5526 78.7796 56.5526 78.4543 56.5526C78.7796 56.5526 78.7796 56.5526 78.4543 56.5526C78.7796 56.5526 78.7796 56.5526 78.4543 56.5526C78.7796 56.5526 78.7796 56.5526 78.4543 56.5526C78.7796 56.5526 78.7796 56.5526 78.4543 56.5526C78.7796 56.5526 78.7796 56.5526 78.4543 56.5526V56.2273V56.5526C78.7796 56.2273 78.7796 56.2273 78.4543 56.5526C78.7796 56.2273 78.7796 56.2273 78.4543 56.5526C78.7796 56.2273 78.7796 56.2273 78.4543 56.5526C78.7796 56.2273 78.7796 56.2273 78.4543 56.5526C78.7796 56.2273 78.7796 56.2273 78.4543 56.5526C78.7796 56.5526 78.7796 56.5526 78.4543 56.5526C78.7796 56.5526 78.7796 56.5526 78.4543 56.5526C78.7796 56.5526 78.7796 56.5526 78.4543 56.5526C78.7796 56.2273 78.7796 56.2273 78.7796 56.2273L79.4303 55.9019V56.2273L80.0811 56.5526L79.105 57.2034L78.1289 56.5526H78.4543Z" fill="url(#paint48_linear)"/>
<path d="M77.1529 57.5289V57.2036V57.5289C77.1529 57.2035 77.1529 57.2035 77.1529 57.5289C77.1529 57.2035 77.1529 57.2035 77.1529 57.5289C77.1529 57.2035 77.1529 57.2035 77.1529 57.5289C77.1529 57.2035 77.1529 57.2035 77.1529 57.5289C77.1529 57.2035 77.1529 57.2035 77.1529 57.5289C77.1529 57.2035 77.1529 57.2035 77.1529 57.5289C77.1529 57.5289 77.4783 57.5289 77.1529 57.5289C77.4783 57.2035 77.4783 57.2036 77.4783 57.2036L78.129 56.8782V57.2036L78.7797 57.5289L77.8036 58.1796L76.5022 57.8543L77.1529 57.5289Z" fill="url(#paint49_linear)"/>
<path d="M75.526 58.5047V58.1794V58.5047C75.526 58.1794 75.526 58.1794 75.526 58.5047C75.526 58.1794 75.526 58.1794 75.526 58.5047C75.526 58.1794 75.526 58.1794 75.526 58.5047C75.526 58.1794 75.526 58.1794 75.526 58.5047C75.526 58.1794 75.526 58.1794 75.526 58.5047C75.526 58.1794 75.8514 58.1794 75.526 58.5047C75.8514 58.1794 75.8514 58.1794 75.526 58.5047C75.8514 58.1794 75.8514 58.1794 75.8514 58.1794L76.5021 57.854V58.1794L77.1528 58.5047L76.1768 59.1554L75.2007 58.5047H75.526Z" fill="url(#paint50_linear)"/>
<path d="M73.8993 59.4809V59.1556V59.4809C73.8993 59.1555 73.8993 59.1555 73.8993 59.4809C73.8993 59.1555 73.8993 59.1555 73.8993 59.4809C73.8993 59.1555 73.8993 59.1555 73.8993 59.4809C73.8993 59.1555 73.8993 59.1555 73.8993 59.4809C73.8993 59.1555 73.8993 59.1555 73.8993 59.4809C73.8993 59.1555 74.2247 59.1555 73.8993 59.4809C74.2247 59.1555 74.2247 59.1555 73.8993 59.4809C74.2247 59.1555 74.2247 59.1555 73.8993 59.4809C74.2247 59.1555 74.2247 59.1556 74.2247 59.1556L74.8754 58.8302V59.1556L75.5261 59.4809L74.5501 60.1316L73.574 59.4809H73.8993Z" fill="url(#paint51_linear)"/>
<path d="M72.2724 60.4572V60.1318V60.4572C72.2724 60.1318 72.2724 60.1318 72.2724 60.4572C72.2724 60.1318 72.2724 60.1318 72.2724 60.4572C72.2724 60.1318 72.2724 60.1318 72.2724 60.4572C72.2724 60.1318 72.2724 60.1318 72.2724 60.4572C72.2724 60.1318 72.5977 60.1318 72.2724 60.4572C72.5977 60.1318 72.5977 60.1318 72.2724 60.4572C72.5977 60.1318 72.5977 60.1318 72.2724 60.4572C72.5977 60.1318 72.5977 60.1318 72.2724 60.4572C72.5977 60.1318 72.5978 60.1318 72.5978 60.1318L73.2485 59.8065V60.1318L73.8992 60.4572L72.9231 61.1079L71.947 60.4572H72.2724Z" fill="url(#paint52_linear)"/>
<path d="M70.6457 61.433V61.1076V61.433C70.6457 61.1076 70.6457 61.1076 70.6457 61.433C70.6457 61.1076 70.6457 61.1076 70.6457 61.433C70.6457 61.1076 70.6457 61.1076 70.6457 61.433C70.6457 61.1076 70.6457 61.1076 70.6457 61.433C70.971 61.1076 70.971 61.1076 70.6457 61.433C70.971 61.1076 70.971 61.1076 70.6457 61.433C70.971 61.1076 70.971 61.1076 70.6457 61.433C70.971 61.1076 70.971 61.1076 70.6457 61.433C70.971 61.1076 70.971 61.1076 70.971 61.1076L71.6218 60.7823V61.1076L72.2725 61.433L71.2964 62.0837L70.3203 61.433H70.6457Z" fill="url(#paint53_linear)"/>
<path d="M69.019 62.4093V62.0839V62.4093C69.019 62.0839 69.019 62.0839 69.019 62.4093C69.019 62.0839 69.019 62.0839 69.019 62.4093C69.3443 62.0839 69.3443 62.0839 69.019 62.4093C69.3443 62.0839 69.3443 62.0839 69.019 62.4093C69.3443 62.0839 69.3443 62.0839 69.019 62.4093C69.3443 62.0839 69.3443 62.0839 69.019 62.4093C69.3443 62.0839 69.3443 62.0839 69.019 62.4093C69.3443 62.0839 69.3443 62.0839 69.019 62.4093C69.3443 62.0839 69.3443 62.0839 69.3443 62.0839L69.995 61.7585V62.0839L70.6458 62.4093L69.6697 63.06L68.6936 62.4093H69.019Z" fill="url(#paint54_linear)"/>
<path d="M67.392 63.3851V63.0597V63.3851C67.392 63.0597 67.392 63.0597 67.392 63.3851C67.392 63.0597 67.7174 63.0597 67.392 63.3851C67.7174 63.0597 67.7174 63.0597 67.392 63.3851C67.7174 63.0597 67.7174 63.0597 67.392 63.3851C67.7174 63.0597 67.7174 63.0597 67.392 63.3851C67.7174 63.0597 67.7174 63.0597 67.392 63.3851C67.7174 63.0597 67.7174 63.0597 67.392 63.3851C67.7174 63.0597 67.7174 63.0597 67.7174 63.0597L68.3681 62.7344V63.0597L69.0188 63.3851L68.0427 64.0358L67.0667 63.3851H67.392Z" fill="url(#paint55_linear)"/>
<path d="M64.1386 65.3376V65.0122V65.3376C64.4639 65.0122 64.4639 65.0122 64.1386 65.3376C64.4639 65.0122 64.4639 65.0122 64.1386 65.3376C64.4639 65.0122 64.4639 65.0122 64.1386 65.3376C64.4639 65.0122 64.4639 65.0122 64.1386 65.3376C64.4639 65.0122 64.4639 65.0122 64.1386 65.3376C64.4639 65.0122 64.4639 65.0122 64.1386 65.3376C64.4639 65.0122 64.4639 65.0122 64.1386 65.3376C64.4639 65.0122 64.464 65.0122 64.464 65.0122L65.1147 64.6868V65.0122L65.7654 65.3376L64.7893 65.9883L63.8132 65.3376H64.1386Z" fill="url(#paint56_linear)"/>
<path d="M65.7653 64.3613V64.036V64.3613C65.7653 64.036 65.7653 64.036 65.7653 64.3613C66.0907 64.036 66.0907 64.036 65.7653 64.3613C66.0907 64.036 66.0907 64.036 65.7653 64.3613C66.0907 64.036 66.0907 64.036 65.7653 64.3613C66.0907 64.036 66.0907 64.036 65.7653 64.3613C66.0907 64.036 66.0907 64.036 65.7653 64.3613C66.0907 64.036 66.0907 64.036 65.7653 64.3613C66.0907 64.036 66.0907 64.036 65.7653 64.3613C66.0907 64.036 66.0907 64.036 66.0907 64.036L66.7414 63.7106V64.036L67.3921 64.3613L66.416 65.012L65.4399 64.3613H65.7653Z" fill="url(#paint57_linear)"/>
<path d="M67.7174 65.0119C67.7174 64.6865 67.7174 64.6865 67.7174 65.0119C67.7174 64.6865 67.7174 64.6865 67.7174 65.0119V64.6865V65.0119C67.7174 64.6865 67.7174 64.6865 67.7174 65.0119C67.7174 64.6865 67.7174 64.6865 67.7174 65.0119C67.7174 64.6865 68.0428 64.6865 67.7174 65.0119C68.0428 64.6865 68.0428 64.6865 67.7174 65.0119C68.0428 64.6865 68.0428 64.6865 67.7174 65.0119C68.0428 64.6865 68.0428 64.6865 67.7174 65.0119C68.0428 64.6865 68.0428 64.6865 67.7174 65.0119L68.0428 64.6865L69.0188 64.0358V64.3612L69.6696 64.6865L68.6935 65.3373L67.7174 65.0119C67.392 65.0119 67.392 65.0119 67.7174 65.0119Z" fill="url(#paint58_linear)"/>
<path d="M68.3681 66.3134C68.3681 65.988 68.3681 65.988 68.3681 66.3134C68.3681 65.988 68.3681 65.988 68.3681 66.3134C68.3681 65.988 68.3681 65.988 68.3681 66.3134V65.988V66.3134C68.3681 65.988 68.3681 65.988 68.3681 66.3134C68.3681 65.988 68.3681 65.988 68.3681 66.3134C68.3681 65.988 68.3681 65.988 68.3681 66.3134C68.3681 65.988 68.3681 65.988 68.3681 66.3134C68.3681 65.988 68.3681 65.988 68.3681 66.3134C68.6934 65.988 68.6934 65.988 68.3681 66.3134C68.6934 65.988 68.6934 65.988 68.6934 65.988L69.3442 65.6627V65.988L69.9949 66.3134L69.0188 66.9641L68.0427 66.3134H68.3681Z" fill="url(#paint59_linear)"/>
<path d="M67.7175 66.6389L68.6935 67.2896L67.3921 68.2657L66.416 67.615L67.7175 66.6389Z" fill="url(#paint60_linear)"/>
<path d="M68.6934 67.615V67.2896V67.615C68.6934 67.2896 68.6934 67.2896 68.6934 67.615C68.6934 67.2896 68.6934 67.2896 68.6934 67.615C68.6934 67.2896 68.6934 67.2896 68.6934 67.615C68.6934 67.2896 68.6934 67.2896 68.6934 67.615C68.6934 67.2896 68.6934 67.2896 68.6934 67.615C68.6934 67.2896 68.6934 67.2896 68.6934 67.615C69.0188 67.2896 69.0188 67.2896 68.6934 67.615C69.0188 67.2896 69.0188 67.2896 68.6934 67.615C69.0188 67.2896 69.0188 67.2896 69.0188 67.2896L69.9949 66.6389V66.9643L70.6456 67.2896L68.0427 68.9164L67.0667 68.2657L68.6934 67.615Z" fill="url(#paint61_linear)"/>
<path d="M70.6457 68.2657L71.6218 68.9164L70.6457 69.5671L69.6697 68.9164L70.6457 68.2657Z" fill="url(#paint62_linear)"/>
<path d="M69.9949 69.8923C70.3202 69.8923 70.3202 69.8923 69.9949 69.8923C70.3202 69.8923 70.3202 69.8923 69.9949 69.8923C70.3202 69.8923 70.3202 69.8923 69.9949 69.8923L71.2963 69.2416V69.567L71.947 69.8923L70.971 70.5431L69.9949 69.8923Z" fill="url(#paint63_linear)"/>
<path d="M71.2964 69.2418C71.6217 68.9164 71.6217 68.9164 71.2964 69.2418C71.6217 68.9164 71.6217 68.9164 71.2964 69.2418C71.6217 68.9164 71.6217 68.9164 71.2964 69.2418C71.6217 68.9164 71.6217 68.9164 71.2964 69.2418C71.6217 68.9164 71.6217 68.9164 71.2964 69.2418C71.6217 68.9164 71.6217 68.9164 71.2964 69.2418C71.6217 68.9164 71.6217 68.9164 71.2964 69.2418C71.6217 68.9164 71.6217 68.9164 71.2964 69.2418C71.6217 68.9164 71.6217 68.9164 71.2964 69.2418C71.6217 68.9164 71.6217 68.9164 71.2964 69.2418C71.6217 68.9164 71.6217 68.9164 71.6217 68.9164L72.5978 68.2657V68.5911L73.2485 68.9164L72.2724 69.5671L71.2964 69.2418Z" fill="url(#paint64_linear)"/>
<path d="M72.9233 68.2655C73.2487 67.9401 73.2487 67.9401 72.9233 68.2655C73.2487 67.9401 73.2487 67.9401 72.9233 68.2655C73.2487 67.9401 73.2487 67.9401 72.9233 68.2655C73.2487 67.9401 73.2487 67.9401 72.9233 68.2655C73.2487 67.9401 73.2487 67.9401 72.9233 68.2655C73.2487 67.9401 73.2487 67.9401 72.9233 68.2655C73.2487 67.9401 73.2487 67.9401 72.9233 68.2655C73.2487 67.9401 73.2487 67.9401 72.9233 68.2655C73.2487 67.9401 73.2487 67.9401 72.9233 68.2655C73.2487 67.9401 73.2487 67.9401 72.9233 68.2655C73.2487 67.9401 73.2487 67.9401 72.9233 68.2655C73.2487 68.2655 73.2487 68.2655 73.2487 68.2655L74.2248 67.6147V67.9401L74.8755 68.2655L73.8994 68.9162L72.9233 68.2655Z" fill="url(#paint65_linear)"/>
<path d="M74.55 67.2897C74.8754 66.9643 74.8754 66.9643 74.55 67.2897C74.8754 66.9643 74.8754 66.9643 74.55 67.2897C74.8754 66.9643 74.8754 66.9643 74.55 67.2897C74.8754 66.9643 74.8754 66.9643 74.55 67.2897C74.8754 66.9643 74.8754 66.9643 74.55 67.2897C74.8754 66.9643 74.8754 66.9643 74.55 67.2897C74.8754 66.9643 74.8754 66.9643 74.55 67.2897C74.8754 66.9643 74.8754 66.9643 74.55 67.2897C74.8754 66.9643 74.8754 66.9643 74.55 67.2897C74.8754 66.9643 74.8754 66.9643 74.8754 66.9643L75.8515 66.3136V66.639L76.5022 66.9643L75.5261 67.615L74.55 67.2897Z" fill="url(#paint66_linear)"/>
<path d="M76.1768 65.988C76.1768 65.988 76.5021 65.988 76.1768 65.988C76.5021 65.988 76.5021 65.988 76.1768 65.988C76.5021 65.988 76.5021 65.988 76.1768 65.988C76.5021 65.988 76.5021 65.988 76.1768 65.988C76.5021 65.988 76.5021 65.988 76.1768 65.988C76.5021 65.988 76.5021 65.988 76.1768 65.988C76.5021 65.988 76.5021 65.988 76.1768 65.988C76.5021 65.988 76.5021 65.988 76.1768 65.988C76.5021 65.988 76.5021 65.988 76.1768 65.988C76.5021 65.988 76.5021 65.988 76.5021 65.988L77.4782 65.3373V65.6627L78.1289 65.988L77.1528 66.6388L76.1768 65.988C76.1768 66.3134 76.1768 66.3134 76.1768 65.988C76.1768 66.3134 76.1768 66.3134 76.1768 65.988C76.1768 66.3134 76.1768 66.3134 76.1768 65.988Z" fill="url(#paint67_linear)"/>
<path d="M77.8036 65.3374C77.8036 65.012 77.8036 65.012 77.8036 65.3374C78.1289 65.012 78.1289 65.012 77.8036 65.3374C78.1289 65.012 78.1289 65.012 77.8036 65.3374C78.1289 65.012 78.1289 65.012 77.8036 65.3374C78.1289 65.012 78.1289 65.012 77.8036 65.3374C78.1289 65.012 78.1289 65.012 77.8036 65.3374C78.1289 65.012 78.1289 65.012 77.8036 65.3374C78.1289 65.012 78.1289 65.012 77.8036 65.3374C78.1289 65.012 78.1289 65.012 77.8036 65.3374C78.1289 65.012 78.1289 65.012 78.1289 65.012L79.105 64.3613V64.0359L80.0811 63.3852V63.0598L81.0571 62.4091V62.0838L82.0332 61.433V61.1077L83.0093 60.457V60.7823L83.66 61.1077L76.1768 65.6627L77.8036 65.3374Z" fill="url(#paint68_linear)"/>
<path d="M85.9375 60.1314C86.2629 60.1314 86.2629 60.1314 85.9375 60.1314C86.2629 60.1314 86.2629 60.1314 85.9375 60.1314C86.2629 60.1314 86.2629 60.1314 85.9375 60.1314C86.2629 60.1314 86.2629 60.1314 85.9375 60.1314C86.2629 60.1314 86.2629 60.1314 86.2629 60.1314L87.5643 59.4807V59.8061L88.215 60.1314L87.2389 60.7822L86.2629 60.1314C85.9375 60.4568 85.9375 60.4568 85.9375 60.1314C85.9375 60.4568 85.9375 60.4568 85.9375 60.1314C85.9375 60.4568 85.9375 60.4568 85.9375 60.1314Z" fill="url(#paint69_linear)"/>
<path d="M88.2152 59.1557V58.8303V59.1557C88.2152 58.8303 88.2152 58.8303 88.2152 59.1557C88.2152 58.8303 88.2152 58.8303 88.2152 59.1557C88.5405 58.8303 88.5405 58.8303 88.2152 59.1557C88.5405 58.8303 88.5405 58.8303 88.2152 59.1557C88.5405 58.8303 88.5405 58.8303 88.2152 59.1557C88.5405 58.8303 88.5405 58.8303 88.2152 59.1557C88.5405 58.8303 88.5405 58.8303 88.5405 58.8303L88.8659 58.5049V58.8303L89.5166 59.1557L88.5405 59.8064L87.5645 59.1557H88.2152Z" fill="url(#paint70_linear)"/>
<path d="M85.6123 59.1556C85.6123 59.1556 85.6123 58.8303 85.6123 59.1556C85.6123 58.8303 85.6123 58.8303 85.6123 59.1556C85.6123 58.8303 85.6123 58.8303 85.6123 59.1556C85.6123 58.8303 85.6123 58.8303 85.6123 59.1556V58.8303V59.1556C85.6123 58.8303 85.6123 58.8303 85.6123 59.1556C85.6123 58.8303 85.6123 58.8303 85.6123 59.1556C85.6123 58.8303 85.6123 58.8303 85.6123 59.1556C85.6123 58.8303 85.6123 58.8303 85.6123 59.1556C85.6123 58.8303 85.6123 58.8303 85.6123 59.1556C85.6123 58.8303 85.9377 58.8303 85.6123 59.1556C85.9377 58.8303 85.9377 58.8303 85.6123 59.1556C85.9377 58.8303 85.9377 58.8303 85.9377 58.8303L86.9137 58.1796V57.8542L87.8898 57.2035V57.5288L89.5166 57.8542L88.8659 58.1796L87.8898 57.5288V57.8542L88.5405 58.1796L86.5884 59.1556L85.6123 58.5049V59.1556Z" fill="url(#paint71_linear)"/>
<path d="M89.1913 56.8783V56.553V56.8783C89.1913 56.553 89.1913 56.553 89.1913 56.8783C89.1913 56.553 89.1913 56.553 89.1913 56.8783C89.1913 56.553 89.5166 56.553 89.1913 56.8783C89.5166 56.553 89.5166 56.553 89.1913 56.8783C89.5166 56.553 89.5166 56.553 89.1913 56.8783C89.5166 56.553 89.5166 56.553 89.5166 56.553V56.8783L90.1673 57.2037L89.5166 57.5291L88.5405 56.8783H89.1913Z" fill="url(#paint72_linear)"/>
<path d="M90.818 55.902C90.818 55.902 90.818 55.5766 90.818 55.902V55.5766V55.902C91.1434 55.5766 91.1434 55.5766 90.818 55.902C91.1434 55.5766 91.1434 55.5766 90.818 55.902C91.1434 55.5766 91.1434 55.5766 90.818 55.902C91.1434 55.5766 91.1434 55.5766 90.818 55.902C91.1434 55.5766 91.1434 55.5766 90.818 55.902C91.1434 55.5766 91.1434 55.5766 90.818 55.902C91.1434 55.5766 91.1434 55.5766 90.818 55.902C91.1434 55.5766 91.1434 55.5766 90.818 55.902L91.1434 55.5766V55.902L91.7941 56.2273L90.4927 56.878L89.5166 56.2273L90.818 55.902Z" fill="url(#paint73_linear)"/>
<path d="M84.3108 51.3471L85.2869 50.6964H85.6122L86.5883 51.3471C86.5883 51.3471 86.5883 51.3471 86.5883 51.6724L85.6122 52.3231H85.2869L84.3108 51.3471C84.3108 51.6724 84.3108 51.3471 84.3108 51.3471Z" fill="#E2E2E7"/>
<path d="M82.6841 52.3232L83.6601 51.6725H83.9855L84.9616 52.3232C84.9616 52.3232 84.9616 52.3232 84.9616 52.6486L83.9855 53.2993H83.6601L82.6841 52.3232C82.6841 52.6486 82.6841 52.3232 82.6841 52.3232Z" fill="#E2E2E7"/>
<path d="M81.0571 53.2991L82.0332 52.6484H82.3586L83.3346 53.2991C83.3346 53.2991 83.3346 53.2991 83.3346 53.6244L82.3586 54.2752H82.0332L81.0571 53.2991C81.0571 53.6244 81.0571 53.2991 81.0571 53.2991Z" fill="#E2E2E7"/>
<path d="M79.4304 54.2754L80.4065 53.6246H80.7319L81.7079 54.2754C81.7079 54.2754 81.7079 54.2754 81.7079 54.6007L80.7319 55.2514H80.4065L79.4304 54.2754C79.4304 54.6007 79.4304 54.2754 79.4304 54.2754Z" fill="#E2E2E7"/>
<path d="M77.8037 55.2511L78.7798 54.6003H79.1052L80.0812 55.2511C80.0812 55.2511 80.0812 55.2511 80.0812 55.5764L79.1052 56.2271H78.7798L77.8037 55.2511C77.8037 55.5764 77.8037 55.2511 77.8037 55.2511Z" fill="#E2E2E7"/>
<path d="M76.1768 56.2273L77.1528 55.5766H77.4782L78.4543 56.2273C78.4543 56.2273 78.4543 56.2273 78.4543 56.5527L77.4782 57.2034H77.1528L76.1768 56.2273C76.1768 56.5527 76.1768 56.2273 76.1768 56.2273Z" fill="#E2E2E7"/>
<path d="M74.55 57.2037L75.5261 56.553H75.8515L76.8276 57.2037C76.8276 57.2037 76.8276 57.2037 76.8276 57.5291L75.8515 58.1798H75.5261L74.55 57.2037C74.55 57.5291 74.55 57.2037 74.55 57.2037Z" fill="#E2E2E7"/>
<path d="M72.9233 58.1794L73.8994 57.5287H74.2248L75.2008 58.1794C75.2008 58.1794 75.2008 58.1794 75.2008 58.5047L74.2248 59.1555H73.8994L72.9233 58.1794C72.9233 58.5048 72.9233 58.1794 72.9233 58.1794Z" fill="#E2E2E7"/>
<path d="M71.2964 59.1557L72.2724 58.5049H72.5978L73.5739 59.1557C73.5739 59.1557 73.5739 59.1557 73.5739 59.481L72.5978 60.1317H72.2724L71.2964 59.1557C71.2964 59.481 71.2964 59.1557 71.2964 59.1557Z" fill="#E2E2E7"/>
<path d="M70.971 59.4807H71.2963L72.2724 60.1314C72.2724 60.1314 72.2724 60.1314 72.2724 60.4568L71.2963 61.1075H70.971L69.9949 60.4568C69.9949 60.4568 69.9949 60.4568 69.9949 60.1314L70.971 59.4807Z" fill="#E2E2E7"/>
<path d="M68.0427 61.1077L69.0188 60.457H69.3442L70.3202 61.1077C70.3202 61.1077 70.3202 61.1077 70.3202 61.433L69.3442 62.0838H69.0188L68.0427 61.1077C68.0427 61.433 68.0427 61.1077 68.0427 61.1077Z" fill="#E2E2E7"/>
<path d="M66.7413 62.084L67.7174 61.4332H68.0428L69.0188 62.084C69.0188 62.084 69.0188 62.084 69.0188 62.4093L68.0428 63.06H67.7174L66.7413 62.084C66.416 62.4093 66.416 62.084 66.7413 62.084Z" fill="#E2E2E7"/>
<path d="M65.1146 63.0598L66.0907 62.4091H66.4161L67.3921 63.0598C67.3921 63.0598 67.3921 63.0598 67.3921 63.3851L66.4161 64.0359H66.0907L65.1146 63.0598C64.7893 63.3851 64.7893 63.0598 65.1146 63.0598Z" fill="#E2E2E7"/>
<path d="M63.4879 64.036L64.464 63.3853H64.7894L65.7654 64.036C65.7654 64.036 65.7654 64.036 65.7654 64.3614L64.7894 65.0121H64.464L63.4879 64.036C63.1626 64.3614 63.1626 64.036 63.4879 64.036Z" fill="#E2E2E7"/>
<path d="M62.8372 64.3611H63.1625L64.1386 65.0119C64.1386 65.0119 64.1386 65.0119 64.1386 65.3372L63.1625 65.9879H62.8372L61.8611 65.3372C61.8611 65.3372 61.8611 65.3372 61.8611 65.0119L62.8372 64.3611Z" fill="#E2E2E7"/>
<path d="M83.0093 53.95L86.9136 51.6725H87.239L88.215 52.3232C88.215 52.3232 88.215 52.3232 88.215 52.6486L84.3107 54.9261H83.9854L83.0093 53.95Z" fill="#E2E2E7"/>
<path d="M81.3826 54.9259L82.3587 54.2751H82.684L83.6601 54.9259C83.6601 54.9259 83.6601 54.9258 83.6601 55.2512L82.684 55.9019H82.3587L81.3826 54.9259Z" fill="#E2E2E7"/>
<path d="M79.7559 55.9021L80.7319 55.2514H81.0573L82.0334 55.9021C82.0334 55.9021 82.0334 55.9021 82.0334 56.2275L81.0573 56.8782H80.7319L79.7559 55.9021Z" fill="#E2E2E7"/>
<path d="M78.1289 56.8779L79.105 56.2272H79.4303L80.4064 56.8779C80.4064 56.8779 80.4064 56.878 80.4064 57.2033L79.4303 57.854H79.105L78.1289 56.8779Z" fill="#E2E2E7"/>
<path d="M77.8036 57.2035H78.129L79.1051 57.8542C79.1051 57.8542 79.1051 57.8542 79.1051 58.1796L78.129 58.8303H77.8036L76.5022 57.8542C76.5022 57.8542 76.5022 57.8542 76.5022 57.5288L77.8036 57.2035Z" fill="#E2E2E7"/>
<path d="M74.8752 58.8304L75.8513 58.1797H76.1767L77.1527 58.8304C77.1527 58.8304 77.1527 58.8304 77.1527 59.1558L76.1767 59.8065H75.8513L74.8752 58.8304Z" fill="#E2E2E7"/>
<path d="M74.5501 59.1555H74.8754L75.8515 59.8062C75.8515 59.8062 75.8515 59.8062 75.8515 60.1316L74.8754 60.7823H74.5501L73.574 60.1316C73.574 60.1316 73.574 60.1316 73.574 59.8062L74.5501 59.1555Z" fill="#E2E2E7"/>
<path d="M71.6218 60.7825L72.5979 60.1318H72.9233L73.8993 60.7825C73.8993 60.7825 73.8993 60.7825 73.8993 61.1079L72.9233 61.7586H72.5979L71.6218 60.7825Z" fill="#E2E2E7"/>
<path d="M69.9949 61.7582L70.971 61.1075H71.2963L72.2724 61.7582C72.2724 61.7582 72.2724 61.7582 72.2724 62.0836L71.2963 62.7343H70.971L69.9949 61.7582Z" fill="#E2E2E7"/>
<path d="M68.3682 62.7346L69.3443 62.0839H69.6696L70.6457 62.7346C70.6457 62.7346 70.6457 62.7346 70.6457 63.0599L69.6696 63.7107H69.3443L68.3682 62.7346Z" fill="#E2E2E7"/>
<path d="M66.7415 63.7109L67.7175 63.0601H68.0429L69.019 63.7109C69.019 63.7109 69.019 63.7108 69.019 64.0362L68.0429 64.6869H67.7175L66.7415 63.7109Z" fill="#E2E2E7"/>
<path d="M66.416 63.7106H66.7414L67.7175 64.3613C67.7175 64.3613 67.7175 64.3613 67.7175 64.6867L66.7414 65.3374H66.416L65.4399 64.6867C65.4399 64.6867 65.4399 64.6867 65.4399 64.3613L66.416 63.7106Z" fill="#E2E2E7"/>
<path d="M63.8131 65.6628L64.7892 65.0121H65.1146L66.0906 65.6628C66.0906 65.6628 66.0906 65.6628 66.0906 65.9882L65.1146 66.6389H64.7892L63.8131 65.6628C63.4878 65.6628 63.4878 65.6628 63.8131 65.6628Z" fill="#E2E2E7"/>
<path d="M86.9136 52.9738L88.215 52.3231H88.5404L89.5165 52.9738C89.5165 52.9738 89.5165 52.9738 89.5165 53.2991L88.215 53.9499H87.8897L86.9136 52.9738C86.9136 53.2991 86.9136 53.2991 86.9136 52.9738Z" fill="#E2E2E7"/>
<path d="M85.2869 53.9499L86.5883 53.2992H86.9137L87.8897 53.9499C87.8897 53.9499 87.8897 53.9499 87.8897 54.2753L86.5883 54.926H86.263L85.2869 53.9499C85.2869 54.2753 85.2869 54.2753 85.2869 53.9499Z" fill="#E2E2E7"/>
<path d="M88.5405 53.6243L89.5166 52.9736H89.842L92.1195 54.275C92.1195 54.275 92.1195 54.275 92.1195 54.6004L91.1434 55.2511H90.8181L88.5405 53.6243C88.5405 53.9496 88.5405 53.6243 88.5405 53.6243Z" fill="#E2E2E7"/>
<path d="M86.9136 54.6005L88.215 53.9498H88.5404L89.5165 54.6005C89.5165 54.6005 89.5165 54.6005 89.5165 54.9259L88.215 55.5766H87.8897L86.9136 54.6005C86.9136 54.9259 86.9136 54.6005 86.9136 54.6005Z" fill="#E2E2E7"/>
<path d="M82.0333 56.2273L83.0094 55.5766H83.3347L84.3108 56.2273C84.3108 56.2273 84.3108 56.2273 84.3108 56.5527L83.3347 57.2034H83.0094L82.0333 56.2273C82.0333 56.2273 81.7079 56.2273 82.0333 56.2273Z" fill="#E2E2E7"/>
<path d="M84.6362 54.2751H84.9615L86.263 54.9259L86.5883 55.2512L87.239 55.5766C87.239 55.5766 87.239 55.5766 87.239 55.9019L84.9615 57.2034H84.6362L83.6601 56.5527C83.6601 56.5527 83.6601 56.5527 83.6601 56.2273L84.6362 55.5766L83.3347 54.9259C83.3347 54.9259 83.3347 54.9259 83.3347 54.6005L84.6362 54.2751Z" fill="#E2E2E7"/>
<path d="M80.4065 57.2037L81.3826 56.553H81.7079L82.684 57.2037C82.684 57.2037 82.684 57.2037 82.684 57.5291L81.7079 58.1798H81.3826L80.4065 57.2037Z" fill="#E2E2E7"/>
<path d="M78.7798 58.1794L79.7559 57.5287H80.0812L81.0573 58.1794C81.0573 58.1794 81.0573 58.1794 81.0573 58.5047L80.0812 59.1555H79.7559L78.7798 58.1794Z" fill="#E2E2E7"/>
<path d="M77.1528 59.1557L78.1289 58.5049H78.4543L79.4304 59.1557C79.4304 59.1557 79.4304 59.1557 79.4304 59.481L78.4543 60.1317H78.1289L77.1528 59.1557Z" fill="#E2E2E7"/>
<path d="M76.5022 59.1555H76.8276L77.8037 59.8062C77.8037 59.8062 77.8037 59.8062 77.8037 60.1316L76.8276 60.7823H76.5022L75.5261 60.1316C75.5261 60.1316 75.5261 60.1316 75.5261 59.8062L76.5022 59.1555Z" fill="#E2E2E7"/>
<path d="M73.8992 61.1077L74.8753 60.457H75.2006L76.1767 61.1077C76.1767 61.1077 76.1767 61.1077 76.1767 61.433L75.2006 62.0838H74.8753L73.8992 61.1077Z" fill="#E2E2E7"/>
<path d="M72.2725 62.084L73.2485 61.4332H73.5739L74.55 62.084C74.55 62.084 74.55 62.084 74.55 62.4093L73.5739 63.06H73.2485L72.2725 62.084Z" fill="#E2E2E7"/>
<path d="M70.6458 63.0598L71.6218 62.4091H71.9472L72.9233 63.0598C72.9233 63.0598 72.9233 63.0598 72.9233 63.3851L71.9472 64.0359H71.6218L70.6458 63.0598Z" fill="#E2E2E7"/>
<path d="M69.0188 64.036L69.9949 63.3853H70.3202L71.2963 64.036C71.2963 64.036 71.2963 64.036 71.2963 64.3614L70.3202 65.0121H69.9949L69.0188 64.036Z" fill="#E2E2E7"/>
<path d="M68.6936 64.0358H69.0189L69.995 64.6865C69.995 64.6865 69.995 64.6865 69.995 65.0119L69.0189 65.6626H68.6936L67.7175 65.0119C67.7175 65.0119 67.7175 65.0119 67.7175 64.6865L68.6936 64.0358Z" fill="#E2E2E7"/>
<path d="M67.0667 65.0121H67.3921L68.3682 65.6628C68.3682 65.6628 68.3682 65.6628 68.3682 65.9882L65.7653 67.615H65.4399L64.4639 66.9643C64.4639 66.9643 64.4639 66.9642 64.4639 66.6389L67.0667 65.0121Z" fill="#E2E2E7"/>
<path d="M82.3588 57.5289L83.3348 56.8782H83.6602L84.6363 57.5289C84.6363 57.5289 84.6363 57.5289 84.6363 57.8543L83.6602 58.505H83.3348L82.3588 57.5289C82.0334 57.8543 82.0334 57.5289 82.3588 57.5289Z" fill="#E2E2E7"/>
<path d="M80.7318 58.5047L81.7078 57.854H82.0332L83.0093 58.5047C83.0093 58.5047 83.0093 58.5047 83.0093 58.8301L82.0332 59.4808H81.7078L80.7318 58.5047C80.7318 58.8301 80.4064 58.5047 80.7318 58.5047Z" fill="#E2E2E7"/>
<path d="M80.081 58.8302H80.4064L81.3825 59.4809C81.3825 59.4809 81.3825 59.4809 81.3825 59.8063L80.4064 60.457H80.081L79.105 59.8063C79.105 59.8063 79.105 59.8063 79.105 59.4809L80.081 58.8302Z" fill="#E2E2E7"/>
<path d="M77.4783 60.4572L78.4543 59.8065H78.7797L79.7558 60.4572C79.7558 60.4572 79.7558 60.4572 79.7558 60.7825L78.7797 61.4333H78.4543L77.4783 60.4572Z" fill="#E2E2E7"/>
<path d="M75.8516 61.433L76.8276 60.7823H77.153L78.1291 61.433C78.1291 61.433 78.1291 61.433 78.1291 61.7584L77.153 62.4091H76.8276L75.8516 61.433Z" fill="#E2E2E7"/>
<path d="M75.2007 61.7585H75.526L76.5021 62.4093C76.5021 62.4093 76.5021 62.4093 76.5021 62.7346L75.526 63.3853H75.2007L74.2246 62.7346C74.2246 62.7346 74.2246 62.7346 74.2246 62.4093L75.2007 61.7585Z" fill="#E2E2E7"/>
<path d="M72.5979 63.3851L73.574 62.7344H73.8993L74.8754 63.3851C74.8754 63.3851 74.8754 63.3851 74.8754 63.7105L73.8993 64.3612H73.574L72.5979 63.3851Z" fill="#E2E2E7"/>
<path d="M70.9709 64.3613L71.947 63.7106H72.2724L73.2485 64.3613C73.2485 64.3613 73.2485 64.3613 73.2485 64.6867L72.2724 65.3374H71.947L70.9709 64.3613Z" fill="#E2E2E7"/>
<path d="M69.3442 65.3376L70.3203 64.6868H70.6457L71.6217 65.3376C71.6217 65.3376 71.6217 65.3376 71.6217 65.6629L70.6457 66.3136H70.3203L69.3442 65.3376Z" fill="#E2E2E7"/>
<path d="M67.7175 66.3134L68.6936 65.6627H69.0189L69.995 66.3134C69.995 66.3134 69.995 66.3134 69.995 66.6387L69.0189 67.2895H68.6936L67.7175 66.3134Z" fill="#E2E2E7"/>
<path d="M67.392 66.6389H67.7174L68.6934 67.2896C68.6934 67.2896 68.6934 67.2896 68.6934 67.615L67.392 68.5911H67.0666L66.0906 67.9404C66.0906 67.9404 66.0906 67.9404 66.0906 67.615L67.392 66.6389Z" fill="#E2E2E7"/>
<path d="M88.2151 55.5768L89.5165 54.9261H89.8419L90.818 55.5768C90.818 55.5768 90.818 55.5768 90.818 55.9022L89.5165 56.5529H89.1912L88.2151 55.5768Z" fill="#E2E2E7"/>
<path d="M87.8897 55.9019H88.2151L89.1912 56.5526C89.1912 56.5526 89.1912 56.5526 89.1912 56.878L87.5644 57.8541H87.239L86.2629 57.2034C86.2629 57.2034 86.2629 57.2033 86.2629 56.878L87.8897 55.9019Z" fill="#E2E2E7"/>
<path d="M84.6362 57.8542L85.6123 57.2035H85.9377L86.9137 57.8542C86.9137 57.8542 86.9137 57.8542 86.9137 58.1796L85.9377 58.8303H85.6123L84.6362 57.8542Z" fill="#E2E2E7"/>
<path d="M84.3108 57.854H84.6362L85.6122 58.5047C85.6122 58.5047 85.6122 58.5047 85.6122 58.8301L84.6362 59.4808H84.3108L83.3347 58.8301C83.3347 58.8301 83.3347 58.8301 83.3347 58.5047L84.3108 57.854Z" fill="#E2E2E7"/>
<path d="M81.3826 59.4809L82.3587 58.8302H82.684L83.6601 59.4809C83.6601 59.4809 83.6601 59.4809 83.6601 59.8063L82.684 60.457H82.3587L81.3826 59.4809C81.3826 59.8063 81.3826 59.8063 81.3826 59.4809Z" fill="#E2E2E7"/>
<path d="M79.7559 60.4572L80.7319 59.8065H81.0573L82.0334 60.4572C82.0334 60.4572 82.0334 60.4572 82.0334 60.7825L81.0573 61.4333H80.7319L79.7559 60.4572C79.7559 60.7825 79.7559 60.7825 79.7559 60.4572Z" fill="#E2E2E7"/>
<path d="M78.4542 61.433L79.4303 60.7823H79.7557L80.7318 61.433C80.7318 61.433 80.7318 61.433 80.7318 61.7584L79.7557 62.4091H79.4303L78.4542 61.433C78.1289 61.7584 78.1289 61.7584 78.4542 61.433Z" fill="#E2E2E7"/>
<path d="M76.8275 62.4093L77.8036 61.7585H78.129L79.105 62.4093C79.105 62.4093 79.105 62.4093 79.105 62.7346L78.129 63.3853H77.8036L76.8275 62.4093C76.5022 62.7346 76.5022 62.7346 76.8275 62.4093Z" fill="#E2E2E7"/>
<path d="M75.2008 63.3851L76.1769 62.7344H76.5022L77.4783 63.3851C77.4783 63.3851 77.4783 63.3851 77.4783 63.7105L76.5022 64.3612H76.1769L75.2008 63.3851C74.8754 63.7104 74.8754 63.7104 75.2008 63.3851Z" fill="#E2E2E7"/>
<path d="M73.5739 64.3613L74.5499 63.7106H74.8753L75.8514 64.3613C75.8514 64.3613 75.8514 64.3613 75.8514 64.6867L74.8753 65.3374H74.5499L73.5739 64.3613C73.2485 64.6867 73.2485 64.6867 73.5739 64.3613Z" fill="#E2E2E7"/>
<path d="M71.9471 65.3376L72.9232 64.6868H73.2485L74.2246 65.3376C74.2246 65.3376 74.2246 65.3376 74.2246 65.6629L73.2485 66.3136H72.9232L71.9471 65.3376C71.9471 65.6629 71.6217 65.6629 71.9471 65.3376Z" fill="#E2E2E7"/>
<path d="M71.2964 65.6627H71.6218L72.5978 66.3134C72.5978 66.3134 72.5978 66.3134 72.5978 66.6387L71.6218 67.2895H71.2964L70.3203 66.6387C70.3203 66.6387 70.3203 66.6387 70.3203 66.3134L71.2964 65.6627Z" fill="#E2E2E7"/>
<path d="M67.3922 68.2657L69.9951 66.6389H70.3205L71.2965 67.2896C71.2965 67.2896 71.2965 67.2896 71.2965 67.615L68.6937 69.2418H68.3683L67.3922 68.2657C67.0669 68.2657 67.0669 68.2657 67.3922 68.2657Z" fill="#E2E2E7"/>
<path d="M91.4688 55.2511L92.4448 54.6003H92.7702L95.0477 55.9018C95.0477 55.9018 95.0477 55.9018 95.0477 56.2271L94.0716 56.8778H93.7463L91.4688 55.2511C91.4688 55.5764 91.4688 55.2511 91.4688 55.2511Z" fill="#E2E2E7"/>
<path d="M89.8419 56.2273L91.1434 55.5766H91.4687L92.4448 56.2273C92.4448 56.2273 92.4448 56.2273 92.4448 56.5527L91.1434 57.2034H90.818L89.8419 56.2273C89.5166 56.5527 89.5166 56.2273 89.8419 56.2273Z" fill="#E2E2E7"/>
<path d="M88.5405 56.8783L89.1913 56.553H89.5166L90.4927 57.2037C90.4927 57.2037 90.4927 57.2037 90.4927 57.5291L89.842 57.8544H89.5166L88.5405 56.8783C88.5405 57.2037 88.5405 57.2037 88.5405 56.8783Z" fill="#E2E2E7"/>
<path d="M87.239 57.854L87.8897 57.5287H88.2151L89.1912 58.1794C89.1912 58.1794 89.1912 58.1794 89.1912 58.5047L88.5404 58.8301H88.2151L87.239 57.854Z" fill="#E2E2E7"/>
<path d="M84.9614 59.1558L86.9136 58.1797H87.239L88.215 58.8304C88.215 58.8304 88.215 58.8304 88.215 59.1558L86.2629 60.1318H85.9375L84.9614 59.1558Z" fill="#E2E2E7"/>
<path d="M83.3347 60.1314L84.3108 59.4807H84.6362L85.6122 60.1314C85.6122 60.1314 85.6122 60.1314 85.6122 60.4568L84.6362 61.1075H84.3108L83.3347 60.1314Z" fill="#E2E2E7"/>
<path d="M81.7078 61.1077L82.6839 60.457H83.0092L83.9853 61.1077C83.9853 61.1077 83.9853 61.1077 83.9853 61.433L83.0092 62.0838H82.6839L81.7078 61.1077Z" fill="#E2E2E7"/>
<path d="M81.3826 61.4332H81.7079L82.684 62.084C82.684 62.084 82.684 62.084 82.684 62.4093L81.7079 63.06H81.3826L80.4065 62.4093C80.4065 62.4093 80.4065 62.4093 80.4065 62.084L81.3826 61.4332Z" fill="#E2E2E7"/>
<path d="M78.7797 63.0598L79.7558 62.4091H80.0811L81.0572 63.0598C81.0572 63.0598 81.0572 63.0598 81.0572 63.3851L80.0811 64.0359H79.7558L78.7797 63.0598C78.4543 63.0598 78.4543 63.0598 78.7797 63.0598Z" fill="#E2E2E7"/>
<path d="M77.153 64.036L78.129 63.3853H78.4544L79.4305 64.036C79.4305 64.036 79.4305 64.036 79.4305 64.3614L78.4544 65.0121H78.129L77.153 64.036C76.8276 64.036 76.8276 64.036 77.153 64.036Z" fill="#E2E2E7"/>
<path d="M75.526 65.0119L76.5021 64.3611H76.8274L77.8035 65.0119C77.8035 65.0119 77.8035 65.0119 77.8035 65.3372L76.8274 65.9879H76.5021L75.526 65.0119C75.2006 65.0119 75.2006 65.0119 75.526 65.0119Z" fill="#E2E2E7"/>
<path d="M73.8993 65.988L74.8754 65.3373H75.2007L76.1768 65.988C76.1768 65.988 76.1768 65.988 76.1768 66.3134L75.2007 66.9641H74.8754L73.8993 65.988C73.5739 65.988 73.5739 65.988 73.8993 65.988Z" fill="#E2E2E7"/>
<path d="M72.2726 66.9643L73.2487 66.3136H73.574L74.5501 66.9643C74.5501 66.9643 74.5501 66.9643 74.5501 67.2897L73.574 67.9404H73.2487L72.2726 66.9643C71.9472 66.9643 71.9472 66.9643 72.2726 66.9643Z" fill="#E2E2E7"/>
<path d="M70.6458 67.9403L71.6218 67.2896H71.9472L72.9233 67.9403C72.9233 67.9403 72.9233 67.9403 72.9233 68.2656L71.9472 68.9163H71.6218L70.6458 67.9403Z" fill="#E2E2E7"/>
<path d="M69.0188 68.9164L69.9949 68.2657H70.3202L71.2963 68.9164C71.2963 68.9164 71.2963 68.9164 71.2963 69.2418L70.3202 69.8925H69.9949L69.0188 68.9164Z" fill="#E2E2E7"/>
<path d="M90.8179 57.2037L91.794 56.553H92.1194L93.0954 57.2037C93.0954 57.2037 93.0954 57.2037 93.0954 57.5291L92.1194 58.1798H91.794L90.8179 57.2037C90.8179 57.5291 90.4926 57.5291 90.8179 57.2037Z" fill="#E2E2E7"/>
<path d="M90.1672 57.5287H90.4926L91.4687 58.1794C91.4687 58.1794 91.4687 58.1794 91.4687 58.5047L90.4926 59.1555H90.1672L89.1912 58.5047C89.1912 58.5047 89.1912 58.5048 89.1912 58.1794L90.1672 57.5287Z" fill="#E2E2E7"/>
<path d="M87.5645 59.1557L88.5405 58.5049H88.8659L89.842 59.1557C89.842 59.1557 89.842 59.1557 89.842 59.481L88.8659 60.1317H88.5405L87.5645 59.1557C87.5645 59.481 87.5645 59.481 87.5645 59.1557Z" fill="#E2E2E7"/>
<path d="M86.9136 59.4807H87.2389L88.215 60.1314C88.215 60.1314 88.215 60.1314 88.215 60.4568L87.2389 61.1075H86.9136L85.9375 60.4568C85.9375 60.4568 85.9375 60.4568 85.9375 60.1314L86.9136 59.4807Z" fill="#E2E2E7"/>
<path d="M77.8037 65.012L85.287 60.457H85.6123L86.5884 61.1077C86.5884 61.1077 86.5884 61.1077 86.5884 61.433L79.1052 65.9881H78.7798L77.8037 65.012C77.8037 65.3373 77.8037 65.3373 77.8037 65.012Z" fill="#E2E2E7"/>
<path d="M76.1768 65.988L77.1528 65.3373H77.4782L78.4543 65.988C78.4543 65.988 78.4543 65.988 78.4543 66.3134L77.4782 66.9641H77.1528L76.1768 65.988C76.1768 66.3134 76.1768 66.3134 76.1768 65.988Z" fill="#E2E2E7"/>
<path d="M74.55 66.9643L75.5261 66.3136H75.8515L76.8276 66.9643C76.8276 66.9643 76.8276 66.9643 76.8276 67.2897L75.8515 67.9404H75.5261L74.55 66.9643C74.55 67.2897 74.55 67.2897 74.55 66.9643Z" fill="#E2E2E7"/>
<path d="M72.9233 67.9403L73.8994 67.2896H74.2248L75.2008 67.9403C75.2008 67.9403 75.2008 67.9403 75.2008 68.2656L74.2248 68.9163H73.8994L72.9233 67.9403C72.9233 68.2656 72.9233 68.2656 72.9233 67.9403Z" fill="#E2E2E7"/>
<path d="M71.2964 68.9164L72.2724 68.2657H72.5978L73.5739 68.9164C73.5739 68.9164 73.5739 68.9164 73.5739 69.2418L72.5978 69.8925H72.2724L71.2964 68.9164C71.2964 69.2418 71.2964 69.2418 71.2964 68.9164Z" fill="#E2E2E7"/>
<path d="M69.9949 69.8923L70.971 69.2416H71.2963L72.2724 69.8923C72.2724 69.8923 72.2724 69.8924 72.2724 70.2177L71.2963 70.8684H70.971L69.9949 69.8923Z" fill="#E2E2E7"/>
<path d="M75.2009 50.6963L101.23 35.079C101.555 34.7537 101.88 35.079 101.88 35.4044L98.9521 56.5527C98.9521 56.8781 98.6267 57.5288 98.3014 57.8542L72.598 73.4714C72.2726 73.7968 71.9473 73.4714 71.9473 73.1461L74.8755 51.9977C74.5501 51.347 74.8755 51.0217 75.2009 50.6963Z" fill="#BAC1E8"/>
<g opacity="0.4">
<path opacity="0.4" d="M98.6266 56.5528C98.6266 56.8781 98.3013 57.5289 97.9759 57.8542L72.2725 73.4715C71.9472 73.7968 71.6218 73.4715 71.6218 73.1461L71.9472 70.5432C81.3826 61.7585 91.1434 52.6485 100.579 43.8638L98.6266 56.5528Z" fill="url(#paint74_linear)"/>
</g>
<path d="M73.8993 51.3467C73.8993 51.3467 74.2247 51.3467 73.8993 51.3467C74.2247 51.3467 74.2247 51.3467 73.8993 51.3467C74.2247 51.3467 74.2247 51.3467 73.8993 51.3467C74.2247 51.3467 74.2247 51.3467 73.8993 51.3467C74.2247 51.0214 74.2247 51.0214 73.8993 51.3467C73.8993 51.0214 73.8993 51.0214 73.8993 51.0214L99.6027 35.4041L99.9281 35.7295L73.8993 51.3467C73.8993 51.3467 73.8993 51.3467 73.8993 51.6721L70.9711 72.8204C70.9711 73.1458 70.9711 73.1458 70.9711 73.1458L70.6458 72.8204V72.4951L73.8993 51.3467C73.8993 51.6721 73.8993 51.3467 73.8993 51.3467Z" fill="white"/>
<path d="M47.2201 20.7628C41.0383 23.6911 41.0383 44.5141 45.2679 48.7437C46.5694 50.0452 50.1483 50.0452 51.1244 44.1887C52.1005 38.3323 53.4019 25.3179 53.4019 24.3418C53.7273 19.4614 48.8469 19.7868 47.2201 20.7628Z" fill="url(#paint75_linear)"/>
<path d="M49.1721 39.3084C48.8467 39.9591 48.8468 40.6099 48.8468 41.2606C49.1721 41.5859 49.4975 41.9113 49.8228 41.9113C50.7989 42.8874 50.7989 43.8634 50.7989 45.1649C50.7989 44.8395 51.1243 44.5142 51.1243 43.8634C52.1003 37.6816 53.4018 24.9926 53.4018 24.0165C53.7271 20.1122 50.4736 19.4615 48.196 20.1122C50.1482 20.763 53.0764 21.0883 51.775 23.3658C51.775 23.3658 49.8228 25.318 49.8228 25.6433C48.8468 29.2223 51.775 32.8012 50.7989 36.3802C50.4735 37.6816 49.4975 38.3323 49.1721 39.3084Z" fill="#D2D7F6"/>
<path d="M64.4641 38.0068C67.067 38.6575 69.9952 36.7053 70.9713 36.38C72.2727 36.0546 72.9234 36.38 73.5742 36.0546C73.8995 36.0546 73.8995 37.0307 72.2727 37.356C70.3206 37.6814 75.5263 37.3561 76.5024 38.0068C77.4785 38.9829 78.4546 39.6336 77.8038 39.9589C77.4785 39.9589 76.8278 39.3082 75.8517 38.9828C75.201 38.6575 75.201 38.6575 74.5502 38.9828C74.5502 38.9828 77.8038 39.9589 77.8038 41.2604C77.8038 41.5857 76.177 42.8871 75.2009 42.2364C74.5502 41.5857 73.8995 41.5857 72.9234 41.9111C67.067 43.5379 67.7177 40.935 64.7895 41.9111L64.4641 38.0068Z" fill="#FFD1AA"/>
<path d="M47.5454 41.9112C53.7273 40.6098 64.4641 37.3562 64.4641 37.3562C64.4641 37.3562 66.7416 38.3323 66.7416 42.2366C66.7416 42.2366 55.0287 48.0931 49.1722 49.3945C43.3158 50.6959 43.9665 42.8873 47.5454 41.9112Z" fill="url(#paint76_linear)"/>
<path d="M45.9188 43.8633C48.1963 42.8872 50.4738 42.5619 52.7513 42.5619C54.7035 42.5619 57.3063 42.5619 58.9331 41.9112C60.2346 41.2605 61.2107 39.959 62.1867 39.3083C63.1628 38.6576 64.1389 38.3322 65.115 38.0069C64.7896 37.6815 64.4643 37.6815 64.4643 37.6815C64.4643 37.6815 53.7274 40.6097 47.5456 42.2365C46.5695 42.5619 45.5934 43.538 45.2681 44.5141C45.2681 43.8633 45.5934 43.8633 45.9188 43.8633Z" fill="#D2D7F6"/>
<defs>
<linearGradient id="paint0_linear" x1="9.6989" y1="68.6792" x2="96.9039" y2="68.6792" gradientUnits="userSpaceOnUse">
<stop stop-color="#5752D0"/>
<stop offset="1" stop-color="#7F7CF9"/>
</linearGradient>
<linearGradient id="paint1_linear" x1="42.3777" y1="38.898" x2="67.5884" y2="38.898" gradientUnits="userSpaceOnUse">
<stop stop-color="#F0F0FB"/>
<stop offset="1" stop-color="#D2D7F6"/>
</linearGradient>
<linearGradient id="paint2_linear" x1="37.6626" y1="42.428" x2="64.4953" y2="42.428" gradientUnits="userSpaceOnUse">
<stop offset="8e-08" stop-color="#D82C53"/>
<stop offset="1" stop-color="#FF5774"/>
</linearGradient>
<linearGradient id="paint3_linear" x1="63.1083" y1="37.9195" x2="78.8329" y2="37.9195" gradientUnits="userSpaceOnUse">
<stop offset="8e-08" stop-color="#D82C53"/>
<stop offset="1" stop-color="#FF5774"/>
</linearGradient>
<linearGradient id="paint4_linear" x1="67.8313" y1="54.5514" x2="74.5783" y2="58.4827" gradientUnits="userSpaceOnUse">
<stop stop-color="white"/>
<stop offset="1" stop-color="#CACCED"/>
</linearGradient>
<linearGradient id="paint5_linear" x1="-176.782" y1="65.7306" x2="-201.607" y2="65.7306" gradientUnits="userSpaceOnUse">
<stop offset="2e-06" stop-color="#CACCED"/>
<stop offset="1" stop-color="white"/>
</linearGradient>
<linearGradient id="paint6_linear" x1="89.609" y1="68.9478" x2="89.609" y2="63.7342" gradientUnits="userSpaceOnUse">
<stop offset="2e-06" stop-color="#003286"/>
<stop offset="1" stop-color="#0085F2"/>
</linearGradient>
<linearGradient id="paint7_linear" x1="88.2268" y1="68.9383" x2="88.2268" y2="63.7283" gradientUnits="userSpaceOnUse">
<stop offset="2e-06" stop-color="#003286"/>
<stop offset="1" stop-color="#0085F2"/>
</linearGradient>
<linearGradient id="paint8_linear" x1="86.4856" y1="68.9416" x2="86.4856" y2="63.7307" gradientUnits="userSpaceOnUse">
<stop offset="2e-06" stop-color="#003286"/>
<stop offset="1" stop-color="#0085F2"/>
</linearGradient>
<linearGradient id="paint9_linear" x1="85.923" y1="68.9354" x2="85.923" y2="63.7264" gradientUnits="userSpaceOnUse">
<stop offset="2e-06" stop-color="#003286"/>
<stop offset="1" stop-color="#0085F2"/>
</linearGradient>
<linearGradient id="paint10_linear" x1="84.6301" y1="68.9367" x2="84.6301" y2="63.7276" gradientUnits="userSpaceOnUse">
<stop offset="2e-06" stop-color="#003286"/>
<stop offset="1" stop-color="#0085F2"/>
</linearGradient>
<linearGradient id="paint11_linear" x1="83.0252" y1="68.938" x2="83.0252" y2="63.7294" gradientUnits="userSpaceOnUse">
<stop offset="2e-06" stop-color="#003286"/>
<stop offset="1" stop-color="#0085F2"/>
</linearGradient>
<linearGradient id="paint12_linear" x1="81.4177" y1="68.9383" x2="81.4177" y2="63.7296" gradientUnits="userSpaceOnUse">
<stop offset="2e-06" stop-color="#003286"/>
<stop offset="1" stop-color="#0085F2"/>
</linearGradient>
<linearGradient id="paint13_linear" x1="79.8115" y1="68.9446" x2="79.8115" y2="63.7297" gradientUnits="userSpaceOnUse">
<stop offset="2e-06" stop-color="#003286"/>
<stop offset="1" stop-color="#0085F2"/>
</linearGradient>
<linearGradient id="paint14_linear" x1="78.2038" y1="68.9369" x2="78.2038" y2="63.7292" gradientUnits="userSpaceOnUse">
<stop offset="2e-06" stop-color="#003286"/>
<stop offset="1" stop-color="#0085F2"/>
</linearGradient>
<linearGradient id="paint15_linear" x1="76.5946" y1="68.938" x2="76.5946" y2="63.728" gradientUnits="userSpaceOnUse">
<stop offset="2e-06" stop-color="#003286"/>
<stop offset="1" stop-color="#0085F2"/>
</linearGradient>
<linearGradient id="paint16_linear" x1="74.9898" y1="68.9397" x2="74.9898" y2="63.7288" gradientUnits="userSpaceOnUse">
<stop offset="2e-06" stop-color="#003286"/>
<stop offset="1" stop-color="#0085F2"/>
</linearGradient>
<linearGradient id="paint17_linear" x1="73.3823" y1="68.9415" x2="73.3823" y2="63.7293" gradientUnits="userSpaceOnUse">
<stop offset="2e-06" stop-color="#003286"/>
<stop offset="1" stop-color="#0085F2"/>
</linearGradient>
<linearGradient id="paint18_linear" x1="71.7777" y1="68.9398" x2="71.7777" y2="63.7314" gradientUnits="userSpaceOnUse">
<stop offset="2e-06" stop-color="#003286"/>
<stop offset="1" stop-color="#0085F2"/>
</linearGradient>
<linearGradient id="paint19_linear" x1="70.3003" y1="68.94" x2="70.3003" y2="63.7287" gradientUnits="userSpaceOnUse">
<stop offset="2e-06" stop-color="#003286"/>
<stop offset="1" stop-color="#0085F2"/>
</linearGradient>
<linearGradient id="paint20_linear" x1="71.9078" y1="68.9335" x2="71.9078" y2="63.7289" gradientUnits="userSpaceOnUse">
<stop offset="2e-06" stop-color="#003286"/>
<stop offset="1" stop-color="#0085F2"/>
</linearGradient>
<linearGradient id="paint21_linear" x1="73.5156" y1="68.9379" x2="73.5156" y2="63.7283" gradientUnits="userSpaceOnUse">
<stop offset="2e-06" stop-color="#003286"/>
<stop offset="1" stop-color="#0085F2"/>
</linearGradient>
<linearGradient id="paint22_linear" x1="75.1234" y1="68.9448" x2="75.1234" y2="63.7303" gradientUnits="userSpaceOnUse">
<stop offset="2e-06" stop-color="#003286"/>
<stop offset="1" stop-color="#0085F2"/>
</linearGradient>
<linearGradient id="paint23_linear" x1="76.7309" y1="68.9368" x2="76.7309" y2="63.7278" gradientUnits="userSpaceOnUse">
<stop offset="2e-06" stop-color="#003286"/>
<stop offset="1" stop-color="#0085F2"/>
</linearGradient>
<linearGradient id="paint24_linear" x1="78.3355" y1="68.9481" x2="78.3355" y2="63.7329" gradientUnits="userSpaceOnUse">
<stop offset="2e-06" stop-color="#003286"/>
<stop offset="1" stop-color="#0085F2"/>
</linearGradient>
<linearGradient id="paint25_linear" x1="79.9436" y1="68.9367" x2="79.9436" y2="63.7278" gradientUnits="userSpaceOnUse">
<stop offset="2e-06" stop-color="#003286"/>
<stop offset="1" stop-color="#0085F2"/>
</linearGradient>
<linearGradient id="paint26_linear" x1="81.5479" y1="68.9287" x2="81.5479" y2="63.7222" gradientUnits="userSpaceOnUse">
<stop offset="2e-06" stop-color="#003286"/>
<stop offset="1" stop-color="#0085F2"/>
</linearGradient>
<linearGradient id="paint27_linear" x1="83.1586" y1="68.94" x2="83.1586" y2="63.729" gradientUnits="userSpaceOnUse">
<stop offset="2e-06" stop-color="#003286"/>
<stop offset="1" stop-color="#0085F2"/>
</linearGradient>
<linearGradient id="paint28_linear" x1="83.4606" y1="68.9383" x2="83.4606" y2="63.7283" gradientUnits="userSpaceOnUse">
<stop offset="2e-06" stop-color="#003286"/>
<stop offset="1" stop-color="#0085F2"/>
</linearGradient>
<linearGradient id="paint29_linear" x1="82.7061" y1="68.9507" x2="82.7061" y2="63.7343" gradientUnits="userSpaceOnUse">
<stop offset="2e-06" stop-color="#003286"/>
<stop offset="1" stop-color="#0085F2"/>
</linearGradient>
<linearGradient id="paint30_linear" x1="81.0999" y1="68.9338" x2="81.0999" y2="63.7267" gradientUnits="userSpaceOnUse">
<stop offset="2e-06" stop-color="#003286"/>
<stop offset="1" stop-color="#0085F2"/>
</linearGradient>
<linearGradient id="paint31_linear" x1="79.4922" y1="68.9335" x2="79.4922" y2="63.7271" gradientUnits="userSpaceOnUse">
<stop offset="2e-06" stop-color="#003286"/>
<stop offset="1" stop-color="#0085F2"/>
</linearGradient>
<linearGradient id="paint32_linear" x1="77.8842" y1="68.9414" x2="77.8842" y2="63.7305" gradientUnits="userSpaceOnUse">
<stop offset="2e-06" stop-color="#003286"/>
<stop offset="1" stop-color="#0085F2"/>
</linearGradient>
<linearGradient id="paint33_linear" x1="76.2766" y1="68.9413" x2="76.2766" y2="63.728" gradientUnits="userSpaceOnUse">
<stop offset="2e-06" stop-color="#003286"/>
<stop offset="1" stop-color="#0085F2"/>
</linearGradient>
<linearGradient id="paint34_linear" x1="74.6704" y1="68.9352" x2="74.6704" y2="63.7298" gradientUnits="userSpaceOnUse">
<stop offset="2e-06" stop-color="#003286"/>
<stop offset="1" stop-color="#0085F2"/>
</linearGradient>
<linearGradient id="paint35_linear" x1="73.0643" y1="68.9383" x2="73.0643" y2="63.7296" gradientUnits="userSpaceOnUse">
<stop offset="2e-06" stop-color="#003286"/>
<stop offset="1" stop-color="#0085F2"/>
</linearGradient>
<linearGradient id="paint36_linear" x1="72.2113" y1="68.9352" x2="72.2113" y2="63.7295" gradientUnits="userSpaceOnUse">
<stop offset="2e-06" stop-color="#003286"/>
<stop offset="1" stop-color="#0085F2"/>
</linearGradient>
<linearGradient id="paint37_linear" x1="73.8191" y1="68.9335" x2="73.8191" y2="63.7287" gradientUnits="userSpaceOnUse">
<stop offset="2e-06" stop-color="#003286"/>
<stop offset="1" stop-color="#0085F2"/>
</linearGradient>
<linearGradient id="paint38_linear" x1="75.4252" y1="68.9399" x2="75.4252" y2="63.7293" gradientUnits="userSpaceOnUse">
<stop offset="2e-06" stop-color="#003286"/>
<stop offset="1" stop-color="#0085F2"/>
</linearGradient>
<linearGradient id="paint39_linear" x1="77.0329" y1="68.9397" x2="77.0329" y2="63.7291" gradientUnits="userSpaceOnUse">
<stop offset="2e-06" stop-color="#003286"/>
<stop offset="1" stop-color="#0085F2"/>
</linearGradient>
<linearGradient id="paint40_linear" x1="78.6408" y1="68.9416" x2="78.6408" y2="63.7297" gradientUnits="userSpaceOnUse">
<stop offset="2e-06" stop-color="#003286"/>
<stop offset="1" stop-color="#0085F2"/>
</linearGradient>
<linearGradient id="paint41_linear" x1="80.2483" y1="68.9523" x2="80.2483" y2="63.7343" gradientUnits="userSpaceOnUse">
<stop offset="2e-06" stop-color="#003286"/>
<stop offset="1" stop-color="#0085F2"/>
</linearGradient>
<linearGradient id="paint42_linear" x1="81.8531" y1="68.9413" x2="81.8531" y2="63.7297" gradientUnits="userSpaceOnUse">
<stop offset="2e-06" stop-color="#003286"/>
<stop offset="1" stop-color="#0085F2"/>
</linearGradient>
<linearGradient id="paint43_linear" x1="70.6051" y1="68.9448" x2="70.6051" y2="63.727" gradientUnits="userSpaceOnUse">
<stop offset="2e-06" stop-color="#003286"/>
<stop offset="1" stop-color="#0085F2"/>
</linearGradient>
<linearGradient id="paint44_linear" x1="71.4568" y1="68.9381" x2="71.4568" y2="63.732" gradientUnits="userSpaceOnUse">
<stop offset="2e-06" stop-color="#003286"/>
<stop offset="1" stop-color="#0085F2"/>
</linearGradient>
<linearGradient id="paint45_linear" x1="84.312" y1="68.9413" x2="84.312" y2="63.7297" gradientUnits="userSpaceOnUse">
<stop offset="2e-06" stop-color="#003286"/>
<stop offset="1" stop-color="#0085F2"/>
</linearGradient>
<linearGradient id="paint46_linear" x1="82.5487" y1="68.9493" x2="82.5487" y2="63.7349" gradientUnits="userSpaceOnUse">
<stop offset="2e-06" stop-color="#003286"/>
<stop offset="1" stop-color="#0085F2"/>
</linearGradient>
<linearGradient id="paint47_linear" x1="80.9379" y1="68.9338" x2="80.9379" y2="63.7255" gradientUnits="userSpaceOnUse">
<stop offset="2e-06" stop-color="#003286"/>
<stop offset="1" stop-color="#0085F2"/>
</linearGradient>
<linearGradient id="paint48_linear" x1="79.3318" y1="68.9414" x2="79.3318" y2="63.7298" gradientUnits="userSpaceOnUse">
<stop offset="2e-06" stop-color="#003286"/>
<stop offset="1" stop-color="#0085F2"/>
</linearGradient>
<linearGradient id="paint49_linear" x1="77.7255" y1="68.9321" x2="77.7255" y2="63.7247" gradientUnits="userSpaceOnUse">
<stop offset="2e-06" stop-color="#003286"/>
<stop offset="1" stop-color="#0085F2"/>
</linearGradient>
<linearGradient id="paint50_linear" x1="76.1195" y1="68.9397" x2="76.1195" y2="63.729" gradientUnits="userSpaceOnUse">
<stop offset="2e-06" stop-color="#003286"/>
<stop offset="1" stop-color="#0085F2"/>
</linearGradient>
<linearGradient id="paint51_linear" x1="74.5133" y1="68.9429" x2="74.5133" y2="63.73" gradientUnits="userSpaceOnUse">
<stop offset="2e-06" stop-color="#003286"/>
<stop offset="1" stop-color="#0085F2"/>
</linearGradient>
<linearGradient id="paint52_linear" x1="72.9039" y1="68.9432" x2="72.9039" y2="63.7306" gradientUnits="userSpaceOnUse">
<stop offset="2e-06" stop-color="#003286"/>
<stop offset="1" stop-color="#0085F2"/>
</linearGradient>
<linearGradient id="paint53_linear" x1="71.2961" y1="68.9479" x2="71.2961" y2="63.731" gradientUnits="userSpaceOnUse">
<stop offset="2e-06" stop-color="#003286"/>
<stop offset="1" stop-color="#0085F2"/>
</linearGradient>
<linearGradient id="paint54_linear" x1="69.6918" y1="68.9432" x2="69.6918" y2="63.7302" gradientUnits="userSpaceOnUse">
<stop offset="2e-06" stop-color="#003286"/>
<stop offset="1" stop-color="#0085F2"/>
</linearGradient>
<linearGradient id="paint55_linear" x1="68.0837" y1="68.9396" x2="68.0837" y2="63.7287" gradientUnits="userSpaceOnUse">
<stop offset="2e-06" stop-color="#003286"/>
<stop offset="1" stop-color="#0085F2"/>
</linearGradient>
<linearGradient id="paint56_linear" x1="64.8716" y1="68.9383" x2="64.8716" y2="63.729" gradientUnits="userSpaceOnUse">
<stop offset="2e-06" stop-color="#003286"/>
<stop offset="1" stop-color="#0085F2"/>
</linearGradient>
<linearGradient id="paint57_linear" x1="66.4778" y1="68.9335" x2="66.4778" y2="63.7305" gradientUnits="userSpaceOnUse">
<stop offset="2e-06" stop-color="#003286"/>
<stop offset="1" stop-color="#0085F2"/>
</linearGradient>
<linearGradient id="paint58_linear" x1="68.6954" y1="68.9367" x2="68.6954" y2="63.73" gradientUnits="userSpaceOnUse">
<stop offset="2e-06" stop-color="#003286"/>
<stop offset="1" stop-color="#0085F2"/>
</linearGradient>
<linearGradient id="paint59_linear" x1="68.999" y1="68.9368" x2="68.999" y2="63.7307" gradientUnits="userSpaceOnUse">
<stop offset="2e-06" stop-color="#003286"/>
<stop offset="1" stop-color="#0085F2"/>
</linearGradient>
<linearGradient id="paint60_linear" x1="67.2561" y1="68.9399" x2="67.2561" y2="63.7309" gradientUnits="userSpaceOnUse">
<stop offset="2e-06" stop-color="#003286"/>
<stop offset="1" stop-color="#0085F2"/>
</linearGradient>
<linearGradient id="paint61_linear" x1="69.1753" y1="68.9399" x2="69.1753" y2="63.7302" gradientUnits="userSpaceOnUse">
<stop offset="2e-06" stop-color="#003286"/>
<stop offset="1" stop-color="#0085F2"/>
</linearGradient>
<linearGradient id="paint62_linear" x1="70.1698" y1="68.9398" x2="70.1698" y2="63.7311" gradientUnits="userSpaceOnUse">
<stop offset="2e-06" stop-color="#003286"/>
<stop offset="1" stop-color="#0085F2"/>
</linearGradient>
<linearGradient id="paint63_linear" x1="71.1437" y1="68.9397" x2="71.1437" y2="63.7307" gradientUnits="userSpaceOnUse">
<stop offset="2e-06" stop-color="#003286"/>
<stop offset="1" stop-color="#0085F2"/>
</linearGradient>
<linearGradient id="paint64_linear" x1="72.6356" y1="68.9398" x2="72.6356" y2="63.7311" gradientUnits="userSpaceOnUse">
<stop offset="2e-06" stop-color="#003286"/>
<stop offset="1" stop-color="#0085F2"/>
</linearGradient>
<linearGradient id="paint65_linear" x1="74.2449" y1="68.938" x2="74.2449" y2="63.7299" gradientUnits="userSpaceOnUse">
<stop offset="2e-06" stop-color="#003286"/>
<stop offset="1" stop-color="#0085F2"/>
</linearGradient>
<linearGradient id="paint66_linear" x1="75.8495" y1="68.9432" x2="75.8495" y2="63.7247" gradientUnits="userSpaceOnUse">
<stop offset="2e-06" stop-color="#003286"/>
<stop offset="1" stop-color="#0085F2"/>
</linearGradient>
<linearGradient id="paint67_linear" x1="77.4554" y1="68.9397" x2="77.4554" y2="63.7281" gradientUnits="userSpaceOnUse">
<stop offset="2e-06" stop-color="#003286"/>
<stop offset="1" stop-color="#0085F2"/>
</linearGradient>
<linearGradient id="paint68_linear" x1="82.2769" y1="68.9381" x2="82.2769" y2="63.7288" gradientUnits="userSpaceOnUse">
<stop offset="2e-06" stop-color="#003286"/>
<stop offset="1" stop-color="#0085F2"/>
</linearGradient>
<linearGradient id="paint69_linear" x1="87.0954" y1="68.9367" x2="87.0954" y2="63.7276" gradientUnits="userSpaceOnUse">
<stop offset="2e-06" stop-color="#003286"/>
<stop offset="1" stop-color="#0085F2"/>
</linearGradient>
<linearGradient id="paint70_linear" x1="88.7159" y1="68.9305" x2="88.7159" y2="63.7247" gradientUnits="userSpaceOnUse">
<stop offset="2e-06" stop-color="#003286"/>
<stop offset="1" stop-color="#0085F2"/>
</linearGradient>
<linearGradient id="paint71_linear" x1="87.1909" y1="68.9336" x2="87.1909" y2="63.726" gradientUnits="userSpaceOnUse">
<stop offset="2e-06" stop-color="#003286"/>
<stop offset="1" stop-color="#0085F2"/>
</linearGradient>
<linearGradient id="paint72_linear" x1="89.5452" y1="68.9451" x2="89.5452" y2="63.7324" gradientUnits="userSpaceOnUse">
<stop offset="2e-06" stop-color="#003286"/>
<stop offset="1" stop-color="#0085F2"/>
</linearGradient>
<linearGradient id="paint73_linear" x1="90.9814" y1="68.9379" x2="90.9814" y2="63.7283" gradientUnits="userSpaceOnUse">
<stop offset="2e-06" stop-color="#003286"/>
<stop offset="1" stop-color="#0085F2"/>
</linearGradient>
<linearGradient id="paint74_linear" x1="73.7556" y1="58.3943" x2="104.047" y2="64.2102" gradientUnits="userSpaceOnUse">
<stop offset="2e-06" stop-color="#CACCED"/>
<stop offset="1" stop-color="white"/>
</linearGradient>
<linearGradient id="paint75_linear" x1="42.1793" y1="34.8958" x2="53.3014" y2="34.8958" gradientUnits="userSpaceOnUse">
<stop stop-color="#F0F0FB"/>
<stop offset="1" stop-color="#D2D7F6"/>
</linearGradient>
<linearGradient id="paint76_linear" x1="44.7132" y1="43.5319" x2="66.7891" y2="43.5319" gradientUnits="userSpaceOnUse">
<stop stop-color="#F0F0FB"/>
<stop offset="1" stop-color="#D2D7F6"/>
</linearGradient>
</defs>
</svg>
