<svg width="700" height="999" viewBox="0 0 700 999" fill="none" xmlns="http://www.w3.org/2000/svg">
<path d="M378.622 521.478L380.62 518.481L365.635 509.49C359.641 505.494 351.649 504.495 342.658 504.495C315.685 507.492 292.708 527.472 276.724 552.447L227.773 575.424L256.744 598.401C253.747 609.39 252.748 621.378 252.748 630.369C253.747 646.353 259.741 662.337 271.729 671.328C272.728 672.327 274.726 673.326 275.725 674.325L290.71 684.315L294.706 679.32C295.705 679.32 296.704 679.32 297.703 679.32C332.668 676.323 370.63 633.366 383.617 585.414C390.61 559.44 387.613 536.463 378.622 521.478Z" fill="#C24458"/>
<path d="M244.755 585.414L293.706 562.437C309.69 537.462 332.667 517.482 359.64 514.485C394.605 511.488 412.587 547.452 400.599 595.404C388.611 643.356 350.649 686.313 314.685 689.31C286.713 692.307 270.729 666.333 269.73 641.358C268.731 631.368 270.729 620.379 273.726 609.39L244.755 585.414Z" fill="url(#paint0_linear)"/>
<path d="M352.648 596.403C353.647 598.401 355.645 600.399 357.643 599.4C360.64 598.401 363.637 594.405 363.637 589.41C363.637 585.414 361.639 582.417 358.642 583.416C352.648 585.414 350.65 593.406 352.648 596.403Z" fill="white"/>
<path d="M336.663 606.393C337.662 608.391 339.66 610.389 341.658 609.39C344.655 608.391 347.652 604.395 347.652 599.4C347.652 594.405 345.654 592.407 342.657 593.406C336.663 595.404 335.664 602.397 336.663 606.393Z" fill="white"/>
<path d="M320.68 615.384C321.679 617.382 323.677 619.38 325.675 618.381C328.672 617.382 331.669 613.386 331.669 608.391C331.669 604.395 329.671 601.398 326.674 602.397C321.679 604.395 319.681 611.388 320.68 615.384Z" fill="white"/>
<path d="M362.638 590.409C362.638 594.405 359.641 599.4 356.644 600.399C354.646 601.398 352.648 600.399 351.649 598.401C352.648 598.401 352.648 598.401 353.647 598.401C356.644 597.402 359.641 593.406 359.641 588.411C359.641 586.413 359.641 585.414 358.642 584.415C361.639 584.415 362.638 586.413 362.638 590.409Z" fill="url(#paint1_linear)"/>
<path d="M346.654 599.4C346.654 603.396 343.657 608.391 340.66 609.39C338.662 610.389 336.664 609.39 335.665 607.392C336.664 607.392 336.664 607.392 337.663 607.392C340.66 606.393 343.657 602.397 343.657 597.402C343.657 595.404 343.657 594.405 342.658 593.406C345.655 593.406 347.653 595.404 346.654 599.4Z" fill="url(#paint2_linear)"/>
<path d="M331.669 608.391C331.669 612.387 328.672 617.382 325.675 618.381C323.677 619.38 321.679 618.381 320.68 616.383C321.679 616.383 321.679 616.383 322.678 616.383C325.675 615.384 328.672 611.388 328.672 606.393C328.672 604.395 328.672 603.396 327.673 602.397C329.671 602.397 331.669 605.394 331.669 608.391Z" fill="url(#paint3_linear)"/>
<path d="M244.755 585.414L228.771 575.424L276.723 552.447L292.707 562.437L244.755 585.414Z" fill="#FF6279"/>
<path d="M344.654 679.32C343.655 679.32 342.656 678.321 342.656 677.322V512.487C342.656 511.488 342.656 510.489 341.657 509.49L332.666 486.513C332.666 485.514 332.666 484.515 333.665 484.515C334.664 484.515 335.663 484.515 335.663 485.514L343.655 508.491C344.654 509.49 344.654 511.488 344.654 513.486V679.32C345.653 679.32 346.652 678.321 344.654 679.32Z" fill="#362A99"/>
<path d="M324.675 509.49C323.676 509.49 323.676 509.49 322.677 508.491C321.678 507.492 323.676 500.499 323.676 500.499L331.668 482.517C332.667 481.518 333.666 481.518 334.665 482.517C335.664 483.516 335.664 484.515 334.665 485.514L326.673 503.496L325.674 509.49H324.675Z" fill="#362A99"/>
<path d="M334.666 295.704C335.665 295.704 336.664 296.703 336.664 297.702V482.517C336.664 483.516 335.665 484.515 334.666 484.515C333.667 484.515 332.668 483.516 332.668 482.517V297.702C332.668 296.703 333.667 295.704 334.666 295.704Z" fill="#362A99"/>
<path d="M337.662 317.682V315.684V300.699L335.664 299.7L341.658 295.704L343.656 296.703V311.688C343.656 315.684 342.657 317.682 340.659 318.681L334.665 322.677C336.663 322.677 337.662 320.679 337.662 317.682Z" fill="url(#paint4_linear)"/>
<path d="M302.697 272.727L304.695 273.726V288.711C304.695 289.71 304.695 289.71 304.695 290.709C304.695 291.708 304.695 291.708 304.695 292.707C304.695 293.706 304.695 293.706 305.694 294.705C305.694 295.704 306.693 295.704 306.693 296.703C306.693 297.702 307.692 297.702 307.692 298.701C307.692 299.7 308.691 299.7 308.691 300.699L309.69 301.698C309.69 301.698 309.69 301.698 310.689 301.698C311.688 301.698 311.688 302.697 312.687 302.697L331.668 313.686C332.667 313.686 332.667 314.685 333.666 314.685H334.665V315.684L331.668 317.682C331.668 317.682 331.668 317.682 330.669 317.682C330.669 317.682 330.669 317.682 329.67 317.682C329.67 317.682 329.67 317.682 328.671 317.682H327.672C327.672 317.682 326.673 317.682 326.673 316.683L307.692 309.69C306.693 309.69 306.693 308.691 305.694 308.691C305.694 308.691 305.694 308.691 304.695 308.691C304.695 308.691 303.696 308.691 303.696 307.692L302.697 306.693C302.697 306.693 302.697 305.694 301.698 305.694V304.695C301.698 304.695 301.698 304.695 301.698 303.696V302.697C301.698 302.697 301.698 302.697 301.698 301.698V300.699V299.7V298.701C301.698 298.701 301.698 298.701 301.698 297.702C301.698 296.703 301.698 296.703 301.698 295.704V280.719L299.7 279.72L302.697 272.727Z" fill="url(#paint5_linear)"/>
<path d="M298.701 277.722V292.707C298.701 298.701 302.697 305.694 307.692 308.691L326.673 319.68C331.668 322.677 335.664 320.679 335.664 314.685V299.7L337.662 300.699V315.684C337.662 322.677 332.667 325.674 325.674 322.677L306.693 311.688C300.699 307.692 295.704 298.701 295.704 291.708V276.723L298.701 277.722Z" fill="url(#paint6_linear)"/>
<path d="M394.605 295.704V293.706V278.721L392.607 277.722L398.601 273.726L400.599 274.725V289.71C400.599 293.706 399.6 295.704 397.602 296.703L391.608 300.699C393.606 300.699 394.605 298.701 394.605 295.704Z" fill="url(#paint7_linear)"/>
<path d="M359.64 250.749L361.638 251.748V266.733C361.638 267.732 361.638 267.732 361.638 268.731C361.638 269.73 361.638 269.73 361.638 270.729C361.638 271.728 362.637 271.728 362.637 272.727C362.637 273.726 363.636 273.726 363.636 274.725C363.636 275.724 364.635 275.724 364.635 276.723C364.635 277.722 365.634 277.722 365.634 278.721L366.633 279.72C366.633 279.72 366.633 279.72 367.632 279.72C368.631 279.72 368.631 280.719 369.63 280.719L388.611 291.708C389.61 291.708 389.61 292.707 390.609 292.707H391.608V293.706L389.61 298.701C389.61 298.701 389.61 298.701 388.611 298.701C388.611 298.701 388.611 298.701 387.612 298.701H386.613C386.613 298.701 385.614 298.701 385.614 297.702L366.633 286.713C365.634 286.713 365.634 285.714 364.635 285.714C364.635 285.714 364.635 285.714 363.636 285.714C363.636 285.714 362.637 285.714 362.637 284.715L361.638 283.716C361.638 283.716 361.638 282.717 360.639 282.717V281.718C360.639 281.718 360.639 281.718 360.639 280.719V279.72C360.639 279.72 360.639 279.72 360.639 278.721V277.722V276.723V275.724C360.639 275.724 360.639 275.724 360.639 274.725C360.639 273.726 360.639 273.726 360.639 272.727V257.742L358.641 256.743L359.64 250.749Z" fill="url(#paint8_linear)"/>
<path d="M355.644 255.744V270.729C355.644 276.723 359.64 283.716 364.635 286.713L383.616 297.702C388.611 300.699 392.607 298.701 392.607 292.707V277.722L394.605 278.721V293.706C394.605 300.699 389.61 303.696 382.617 300.699L364.635 289.71C358.641 285.714 353.646 276.723 353.646 269.73V254.745L355.644 255.744Z" fill="url(#paint9_linear)"/>
<path d="M392.606 313.686L376.622 323.676V307.692L392.606 298.701V313.686Z" fill="url(#paint10_linear)"/>
<path d="M293.705 262.737C294.704 258.741 296.702 255.744 301.697 252.747L319.679 242.757C324.674 239.76 330.668 238.761 337.661 237.762V183.816H349.649V238.761C353.645 239.76 357.641 240.759 360.638 242.757L393.605 261.738C396.602 263.736 399.599 265.734 400.598 267.732H483.515V274.725H401.597C400.598 278.721 398.6 281.718 393.605 284.715L375.623 294.705C370.628 297.702 364.634 298.701 357.641 299.7V348.651H345.653V298.701C341.657 297.702 337.661 296.703 334.664 294.705L301.697 275.724C298.7 273.726 295.703 271.728 294.704 269.73H211.787V262.737H293.705Z" fill="url(#paint11_linear)"/>
<path d="M392.607 298.701L376.623 307.692L369.63 304.695L386.613 294.705L392.607 298.701Z" fill="url(#paint12_linear)"/>
<path d="M376.623 323.676L369.63 319.68V304.695L376.623 307.692V323.676Z" fill="url(#paint13_linear)"/>
<path d="M295.705 270.729C295.705 271.728 296.704 271.728 297.703 272.727C298.702 273.726 298.702 273.726 299.701 273.726C300.7 273.726 300.7 274.725 301.699 274.725L334.666 293.706C335.665 294.705 336.664 294.705 337.663 294.705H338.662C339.661 294.705 339.661 295.704 340.66 295.704C341.659 295.704 341.659 295.704 342.658 296.703H343.657C344.656 296.703 345.655 296.703 346.654 297.702V308.691C345.655 308.691 344.656 308.691 343.657 307.692H342.658H341.659C340.66 307.692 340.66 306.693 339.661 306.693H338.662C337.663 306.693 336.664 305.694 335.665 305.694L302.698 286.713C301.699 286.713 301.699 285.714 300.7 285.714C299.701 285.714 299.701 284.715 298.702 284.715C297.703 283.716 297.703 283.716 296.704 282.717C296.704 281.718 295.705 281.718 295.705 280.719H227.773C219.781 280.719 212.788 275.724 212.788 269.73H295.705C294.706 269.73 295.705 270.729 295.705 270.729Z" fill="#5752D0"/>
<path d="M362.637 299.7C363.636 299.7 364.635 299.7 366.633 298.701H367.632C368.631 298.701 370.629 297.702 371.628 297.702C372.627 296.703 374.625 296.703 375.624 295.704L393.606 285.714C398.601 282.717 401.598 279.72 401.598 275.724H483.516V280.719C483.516 284.715 479.52 287.712 474.525 287.712H401.598C400.599 291.708 398.601 294.705 393.606 297.702L375.624 307.692C374.625 308.691 373.626 308.691 371.628 309.69C370.629 309.69 369.63 310.689 368.631 310.689H367.632C366.633 310.689 366.633 310.689 365.634 310.689C364.635 310.689 364.635 310.689 363.636 310.689C363.636 310.689 363.636 310.689 362.637 310.689C361.638 310.689 360.639 310.689 359.64 310.689H358.641V299.7C359.64 299.7 360.639 299.7 362.637 299.7Z" fill="#5752D0"/>
<path d="M320.679 257.742L325.674 254.745C328.671 252.747 332.667 251.748 336.663 251.748H340.659L344.655 252.747C347.652 252.747 349.65 253.746 351.648 254.745L372.627 266.733C377.622 269.73 377.622 276.723 372.627 279.72L367.632 282.717C364.635 284.715 360.639 285.714 356.643 285.714H352.647L348.651 284.715C345.654 283.716 343.656 283.716 341.658 282.717L320.679 270.729C315.684 267.732 315.684 260.739 320.679 257.742Z" fill="white"/>
<path d="M298.701 345.654C298.701 347.652 298.701 351.648 298.701 352.647C298.701 371.628 323.676 388.611 353.646 388.611C382.617 388.611 402.597 373.626 401.598 356.643V352.647C401.598 352.647 394.605 321.678 346.653 321.678C310.689 320.679 301.698 332.667 298.701 345.654ZM304.695 351.648C304.695 347.652 306.693 342.657 310.689 338.661C318.681 330.669 331.668 326.673 346.653 326.673C370.629 326.673 392.607 338.661 395.604 352.647C396.603 357.642 395.604 362.637 391.608 366.633C384.615 375.624 370.629 380.619 353.646 380.619C327.672 381.618 304.695 367.632 304.695 351.648Z" fill="#5751D0"/>
<path d="M350.649 358.641C356.643 358.641 360.639 355.644 360.639 352.647V362.637C360.639 366.633 356.643 369.63 350.649 369.63C344.655 369.63 339.66 366.633 338.661 362.637V352.647C339.66 354.645 344.655 358.641 350.649 358.641Z" fill="#5752D0"/>
<path d="M349.65 344.655C355.644 344.655 360.639 347.652 361.638 351.648C362.637 355.644 357.642 358.641 351.648 358.641C345.654 358.641 339.66 355.644 339.66 351.648C338.661 347.652 343.656 344.655 349.65 344.655Z" fill="url(#paint14_linear)"/>
<path d="M345.654 344.655C347.652 343.656 351.648 343.656 353.646 344.655C354.645 345.654 355.644 346.653 355.644 347.652V350.649C355.644 351.648 355.644 352.647 354.645 352.647C352.647 353.646 348.651 353.646 346.653 352.647C345.654 351.648 344.655 350.649 344.655 349.65V346.653C344.655 345.654 344.655 345.654 345.654 344.655Z" fill="#0D0848"/>
<path d="M320.679 330.669C321.678 330.669 322.677 330.669 322.677 330.669L351.648 348.651L355.644 350.649C356.643 350.649 356.643 350.649 357.642 350.649L360.639 349.65C361.638 349.65 362.637 349.65 362.637 349.65L386.613 362.637C386.613 362.637 387.612 363.636 386.613 364.635C385.614 365.634 383.616 366.633 382.617 368.631C381.618 368.631 380.619 368.631 379.62 368.631L350.649 349.65L346.653 347.652C345.654 347.652 345.654 347.652 344.655 347.652L341.658 348.651C340.659 348.651 339.66 348.651 339.66 348.651L318.681 335.664C317.682 334.665 317.682 333.666 317.682 333.666C317.682 333.666 319.68 331.668 320.679 330.669Z" fill="#0D0848"/>
<path d="M320.679 329.67H321.678H322.677L351.648 347.652L355.644 349.65C356.643 349.65 356.643 349.65 357.642 349.65L360.639 348.651C361.638 348.651 362.637 348.651 362.637 348.651L385.614 362.637C386.613 362.637 386.613 363.636 385.614 364.635C384.615 365.634 382.617 366.633 381.618 368.631C380.619 368.631 379.62 368.631 378.621 368.631L347.652 349.65L343.656 347.652C342.657 347.652 342.657 347.652 341.658 347.652L338.661 348.651C337.662 348.651 336.663 348.651 336.663 348.651L315.684 335.664C314.685 335.664 314.685 334.665 315.684 334.665C317.682 331.668 319.68 330.669 320.679 329.67Z" fill="#5752D0"/>
<path d="M345.654 344.655C346.653 343.656 347.652 343.656 349.65 343.656C351.648 343.656 352.647 343.656 353.646 344.655C355.644 345.654 356.643 348.651 354.645 349.65C352.647 350.649 348.651 350.649 346.653 349.65C344.655 348.651 343.656 345.654 345.654 344.655Z" fill="#5752D0"/>
<path d="M298.701 346.653C298.701 365.634 323.676 382.617 353.646 382.617C383.616 382.617 405.594 366.633 401.598 346.653C397.602 328.671 373.626 315.684 346.653 315.684C319.68 315.684 298.701 328.671 298.701 346.653ZM304.695 346.653C304.695 342.657 306.693 337.662 310.689 333.666C318.681 325.674 331.668 321.678 346.653 321.678C370.629 321.678 392.607 333.666 395.604 347.652C396.603 352.647 395.604 357.642 391.608 361.638C384.615 370.629 370.629 375.624 353.646 375.624C327.672 375.624 304.695 362.637 304.695 346.653Z" fill="white"/>
<path d="M393.606 332.667L397.602 331.668C401.598 335.664 403.596 340.659 404.595 345.654C405.594 350.649 405.594 355.644 403.596 360.639L399.6 359.64C401.598 355.644 401.598 350.649 400.599 345.654C398.601 340.659 396.603 336.663 393.606 332.667Z" fill="#D3D3D3"/>
<path d="M393.606 332.667L397.602 331.668C401.598 335.664 403.596 340.659 404.595 345.654C405.594 350.649 405.594 355.644 403.596 360.639L399.6 359.64C401.598 355.644 401.598 350.649 400.599 345.654C398.601 340.659 396.603 336.663 393.606 332.667Z" fill="url(#paint15_linear)"/>
<path d="M404.595 350.649V355.644C404.595 360.639 402.597 365.634 402.597 365.634L400.599 364.635V360.639L398.601 359.64V358.641L402.597 359.64C404.595 356.643 404.595 353.646 404.595 350.649Z" fill="#5751D0"/>
<path d="M400.599 350.649C400.599 349.65 400.599 347.652 400.599 346.653C399.6 341.658 397.602 337.662 393.606 333.666V332.667C396.603 336.663 399.6 340.659 400.599 345.654C400.599 346.653 400.599 348.651 400.599 350.649Z" fill="url(#paint16_linear)"/>
<path d="M165.834 245.754C165.834 245.754 165.834 251.748 165.834 252.747C165.834 271.728 190.809 288.711 220.779 288.711C249.75 288.711 269.73 273.726 268.731 256.743V252.747C268.731 252.747 261.738 221.778 213.786 221.778C177.822 220.779 165.834 245.754 165.834 245.754ZM171.828 252.747C171.828 248.751 173.826 243.756 177.822 239.76C185.814 231.768 198.801 227.772 213.786 227.772C237.762 227.772 259.74 239.76 262.737 253.746C263.736 258.741 262.737 263.736 258.741 267.732C251.748 276.723 237.762 281.718 220.779 281.718C194.805 281.718 171.828 267.732 171.828 252.747Z" fill="#5751D0"/>
<path d="M217.782 259.74C223.776 259.74 227.772 256.743 227.772 253.746V263.736C227.772 267.732 223.776 270.729 217.782 270.729C211.788 270.729 206.793 267.732 205.794 263.736V253.746C205.794 255.744 211.788 259.74 217.782 259.74Z" fill="#5752D0"/>
<path d="M216.783 244.755C222.777 244.755 227.772 247.752 228.771 251.748C229.77 255.744 224.775 258.741 218.781 258.741C212.787 258.741 207.792 255.744 206.793 251.748C205.794 248.751 210.789 244.755 216.783 244.755Z" fill="url(#paint17_linear)"/>
<path d="M212.787 244.755C214.785 243.756 218.781 243.756 220.779 244.755C221.778 245.754 222.777 246.753 222.777 247.752V250.749C222.777 251.748 222.777 252.747 221.778 252.747C219.78 253.746 215.784 253.746 213.786 252.747C212.787 251.748 211.788 250.749 211.788 249.75V246.753C211.788 246.753 212.787 245.754 212.787 244.755Z" fill="#0D0848"/>
<path d="M187.812 230.769C188.811 230.769 189.81 230.769 189.81 230.769L218.781 248.751L222.777 250.749C223.776 250.749 224.775 250.749 224.775 250.749L229.77 249.75C230.769 249.75 231.768 249.75 231.768 249.75L255.744 262.737C255.744 262.737 256.743 263.736 255.744 264.735C254.745 265.734 252.747 266.733 251.748 268.731C250.749 268.731 249.75 268.731 248.751 268.731L217.782 249.75L213.786 247.752C212.787 247.752 212.787 247.752 211.788 247.752L208.791 248.751C207.792 248.751 206.793 248.751 206.793 248.751L185.814 235.764C184.815 234.765 184.815 233.766 184.815 233.766C184.815 233.766 186.813 231.768 187.812 230.769Z" fill="#0D0848"/>
<path d="M187.812 229.77H188.811H189.81L218.781 247.752L222.777 249.75C223.776 249.75 223.776 249.75 224.775 249.75L227.772 248.751C228.771 248.751 229.77 248.751 229.77 248.751L252.747 262.737C253.746 262.737 253.746 263.736 252.747 264.735C251.748 265.734 249.75 266.733 248.751 268.731C247.752 268.731 246.753 268.731 245.754 268.731L214.785 249.75L210.789 247.752C209.79 247.752 209.79 247.752 208.791 247.752L205.794 248.751C204.795 248.751 203.796 248.751 203.796 248.751L181.818 235.764C180.819 235.764 180.819 234.765 181.818 234.765C184.815 231.768 186.813 230.769 187.812 229.77Z" fill="#5752D0"/>
<path d="M212.787 244.755C213.786 243.756 214.785 243.756 216.783 243.756C217.782 243.756 219.78 243.756 220.779 244.755C222.777 245.754 223.776 248.751 221.778 249.75C219.78 250.749 215.784 250.749 213.786 249.75C211.788 248.751 210.789 246.753 212.787 244.755Z" fill="#5752D0"/>
<path d="M165.834 246.753C165.834 265.734 190.809 282.717 220.779 282.717C250.749 282.717 272.727 266.733 268.731 246.753C264.735 228.771 240.759 215.784 213.786 215.784C186.813 215.784 165.834 229.77 165.834 246.753ZM171.828 246.753C171.828 242.757 173.826 237.762 177.822 233.766C185.814 225.774 198.801 221.778 213.786 221.778C237.762 221.778 259.74 233.766 262.737 247.752C263.736 252.747 262.737 257.742 258.741 261.738C251.748 270.729 237.762 275.724 220.779 275.724C194.805 276.723 171.828 262.737 171.828 246.753Z" fill="white"/>
<path d="M260.739 232.767L264.735 231.768C268.731 235.764 270.729 240.759 271.728 245.754C272.727 250.749 272.727 255.744 270.729 260.739L266.733 259.74C268.731 255.744 268.731 250.749 267.732 245.754C266.733 240.759 263.736 236.763 260.739 232.767Z" fill="#D3D3D3"/>
<path d="M260.739 232.767L264.735 231.768C268.731 235.764 270.729 240.759 271.728 245.754C272.727 250.749 272.727 255.744 270.729 260.739L266.733 259.74C268.731 255.744 268.731 250.749 267.732 245.754C266.733 240.759 263.736 236.763 260.739 232.767Z" fill="url(#paint18_linear)"/>
<path d="M271.728 250.749V255.744C271.728 260.739 269.73 265.734 269.73 265.734L267.732 264.735V260.739L265.734 259.74V258.741L269.73 259.74C271.728 256.743 271.728 253.746 271.728 250.749Z" fill="#5751D0"/>
<path d="M267.732 250.749C267.732 249.75 267.732 247.752 267.732 246.753C266.733 241.758 264.735 237.762 260.739 233.766V232.767C263.736 236.763 266.733 240.759 267.732 245.754C267.732 247.752 267.732 248.751 267.732 250.749Z" fill="url(#paint19_linear)"/>
<path d="M290.709 163.836C290.709 163.836 290.709 169.83 290.709 170.829C290.709 189.81 315.684 206.793 345.654 206.793C374.625 206.793 394.605 191.808 393.606 174.825V170.829C393.606 170.829 386.613 139.86 338.661 139.86C302.697 138.861 290.709 163.836 290.709 163.836ZM296.703 169.83C296.703 165.834 298.701 160.839 302.697 156.843C310.689 148.851 323.676 144.855 338.661 144.855C362.637 144.855 384.615 156.843 387.612 170.829C388.611 175.824 387.612 180.819 383.616 184.815C376.623 193.806 362.637 198.801 345.654 198.801C319.68 199.8 296.703 185.814 296.703 169.83Z" fill="#5751D0"/>
<path d="M342.657 176.823C348.651 176.823 352.647 173.826 352.647 170.829V180.819C352.647 184.815 348.651 187.812 342.657 187.812C336.663 187.812 331.668 184.815 330.669 180.819V170.829C330.669 173.826 336.663 176.823 342.657 176.823Z" fill="#5752D0"/>
<path d="M341.659 162.837C347.653 162.837 352.648 165.834 353.647 169.83C354.646 173.826 349.651 176.823 343.657 176.823C337.663 176.823 332.668 173.826 331.669 169.83C330.67 165.834 335.665 162.837 341.659 162.837Z" fill="url(#paint20_linear)"/>
<path d="M338.661 162.837C340.659 161.838 344.655 161.838 346.653 162.837C347.652 163.836 348.651 164.835 348.651 165.834V168.831C348.651 169.83 348.651 170.829 347.652 170.829C345.654 171.828 341.658 171.828 339.66 170.829C338.661 169.83 337.662 168.831 337.662 167.832V164.835C336.663 163.836 337.662 163.836 338.661 162.837Z" fill="#0D0848"/>
<path d="M312.687 148.851C313.686 148.851 314.685 148.851 314.685 148.851L343.656 166.833L347.652 168.831C348.651 168.831 348.651 168.831 349.65 168.831L352.647 167.832C353.646 167.832 354.645 167.832 354.645 167.832L378.621 180.819C378.621 180.819 379.62 181.818 378.621 182.817C377.622 183.816 375.624 184.815 374.625 186.813C373.626 186.813 372.627 186.813 371.628 186.813L340.659 167.832L336.663 165.834C335.664 165.834 335.664 165.834 334.665 165.834L331.668 166.833C330.669 166.833 329.67 166.833 329.67 166.833L307.692 153.846C306.693 152.847 306.693 151.848 306.693 151.848C306.693 151.848 311.688 149.85 312.687 148.851Z" fill="#0D0848"/>
<path d="M312.687 147.852H313.686H314.685L343.656 165.834L347.652 167.832C348.651 167.832 348.651 167.832 349.65 167.832L352.647 166.833C353.646 166.833 354.645 166.833 354.645 166.833L377.622 180.819C378.621 180.819 378.621 181.818 377.622 182.817C376.623 183.816 374.625 184.815 373.626 186.813C372.627 186.813 371.628 186.813 370.629 186.813L339.66 167.832L335.664 165.834C334.665 165.834 334.665 165.834 333.666 165.834L330.669 166.833C329.67 166.833 328.671 166.833 328.671 166.833L306.693 153.846C305.694 153.846 305.694 152.847 306.693 152.847C309.69 149.85 311.688 148.851 312.687 147.852Z" fill="#5752D0"/>
<path d="M338.661 162.837C339.66 161.838 340.659 161.838 342.657 161.838C343.656 161.838 345.654 161.838 346.653 162.837C348.651 163.836 349.65 166.833 347.652 167.832C345.654 168.831 341.658 168.831 339.66 167.832C336.663 166.833 335.664 163.836 338.661 162.837Z" fill="#5752D0"/>
<path d="M290.709 164.835C290.709 183.816 315.684 200.799 345.654 200.799C375.624 200.799 397.602 184.815 393.606 164.835C389.61 146.853 365.634 133.866 338.661 133.866C311.688 133.866 290.709 146.853 290.709 164.835ZM296.703 164.835C296.703 160.839 298.701 155.844 302.697 151.848C310.689 143.856 323.676 139.86 338.661 139.86C362.637 139.86 384.615 151.848 387.612 165.834C388.611 170.829 387.612 175.824 383.616 179.82C376.623 188.811 362.637 193.806 345.654 193.806C319.68 193.806 296.703 180.819 296.703 164.835Z" fill="white"/>
<path d="M385.614 150.849L389.61 149.85C393.606 153.846 395.604 158.841 396.603 163.836C397.602 168.831 397.602 173.826 395.604 178.821L391.608 177.822C393.606 173.826 393.606 168.831 392.607 163.836C391.608 158.841 388.611 154.845 385.614 150.849Z" fill="#D3D3D3"/>
<path d="M385.614 150.849L389.61 149.85C393.606 153.846 395.604 158.841 396.603 163.836C397.602 168.831 397.602 173.826 395.604 178.821L391.608 177.822C393.606 173.826 393.606 168.831 392.607 163.836C391.608 158.841 388.611 154.845 385.614 150.849Z" fill="url(#paint21_linear)"/>
<path d="M396.603 168.831V173.826C396.603 178.821 394.605 183.816 394.605 183.816L392.607 182.817V178.821L390.609 177.822V176.823L394.605 177.822C396.603 174.825 396.603 171.828 396.603 168.831Z" fill="#5751D0"/>
<path d="M392.607 168.831C392.607 167.832 392.607 165.834 392.607 164.835C391.608 159.84 389.61 155.844 385.614 151.848V150.849C388.611 154.845 391.608 158.841 392.607 163.836C392.607 164.835 392.607 166.833 392.607 168.831Z" fill="url(#paint22_linear)"/>
<path d="M426.572 255.744C426.572 255.744 426.572 261.738 426.572 262.737C426.572 281.718 451.547 298.701 481.517 298.701C510.488 298.701 530.468 283.716 529.469 266.733V262.737C529.469 262.737 522.476 231.768 474.524 231.768C438.56 230.769 426.572 255.744 426.572 255.744ZM432.566 261.738C432.566 257.742 434.564 252.747 438.56 248.751C446.552 240.759 459.539 236.763 474.524 236.763C498.5 236.763 520.478 248.751 523.475 262.737C524.474 267.732 523.475 272.727 519.479 276.723C512.486 285.714 498.5 290.709 481.517 290.709C455.543 290.709 433.565 277.722 432.566 261.738Z" fill="#5751D0"/>
<path d="M478.52 268.731C484.514 268.731 488.51 265.734 488.51 262.737V272.727C488.51 276.723 484.514 279.72 478.52 279.72C472.526 279.72 467.531 276.723 466.532 272.727V262.737C466.532 265.734 472.526 268.731 478.52 268.731Z" fill="#5752D0"/>
<path d="M477.522 254.745C483.516 254.745 488.511 257.742 489.51 261.738C490.509 265.734 485.514 268.731 479.52 268.731C473.526 268.731 468.531 265.734 467.532 261.738C467.532 257.742 471.528 254.745 477.522 254.745Z" fill="url(#paint23_linear)"/>
<path d="M474.526 254.745C476.524 253.746 480.52 253.746 482.518 254.745C483.517 255.744 484.516 256.743 484.516 257.742V260.739C484.516 261.738 484.516 262.737 483.517 262.737C481.519 263.736 477.523 263.736 475.525 262.737C474.526 261.738 473.527 260.739 473.527 259.74V256.743C472.528 255.744 473.527 254.745 474.526 254.745Z" fill="#0D0848"/>
<path d="M448.551 240.759C449.55 240.759 450.549 240.759 450.549 240.759L479.52 258.741L483.516 260.739C484.515 260.739 484.515 260.739 485.514 260.739L488.511 259.74C489.51 259.74 490.509 259.74 490.509 259.74L514.485 272.727C514.485 272.727 515.484 273.726 514.485 274.725C513.486 275.724 511.488 276.723 510.489 278.721C509.49 278.721 508.491 278.721 507.492 278.721L478.521 259.74L474.525 257.742C473.526 257.742 473.526 257.742 472.527 257.742L469.53 258.741C468.531 258.741 467.532 258.741 467.532 258.741L446.553 245.754C445.554 244.755 445.554 243.756 445.554 243.756C445.554 243.756 447.552 241.758 448.551 240.759Z" fill="#0D0848"/>
<path d="M448.551 238.761H449.55H450.549L479.52 256.743L483.516 258.741C484.515 258.741 484.515 258.741 485.514 258.741L488.511 257.742C489.51 257.742 490.509 257.742 490.509 257.742L513.486 271.728C514.485 271.728 514.485 272.727 513.486 273.726C512.487 274.725 510.489 275.724 509.49 277.722C508.491 277.722 507.492 277.722 506.493 277.722L475.524 258.741L471.528 256.743C470.529 256.743 470.529 256.743 469.53 256.743L466.533 257.742C465.534 257.742 464.535 257.742 464.535 257.742L442.557 244.755C441.558 244.755 441.558 243.756 442.557 243.756C445.554 240.759 447.552 239.76 448.551 238.761Z" fill="#5752D0"/>
<path d="M474.525 254.745C475.524 253.746 476.523 253.746 478.521 253.746C479.52 253.746 481.518 253.746 482.517 254.745C484.515 255.744 485.514 258.741 483.516 259.74C481.518 260.739 477.522 260.739 475.524 259.74C472.527 257.742 472.527 255.744 474.525 254.745Z" fill="#5752D0"/>
<path d="M426.572 256.743C426.572 275.724 451.547 292.707 481.517 292.707C511.487 292.707 533.465 276.723 529.469 256.743C525.473 238.761 501.497 225.774 474.524 225.774C448.55 225.774 426.572 238.761 426.572 256.743ZM432.566 256.743C432.566 252.747 434.564 247.752 438.56 243.756C446.552 235.764 459.539 231.768 474.524 231.768C498.5 231.768 520.478 243.756 523.475 257.742C524.474 262.737 523.475 267.732 519.479 271.728C512.486 280.719 498.5 285.714 481.517 285.714C455.543 285.714 433.565 271.728 432.566 256.743Z" fill="white"/>
<path d="M521.477 241.758L525.473 240.759C529.469 244.755 531.467 249.75 532.466 254.745C533.465 259.74 533.465 264.735 531.467 269.73L527.471 268.731C529.469 264.735 529.469 259.74 528.47 254.745C527.471 250.749 524.474 245.754 521.477 241.758Z" fill="#D3D3D3"/>
<path d="M521.477 241.758L525.473 240.759C529.469 244.755 531.467 249.75 532.466 254.745C533.465 259.74 533.465 264.735 531.467 269.73L527.471 268.731C529.469 264.735 529.469 259.74 528.47 254.745C527.471 250.749 524.474 245.754 521.477 241.758Z" fill="url(#paint24_linear)"/>
<path d="M532.467 259.74V264.735C532.467 269.73 530.469 274.725 530.469 274.725L528.471 273.726V269.73H526.473V268.731L530.469 269.73C532.467 266.733 533.466 263.736 532.467 259.74Z" fill="#5751D0"/>
<path d="M528.47 260.739C528.47 259.74 528.47 257.742 528.47 256.743C527.471 251.748 525.473 247.752 521.477 243.756V242.757C524.474 246.753 527.471 250.749 528.47 255.744C528.47 256.743 528.47 258.741 528.47 260.739Z" fill="url(#paint25_linear)"/>
<path d="M334.666 295.704C335.665 295.704 336.664 296.703 336.664 297.702V482.517C336.664 483.516 335.665 484.515 334.666 484.515C333.667 484.515 332.668 483.516 332.668 482.517V297.702C332.668 296.703 333.667 295.704 334.666 295.704Z" fill="#362A99"/>
<path d="M337.662 317.682V315.684V300.699L335.664 299.7L341.658 295.704L343.656 296.703V311.688C343.656 315.684 342.657 317.682 340.659 318.681L334.665 322.677C336.663 322.677 337.662 320.679 337.662 317.682Z" fill="url(#paint26_linear)"/>
<path d="M302.697 272.727L304.695 273.726V288.711C304.695 289.71 304.695 289.71 304.695 290.709C304.695 291.708 304.695 291.708 304.695 292.707C304.695 293.706 304.695 293.706 305.694 294.705C305.694 295.704 306.693 295.704 306.693 296.703C306.693 297.702 307.692 297.702 307.692 298.701C307.692 299.7 308.691 299.7 308.691 300.699L309.69 301.698C309.69 301.698 309.69 301.698 310.689 301.698C311.688 301.698 311.688 302.697 312.687 302.697L331.668 313.686C332.667 313.686 332.667 314.685 333.666 314.685H334.665V315.684L331.668 317.682C331.668 317.682 331.668 317.682 330.669 317.682C330.669 317.682 330.669 317.682 329.67 317.682C329.67 317.682 329.67 317.682 328.671 317.682H327.672C327.672 317.682 326.673 317.682 326.673 316.683L307.692 309.69C306.693 309.69 306.693 308.691 305.694 308.691C305.694 308.691 305.694 308.691 304.695 308.691C304.695 308.691 303.696 308.691 303.696 307.692L302.697 306.693C302.697 306.693 302.697 305.694 301.698 305.694V304.695C301.698 304.695 301.698 304.695 301.698 303.696V302.697C301.698 302.697 301.698 302.697 301.698 301.698V300.699V299.7V298.701C301.698 298.701 301.698 298.701 301.698 297.702C301.698 296.703 301.698 296.703 301.698 295.704V280.719L299.7 279.72L302.697 272.727Z" fill="url(#paint27_linear)"/>
<path d="M298.701 277.722V292.707C298.701 298.701 302.697 305.694 307.692 308.691L326.673 319.68C331.668 322.677 335.664 320.679 335.664 314.685V299.7L337.662 300.699V315.684C337.662 322.677 332.667 325.674 325.674 322.677L306.693 311.688C300.699 307.692 295.704 298.701 295.704 291.708V276.723L298.701 277.722Z" fill="url(#paint28_linear)"/>
<path d="M394.605 295.704V293.706V278.721L392.607 277.722L398.601 273.726L400.599 274.725V289.71C400.599 293.706 399.6 295.704 397.602 296.703L391.608 300.699C393.606 300.699 394.605 298.701 394.605 295.704Z" fill="url(#paint29_linear)"/>
<path d="M359.64 250.749L361.638 251.748V266.733C361.638 267.732 361.638 267.732 361.638 268.731C361.638 269.73 361.638 269.73 361.638 270.729C361.638 271.728 362.637 271.728 362.637 272.727C362.637 273.726 363.636 273.726 363.636 274.725C363.636 275.724 364.635 275.724 364.635 276.723C364.635 277.722 365.634 277.722 365.634 278.721L366.633 279.72C366.633 279.72 366.633 279.72 367.632 279.72C368.631 279.72 368.631 280.719 369.63 280.719L388.611 291.708C389.61 291.708 389.61 292.707 390.609 292.707H391.608V293.706L389.61 298.701C389.61 298.701 389.61 298.701 388.611 298.701C388.611 298.701 388.611 298.701 387.612 298.701H386.613C386.613 298.701 385.614 298.701 385.614 297.702L366.633 286.713C365.634 286.713 365.634 285.714 364.635 285.714C364.635 285.714 364.635 285.714 363.636 285.714C363.636 285.714 362.637 285.714 362.637 284.715L361.638 283.716C361.638 283.716 361.638 282.717 360.639 282.717V281.718C360.639 281.718 360.639 281.718 360.639 280.719V279.72C360.639 279.72 360.639 279.72 360.639 278.721V277.722V276.723V275.724C360.639 275.724 360.639 275.724 360.639 274.725C360.639 273.726 360.639 273.726 360.639 272.727V257.742L358.641 256.743L359.64 250.749Z" fill="url(#paint30_linear)"/>
<path d="M355.644 255.744V270.729C355.644 276.723 359.64 283.716 364.635 286.713L383.616 297.702C388.611 300.699 392.607 298.701 392.607 292.707V277.722L394.605 278.721V293.706C394.605 300.699 389.61 303.696 382.617 300.699L364.635 289.71C358.641 285.714 353.646 276.723 353.646 269.73V254.745L355.644 255.744Z" fill="url(#paint31_linear)"/>
<path d="M392.606 313.686L376.622 323.676V307.692L392.606 298.701V313.686Z" fill="url(#paint32_linear)"/>
<path d="M293.705 262.737C294.704 258.741 296.702 255.744 301.697 252.747L319.679 242.757C324.674 239.76 330.668 238.761 337.661 237.762V183.816H349.649V238.761C353.645 239.76 357.641 240.759 360.638 242.757L393.605 261.738C396.602 263.736 399.599 265.734 400.598 267.732H483.515V274.725H401.597C400.598 278.721 398.6 281.718 393.605 284.715L375.623 294.705C370.628 297.702 364.634 298.701 357.641 299.7V348.651H345.653V298.701C341.657 297.702 337.661 296.703 334.664 294.705L301.697 275.724C298.7 273.726 295.703 271.728 294.704 269.73H211.787V262.737H293.705Z" fill="url(#paint33_linear)"/>
<path d="M392.607 298.701L376.623 307.692L369.63 304.695L386.613 294.705L392.607 298.701Z" fill="url(#paint34_linear)"/>
<path d="M376.623 323.676L369.63 319.68V304.695L376.623 307.692V323.676Z" fill="url(#paint35_linear)"/>
<path d="M295.705 270.729C295.705 271.728 296.704 271.728 297.703 272.727C298.702 273.726 298.702 273.726 299.701 273.726C300.7 273.726 300.7 274.725 301.699 274.725L334.666 293.706C335.665 294.705 336.664 294.705 337.663 294.705H338.662C339.661 294.705 339.661 295.704 340.66 295.704C341.659 295.704 341.659 295.704 342.658 296.703H343.657C344.656 296.703 345.655 296.703 346.654 297.702V308.691C345.655 308.691 344.656 308.691 343.657 307.692H342.658H341.659C340.66 307.692 340.66 306.693 339.661 306.693H338.662C337.663 306.693 336.664 305.694 335.665 305.694L302.698 286.713C301.699 286.713 301.699 285.714 300.7 285.714C299.701 285.714 299.701 284.715 298.702 284.715C297.703 283.716 297.703 283.716 296.704 282.717C296.704 281.718 295.705 281.718 295.705 280.719H227.773C219.781 280.719 212.788 275.724 212.788 269.73H295.705C294.706 269.73 295.705 270.729 295.705 270.729Z" fill="#5752D0"/>
<path d="M362.637 299.7C363.636 299.7 364.635 299.7 366.633 298.701H367.632C368.631 298.701 370.629 297.702 371.628 297.702C372.627 296.703 374.625 296.703 375.624 295.704L393.606 285.714C398.601 282.717 401.598 279.72 401.598 275.724H483.516V280.719C483.516 284.715 479.52 287.712 474.525 287.712H401.598C400.599 291.708 398.601 294.705 393.606 297.702L375.624 307.692C374.625 308.691 373.626 308.691 371.628 309.69C370.629 309.69 369.63 310.689 368.631 310.689H367.632C366.633 310.689 366.633 310.689 365.634 310.689C364.635 310.689 364.635 310.689 363.636 310.689C363.636 310.689 363.636 310.689 362.637 310.689C361.638 310.689 360.639 310.689 359.64 310.689H358.641V299.7C359.64 299.7 360.639 299.7 362.637 299.7Z" fill="#5752D0"/>
<path d="M320.679 257.742L325.674 254.745C328.671 252.747 332.667 251.748 336.663 251.748H340.659L344.655 252.747C347.652 252.747 349.65 253.746 351.648 254.745L372.627 266.733C377.622 269.73 377.622 276.723 372.627 279.72L367.632 282.717C364.635 284.715 360.639 285.714 356.643 285.714H352.647L348.651 284.715C345.654 283.716 343.656 283.716 341.658 282.717L320.679 270.729C315.684 267.732 315.684 260.739 320.679 257.742Z" fill="white"/>
<path d="M298.701 345.654C298.701 347.652 298.701 351.648 298.701 352.647C298.701 371.628 323.676 388.611 353.646 388.611C382.617 388.611 402.597 373.626 401.598 356.643V352.647C401.598 352.647 394.605 321.678 346.653 321.678C310.689 320.679 301.698 332.667 298.701 345.654ZM304.695 351.648C304.695 347.652 306.693 342.657 310.689 338.661C318.681 330.669 331.668 326.673 346.653 326.673C370.629 326.673 392.607 338.661 395.604 352.647C396.603 357.642 395.604 362.637 391.608 366.633C384.615 375.624 370.629 380.619 353.646 380.619C327.672 381.618 304.695 367.632 304.695 351.648Z" fill="#5751D0"/>
<path d="M350.649 358.641C356.643 358.641 360.639 355.644 360.639 352.647V362.637C360.639 366.633 356.643 369.63 350.649 369.63C344.655 369.63 339.66 366.633 338.661 362.637V352.647C339.66 354.645 344.655 358.641 350.649 358.641Z" fill="#5752D0"/>
<path d="M349.65 344.655C355.644 344.655 360.639 347.652 361.638 351.648C362.637 355.644 357.642 358.641 351.648 358.641C345.654 358.641 339.66 355.644 339.66 351.648C338.661 347.652 343.656 344.655 349.65 344.655Z" fill="url(#paint36_linear)"/>
<path d="M345.654 344.655C347.652 343.656 351.648 343.656 353.646 344.655C354.645 345.654 355.644 346.653 355.644 347.652V350.649C355.644 351.648 355.644 352.647 354.645 352.647C352.647 353.646 348.651 353.646 346.653 352.647C345.654 351.648 344.655 350.649 344.655 349.65V346.653C344.655 345.654 344.655 345.654 345.654 344.655Z" fill="#0D0848"/>
<path d="M320.679 330.669C321.678 330.669 322.677 330.669 322.677 330.669L351.648 348.651L355.644 350.649C356.643 350.649 356.643 350.649 357.642 350.649L360.639 349.65C361.638 349.65 362.637 349.65 362.637 349.65L386.613 362.637C386.613 362.637 387.612 363.636 386.613 364.635C385.614 365.634 383.616 366.633 382.617 368.631C381.618 368.631 380.619 368.631 379.62 368.631L350.649 349.65L346.653 347.652C345.654 347.652 345.654 347.652 344.655 347.652L341.658 348.651C340.659 348.651 339.66 348.651 339.66 348.651L318.681 335.664C317.682 334.665 317.682 333.666 317.682 333.666C317.682 333.666 319.68 331.668 320.679 330.669Z" fill="#0D0848"/>
<path d="M320.679 329.67H321.678H322.677L351.648 347.652L355.644 349.65C356.643 349.65 356.643 349.65 357.642 349.65L360.639 348.651C361.638 348.651 362.637 348.651 362.637 348.651L385.614 362.637C386.613 362.637 386.613 363.636 385.614 364.635C384.615 365.634 382.617 366.633 381.618 368.631C380.619 368.631 379.62 368.631 378.621 368.631L347.652 349.65L343.656 347.652C342.657 347.652 342.657 347.652 341.658 347.652L338.661 348.651C337.662 348.651 336.663 348.651 336.663 348.651L315.684 335.664C314.685 335.664 314.685 334.665 315.684 334.665C317.682 331.668 319.68 330.669 320.679 329.67Z" fill="#5752D0"/>
<path d="M345.654 344.655C346.653 343.656 347.652 343.656 349.65 343.656C351.648 343.656 352.647 343.656 353.646 344.655C355.644 345.654 356.643 348.651 354.645 349.65C352.647 350.649 348.651 350.649 346.653 349.65C344.655 348.651 343.656 345.654 345.654 344.655Z" fill="#5752D0"/>
<path d="M298.701 346.653C298.701 365.634 323.676 382.617 353.646 382.617C383.616 382.617 405.594 366.633 401.598 346.653C397.602 328.671 373.626 315.684 346.653 315.684C319.68 315.684 298.701 328.671 298.701 346.653ZM304.695 346.653C304.695 342.657 306.693 337.662 310.689 333.666C318.681 325.674 331.668 321.678 346.653 321.678C370.629 321.678 392.607 333.666 395.604 347.652C396.603 352.647 395.604 357.642 391.608 361.638C384.615 370.629 370.629 375.624 353.646 375.624C327.672 375.624 304.695 362.637 304.695 346.653Z" fill="white"/>
<path d="M393.606 332.667L397.602 331.668C401.598 335.664 403.596 340.659 404.595 345.654C405.594 350.649 405.594 355.644 403.596 360.639L399.6 359.64C401.598 355.644 401.598 350.649 400.599 345.654C398.601 340.659 396.603 336.663 393.606 332.667Z" fill="#D3D3D3"/>
<path d="M393.606 332.667L397.602 331.668C401.598 335.664 403.596 340.659 404.595 345.654C405.594 350.649 405.594 355.644 403.596 360.639L399.6 359.64C401.598 355.644 401.598 350.649 400.599 345.654C398.601 340.659 396.603 336.663 393.606 332.667Z" fill="url(#paint37_linear)"/>
<path d="M404.595 350.649V355.644C404.595 360.639 402.597 365.634 402.597 365.634L400.599 364.635V360.639L398.601 359.64V358.641L402.597 359.64C404.595 356.643 404.595 353.646 404.595 350.649Z" fill="#5751D0"/>
<path d="M400.599 350.649C400.599 349.65 400.599 347.652 400.599 346.653C399.6 341.658 397.602 337.662 393.606 333.666V332.667C396.603 336.663 399.6 340.659 400.599 345.654C400.599 346.653 400.599 348.651 400.599 350.649Z" fill="url(#paint38_linear)"/>
<path d="M165.834 245.754C165.834 245.754 165.834 251.748 165.834 252.747C165.834 271.728 190.809 288.711 220.779 288.711C249.75 288.711 269.73 273.726 268.731 256.743V252.747C268.731 252.747 261.738 221.778 213.786 221.778C177.822 220.779 165.834 245.754 165.834 245.754ZM171.828 252.747C171.828 248.751 173.826 243.756 177.822 239.76C185.814 231.768 198.801 227.772 213.786 227.772C237.762 227.772 259.74 239.76 262.737 253.746C263.736 258.741 262.737 263.736 258.741 267.732C251.748 276.723 237.762 281.718 220.779 281.718C194.805 281.718 171.828 267.732 171.828 252.747Z" fill="#5751D0"/>
<path d="M217.782 259.74C223.776 259.74 227.772 256.743 227.772 253.746V263.736C227.772 267.732 223.776 270.729 217.782 270.729C211.788 270.729 206.793 267.732 205.794 263.736V253.746C205.794 255.744 211.788 259.74 217.782 259.74Z" fill="#5752D0"/>
<path d="M216.783 244.755C222.777 244.755 227.772 247.752 228.771 251.748C229.77 255.744 224.775 258.741 218.781 258.741C212.787 258.741 207.792 255.744 206.793 251.748C205.794 248.751 210.789 244.755 216.783 244.755Z" fill="url(#paint39_linear)"/>
<path d="M212.787 244.755C214.785 243.756 218.781 243.756 220.779 244.755C221.778 245.754 222.777 246.753 222.777 247.752V250.749C222.777 251.748 222.777 252.747 221.778 252.747C219.78 253.746 215.784 253.746 213.786 252.747C212.787 251.748 211.788 250.749 211.788 249.75V246.753C211.788 246.753 212.787 245.754 212.787 244.755Z" fill="#0D0848"/>
<path d="M187.812 230.769C188.811 230.769 189.81 230.769 189.81 230.769L218.781 248.751L222.777 250.749C223.776 250.749 224.775 250.749 224.775 250.749L229.77 249.75C230.769 249.75 231.768 249.75 231.768 249.75L255.744 262.737C255.744 262.737 256.743 263.736 255.744 264.735C254.745 265.734 252.747 266.733 251.748 268.731C250.749 268.731 249.75 268.731 248.751 268.731L217.782 249.75L213.786 247.752C212.787 247.752 212.787 247.752 211.788 247.752L208.791 248.751C207.792 248.751 206.793 248.751 206.793 248.751L185.814 235.764C184.815 234.765 184.815 233.766 184.815 233.766C184.815 233.766 186.813 231.768 187.812 230.769Z" fill="#0D0848"/>
<path d="M187.812 229.77H188.811H189.81L218.781 247.752L222.777 249.75C223.776 249.75 223.776 249.75 224.775 249.75L227.772 248.751C228.771 248.751 229.77 248.751 229.77 248.751L252.747 262.737C253.746 262.737 253.746 263.736 252.747 264.735C251.748 265.734 249.75 266.733 248.751 268.731C247.752 268.731 246.753 268.731 245.754 268.731L214.785 249.75L210.789 247.752C209.79 247.752 209.79 247.752 208.791 247.752L205.794 248.751C204.795 248.751 203.796 248.751 203.796 248.751L181.818 235.764C180.819 235.764 180.819 234.765 181.818 234.765C184.815 231.768 186.813 230.769 187.812 229.77Z" fill="#5752D0"/>
<path d="M212.787 244.755C213.786 243.756 214.785 243.756 216.783 243.756C217.782 243.756 219.78 243.756 220.779 244.755C222.777 245.754 223.776 248.751 221.778 249.75C219.78 250.749 215.784 250.749 213.786 249.75C211.788 248.751 210.789 246.753 212.787 244.755Z" fill="#5752D0"/>
<path d="M165.834 246.753C165.834 265.734 190.809 282.717 220.779 282.717C250.749 282.717 272.727 266.733 268.731 246.753C264.735 228.771 240.759 215.784 213.786 215.784C186.813 215.784 165.834 229.77 165.834 246.753ZM171.828 246.753C171.828 242.757 173.826 237.762 177.822 233.766C185.814 225.774 198.801 221.778 213.786 221.778C237.762 221.778 259.74 233.766 262.737 247.752C263.736 252.747 262.737 257.742 258.741 261.738C251.748 270.729 237.762 275.724 220.779 275.724C194.805 276.723 171.828 262.737 171.828 246.753Z" fill="white"/>
<path d="M260.739 232.767L264.735 231.768C268.731 235.764 270.729 240.759 271.728 245.754C272.727 250.749 272.727 255.744 270.729 260.739L266.733 259.74C268.731 255.744 268.731 250.749 267.732 245.754C266.733 240.759 263.736 236.763 260.739 232.767Z" fill="#D3D3D3"/>
<path d="M260.739 232.767L264.735 231.768C268.731 235.764 270.729 240.759 271.728 245.754C272.727 250.749 272.727 255.744 270.729 260.739L266.733 259.74C268.731 255.744 268.731 250.749 267.732 245.754C266.733 240.759 263.736 236.763 260.739 232.767Z" fill="url(#paint40_linear)"/>
<path d="M271.728 250.749V255.744C271.728 260.739 269.73 265.734 269.73 265.734L267.732 264.735V260.739L265.734 259.74V258.741L269.73 259.74C271.728 256.743 271.728 253.746 271.728 250.749Z" fill="#5751D0"/>
<path d="M267.732 250.749C267.732 249.75 267.732 247.752 267.732 246.753C266.733 241.758 264.735 237.762 260.739 233.766V232.767C263.736 236.763 266.733 240.759 267.732 245.754C267.732 247.752 267.732 248.751 267.732 250.749Z" fill="url(#paint41_linear)"/>
<path d="M290.709 163.836C290.709 163.836 290.709 169.83 290.709 170.829C290.709 189.81 315.684 206.793 345.654 206.793C374.625 206.793 394.605 191.808 393.606 174.825V170.829C393.606 170.829 386.613 139.86 338.661 139.86C302.697 138.861 290.709 163.836 290.709 163.836ZM296.703 169.83C296.703 165.834 298.701 160.839 302.697 156.843C310.689 148.851 323.676 144.855 338.661 144.855C362.637 144.855 384.615 156.843 387.612 170.829C388.611 175.824 387.612 180.819 383.616 184.815C376.623 193.806 362.637 198.801 345.654 198.801C319.68 199.8 296.703 185.814 296.703 169.83Z" fill="#5751D0"/>
<path d="M342.657 176.823C348.651 176.823 352.647 173.826 352.647 170.829V180.819C352.647 184.815 348.651 187.812 342.657 187.812C336.663 187.812 331.668 184.815 330.669 180.819V170.829C330.669 173.826 336.663 176.823 342.657 176.823Z" fill="#5752D0"/>
<path d="M341.659 162.837C347.653 162.837 352.648 165.834 353.647 169.83C354.646 173.826 349.651 176.823 343.657 176.823C337.663 176.823 332.668 173.826 331.669 169.83C330.67 165.834 335.665 162.837 341.659 162.837Z" fill="url(#paint42_linear)"/>
<path d="M338.661 162.837C340.659 161.838 344.655 161.838 346.653 162.837C347.652 163.836 348.651 164.835 348.651 165.834V168.831C348.651 169.83 348.651 170.829 347.652 170.829C345.654 171.828 341.658 171.828 339.66 170.829C338.661 169.83 337.662 168.831 337.662 167.832V164.835C336.663 163.836 337.662 163.836 338.661 162.837Z" fill="#0D0848"/>
<path d="M312.687 148.851C313.686 148.851 314.685 148.851 314.685 148.851L343.656 166.833L347.652 168.831C348.651 168.831 348.651 168.831 349.65 168.831L352.647 167.832C353.646 167.832 354.645 167.832 354.645 167.832L378.621 180.819C378.621 180.819 379.62 181.818 378.621 182.817C377.622 183.816 375.624 184.815 374.625 186.813C373.626 186.813 372.627 186.813 371.628 186.813L340.659 167.832L336.663 165.834C335.664 165.834 335.664 165.834 334.665 165.834L331.668 166.833C330.669 166.833 329.67 166.833 329.67 166.833L307.692 153.846C306.693 152.847 306.693 151.848 306.693 151.848C306.693 151.848 311.688 149.85 312.687 148.851Z" fill="#0D0848"/>
<path d="M312.687 147.852H313.686H314.685L343.656 165.834L347.652 167.832C348.651 167.832 348.651 167.832 349.65 167.832L352.647 166.833C353.646 166.833 354.645 166.833 354.645 166.833L377.622 180.819C378.621 180.819 378.621 181.818 377.622 182.817C376.623 183.816 374.625 184.815 373.626 186.813C372.627 186.813 371.628 186.813 370.629 186.813L339.66 167.832L335.664 165.834C334.665 165.834 334.665 165.834 333.666 165.834L330.669 166.833C329.67 166.833 328.671 166.833 328.671 166.833L306.693 153.846C305.694 153.846 305.694 152.847 306.693 152.847C309.69 149.85 311.688 148.851 312.687 147.852Z" fill="#5752D0"/>
<path d="M338.661 162.837C339.66 161.838 340.659 161.838 342.657 161.838C343.656 161.838 345.654 161.838 346.653 162.837C348.651 163.836 349.65 166.833 347.652 167.832C345.654 168.831 341.658 168.831 339.66 167.832C336.663 166.833 335.664 163.836 338.661 162.837Z" fill="#5752D0"/>
<path d="M290.709 164.835C290.709 183.816 315.684 200.799 345.654 200.799C375.624 200.799 397.602 184.815 393.606 164.835C389.61 146.853 365.634 133.866 338.661 133.866C311.688 133.866 290.709 146.853 290.709 164.835ZM296.703 164.835C296.703 160.839 298.701 155.844 302.697 151.848C310.689 143.856 323.676 139.86 338.661 139.86C362.637 139.86 384.615 151.848 387.612 165.834C388.611 170.829 387.612 175.824 383.616 179.82C376.623 188.811 362.637 193.806 345.654 193.806C319.68 193.806 296.703 180.819 296.703 164.835Z" fill="white"/>
<path d="M385.614 150.849L389.61 149.85C393.606 153.846 395.604 158.841 396.603 163.836C397.602 168.831 397.602 173.826 395.604 178.821L391.608 177.822C393.606 173.826 393.606 168.831 392.607 163.836C391.608 158.841 388.611 154.845 385.614 150.849Z" fill="#D3D3D3"/>
<path d="M385.614 150.849L389.61 149.85C393.606 153.846 395.604 158.841 396.603 163.836C397.602 168.831 397.602 173.826 395.604 178.821L391.608 177.822C393.606 173.826 393.606 168.831 392.607 163.836C391.608 158.841 388.611 154.845 385.614 150.849Z" fill="url(#paint43_linear)"/>
<path d="M396.603 168.831V173.826C396.603 178.821 394.605 183.816 394.605 183.816L392.607 182.817V178.821L390.609 177.822V176.823L394.605 177.822C396.603 174.825 396.603 171.828 396.603 168.831Z" fill="#5751D0"/>
<path d="M392.607 168.831C392.607 167.832 392.607 165.834 392.607 164.835C391.608 159.84 389.61 155.844 385.614 151.848V150.849C388.611 154.845 391.608 158.841 392.607 163.836C392.607 164.835 392.607 166.833 392.607 168.831Z" fill="url(#paint44_linear)"/>
<path d="M426.572 255.744C426.572 255.744 426.572 261.738 426.572 262.737C426.572 281.718 451.547 298.701 481.517 298.701C510.488 298.701 530.468 283.716 529.469 266.733V262.737C529.469 262.737 522.476 231.768 474.524 231.768C438.56 230.769 426.572 255.744 426.572 255.744ZM432.566 261.738C432.566 257.742 434.564 252.747 438.56 248.751C446.552 240.759 459.539 236.763 474.524 236.763C498.5 236.763 520.478 248.751 523.475 262.737C524.474 267.732 523.475 272.727 519.479 276.723C512.486 285.714 498.5 290.709 481.517 290.709C455.543 290.709 433.565 277.722 432.566 261.738Z" fill="#5751D0"/>
<path d="M478.52 268.731C484.514 268.731 488.51 265.734 488.51 262.737V272.727C488.51 276.723 484.514 279.72 478.52 279.72C472.526 279.72 467.531 276.723 466.532 272.727V262.737C466.532 265.734 472.526 268.731 478.52 268.731Z" fill="#5752D0"/>
<path d="M477.522 254.745C483.516 254.745 488.511 257.742 489.51 261.738C490.509 265.734 485.514 268.731 479.52 268.731C473.526 268.731 468.531 265.734 467.532 261.738C467.532 257.742 471.528 254.745 477.522 254.745Z" fill="url(#paint45_linear)"/>
<path d="M474.526 254.745C476.524 253.746 480.52 253.746 482.518 254.745C483.517 255.744 484.516 256.743 484.516 257.742V260.739C484.516 261.738 484.516 262.737 483.517 262.737C481.519 263.736 477.523 263.736 475.525 262.737C474.526 261.738 473.527 260.739 473.527 259.74V256.743C472.528 255.744 473.527 254.745 474.526 254.745Z" fill="#0D0848"/>
<path d="M448.551 240.759C449.55 240.759 450.549 240.759 450.549 240.759L479.52 258.741L483.516 260.739C484.515 260.739 484.515 260.739 485.514 260.739L488.511 259.74C489.51 259.74 490.509 259.74 490.509 259.74L514.485 272.727C514.485 272.727 515.484 273.726 514.485 274.725C513.486 275.724 511.488 276.723 510.489 278.721C509.49 278.721 508.491 278.721 507.492 278.721L478.521 259.74L474.525 257.742C473.526 257.742 473.526 257.742 472.527 257.742L469.53 258.741C468.531 258.741 467.532 258.741 467.532 258.741L446.553 245.754C445.554 244.755 445.554 243.756 445.554 243.756C445.554 243.756 447.552 241.758 448.551 240.759Z" fill="#0D0848"/>
<path d="M448.551 238.761H449.55H450.549L479.52 256.743L483.516 258.741C484.515 258.741 484.515 258.741 485.514 258.741L488.511 257.742C489.51 257.742 490.509 257.742 490.509 257.742L513.486 271.728C514.485 271.728 514.485 272.727 513.486 273.726C512.487 274.725 510.489 275.724 509.49 277.722C508.491 277.722 507.492 277.722 506.493 277.722L475.524 258.741L471.528 256.743C470.529 256.743 470.529 256.743 469.53 256.743L466.533 257.742C465.534 257.742 464.535 257.742 464.535 257.742L442.557 244.755C441.558 244.755 441.558 243.756 442.557 243.756C445.554 240.759 447.552 239.76 448.551 238.761Z" fill="#5752D0"/>
<path d="M474.525 254.745C475.524 253.746 476.523 253.746 478.521 253.746C479.52 253.746 481.518 253.746 482.517 254.745C484.515 255.744 485.514 258.741 483.516 259.74C481.518 260.739 477.522 260.739 475.524 259.74C472.527 257.742 472.527 255.744 474.525 254.745Z" fill="#5752D0"/>
<path d="M426.572 256.743C426.572 275.724 451.547 292.707 481.517 292.707C511.487 292.707 533.465 276.723 529.469 256.743C525.473 238.761 501.497 225.774 474.524 225.774C448.55 225.774 426.572 238.761 426.572 256.743ZM432.566 256.743C432.566 252.747 434.564 247.752 438.56 243.756C446.552 235.764 459.539 231.768 474.524 231.768C498.5 231.768 520.478 243.756 523.475 257.742C524.474 262.737 523.475 267.732 519.479 271.728C512.486 280.719 498.5 285.714 481.517 285.714C455.543 285.714 433.565 271.728 432.566 256.743Z" fill="white"/>
<path d="M521.477 241.758L525.473 240.759C529.469 244.755 531.467 249.75 532.466 254.745C533.465 259.74 533.465 264.735 531.467 269.73L527.471 268.731C529.469 264.735 529.469 259.74 528.47 254.745C527.471 250.749 524.474 245.754 521.477 241.758Z" fill="#D3D3D3"/>
<path d="M521.477 241.758L525.473 240.759C529.469 244.755 531.467 249.75 532.466 254.745C533.465 259.74 533.465 264.735 531.467 269.73L527.471 268.731C529.469 264.735 529.469 259.74 528.47 254.745C527.471 250.749 524.474 245.754 521.477 241.758Z" fill="url(#paint46_linear)"/>
<path d="M532.467 259.74V264.735C532.467 269.73 530.469 274.725 530.469 274.725L528.471 273.726V269.73H526.473V268.731L530.469 269.73C532.467 266.733 533.466 263.736 532.467 259.74Z" fill="#5751D0"/>
<path d="M528.47 260.739C528.47 259.74 528.47 257.742 528.47 256.743C527.471 251.748 525.473 247.752 521.477 243.756V242.757C524.474 246.753 527.471 250.749 528.47 255.744C528.47 256.743 528.47 258.741 528.47 260.739Z" fill="url(#paint47_linear)"/>
<defs>
<linearGradient id="paint0_linear" x1="244.281" y1="602.166" x2="403.6" y2="602.166" gradientUnits="userSpaceOnUse">
<stop offset="1.6e-07" stop-color="#FFAD60"/>
<stop offset="1" stop-color="#FF6279"/>
</linearGradient>
<linearGradient id="paint1_linear" x1="362.86" y1="592.034" x2="352.671" y2="592.034" gradientUnits="userSpaceOnUse">
<stop offset="8e-08" stop-color="#C8D6F9"/>
<stop offset="1" stop-color="#BAC1E8"/>
</linearGradient>
<linearGradient id="paint2_linear" x1="347.09" y1="601.239" x2="336.861" y2="601.239" gradientUnits="userSpaceOnUse">
<stop offset="8e-08" stop-color="#C8D6F9"/>
<stop offset="1" stop-color="#BAC1E8"/>
</linearGradient>
<linearGradient id="paint3_linear" x1="331.329" y1="610.444" x2="321.1" y2="610.444" gradientUnits="userSpaceOnUse">
<stop offset="8e-08" stop-color="#C8D6F9"/>
<stop offset="1" stop-color="#BAC1E8"/>
</linearGradient>
<linearGradient id="paint4_linear" x1="334.729" y1="309.583" x2="344.279" y2="309.583" gradientUnits="userSpaceOnUse">
<stop offset="8e-08" stop-color="#009BAE"/>
<stop offset="1" stop-color="#00EBE9"/>
</linearGradient>
<linearGradient id="paint5_linear" x1="296.578" y1="297.241" x2="336.207" y2="297.241" gradientUnits="userSpaceOnUse">
<stop stop-color="#5752D0"/>
<stop offset="1" stop-color="#7F7CF9"/>
</linearGradient>
<linearGradient id="paint6_linear" x1="296.534" y1="300.358" x2="338.128" y2="300.358" gradientUnits="userSpaceOnUse">
<stop offset="8e-08" stop-color="#009BAE"/>
<stop offset="1" stop-color="#00EBE9"/>
</linearGradient>
<linearGradient id="paint7_linear" x1="391.708" y1="287.608" x2="401.259" y2="287.608" gradientUnits="userSpaceOnUse">
<stop stop-color="#5752D0"/>
<stop offset="1" stop-color="#7F7CF9"/>
</linearGradient>
<linearGradient id="paint8_linear" x1="393.049" y1="275.271" x2="353.558" y2="275.271" gradientUnits="userSpaceOnUse">
<stop offset="8e-08" stop-color="#445DCF"/>
<stop offset="1" stop-color="#6A7FFF"/>
</linearGradient>
<linearGradient id="paint9_linear" x1="353.509" y1="278.383" x2="395.108" y2="278.383" gradientUnits="userSpaceOnUse">
<stop offset="8e-08" stop-color="#009BAE"/>
<stop offset="1" stop-color="#00EBE9"/>
</linearGradient>
<linearGradient id="paint10_linear" x1="376.469" y1="311.125" x2="392.956" y2="311.125" gradientUnits="userSpaceOnUse">
<stop offset="8e-08" stop-color="#009BAE"/>
<stop offset="1" stop-color="#00EBE9"/>
</linearGradient>
<linearGradient id="paint11_linear" x1="211.634" y1="266.165" x2="483.061" y2="266.165" gradientUnits="userSpaceOnUse">
<stop stop-color="#5752D0"/>
<stop offset="1" stop-color="#7F7CF9"/>
</linearGradient>
<linearGradient id="paint12_linear" x1="369.938" y1="301.514" x2="392.913" y2="301.514" gradientUnits="userSpaceOnUse">
<stop stop-color="#5752D0"/>
<stop offset="1" stop-color="#7F7CF9"/>
</linearGradient>
<linearGradient id="paint13_linear" x1="369.933" y1="313.973" x2="376.513" y2="313.973" gradientUnits="userSpaceOnUse">
<stop offset="8e-08" stop-color="#009BAE"/>
<stop offset="1" stop-color="#00EBE9"/>
</linearGradient>
<linearGradient id="paint14_linear" x1="339.323" y1="351.904" x2="361.181" y2="351.904" gradientUnits="userSpaceOnUse">
<stop offset="8e-08" stop-color="#009BAE"/>
<stop offset="1" stop-color="#00EBE9"/>
</linearGradient>
<linearGradient id="paint15_linear" x1="393.371" y1="345.484" x2="404.903" y2="345.484" gradientUnits="userSpaceOnUse">
<stop offset="8e-08" stop-color="#009BAE"/>
<stop offset="1" stop-color="#00EBE9"/>
</linearGradient>
<linearGradient id="paint16_linear" x1="400.517" y1="341.328" x2="393.37" y2="341.328" gradientUnits="userSpaceOnUse">
<stop offset="2e-06" stop-color="#CACCED"/>
<stop offset="1" stop-color="white"/>
</linearGradient>
<linearGradient id="paint17_linear" x1="206.522" y1="252.296" x2="228.375" y2="252.296" gradientUnits="userSpaceOnUse">
<stop offset="8e-08" stop-color="#009BAE"/>
<stop offset="1" stop-color="#00EBE9"/>
</linearGradient>
<linearGradient id="paint18_linear" x1="260.565" y1="245.886" x2="272.097" y2="245.886" gradientUnits="userSpaceOnUse">
<stop offset="8e-08" stop-color="#009BAE"/>
<stop offset="1" stop-color="#00EBE9"/>
</linearGradient>
<linearGradient id="paint19_linear" x1="267.71" y1="241.726" x2="260.564" y2="241.726" gradientUnits="userSpaceOnUse">
<stop offset="2e-06" stop-color="#CACCED"/>
<stop offset="1" stop-color="white"/>
</linearGradient>
<linearGradient id="paint20_linear" x1="331.422" y1="170.084" x2="353.275" y2="170.084" gradientUnits="userSpaceOnUse">
<stop offset="8e-08" stop-color="#009BAE"/>
<stop offset="1" stop-color="#00EBE9"/>
</linearGradient>
<linearGradient id="paint21_linear" x1="385.464" y1="163.674" x2="396.995" y2="163.674" gradientUnits="userSpaceOnUse">
<stop offset="8e-08" stop-color="#009BAE"/>
<stop offset="1" stop-color="#00EBE9"/>
</linearGradient>
<linearGradient id="paint22_linear" x1="392.61" y1="159.508" x2="385.463" y2="159.508" gradientUnits="userSpaceOnUse">
<stop offset="2e-06" stop-color="#CACCED"/>
<stop offset="1" stop-color="white"/>
</linearGradient>
<linearGradient id="paint23_linear" x1="467.389" y1="261.789" x2="489.243" y2="261.789" gradientUnits="userSpaceOnUse">
<stop offset="8e-08" stop-color="#009BAE"/>
<stop offset="1" stop-color="#00EBE9"/>
</linearGradient>
<linearGradient id="paint24_linear" x1="521.43" y1="255.369" x2="532.962" y2="255.369" gradientUnits="userSpaceOnUse">
<stop offset="8e-08" stop-color="#009BAE"/>
<stop offset="1" stop-color="#00EBE9"/>
</linearGradient>
<linearGradient id="paint25_linear" x1="528.576" y1="251.208" x2="521.43" y2="251.208" gradientUnits="userSpaceOnUse">
<stop offset="2e-06" stop-color="#CACCED"/>
<stop offset="1" stop-color="white"/>
</linearGradient>
<linearGradient id="paint26_linear" x1="334.729" y1="309.583" x2="344.279" y2="309.583" gradientUnits="userSpaceOnUse">
<stop offset="8e-08" stop-color="#009BAE"/>
<stop offset="1" stop-color="#00EBE9"/>
</linearGradient>
<linearGradient id="paint27_linear" x1="296.578" y1="297.241" x2="336.207" y2="297.241" gradientUnits="userSpaceOnUse">
<stop stop-color="#5752D0"/>
<stop offset="1" stop-color="#7F7CF9"/>
</linearGradient>
<linearGradient id="paint28_linear" x1="296.534" y1="300.358" x2="338.128" y2="300.358" gradientUnits="userSpaceOnUse">
<stop offset="8e-08" stop-color="#009BAE"/>
<stop offset="1" stop-color="#00EBE9"/>
</linearGradient>
<linearGradient id="paint29_linear" x1="391.708" y1="287.608" x2="401.259" y2="287.608" gradientUnits="userSpaceOnUse">
<stop stop-color="#5752D0"/>
<stop offset="1" stop-color="#7F7CF9"/>
</linearGradient>
<linearGradient id="paint30_linear" x1="393.049" y1="275.271" x2="353.558" y2="275.271" gradientUnits="userSpaceOnUse">
<stop offset="8e-08" stop-color="#445DCF"/>
<stop offset="1" stop-color="#6A7FFF"/>
</linearGradient>
<linearGradient id="paint31_linear" x1="353.509" y1="278.383" x2="395.108" y2="278.383" gradientUnits="userSpaceOnUse">
<stop offset="8e-08" stop-color="#009BAE"/>
<stop offset="1" stop-color="#00EBE9"/>
</linearGradient>
<linearGradient id="paint32_linear" x1="376.469" y1="311.125" x2="392.956" y2="311.125" gradientUnits="userSpaceOnUse">
<stop offset="8e-08" stop-color="#009BAE"/>
<stop offset="1" stop-color="#00EBE9"/>
</linearGradient>
<linearGradient id="paint33_linear" x1="211.634" y1="266.165" x2="483.061" y2="266.165" gradientUnits="userSpaceOnUse">
<stop stop-color="#5752D0"/>
<stop offset="1" stop-color="#7F7CF9"/>
</linearGradient>
<linearGradient id="paint34_linear" x1="369.938" y1="301.514" x2="392.913" y2="301.514" gradientUnits="userSpaceOnUse">
<stop stop-color="#5752D0"/>
<stop offset="1" stop-color="#7F7CF9"/>
</linearGradient>
<linearGradient id="paint35_linear" x1="369.933" y1="313.973" x2="376.513" y2="313.973" gradientUnits="userSpaceOnUse">
<stop offset="8e-08" stop-color="#009BAE"/>
<stop offset="1" stop-color="#00EBE9"/>
</linearGradient>
<linearGradient id="paint36_linear" x1="339.323" y1="351.904" x2="361.181" y2="351.904" gradientUnits="userSpaceOnUse">
<stop offset="8e-08" stop-color="#009BAE"/>
<stop offset="1" stop-color="#00EBE9"/>
</linearGradient>
<linearGradient id="paint37_linear" x1="393.371" y1="345.484" x2="404.903" y2="345.484" gradientUnits="userSpaceOnUse">
<stop offset="8e-08" stop-color="#009BAE"/>
<stop offset="1" stop-color="#00EBE9"/>
</linearGradient>
<linearGradient id="paint38_linear" x1="400.517" y1="341.328" x2="393.37" y2="341.328" gradientUnits="userSpaceOnUse">
<stop offset="2e-06" stop-color="#CACCED"/>
<stop offset="1" stop-color="white"/>
</linearGradient>
<linearGradient id="paint39_linear" x1="206.522" y1="252.296" x2="228.375" y2="252.296" gradientUnits="userSpaceOnUse">
<stop offset="8e-08" stop-color="#009BAE"/>
<stop offset="1" stop-color="#00EBE9"/>
</linearGradient>
<linearGradient id="paint40_linear" x1="260.565" y1="245.886" x2="272.097" y2="245.886" gradientUnits="userSpaceOnUse">
<stop offset="8e-08" stop-color="#009BAE"/>
<stop offset="1" stop-color="#00EBE9"/>
</linearGradient>
<linearGradient id="paint41_linear" x1="267.71" y1="241.726" x2="260.564" y2="241.726" gradientUnits="userSpaceOnUse">
<stop offset="2e-06" stop-color="#CACCED"/>
<stop offset="1" stop-color="white"/>
</linearGradient>
<linearGradient id="paint42_linear" x1="331.422" y1="170.084" x2="353.275" y2="170.084" gradientUnits="userSpaceOnUse">
<stop offset="8e-08" stop-color="#009BAE"/>
<stop offset="1" stop-color="#00EBE9"/>
</linearGradient>
<linearGradient id="paint43_linear" x1="385.464" y1="163.674" x2="396.995" y2="163.674" gradientUnits="userSpaceOnUse">
<stop offset="8e-08" stop-color="#009BAE"/>
<stop offset="1" stop-color="#00EBE9"/>
</linearGradient>
<linearGradient id="paint44_linear" x1="392.61" y1="159.508" x2="385.463" y2="159.508" gradientUnits="userSpaceOnUse">
<stop offset="2e-06" stop-color="#CACCED"/>
<stop offset="1" stop-color="white"/>
</linearGradient>
<linearGradient id="paint45_linear" x1="467.389" y1="261.789" x2="489.243" y2="261.789" gradientUnits="userSpaceOnUse">
<stop offset="8e-08" stop-color="#009BAE"/>
<stop offset="1" stop-color="#00EBE9"/>
</linearGradient>
<linearGradient id="paint46_linear" x1="521.43" y1="255.369" x2="532.962" y2="255.369" gradientUnits="userSpaceOnUse">
<stop offset="8e-08" stop-color="#009BAE"/>
<stop offset="1" stop-color="#00EBE9"/>
</linearGradient>
<linearGradient id="paint47_linear" x1="528.576" y1="251.208" x2="521.43" y2="251.208" gradientUnits="userSpaceOnUse">
<stop offset="2e-06" stop-color="#CACCED"/>
<stop offset="1" stop-color="white"/>
</linearGradient>
</defs>
</svg>
