<svg width="106" height="132" viewBox="0 0 106 132" fill="none" xmlns="http://www.w3.org/2000/svg">
<path d="M21.5095 114.865L50.6697 131.41L66.5941 122.31L38.4679 106.386L21.5095 114.865Z" fill="url(#paint0_linear)"/>
<path d="M6.61926 100.802L35.5727 117.347L51.7039 108.247L23.5777 92.3231L6.61926 100.802Z" fill="url(#paint1_linear)"/>
<path d="M41.777 103.077C35.5727 99.7682 25.6458 99.975 19.4415 103.491C13.2372 107.007 13.444 112.384 19.6483 115.693C25.8526 119.002 35.7795 118.795 41.9838 115.279C48.1881 111.763 48.1881 106.386 41.777 103.077Z" fill="white"/>
<path d="M41.7769 103.077C35.5726 99.7682 25.6458 99.975 19.6483 103.491C13.6508 107.006 13.6508 112.384 19.8551 115.693C26.0594 119.001 35.9863 118.795 41.9837 115.279C48.188 111.763 47.9812 106.386 41.7769 103.077Z" fill="#FCFCFC"/>
<path d="M41.7769 103.077C35.5726 99.7682 25.8526 99.975 19.6483 103.491C13.6508 107.006 13.6508 112.384 19.8551 115.486C26.0594 118.795 35.7794 118.588 41.9837 115.072C47.9812 111.763 47.7744 106.386 41.7769 103.077Z" fill="#F9F9FA"/>
<path d="M41.5701 103.284C35.3658 99.9749 25.6457 100.182 19.6483 103.698C13.6508 107.213 13.8576 112.59 19.8551 115.692C26.0594 119.001 35.7794 118.795 41.7769 115.279C47.7744 111.763 47.7744 106.386 41.5701 103.284Z" fill="#F6F6F7"/>
<path d="M41.5701 103.284C35.5726 100.182 25.8525 100.182 19.855 103.698C13.8575 107.007 14.0644 112.384 20.0618 115.693C26.0593 118.795 35.7794 118.795 41.7769 115.279C47.7744 111.763 47.5676 106.386 41.5701 103.284Z" fill="#F3F3F4"/>
<path d="M41.5702 103.284C35.5727 100.182 25.8526 100.182 20.0619 103.698C14.0645 107.007 14.2713 112.384 20.2688 115.486C26.2662 118.588 35.9863 118.588 41.777 115.072C47.5677 111.763 47.5677 106.386 41.5702 103.284Z" fill="#F0F0F2"/>
<path d="M41.3634 103.284C35.3659 100.182 25.8526 100.389 19.8551 103.697C14.0644 107.006 14.0644 112.384 20.0619 115.486C26.0594 118.588 35.5727 118.381 41.5702 115.072C47.5676 111.763 47.3608 106.386 41.3634 103.284Z" fill="#EDEEEF"/>
<path d="M41.3633 103.284C35.3658 100.182 25.8526 100.389 20.0619 103.697C14.2712 107.006 14.2712 112.177 20.2687 115.279C26.2662 118.381 35.7795 118.174 41.5701 114.865C47.3608 111.763 47.3608 106.593 41.3633 103.284Z" fill="#EAEBEC"/>
<path d="M41.3633 103.491C35.5727 100.389 26.0594 100.596 20.2687 103.905C14.478 107.213 14.6848 112.384 20.4755 115.486C26.2662 118.588 35.7795 118.381 41.5701 115.072C47.3608 111.763 47.154 106.593 41.3633 103.491Z" fill="#E7E8EA"/>
<path d="M41.1565 103.491C35.3659 100.389 25.8526 100.596 20.2687 103.905C14.6849 107.213 14.6849 112.384 20.4755 115.486C26.2662 118.588 35.7795 118.381 41.3634 115.072C46.9472 111.763 47.154 106.593 41.1565 103.491Z" fill="#E4E5E7"/>
<path d="M41.1565 103.491C35.3658 100.389 26.0594 100.596 20.2687 103.905C14.478 107.213 14.6848 112.177 20.4755 115.279C26.2662 118.381 35.5727 118.174 41.3633 114.865C46.9472 111.763 46.9472 106.593 41.1565 103.491Z" fill="#E1E2E4"/>
<path d="M41.1565 103.491C35.3658 100.389 26.0594 100.596 20.4755 103.905C14.8916 107.213 14.8916 112.177 20.6823 115.279C26.473 118.381 35.7795 118.174 41.3633 114.865C46.9472 111.556 46.7404 106.593 41.1565 103.491Z" fill="#DFDFE2"/>
<path d="M40.9497 103.491C35.159 100.389 26.0594 100.596 20.4755 103.905C14.8916 107.007 14.8916 112.177 20.6823 115.072C26.473 117.968 35.5726 117.968 41.1565 114.659C46.7404 111.556 46.7404 106.593 40.9497 103.491Z" fill="#DCDCDF"/>
<path d="M40.9497 103.698C35.3658 100.802 26.0593 100.802 20.4755 104.111C14.8916 107.213 15.0984 112.384 20.6823 115.279C26.2661 118.174 35.5726 118.174 41.1565 114.865C46.7403 111.556 46.5335 106.593 40.9497 103.698Z" fill="#D9D9DC"/>
<path d="M40.7429 103.698C35.159 100.802 26.0593 100.802 20.4755 104.111C14.8916 107.213 15.0984 112.177 20.6823 115.279C26.2661 118.174 35.3658 118.174 40.9497 114.865C46.5335 111.556 46.5335 106.593 40.7429 103.698Z" fill="#D6D6DA"/>
<path d="M40.7429 103.698C35.1591 100.802 26.0594 100.802 20.6824 104.111C15.3053 107.42 15.3053 112.177 20.8892 115.072C26.473 117.967 35.5727 117.967 40.9498 114.658C46.5336 111.556 46.3268 106.593 40.7429 103.698Z" fill="#D3D3D7"/>
<path d="M40.7429 103.698C35.159 100.802 26.2662 101.009 20.8891 104.111C15.5121 107.213 15.5121 112.177 21.096 115.072C26.6798 117.968 35.5727 117.761 40.9497 114.659C46.3268 111.556 46.3268 106.593 40.7429 103.698Z" fill="#D0D1D4"/>
<path d="M40.5361 103.698C34.9523 100.802 26.2662 101.009 20.6824 104.111C15.3053 107.213 15.3053 111.97 20.8892 114.865C26.473 117.761 35.1591 117.554 40.7429 114.452C46.12 111.556 46.12 106.593 40.5361 103.698Z" fill="#CDCED2"/>
<path d="M40.5361 103.904C35.159 101.009 26.2662 101.216 20.8891 104.318C15.5121 107.42 15.5121 112.177 21.096 115.072C26.473 117.968 35.3659 117.761 40.7429 114.659C46.12 111.556 45.9132 106.8 40.5361 103.904Z" fill="#CACBCF"/>
<path d="M40.5361 103.904C35.159 101.009 26.473 101.216 21.0959 104.318C15.7189 107.42 15.9257 112.177 21.3027 115.072C26.6798 117.968 35.3658 117.761 40.7429 114.659C45.9131 111.556 45.9131 106.8 40.5361 103.904Z" fill="#C7C8CC"/>
<path d="M40.3293 103.904C34.9522 101.009 26.2662 101.216 21.0959 104.318C15.7189 107.42 15.9257 112.177 21.3027 114.865C26.6798 117.761 35.3658 117.554 40.5361 114.452C45.9131 111.556 45.7063 106.8 40.3293 103.904Z" fill="#C4C5CA"/>
<path d="M40.3293 103.904C34.9522 101.009 26.473 101.216 21.0959 104.318C15.7189 107.42 15.9257 111.97 21.3027 114.865C26.6798 117.761 35.159 117.554 40.5361 114.659C45.7063 111.556 45.7063 106.8 40.3293 103.904Z" fill="#C1C2C7"/>
<path d="M26.8866 89.014C20.6823 85.705 10.7554 85.9118 4.55111 89.4276C-1.65319 92.9434 -1.44638 98.3205 4.75793 101.629C10.9622 104.938 20.8891 104.732 27.0934 101.216C33.2977 97.7 33.0909 92.1162 26.8866 89.014Z" fill="white"/>
<path d="M26.8866 89.014C20.6823 85.705 10.7554 85.9118 4.75788 89.4276C-1.23962 92.9434 -1.23962 98.3205 4.96469 101.629C11.169 104.938 21.0959 104.732 27.0934 101.216C33.0909 97.7 33.0909 92.323 26.8866 89.014Z" fill="#FCFCFC"/>
<path d="M26.6798 89.014C20.4755 85.705 10.7554 85.9118 4.55109 89.4276C-1.44641 92.9434 -1.4464 98.3205 4.7579 101.423C10.9622 104.732 20.6823 104.525 26.8866 101.009C33.0909 97.4932 32.8841 92.323 26.6798 89.014Z" fill="#F9F9FA"/>
<path d="M26.6799 89.014C20.4756 85.705 10.7555 85.9118 4.75799 89.4276C-1.2395 92.9434 -1.03269 98.3205 4.9648 101.423C11.1691 104.732 20.8892 104.525 26.8867 101.009C32.8842 97.7 32.8842 92.323 26.6799 89.014Z" fill="#F6F6F7"/>
<path d="M26.6797 89.0139C20.6822 85.9117 10.9621 85.9117 4.96466 89.4275C-1.03284 92.7364 -0.826028 98.1135 5.17147 101.422C11.169 104.731 20.889 104.525 26.8865 101.009C32.884 97.4931 32.6772 92.3228 26.6797 89.0139Z" fill="#F3F3F4"/>
<path d="M26.4729 89.2209C20.4754 86.1187 10.7553 86.1187 4.96465 89.6345C-1.03284 92.9435 -0.826027 98.3205 5.17147 101.423C11.169 104.525 20.889 104.525 26.6797 101.009C32.6772 97.7001 32.4704 92.323 26.4729 89.2209Z" fill="#F0F0F2"/>
<path d="M26.4729 89.2207C20.4754 86.1186 10.9621 86.3254 4.96465 89.6344C-1.03284 92.9433 -0.826027 98.3204 5.17147 101.423C11.169 104.525 20.6822 104.318 26.6797 101.009C32.4704 97.7 32.4704 92.3229 26.4729 89.2207Z" fill="#EDEEEF"/>
<path d="M26.4729 89.2207C20.4755 86.1186 10.9622 86.3254 5.17151 89.6344C-0.619176 92.9433 -0.61918 98.1136 5.37831 101.216C11.3758 104.318 20.8891 104.111 26.6798 100.802C32.4704 97.4931 32.2636 92.3229 26.4729 89.2207Z" fill="#EAEBEC"/>
<path d="M26.2662 89.2207C20.4755 86.1186 10.9622 86.3254 5.17154 89.6344C-0.619148 92.9433 -0.412341 98.1136 5.37834 101.216C11.169 104.318 20.6823 104.111 26.473 100.802C32.2637 97.4931 32.2637 92.3229 26.2662 89.2207Z" fill="#E7E8EA"/>
<path d="M26.2661 89.2207C20.4755 86.1186 10.9622 86.3254 5.37832 89.6344C-0.412363 92.9433 -0.205552 98.1136 5.58513 101.216C11.3758 104.318 20.8891 104.111 26.473 100.802C32.2636 97.4931 32.0568 92.3229 26.2661 89.2207Z" fill="#E4E5E7"/>
<path d="M26.2661 89.4278C20.4755 86.3256 11.169 86.5324 5.37832 89.8414C-0.412363 93.1504 -0.205552 98.1138 5.58513 101.216C11.3758 104.318 20.6823 104.111 26.473 100.802C32.0568 97.4934 32.0568 92.3231 26.2661 89.4278Z" fill="#E1E2E4"/>
<path d="M26.0594 89.4278C20.2687 86.3256 10.9622 86.5324 5.37835 89.8414C-0.205525 93.1504 -0.205524 98.1138 5.58516 101.216C11.3758 104.318 20.6823 104.111 26.2662 100.802C32.0569 97.4934 31.85 92.5299 26.0594 89.4278Z" fill="#DFDFE2"/>
<path d="M26.0593 89.4278C20.2687 86.3256 11.169 86.5324 5.58513 89.8414C0.00126219 92.9435 0.00126314 98.1138 5.79195 101.009C11.5826 104.111 20.6823 103.905 26.2661 100.596C31.85 97.4934 31.85 92.5299 26.0593 89.4278Z" fill="#DCDCDF"/>
<path d="M26.0593 89.4277C20.4754 86.5324 11.169 86.5323 5.58508 89.8413C0.00120771 92.9435 0.208019 98.1137 5.79189 101.009C11.3758 103.904 20.6822 103.904 26.2661 100.595C31.6432 97.4933 31.6432 92.5298 26.0593 89.4277Z" fill="#D9D9DC"/>
<path d="M25.8525 89.6345C20.2686 86.7391 11.169 86.7391 5.58508 90.0481C0.00120771 93.1502 0.208019 98.1137 5.79189 101.216C11.3758 104.318 20.4754 104.111 26.0593 100.802C31.6432 97.4932 31.4363 92.5298 25.8525 89.6345Z" fill="#D6D6DA"/>
<path d="M25.8526 89.6345C20.2687 86.7391 11.169 86.7391 5.79198 90.0481C0.414917 93.3571 0.414917 98.1137 5.99879 101.009C11.5827 103.904 20.6823 103.904 26.0594 100.595C31.4364 97.4933 31.4364 92.5298 25.8526 89.6345Z" fill="#D3D3D7"/>
<path d="M25.6457 89.6346C20.0619 86.7392 11.169 86.946 5.79198 90.0482C0.414917 93.1503 0.414917 98.1138 5.99879 101.009C11.5827 103.904 20.4755 103.698 25.8526 100.596C31.4364 97.4934 31.2296 92.5299 25.6457 89.6346Z" fill="#D0D1D4"/>
<path d="M25.6457 89.6346C20.0619 86.7392 11.3759 86.946 5.79198 90.0482C0.414917 93.1503 0.414917 97.907 5.99879 100.802C11.5827 103.698 20.2687 103.491 25.8526 100.389C31.2296 97.4933 31.2296 92.5299 25.6457 89.6346Z" fill="#CDCED2"/>
<path d="M25.6457 89.6346C20.2687 86.7392 11.3758 86.946 5.99877 90.0482C0.621704 93.1503 0.621704 97.907 6.20558 100.802C11.5826 103.698 20.4755 103.491 25.8525 100.389C31.2296 97.4933 31.0228 92.5299 25.6457 89.6346Z" fill="#CACBCF"/>
<path d="M25.4389 89.8413C20.0618 86.9459 11.3758 87.1528 5.99875 90.2549C0.621691 93.3571 0.828502 98.1137 6.20556 101.009C11.5826 103.904 20.2687 103.698 25.6457 100.595C31.0228 97.2865 31.0228 92.5298 25.4389 89.8413Z" fill="#C7C8CC"/>
<path d="M25.4389 89.8413C20.0619 86.9459 11.3759 87.1528 6.20561 90.2549C1.03536 93.3571 1.03536 98.1137 6.41242 100.802C11.7895 103.698 20.4755 103.491 25.6458 100.389C30.816 97.2865 30.816 92.5298 25.4389 89.8413Z" fill="#C4C5CA"/>
<path d="M25.439 89.8413C20.0619 86.9459 11.5827 87.1528 6.20561 90.2549C1.03536 93.1503 1.03536 97.9069 6.41242 100.802C11.7895 103.698 20.2687 103.491 25.6458 100.389C31.0228 97.2865 30.6092 92.7366 25.439 89.8413Z" fill="#C1C2C7"/>
<path d="M16.9597 92.116C15.0984 92.116 13.2372 92.3228 11.7895 92.5296H2.48303V96.0454C2.68984 99.1476 8.68734 102.457 17.1665 102.457C25.6458 102.457 31.6433 99.1476 31.8501 96.0454V92.5296H22.5436C20.4755 92.3228 18.821 92.116 16.9597 92.116Z" fill="#FFB070"/>
<path d="M4.13745 98.9407C4.34426 99.1475 4.75788 99.3543 4.96469 99.5611V92.5295H4.13745V98.9407Z" fill="#FFDAA6"/>
<path d="M21.3027 92.5295V102.25C21.7164 102.25 21.9232 102.25 22.13 102.043V92.5295C21.7164 92.5295 21.5095 92.5295 21.3027 92.5295Z" fill="#FFDAA6"/>
<path d="M19.6482 102.456C19.855 102.456 20.2686 102.456 20.4754 102.456V92.5295C20.2686 92.5295 19.855 92.5295 19.6482 92.5295V102.456Z" fill="#FFDAA6"/>
<path d="M27.507 100.389C27.9206 100.182 28.1274 99.9749 28.3342 99.9749V92.7366H27.507V100.389Z" fill="#FFDAA6"/>
<path d="M17.9938 102.457C18.2006 102.457 18.6142 102.457 18.821 102.457V92.116C18.6142 92.116 18.2006 92.116 17.9938 92.116V102.457Z" fill="#FFDAA6"/>
<path d="M28.9547 99.3543C29.3683 99.1475 29.5751 98.9407 29.7819 98.5271V92.5295H28.9547V99.3543Z" fill="#FFDAA6"/>
<path d="M24.4048 101.422C24.8184 101.422 25.0252 101.216 25.232 101.216V92.5295H24.4048V101.422Z" fill="#FFDAA6"/>
<path d="M22.7504 101.836C23.164 101.836 23.3708 101.629 23.5776 101.629V92.5295H22.7504V101.836Z" fill="#FFDAA6"/>
<path d="M25.8525 101.009C26.2662 100.802 26.473 100.802 26.6798 100.595V92.5295H25.8525V101.009Z" fill="#FFDAA6"/>
<path d="M8.68726 101.216C8.89407 101.216 9.30769 101.422 9.5145 101.422V92.3228H8.68726V101.216Z" fill="#FFDAA6"/>
<path d="M14.8916 102.457C15.0984 102.457 15.512 102.457 15.7188 102.457V92.116C15.512 92.116 15.0984 92.116 14.8916 92.116V102.457Z" fill="#FFDAA6"/>
<path d="M16.546 92.116V102.457C16.7528 102.457 16.7528 102.457 16.9596 102.457C17.1664 102.457 17.3733 102.457 17.5801 102.457V92.116C17.3733 92.116 17.1664 92.116 16.9596 92.116C16.7528 92.116 16.546 92.116 16.546 92.116Z" fill="#FFDAA6"/>
<path d="M2.48303 96.0453C2.48303 96.6657 2.89665 97.493 3.51708 98.1134V92.5295H2.48303V96.0453Z" fill="#FFDAA6"/>
<path d="M30.6091 97.9066C31.0228 97.2862 31.2296 96.6657 31.4364 96.0453V92.5295H30.6091V97.9066Z" fill="#FFDAA6"/>
<path d="M5.58521 99.9747C5.79202 100.182 6.20563 100.388 6.41244 100.388V92.5295H5.58521V99.9747Z" fill="#FFDAA6"/>
<path d="M13.444 102.25C13.6508 102.25 14.0644 102.25 14.2712 102.25V92.116C14.0644 92.116 13.6508 92.116 13.444 92.116V102.25Z" fill="#FFDAA6"/>
<path d="M7.23962 100.802C7.44643 101.009 7.86005 101.009 8.06686 101.216V92.7366H7.23962V100.802Z" fill="#FFDAA6"/>
<path d="M10.3418 101.836C10.5486 101.836 10.9622 102.043 11.169 102.043V92.7366H10.3418V101.836Z" fill="#FFDAA6"/>
<path d="M11.7894 102.043C11.9962 102.043 12.4099 102.043 12.6167 102.25V92.3228C12.203 92.3228 11.9962 92.3227 11.7894 92.5295V102.043Z" fill="#FFDAA6"/>
<path d="M16.9598 85.705C8.27374 85.705 2.27625 89.2208 2.27625 92.323C2.27625 95.4251 8.27374 98.9409 16.9598 98.9409C25.6458 98.9409 31.6433 95.4251 31.6433 92.323C31.6433 89.2208 25.439 85.705 16.9598 85.705Z" fill="#FFB070"/>
<path d="M14.8917 30.0732C15.5121 31.7277 16.1326 33.1753 16.9598 34.4162L19.8552 42.275L22.9573 41.2409C25.439 40 26.4731 34.0026 23.7846 26.971C21.096 19.9395 16.3394 15.8033 13.6509 16.6305L10.5487 17.6646L13.4441 25.5234C13.8577 26.971 14.2713 28.4187 14.8917 30.0732Z" fill="#FFB070"/>
<path d="M24.6117 38.7592C24.8185 38.5524 24.8185 38.1388 24.8185 37.7252L19.0278 40.0001L19.2346 40.8273L24.6117 38.7592Z" fill="#FFDAA6"/>
<path d="M13.6508 26.3505L21.9232 23.2484C21.7164 23.0416 21.7164 22.8347 21.5096 22.6279L13.444 25.5233C13.6508 25.9369 13.6508 26.1437 13.6508 26.3505Z" fill="#FFDAA6"/>
<path d="M22.5437 24.4892C22.3369 24.2824 22.3369 24.0756 22.1301 23.662L13.8577 26.7641C13.8577 26.9709 14.0645 27.3846 14.0645 27.5914L22.5437 24.4892Z" fill="#FFDAA6"/>
<path d="M18.4075 18.6986C18.2007 18.4918 17.9939 18.285 17.787 18.0782L11.7896 20.3531L11.9964 21.1803L18.4075 18.6986Z" fill="#FFDAA6"/>
<path d="M23.164 25.73C22.9572 25.5232 22.9572 25.3164 22.7504 24.9028L14.0643 28.2117C14.0643 28.4186 14.2711 28.8322 14.2711 29.039L23.164 25.73Z" fill="#FFDAA6"/>
<path d="M17.1666 17.6646C16.7529 17.4578 16.5461 17.251 16.3393 17.0442L11.1691 18.9055L11.3759 19.7327L17.1666 17.6646Z" fill="#FFDAA6"/>
<path d="M20.4756 20.9735C20.2688 20.7667 20.062 20.5599 19.8552 20.3531L12.6168 23.0416L12.8236 23.8689L20.4756 20.9735Z" fill="#FFDAA6"/>
<path d="M21.3028 22.0076C21.096 21.8008 20.8892 21.594 20.8892 21.3871L13.2372 24.2825L13.444 25.1097L21.3028 22.0076Z" fill="#FFDAA6"/>
<path d="M19.4415 19.7327C19.2347 19.5259 19.0279 19.3191 18.8211 19.1122L11.9963 21.594L12.2031 22.4212L19.4415 19.7327Z" fill="#FFDAA6"/>
<path d="M25.2322 34.0024C25.2322 33.7956 25.2322 33.382 25.2322 33.1752L17.5802 36.0705L17.787 36.8978L25.2322 34.0024Z" fill="#FFDAA6"/>
<path d="M24.1981 28.4187C24.1981 28.2118 23.9913 27.7982 23.9913 27.5914L15.3053 30.9004C15.5121 31.1072 15.5121 31.314 15.7189 31.7276L24.1981 28.4187Z" fill="#FFDAA6"/>
<path d="M14.8916 30.4868L23.5777 27.1778C23.5777 27.1778 23.5777 26.971 23.3709 26.971C23.3709 26.7642 23.164 26.5574 23.164 26.5574L14.478 29.8663C14.478 30.0731 14.6848 30.28 14.6848 30.28C14.8916 30.28 14.8916 30.2799 14.8916 30.4868Z" fill="#FFDAA6"/>
<path d="M22.7505 41.0339C23.3709 40.8271 23.7845 40.2067 24.1982 39.5862L19.4415 41.4475L19.8551 42.2747L22.7505 41.0339Z" fill="#FFDAA6"/>
<path d="M15.5121 16.8372C14.8917 16.6304 14.2713 16.6304 13.6508 16.8372L10.7555 17.8713L10.9623 18.4917L15.5121 16.8372Z" fill="#FFDAA6"/>
<path d="M25.0254 37.1046C25.0254 36.8978 25.0254 36.4842 25.2322 36.2773L18.6143 38.7591L18.8211 39.5863L25.0254 37.1046Z" fill="#FFDAA6"/>
<path d="M24.6118 29.8662C24.6118 29.6594 24.405 29.2458 24.405 29.039L15.9258 32.1412C16.1326 32.348 16.1326 32.5548 16.3394 32.9684L24.6118 29.8662Z" fill="#FFDAA6"/>
<path d="M25.2321 35.657C25.2321 35.4502 25.2321 35.0366 25.2321 34.8298L17.9938 37.5183L18.2006 38.3455L25.2321 35.657Z" fill="#FFDAA6"/>
<path d="M25.0253 32.5548C25.0253 32.348 25.0253 31.9344 24.8185 31.7276L16.9597 34.6229L17.1665 35.4502L25.0253 32.5548Z" fill="#FFDAA6"/>
<path d="M24.8186 31.107C24.8186 30.9002 24.6118 30.4866 24.6118 30.2798L16.3394 33.3819C16.5462 33.5887 16.5462 33.7955 16.753 34.2092L24.8186 31.107Z" fill="#FFDAA6"/>
<path d="M9.3078 32.1412C11.9963 39.3795 16.753 43.3089 19.4415 42.4817C22.13 41.4476 23.1641 35.2433 20.4755 28.005C17.787 20.7666 13.0304 16.8372 10.3418 17.6645C7.65332 18.6985 6.61927 24.9028 9.3078 32.1412Z" fill="#FFB070"/>
<path d="M95.134 87.7733C95.5477 89.4277 96.1681 90.8754 96.9953 92.1163L99.4771 100.182L102.579 99.3546C105.268 98.5274 106.509 92.5299 104.44 85.2915C102.166 78.0532 97.8226 73.7102 94.9272 74.1238L91.8251 74.951L94.3068 83.0167C94.3068 84.6711 94.7204 86.1188 95.134 87.7733Z" fill="#FFB070"/>
<path d="M104.441 97.2863C104.647 97.0795 104.647 96.6659 104.854 96.2523L98.8567 97.9067L99.0635 98.734L104.441 97.2863Z" fill="#FFDAA6"/>
<path d="M94.3069 84.0507L102.786 81.7758C102.579 81.569 102.579 81.3622 102.372 80.9485L94.1001 83.2234C94.3069 83.4302 94.3069 83.8439 94.3069 84.0507Z" fill="#FFDAA6"/>
<path d="M103.406 83.0166C103.2 82.8098 103.2 82.603 102.993 82.1893L94.3068 84.4643C94.3068 84.6711 94.3068 85.0847 94.5136 85.2915L103.406 83.0166Z" fill="#FFDAA6"/>
<path d="M99.4771 76.8122C99.2703 76.6054 99.0635 76.3986 98.8566 76.1918L92.6523 77.8463L92.8592 78.6735L99.4771 76.8122Z" fill="#FFDAA6"/>
<path d="M103.82 84.4642C103.82 84.2574 103.613 83.8437 103.613 83.6369L94.7205 85.9118C94.7205 86.1186 94.9273 86.5322 94.9273 86.7391L103.82 84.4642Z" fill="#FFDAA6"/>
<path d="M98.4431 75.7782C98.2362 75.5714 97.8226 75.3646 97.6158 75.1578L92.4456 76.6054L92.6524 77.4327L98.4431 75.7782Z" fill="#FFDAA6"/>
<path d="M101.338 79.2938C101.132 79.087 100.925 78.8802 100.925 78.6734L93.4796 80.7415L93.6864 81.5687L101.338 79.2938Z" fill="#FFDAA6"/>
<path d="M102.166 80.5347C101.959 80.3279 101.959 80.1211 101.752 79.7075L93.8932 81.7756L94.1 82.6028L102.166 80.5347Z" fill="#FFDAA6"/>
<path d="M100.511 78.0531C100.304 77.8462 100.097 77.6394 99.8907 77.4326L92.8591 79.2939L93.0659 80.1212L100.511 78.0531Z" fill="#FFDAA6"/>
<path d="M105.268 92.7366C105.268 92.5298 105.268 92.1161 105.268 91.9093L97.4089 93.9774L97.6157 94.8047L105.268 92.7366Z" fill="#FFDAA6"/>
<path d="M104.647 87.1528C104.647 86.946 104.441 86.5324 104.441 86.3256L95.5477 88.8073C95.5477 89.0141 95.7545 89.4277 95.7545 89.6345L104.647 87.1528Z" fill="#FFDAA6"/>
<path d="M95.341 88.1869L104.441 85.7051V85.4983C104.441 85.2915 104.234 85.0847 104.234 85.0847L95.1342 87.5664C95.1342 87.7732 95.1342 87.98 95.341 87.98C95.341 87.98 95.341 87.9801 95.341 88.1869Z" fill="#FFDAA6"/>
<path d="M102.579 99.3545C103.2 99.1477 103.613 98.7341 104.027 97.9069L99.0634 99.1477L99.2702 99.975L102.579 99.3545Z" fill="#FFDAA6"/>
<path d="M96.5817 74.7441C95.9613 74.5373 95.3409 74.3305 94.7204 74.5373L91.6183 75.3645L91.8251 75.985L96.5817 74.7441Z" fill="#FFDAA6"/>
<path d="M104.854 95.6319C104.854 95.4251 105.061 95.0115 105.061 94.8047L98.2362 96.666L98.443 97.4932L104.854 95.6319Z" fill="#FFDAA6"/>
<path d="M105.061 88.3936C105.061 88.1868 105.061 87.7732 104.854 87.5663L95.9613 89.8412C96.1681 90.048 96.1681 90.2549 96.3749 90.6685L105.061 88.3936Z" fill="#FFDAA6"/>
<path d="M105.268 94.1843C105.268 93.9775 105.268 93.5639 105.268 93.3571L97.8226 95.4252L98.0294 96.2524L105.268 94.1843Z" fill="#FFDAA6"/>
<path d="M105.268 91.289C105.268 91.0822 105.268 90.6685 105.268 90.4617L97.2021 92.7367L97.409 93.5639L105.268 91.289Z" fill="#FFDAA6"/>
<path d="M105.268 89.8411C105.268 89.6343 105.268 89.2207 105.061 89.0139L96.5818 91.2888C96.7886 91.4957 96.7886 91.7024 96.9954 92.1161L105.268 89.8411Z" fill="#FFDAA6"/>
<path d="M89.5502 89.2209C91.8251 96.6661 96.3749 101.009 99.0634 100.182C101.752 99.3546 103.2 93.564 100.925 86.1188C98.6498 78.6736 94.1 74.3306 91.4115 75.1578C88.7229 75.9851 87.2753 81.9826 89.5502 89.2209Z" fill="#FFB070"/>
<path d="M86.0344 40.0001L37.0204 11.6672C36.6067 11.4604 36.1931 11.0467 36.1931 10.6331V25.7302C36.1931 26.1438 36.3999 26.5575 37.0204 26.9711L75.2802 49.0998C79.83 51.7883 85.4139 50.1338 88.1025 45.584C89.1365 43.5159 88.3093 41.241 86.0344 40.0001Z" fill="#0D0848"/>
<path d="M37.8477 25.7302C37.8477 23.2485 40.5362 21.8008 42.6043 23.0417L85.8276 48.0657C88.1025 49.3066 88.9298 51.5815 87.8957 53.4428C85.414 57.9926 79.6233 59.6471 75.0735 56.9585L37.8477 35.4503V25.7302Z" fill="url(#paint2_linear)"/>
<path d="M89.7569 37.7251L40.7429 9.39208C39.7089 8.77165 37.8476 8.77165 36.8135 9.39208C35.7795 10.0125 35.7795 11.0466 36.8135 11.667L85.8275 40C88.7229 41.6545 88.7229 44.343 85.8275 45.9975C82.9322 47.6519 78.1755 47.6519 75.2802 45.9975L26.2662 17.6645C25.2322 17.0441 23.3709 17.0441 22.3368 17.6645C21.3028 18.2849 21.3028 19.319 22.3368 19.9394L71.3508 48.2724C76.3143 51.1677 83.5526 52.6154 89.5501 48.2724C94.5135 44.9634 94.9272 40.6204 89.7569 37.7251Z" fill="#3531A1"/>
<path d="M55.4266 24.9029C55.8402 26.5574 56.2538 28.0051 56.8742 29.4527L58.7355 37.7251L61.8377 36.8979C64.5262 36.0707 66.1807 30.0732 64.5262 22.8348C62.8717 15.3897 58.5287 10.8398 55.8402 11.4603L52.738 12.2875L54.5993 20.5599C54.8061 21.594 55.0129 23.2484 55.4266 24.9029Z" fill="#FFB070"/>
<path d="M63.9059 34.6232C64.1127 34.4164 64.1127 34.0027 64.3195 33.5891L58.322 35.0368L58.5288 35.864L63.9059 34.6232Z" fill="#FFDAA6"/>
<path d="M54.8063 20.9737L63.2855 18.9056C63.0787 18.6988 63.0787 18.2851 62.8719 18.0783L54.5995 19.9396C54.8063 20.56 54.8063 20.7669 54.8063 20.9737Z" fill="#FFDAA6"/>
<path d="M63.9059 20.3531C63.9059 20.1463 63.6991 19.7327 63.6991 19.5259L55.0131 21.594C55.0131 21.8008 55.0131 22.2144 55.0131 22.4212L63.9059 20.3531Z" fill="#FFDAA6"/>
<path d="M60.3902 13.942C60.1834 13.7352 59.9766 13.5284 59.7698 13.3216L53.3586 14.7693L53.5654 15.5965L60.3902 13.942Z" fill="#FFDAA6"/>
<path d="M64.3195 21.594C64.3195 21.3871 64.1127 20.9735 64.1127 20.7667L55.2198 22.8348C55.2198 23.0416 55.2198 23.4552 55.4267 23.6621L64.3195 21.594Z" fill="#FFDAA6"/>
<path d="M59.356 12.7012C59.1492 12.4944 58.7356 12.2876 58.5288 12.0808L53.1517 13.3217L53.3585 14.1489L59.356 12.7012Z" fill="#FFDAA6"/>
<path d="M62.0446 16.4237C61.8378 16.2169 61.8378 16.0101 61.631 15.5964L53.979 17.4577L54.1858 18.285L62.0446 16.4237Z" fill="#FFDAA6"/>
<path d="M62.665 17.6648C62.4582 17.4579 62.4582 17.2511 62.2514 16.8375L54.1858 18.6988L54.3926 19.526L62.665 17.6648Z" fill="#FFDAA6"/>
<path d="M61.4242 15.1829C61.2174 14.9761 61.0106 14.7693 60.8038 14.3557L53.7722 16.0101L53.979 16.8374L61.4242 15.1829Z" fill="#FFDAA6"/>
<path d="M65.1467 30.0734C65.1467 29.8666 65.1467 29.453 65.1467 29.2462L57.288 31.1074L57.4948 31.9347L65.1467 30.0734Z" fill="#FFDAA6"/>
<path d="M64.9399 24.4894C64.9399 24.2826 64.9399 23.8689 64.7331 23.6621L55.6334 25.7302C55.6334 25.937 55.8402 26.3507 55.8402 26.5575L64.9399 24.4894Z" fill="#FFDAA6"/>
<path d="M55.4267 25.1099L64.5263 23.0418V22.8349C64.5263 22.6281 64.5263 22.4213 64.3195 22.4213L55.2198 24.4894C55.2198 24.6962 55.2198 24.903 55.4267 24.903V25.1099Z" fill="#FFDAA6"/>
<path d="M61.8379 36.6913C62.4583 36.4845 63.0788 36.0709 63.4924 35.4504L58.5289 36.6913L58.7357 37.5185L61.8379 36.6913Z" fill="#FFDAA6"/>
<path d="M57.7016 11.6671C57.0811 11.4603 56.4607 11.2535 56.0471 11.4603L52.9449 12.2875L53.1518 12.908L57.7016 11.6671Z" fill="#FFDAA6"/>
<path d="M64.5264 33.1755C64.5264 32.9687 64.7332 32.5551 64.7332 32.3483L57.9084 34.0027L58.1153 34.83L64.5264 33.1755Z" fill="#FFDAA6"/>
<path d="M65.1468 25.7301C65.1468 25.5233 65.1468 25.1097 64.94 24.9029L56.0471 26.971C56.0471 27.1778 56.2539 27.5914 56.2539 27.7982L65.1468 25.7301Z" fill="#FFDAA6"/>
<path d="M64.9399 31.521C64.9399 31.3141 64.9399 30.9005 65.1467 30.6937L57.7015 32.555L57.9084 33.3823L64.9399 31.521Z" fill="#FFDAA6"/>
<path d="M65.1468 28.6255C65.1468 28.4187 65.1468 28.0051 65.1468 27.7983L56.8744 29.6596L57.0812 30.4868L65.1468 28.6255Z" fill="#FFDAA6"/>
<path d="M65.1468 27.178C65.1468 26.9712 65.1468 26.5575 65.1468 26.3507L56.4608 28.4188C56.4608 28.6256 56.6676 29.0393 56.8744 29.2461L65.1468 27.178Z" fill="#FFDAA6"/>
<path d="M49.8427 26.1439C51.704 33.5891 55.8402 38.1389 58.7355 37.5185C61.424 36.8981 63.2853 30.9006 61.4241 23.2486C59.5628 15.8034 55.4266 11.2536 52.5312 11.874C49.8427 12.7013 47.9814 18.6988 49.8427 26.1439Z" fill="#FFB070"/>
<path d="M79.6232 13.5283C80.0368 15.1828 80.4505 16.6304 81.0709 18.0781L82.9322 26.3505L86.0343 25.5233C88.7229 24.696 90.3773 18.6985 88.7229 11.4602C87.0684 4.01503 82.7254 -0.534793 80.0368 0.085637L76.9347 0.912865L78.796 9.18527C79.0028 10.4261 79.2096 11.8738 79.6232 13.5283Z" fill="#FFB070"/>
<path d="M88.1023 23.4552C88.3091 23.2484 88.3091 22.8348 88.5159 22.4211L82.5184 23.8688L82.7252 24.696L88.1023 23.4552Z" fill="#FFDAA6"/>
<path d="M79.0027 9.80573L87.4819 7.73763C87.2751 7.53082 87.2751 7.11721 87.0683 6.9104L78.7959 8.77168C79.0027 9.1853 79.0027 9.39211 79.0027 9.80573Z" fill="#FFDAA6"/>
<path d="M88.1024 8.9785C88.1024 8.77169 87.8956 8.35806 87.8956 8.15125L79.2096 10.2193C79.2096 10.4262 79.2096 10.8398 79.2096 11.0466L88.1024 8.9785Z" fill="#FFDAA6"/>
<path d="M84.5867 2.56734C84.3799 2.36053 84.1731 2.15371 83.9663 1.9469L77.5552 3.3946L77.762 4.22182L84.5867 2.56734Z" fill="#FFDAA6"/>
<path d="M88.516 10.4263C88.516 10.2195 88.3092 9.80587 88.3092 9.59906L79.4164 11.6672C79.4164 11.874 79.4164 12.2876 79.6232 12.4944L88.516 10.4263Z" fill="#FFDAA6"/>
<path d="M83.5526 1.53334C83.3458 1.32653 82.9321 1.11971 82.7253 0.912903L77.3483 2.15378L77.5551 2.981L83.5526 1.53334Z" fill="#FFDAA6"/>
<path d="M86.2411 5.04903C86.0343 4.84222 86.0343 4.63542 85.8275 4.2218L78.1755 6.08308L78.3823 6.91034L86.2411 5.04903Z" fill="#FFDAA6"/>
<path d="M87.0683 6.29006C86.8615 6.08325 86.8615 5.87645 86.6547 5.46283L78.5891 7.32411L78.7959 8.15134L87.0683 6.29006Z" fill="#FFDAA6"/>
<path d="M85.6207 3.80822C85.4139 3.60141 85.2071 3.39458 85.0003 2.98096L77.9688 4.63544L78.1756 5.4627L85.6207 3.80822Z" fill="#FFDAA6"/>
<path d="M89.3432 18.6987C89.3432 18.4919 89.3432 18.0783 89.3432 17.8715L81.4844 19.7327L81.6912 20.56L89.3432 18.6987Z" fill="#FFDAA6"/>
<path d="M89.1364 13.1147C89.1364 12.9079 89.1364 12.4942 88.9296 12.2874L79.83 14.3555C79.83 14.5623 80.0368 14.976 80.0368 15.1828L89.1364 13.1147Z" fill="#FFDAA6"/>
<path d="M79.6232 13.9419L88.7228 11.8738V11.667C88.7228 11.4602 88.7228 11.2534 88.516 11.2534L79.4164 13.3215C79.4164 13.5283 79.4164 13.7351 79.6232 13.7351C79.6232 13.7351 79.6232 13.7351 79.6232 13.9419Z" fill="#FFDAA6"/>
<path d="M86.0343 25.3166C86.6547 25.1098 87.2752 24.6962 87.6888 24.0757L82.7253 25.3166L82.9321 26.1438L86.0343 25.3166Z" fill="#FFDAA6"/>
<path d="M81.8981 0.292484C81.2777 0.0856735 80.6573 -0.121149 80.2436 0.0856609L77.1415 0.912889L77.3483 1.53333L81.8981 0.292484Z" fill="#FFDAA6"/>
<path d="M88.7229 21.8009C88.7229 21.5941 88.9297 21.1804 88.9297 20.9736L82.105 22.6281L82.3118 23.4553L88.7229 21.8009Z" fill="#FFDAA6"/>
<path d="M89.3433 14.5625C89.3433 14.3556 89.3433 13.942 89.1365 13.7352L80.2437 15.8033C80.2437 16.0101 80.4505 16.4237 80.4505 16.6306L89.3433 14.5625Z" fill="#FFDAA6"/>
<path d="M89.1364 20.353C89.1364 20.1462 89.1364 19.7326 89.3432 19.5258L81.8981 21.3871L82.1049 22.2143L89.1364 20.353Z" fill="#FFDAA6"/>
<path d="M89.3433 17.2509C89.3433 17.0441 89.3433 16.6305 89.3433 16.4236L81.0709 18.285L81.2777 19.1122L89.3433 17.2509Z" fill="#FFDAA6"/>
<path d="M89.3433 15.8033C89.3433 15.5965 89.3433 15.1829 89.3433 14.9761L80.6572 17.0442C80.6572 17.251 80.864 17.6646 81.0708 17.8714L89.3433 15.8033Z" fill="#FFDAA6"/>
<path d="M74.0393 14.9761C75.9006 22.4212 80.0368 26.9711 82.9322 26.3506C85.6207 25.7302 87.482 19.7327 85.6207 12.0807C83.7594 4.63557 79.6232 0.0857511 76.7279 0.706181C74.0393 1.32661 72.178 7.32409 74.0393 14.9761Z" fill="#FFB070"/>
<path d="M86.0343 45.9975C83.139 47.6519 78.3823 47.6519 75.487 45.9975L26.473 17.6645C25.4389 17.0441 23.5777 17.0441 22.5436 17.6645C21.5096 18.2849 21.5096 19.319 22.5436 19.9394L71.5576 48.2724C76.521 51.1677 83.7594 52.6154 89.7569 48.2724L86.0343 45.9975Z" fill="#3531A1"/>
<path d="M89.1365 48.2725C84.1731 51.1678 76.9347 51.1678 71.9713 48.2725L22.7505 20.1463C22.13 19.9395 21.9232 19.5259 21.9232 19.1122V75.5714C21.9232 79.5008 23.9913 83.0166 27.5071 85.0847L71.7645 110.316C76.7279 113.211 85.0003 114.038 89.9637 111.143C92.4455 109.695 93.4795 107.007 93.6863 105.145V42.8954C93.4795 44.5499 91.6182 46.8248 89.1365 48.2725Z" fill="url(#paint3_linear)"/>
<path d="M33.9182 51.1679L22.1301 44.3431C21.096 43.7227 19.8552 43.7227 18.8211 44.3431L18.2007 44.7568L35.5727 63.5765L37.434 62.5424C38.2613 62.1288 38.8817 60.8879 38.8817 59.4403C38.6749 56.3381 36.6068 52.6155 33.9182 51.1679Z" fill="#3531A1"/>
<path d="M31.8501 51.7883L19.4415 44.5499C18.6142 44.1363 17.787 44.7567 17.787 45.584V51.7883C17.787 53.6496 18.821 55.0973 20.2687 56.1313L32.4705 63.1628C33.7114 63.9901 34.9522 63.9901 35.7795 63.5765C37.0203 62.956 37.6408 61.0947 37.0203 58.4062C36.1931 55.5109 34.3318 53.236 31.8501 51.7883Z" fill="url(#paint4_linear)"/>
<path d="M32.4705 54.6835C31.0228 53.8563 29.782 54.4768 29.782 56.1312C29.782 57.7857 31.0228 59.8538 32.4705 60.6811C33.9182 61.5083 35.159 60.8879 35.159 59.2334C35.159 57.5789 33.9182 55.5108 32.4705 54.6835Z" fill="#3531A1"/>
<path d="M52.531 65.0239C54.1855 65.8512 56.0468 66.4716 57.7013 67.2989C59.3558 68.1261 61.0102 68.9533 62.8715 69.7806L61.6307 70.8146C60.8034 68.5397 59.5626 66.2648 58.1149 64.4035C56.6672 62.5423 54.8059 60.8877 52.7378 59.8537C51.7038 59.4401 50.6697 59.0265 49.6357 59.2333C48.6016 59.2333 47.9812 59.6469 47.3608 60.2673C46.7403 60.8878 46.3267 61.9218 46.3267 62.9558C46.1199 63.9899 46.3267 65.2308 46.3267 66.2648C46.7403 68.5397 47.5676 70.8146 48.8084 72.8827C50.0493 74.9508 51.497 76.8121 53.3583 78.2598C54.1855 78.8802 55.2196 79.7075 56.2536 79.9143C57.2877 80.3279 58.3217 80.3279 59.3558 80.1211C60.3898 79.9143 61.0102 79.0871 61.6307 78.2598C62.0443 77.2258 62.4579 76.1917 62.4579 74.9508C62.4579 74.5372 62.8715 74.3304 63.0783 74.3304C63.2851 74.3304 63.2851 74.3304 63.2851 74.3304C65.5601 75.7781 67.835 77.4326 69.9031 79.087C67.4213 77.8462 64.9396 76.8121 62.6647 75.5713L63.6988 74.9508C63.6988 76.1917 63.6988 77.6394 63.0783 79.087C62.4579 80.3279 61.4239 81.7756 59.9762 82.1892C58.5285 82.8096 56.874 82.6028 55.4264 82.1892C53.9787 81.7756 52.7378 81.1552 51.7038 80.3279C47.154 77.019 44.2586 72.0555 43.2246 66.6784C43.0178 65.2308 43.0178 63.7831 43.2246 62.3354C43.4314 60.8878 44.0518 59.4401 45.0859 57.9924C46.1199 56.7516 47.9812 55.9243 49.6357 55.9243C51.2902 55.9243 52.7378 56.3379 53.9787 57.1652C56.4604 58.4061 58.5285 60.4741 59.9762 62.7491C61.4239 65.024 62.6647 67.5057 63.2851 69.9874C63.492 70.401 63.0783 70.8146 62.6647 71.0215C62.4579 71.0215 62.2511 71.0215 62.0443 71.0215C60.3898 69.9874 58.9421 68.9534 57.2877 67.9193C55.6332 67.0921 53.9787 66.058 52.531 65.0239Z" fill="white"/>
<path d="M31.0229 105.765C29.1616 105.765 27.3003 105.972 25.8526 106.179H16.5461V109.695C16.753 112.797 22.7504 116.106 31.2297 116.106C39.7089 116.106 45.7064 112.797 45.9132 109.695V106.179H36.6067C34.5386 105.972 32.8841 105.765 31.0229 105.765Z" fill="#FFB070"/>
<path d="M18.2006 112.59C18.4074 112.797 18.821 113.004 19.0278 113.21V106.179H18.2006V112.59Z" fill="#FFDAA6"/>
<path d="M35.3658 106.179V115.899C35.7795 115.899 35.9863 115.899 36.1931 115.692V106.179C35.7795 106.179 35.5727 106.179 35.3658 106.179Z" fill="#FFDAA6"/>
<path d="M33.7113 116.106C33.9181 116.106 34.3317 116.106 34.5385 116.106V106.179C34.3317 106.179 33.9181 106.179 33.7113 106.179V116.106Z" fill="#FFDAA6"/>
<path d="M41.5701 114.038C41.9837 113.831 42.1905 113.624 42.3973 113.624V106.386H41.5701V114.038Z" fill="#FFDAA6"/>
<path d="M32.0569 116.106C32.2637 116.106 32.6773 116.106 32.8841 116.106V105.765C32.6773 105.765 32.2637 105.765 32.0569 105.765V116.106Z" fill="#FFDAA6"/>
<path d="M43.0178 113.004C43.4314 112.797 43.6383 112.59 43.8451 112.176V106.179H43.0178V113.004Z" fill="#FFDAA6"/>
<path d="M38.4679 115.279C38.8815 115.279 39.0883 115.072 39.2951 115.072V106.386H38.4679V115.279Z" fill="#FFDAA6"/>
<path d="M36.8135 115.692C37.2271 115.692 37.4339 115.486 37.6407 115.486V106.386H36.8135V115.692Z" fill="#FFDAA6"/>
<path d="M39.9156 114.658C40.3293 114.451 40.5361 114.451 40.7429 114.245V106.179H39.9156V114.658Z" fill="#FFDAA6"/>
<path d="M22.7505 115.072C22.9573 115.072 23.3709 115.279 23.5777 115.279V106.179H22.7505V115.072Z" fill="#FFDAA6"/>
<path d="M28.9547 116.106C29.1615 116.106 29.5751 116.106 29.7819 116.106V105.765C29.5751 105.765 29.1615 105.765 28.9547 105.765V116.106Z" fill="#FFDAA6"/>
<path d="M30.6093 105.765V116.106C30.8161 116.106 30.8161 116.106 31.0229 116.106C31.2297 116.106 31.4365 116.106 31.6433 116.106V105.765C31.4365 105.765 31.2297 105.765 31.0229 105.765C30.8161 105.765 30.6093 105.765 30.6093 105.765Z" fill="#FFDAA6"/>
<path d="M16.5461 109.902C16.5461 110.522 16.9598 111.349 17.5802 111.97V106.386H16.5461V109.902Z" fill="#FFDAA6"/>
<path d="M44.6722 111.556C45.0859 110.936 45.2927 110.315 45.4995 109.695V106.179H44.6722V111.556Z" fill="#FFDAA6"/>
<path d="M19.6483 113.624C19.8551 113.831 20.2687 114.038 20.4756 114.038V106.179H19.6483V113.624Z" fill="#FFDAA6"/>
<path d="M27.5071 115.899C27.7139 115.899 28.1275 115.899 28.3343 115.899V105.765C27.9207 105.765 27.7139 105.765 27.5071 105.765V115.899Z" fill="#FFDAA6"/>
<path d="M21.3027 114.452C21.5095 114.658 21.9232 114.658 22.13 114.865V106.386H21.3027V114.452Z" fill="#FFDAA6"/>
<path d="M24.4049 115.486C24.6117 115.486 25.0253 115.692 25.2321 115.692V106.386H24.4049V115.486Z" fill="#FFDAA6"/>
<path d="M25.8525 115.692C26.0593 115.692 26.473 115.692 26.6798 115.899V105.972C26.2662 105.972 26.0593 105.972 25.8525 106.179V115.692Z" fill="#FFDAA6"/>
<path d="M31.0229 99.3544C22.3368 99.3544 16.3394 102.87 16.3394 105.972C16.3394 109.075 22.3368 112.59 31.0229 112.59C39.7089 112.59 45.7064 109.075 45.7064 105.972C45.4996 102.87 39.5021 99.3544 31.0229 99.3544Z" fill="#FFB070"/>
<defs>
<linearGradient id="paint0_linear" x1="35.9451" y1="107.663" x2="51.174" y2="128.258" gradientUnits="userSpaceOnUse">
<stop stop-color="#E2E4E9" stop-opacity="0.8"/>
<stop offset="1" stop-color="#E2E4E9" stop-opacity="0"/>
</linearGradient>
<linearGradient id="paint1_linear" x1="20.9948" y1="93.534" x2="36.2245" y2="114.131" gradientUnits="userSpaceOnUse">
<stop stop-color="#E2E4E9" stop-opacity="0.8"/>
<stop offset="1" stop-color="#E2E4E9" stop-opacity="0"/>
</linearGradient>
<linearGradient id="paint2_linear" x1="37.9467" y1="40.5209" x2="88.4535" y2="40.5209" gradientUnits="userSpaceOnUse">
<stop stop-color="#5752D0"/>
<stop offset="1" stop-color="#7F7CF9"/>
</linearGradient>
<linearGradient id="paint3_linear" x1="21.7813" y1="65.8025" x2="93.459" y2="65.8025" gradientUnits="userSpaceOnUse">
<stop stop-color="#5752D0"/>
<stop offset="1" stop-color="#7F7CF9"/>
</linearGradient>
<linearGradient id="paint4_linear" x1="17.6027" y1="54.0785" x2="37.0598" y2="54.0785" gradientUnits="userSpaceOnUse">
<stop stop-color="#5752D0"/>
<stop offset="1" stop-color="#7F7CF9"/>
</linearGradient>
</defs>
</svg>
