<svg width="96" height="144" viewBox="0 0 96 144" fill="none" xmlns="http://www.w3.org/2000/svg">
<path d="M14.2229 94.0043C32.9442 83.279 63.1862 83.5945 81.6195 95.2661C100.053 106.938 99.7647 124.918 81.0434 135.959C62.3221 146.685 32.0801 146.369 13.6468 134.697C-4.78646 123.026 -4.49841 104.73 14.2229 94.0043Z" fill="white"/>
<path d="M14.5109 94.3197C33.2321 83.5944 62.8982 84.2253 81.3315 95.5815C99.4768 106.938 99.1887 124.918 80.7554 135.644C62.0341 146.369 32.3681 145.738 13.9349 134.382C-4.49841 123.026 -3.92242 105.045 14.5109 94.3197Z" fill="#FCFCFC"/>
<path d="M15.087 94.3197C33.5202 83.5944 63.1863 84.2253 81.0435 95.5815C99.1888 106.938 98.9008 124.603 80.4675 135.328C62.0342 146.054 32.3681 145.423 14.5109 134.066C-3.63435 122.71 -3.3463 105.045 15.087 94.3197Z" fill="#F9F9FA"/>
<path d="M15.3749 94.6353C33.5202 84.2254 62.8981 84.5409 80.7554 95.8971C98.6126 106.938 98.3246 124.603 80.1794 135.013C62.0341 145.423 32.6561 145.107 14.7988 133.751C-3.05841 122.71 -2.77035 105.045 15.3749 94.6353Z" fill="#F6F6F7"/>
<path d="M15.6628 94.9508C33.8081 84.541 62.61 85.1719 80.1793 96.2126C97.7485 107.253 97.4604 124.603 79.6032 135.013C61.7459 145.423 32.656 144.792 15.0867 133.751C-2.48247 122.71 -2.19441 105.361 15.6628 94.9508Z" fill="#F3F3F4"/>
<path d="M15.9509 95.2662C33.8082 84.8563 62.3222 85.4873 79.8914 96.528C97.4606 107.569 97.1725 124.603 79.3153 135.013C61.4581 145.423 32.9442 144.792 15.375 133.751C-1.90624 122.71 -1.61827 105.361 15.9509 95.2662Z" fill="#F0F0F2"/>
<path d="M16.5269 95.266C34.0961 85.1716 62.3221 85.4871 79.6033 96.5278C96.8844 107.569 96.5965 124.287 79.0273 134.382C61.4581 144.476 33.232 144.161 15.9508 133.12C-1.33035 122.395 -1.0423 105.676 16.5269 95.266Z" fill="#EDEEEF"/>
<path d="M16.815 95.5815C34.0962 85.4871 62.0341 86.118 79.3153 96.8433C96.3085 107.569 96.0205 124.288 78.7393 134.382C61.4581 144.476 33.5201 143.845 16.2389 133.12C-0.754229 122.395 -0.754194 105.676 16.815 95.5815Z" fill="#EAEBEC"/>
<path d="M17.1032 95.8972C34.3844 86.1182 62.0342 86.4336 78.7394 96.8435C95.7326 107.253 95.4445 123.972 78.1633 133.751C60.8821 143.53 33.2322 143.215 16.5271 132.805C-0.17806 122.395 -0.178024 105.676 17.1032 95.8972Z" fill="#E7E8EA"/>
<path d="M17.3911 95.8972C34.3842 86.1182 61.7462 86.4336 78.4513 96.8435C95.1565 107.253 94.8684 123.657 77.8752 133.436C60.8821 143.215 33.5202 142.899 16.8151 132.489C0.109914 122.395 0.397881 105.992 17.3911 95.8972Z" fill="#E4E5E7"/>
<path d="M17.9673 96.2123C34.6724 86.4334 61.7463 87.0643 78.1634 97.1587C94.5805 107.569 94.2926 123.657 77.5874 133.435C60.8823 143.214 33.8083 142.584 17.3912 132.489C0.686042 122.079 0.974097 105.991 17.9673 96.2123Z" fill="#E1E2E4"/>
<path d="M18.2552 96.528C34.9603 87.0645 61.4582 87.3799 77.5873 97.4743C93.7164 107.569 93.7163 123.657 77.0112 133.12C60.306 142.584 33.8082 142.268 17.6791 132.174C1.54997 122.079 1.55 105.991 18.2552 96.528Z" fill="#DFDFE2"/>
<path d="M18.5434 96.8433C34.9605 87.3798 61.1703 87.6952 77.2994 97.7896C93.4285 107.884 93.1405 123.657 76.7233 133.12C60.3062 142.584 34.0964 142.268 17.9673 132.174C1.83818 122.079 2.12624 106.307 18.5434 96.8433Z" fill="#DCDCDF"/>
<path d="M18.8313 96.8434C34.9604 87.3798 60.8822 88.0108 76.7233 97.7897C92.5644 107.569 92.2764 123.341 76.1473 132.805C60.0182 142.268 34.0964 141.637 18.2553 131.858C2.41418 121.764 2.70214 106.307 18.8313 96.8434Z" fill="#D9D9DC"/>
<path d="M19.4072 97.1588C35.2483 88.0107 61.1701 88.3262 76.7232 98.1051C92.2762 107.884 91.9883 123.341 76.1472 132.489C60.3061 141.637 34.3842 141.322 18.8312 131.543C2.99006 121.764 3.27812 106.307 19.4072 97.1588Z" fill="#D6D6DA"/>
<path d="M19.6954 97.4741C35.5365 88.326 60.8823 88.9569 76.1473 98.4204C91.4124 107.884 91.4123 123.341 75.5712 132.489C59.7301 141.637 34.3844 141.006 19.1193 131.543C3.56626 121.764 3.85431 106.622 19.6954 97.4741Z" fill="#D3D3D7"/>
<path d="M19.9833 97.4741C35.5364 88.326 60.5941 88.9569 75.8592 98.4204C91.1242 107.884 90.8362 123.026 75.2831 131.858C59.73 141.006 34.6723 140.375 19.4073 130.912C4.14221 121.764 4.43026 106.622 19.9833 97.4741Z" fill="#D0D1D4"/>
<path d="M20.2712 97.7895C35.5363 88.9569 60.306 89.2724 75.283 98.7359C90.2601 108.199 89.9721 123.026 74.707 131.858C59.442 140.691 34.6723 140.375 19.6952 130.912C4.71821 121.448 5.00617 106.622 20.2712 97.7895Z" fill="#CDCED2"/>
<path d="M20.8474 98.1052C36.1125 89.2726 60.3062 89.9035 75.2832 99.0515C90.2602 108.2 89.9723 123.026 74.7072 131.858C59.4421 140.691 35.2484 140.06 20.2714 130.912C5.29434 121.764 5.58239 106.938 20.8474 98.1052Z" fill="#CACBCF"/>
<path d="M21.1354 98.4205C36.1124 89.9033 60.0181 90.2188 74.7071 99.3668C89.3961 108.515 89.1081 123.026 74.131 131.543C59.154 140.06 35.2483 139.745 20.5593 130.596C5.87029 121.448 6.15835 106.938 21.1354 98.4205Z" fill="#C7C8CC"/>
<path d="M21.4236 98.4205C36.1126 89.9033 59.7302 90.2188 74.4192 99.3668C88.8202 108.515 88.5321 122.71 73.8431 131.227C59.1541 139.744 35.5365 139.429 20.8475 130.281C6.44649 121.133 6.73455 106.938 21.4236 98.4205Z" fill="#C4C5CA"/>
<path d="M21.7112 98.7362C36.4002 90.219 59.7299 90.8499 73.8428 99.6825C88.2438 108.515 87.9559 122.71 73.2668 130.912C58.5778 139.429 35.2482 138.798 21.1352 129.966C7.02225 121.133 7.31022 107.253 21.7112 98.7362Z" fill="#C1C2C7"/>
<path d="M74.1311 88.6411C59.4421 79.4931 35.8245 79.4931 21.1355 88.6411C13.935 93.0574 10.4787 99.051 10.1907 105.045C10.1907 108.514 10.1907 111.669 10.1907 115.139C10.4787 121.133 13.935 126.811 21.1355 131.542C35.8245 140.69 59.4421 140.69 74.1311 131.542C81.3316 127.126 84.7878 121.133 85.0759 115.139C85.0759 111.669 85.0759 108.514 85.0759 105.045C84.7878 99.051 81.3316 93.0574 74.1311 88.6411Z" fill="#CBD3FA"/>
<path d="M74.131 88.6413C88.8201 97.7894 88.8201 112.931 74.131 122.079C59.442 131.227 35.8244 131.227 21.1354 122.079C6.4464 112.931 6.4464 97.7894 21.1354 88.6413C35.8244 79.1778 59.442 79.1778 74.131 88.6413Z" fill="#F3F1F6"/>
<path d="M23.4396 90.534C36.9765 82.6477 58.866 82.6477 72.4029 90.534C85.9399 98.4202 85.9399 111.669 72.4029 119.555C58.866 127.442 36.9765 127.442 23.4396 119.555C9.90263 111.669 9.90263 98.7357 23.4396 90.534Z" fill="#D5DBEB"/>
<path d="M25.7438 94.0038C37.8406 86.7484 57.7139 86.7484 69.8108 94.0038C81.9076 101.259 81.9076 112.931 69.8108 120.186C57.7139 127.442 37.8406 127.442 25.7438 120.186C13.6469 113.246 13.6469 101.259 25.7438 94.0038Z" fill="#BAC1E8"/>
<path d="M73.2669 58.3583V64.0364L72.1148 64.9828L67.2185 61.8282L68.0825 58.3583H73.2669Z" fill="#FF5A74"/>
<path d="M24.3037 57.4118V63.0899L25.4558 64.0363L30.6401 60.8818L29.488 57.7273L24.3037 57.4118Z" fill="#FF5A74"/>
<path d="M22.2874 69.7145L18.5432 72.5535V77.6008H22.5755C23.1515 79.8089 24.3036 81.7016 26.3197 83.5943L22.8635 85.1716L29.4879 89.2724L32.3681 87.6952C35.5364 88.957 38.7046 89.9033 42.4488 90.5342V93.0578H51.3775V90.5342C55.4097 90.5342 60.3061 88.957 61.7462 88.3261L64.6264 90.2188L71.5389 86.4334L68.9467 84.2252C71.2509 82.3325 72.1149 81.0707 72.979 78.8625H77.0112V73.4999L73.5549 70.9763C73.2669 69.399 71.8268 69.399 69.5227 67.8218L73.267 65.9291L66.6425 61.8282L63.1863 64.0364C60.0181 62.7746 56.5618 61.5128 53.1056 61.1974V58.3583H44.177V61.1974C44.177 61.1974 38.1285 61.5128 33.8082 63.4055L30.928 61.5128L24.0156 65.2982L26.8958 67.1909C26.0317 67.5063 23.1515 66.56 22.2874 69.7145ZM38.7046 71.2918C43.889 68.7682 51.9535 68.7682 56.8498 71.2918C62.0342 73.8154 62.0342 77.6008 56.8498 79.8089C56.5618 79.8089 56.5618 80.1244 56.2737 80.1244C51.3774 82.0171 44.1769 82.0171 39.2806 80.1244C38.9926 80.1244 38.9926 79.8089 38.7046 79.8089C33.5202 77.6008 33.5202 73.8154 38.7046 71.2918Z" fill="#FF5A74"/>
<path d="M22.8635 64.6674H18.5432V69.7146H22.5755C23.1515 71.9228 24.3036 73.8154 26.3197 75.7081L22.8635 77.2854L29.4879 81.3863L32.3681 79.809C35.5364 81.0708 38.7046 82.0171 42.4488 82.648V85.1716H51.3775V82.648C55.4097 82.648 60.3061 81.0708 61.7462 80.4399L64.6264 82.3326L71.5389 78.5472L68.9467 76.339C71.2509 74.4463 72.1149 73.1845 72.979 70.9764H77.0112V65.6137H73.267C72.979 64.0365 71.8268 61.8283 69.5227 59.9356L73.267 58.0429L66.6425 53.9421L63.1863 56.1502C60.0181 54.8884 56.5618 53.6266 53.1056 53.3112V50.4721H44.177V53.3112C44.177 53.3112 38.1285 53.6266 33.8082 55.5193L30.928 53.6266L24.0156 57.412L26.8958 59.3047C26.0317 59.6202 23.7276 61.5129 22.8635 64.6674ZM38.7046 63.721C43.889 61.1974 51.9535 61.1974 56.8498 63.721C62.0342 66.2446 62.0342 70.0301 56.8498 72.2382C56.5618 72.2382 56.5618 72.5536 56.2737 72.5536C51.3774 74.4463 44.1769 74.4463 39.2806 72.5536C38.9926 72.5536 38.9926 72.2382 38.7046 72.2382C33.5202 69.7146 33.5202 65.9292 38.7046 63.721Z" fill="url(#paint0_linear)"/>
<path d="M51.3776 85.1715V93.0578H42.449V85.1715H51.3776Z" fill="url(#paint1_linear)"/>
<path d="M18.5432 70.0297V77.6006H22.5755V70.0297H18.5432Z" fill="url(#paint2_linear)"/>
<path d="M29.4879 81.7013V89.5876C29.4879 89.5876 22.5755 85.8022 22.8635 85.4867C23.1515 85.4867 22.8635 77.6005 22.8635 77.6005L29.4879 81.7013Z" fill="url(#paint3_linear)"/>
<path d="M64.6265 82.3324V90.2187L71.5389 86.4333V78.8624L64.6265 82.3324Z" fill="url(#paint4_linear)"/>
<path d="M77.0113 71.2915V79.1778H72.979V71.2915H77.0113Z" fill="url(#paint5_linear)"/>
<path d="M16.5272 0H79.3154V105.36C79.8915 110.723 76.7233 116.401 70.0989 120.502C58.002 128.388 38.1287 128.388 25.7438 120.502C19.1194 116.401 16.2391 110.723 16.5272 105.36V0V0Z" fill="url(#paint6_linear)"/>
<defs>
<linearGradient id="paint0_linear" x1="77.0394" y1="67.9058" x2="18.572" y2="67.9058" gradientUnits="userSpaceOnUse">
<stop stop-color="#FF6279"/>
<stop offset="1" stop-color="#FFAD60"/>
</linearGradient>
<linearGradient id="paint1_linear" x1="51.4977" y1="89.1153" x2="42.5786" y2="89.1153" gradientUnits="userSpaceOnUse">
<stop stop-color="#FF6279"/>
<stop offset="1" stop-color="#FFAD60"/>
</linearGradient>
<linearGradient id="paint2_linear" x1="22.6167" y1="73.8508" x2="18.572" y2="73.8508" gradientUnits="userSpaceOnUse">
<stop stop-color="#FF6279"/>
<stop offset="1" stop-color="#FFAD60"/>
</linearGradient>
<linearGradient id="paint3_linear" x1="29.6005" y1="83.4221" x2="23.0893" y2="83.4221" gradientUnits="userSpaceOnUse">
<stop stop-color="#FF6279"/>
<stop offset="1" stop-color="#FFAD60"/>
</linearGradient>
<linearGradient id="paint4_linear" x1="71.6083" y1="84.5191" x2="64.6749" y2="84.5191" gradientUnits="userSpaceOnUse">
<stop stop-color="#FF6279"/>
<stop offset="1" stop-color="#FFAD60"/>
</linearGradient>
<linearGradient id="paint5_linear" x1="77.0902" y1="75.2031" x2="72.9977" y2="75.2031" gradientUnits="userSpaceOnUse">
<stop stop-color="#FF6279"/>
<stop offset="1" stop-color="#FFAD60"/>
</linearGradient>
<linearGradient id="paint6_linear" x1="47.9648" y1="0.813862" x2="47.9648" y2="214.667" gradientUnits="userSpaceOnUse">
<stop offset="8e-08" stop-color="#7F7CF9" stop-opacity="0"/>
<stop offset="1" stop-color="#5752D0" stop-opacity="0.6"/>
</linearGradient>
</defs>
</svg>
