<svg width="50" height="50" viewBox="0 0 50 50" fill="none" xmlns="http://www.w3.org/2000/svg">
<circle cx="25" cy="25" r="25" fill="#DFDEFD"/>
<path d="M26.952 24.824L27.672 24.992C28.776 25.248 29.664 25.784 30.336 26.6C31.008 27.416 31.344 28.432 31.344 29.648C31.344 31.312 30.728 32.664 29.496 33.704C28.28 34.728 26.656 35.24 24.624 35.24C23.376 35.24 22.136 35.04 20.904 34.64C19.672 34.224 18.648 33.68 17.832 33.008L20.04 28.784C21.32 30.352 22.696 31.136 24.168 31.136C25.32 31.136 25.896 30.648 25.896 29.672C25.896 28.696 25.32 28.208 24.168 28.208H21.12V25.304L24.312 22.256H18.72V18.224H30.576V21.344L26.952 24.824Z" fill="#FFA364"/>
</svg>
