<svg width="27" height="28" viewBox="0 0 27 28" fill="none" xmlns="http://www.w3.org/2000/svg">
<path d="M6.84446 24.4301C6.84446 23.9777 6.99527 23.4876 6.80676 23.1483C6.61826 22.8467 6.09045 22.7336 5.71344 22.5451C3.7153 21.4895 2.16956 19.9814 1.37784 17.8702C1.03854 17.0408 0.925433 16.0983 0.77463 15.1934C0.623826 14.2886 0.586125 13.3838 0.548424 12.479C0.473023 10.5185 0.699228 8.55809 1.11394 6.63535C1.34014 5.54202 1.90565 4.5995 2.58427 3.77008C3.63989 2.45055 4.92172 1.35723 6.54286 0.829419C7.48538 0.527812 8.4656 0.377009 9.44582 0.263906C10.7654 0.113103 12.1226 0 13.4421 0C14.7616 0 16.0812 0.113103 17.4007 0.226205C18.2678 0.301607 19.1349 0.45241 20.0021 0.640915C21.5101 0.980222 22.7542 1.84734 23.8475 2.90297C24.9032 3.92089 25.7703 5.12731 26.0719 6.59765C26.5243 8.7466 26.7882 10.8955 26.5997 13.0822C26.4866 14.4017 26.3358 15.6836 26.1096 17.0031C25.8457 18.5111 25.0163 19.6798 23.9606 20.7355C22.8673 21.8665 21.6232 22.7713 20.0398 23.1106C18.8333 23.3745 17.5892 23.4876 16.3828 23.6384C15.7419 23.7138 15.0632 23.7515 14.3846 23.7515C13.6306 23.7515 12.8389 23.7138 12.0849 23.7138C11.8964 23.7138 11.6325 23.8269 11.4817 23.9777C10.6145 24.8449 9.82283 25.712 8.99341 26.5791C8.3902 27.1823 7.56078 27.22 7.10837 26.6168C6.91987 26.3529 6.84446 25.9759 6.80676 25.6743C6.80676 25.2219 6.84446 24.8449 6.84446 24.4301ZM7.90009 23.2614C7.90009 23.6384 7.90009 24.0154 7.90009 24.3924C7.90009 24.7695 7.90009 25.1465 7.90009 25.5235C7.90009 25.6366 7.97549 25.7874 8.05089 25.8251C8.12629 25.8628 8.2771 25.7497 8.3525 25.6743C8.4279 25.6366 8.4656 25.5612 8.541 25.4858C9.82283 24.1662 11.067 22.8844 12.3488 21.6026C12.4996 21.4518 12.7258 21.3387 12.952 21.3387C14.7616 21.3387 16.5713 21.1879 18.3809 20.9617C19.4365 20.8109 20.4168 20.547 21.2839 19.8683C22.4149 18.9635 23.4705 17.9833 23.7344 16.513C23.9983 15.118 24.1492 13.6854 24.2246 12.2528C24.2623 11.084 24.1115 9.87762 23.9983 8.70889C23.8852 7.46477 23.5836 6.25834 22.6788 5.24042C21.774 4.22249 20.7561 3.27997 19.3611 3.01607C18.0039 2.75216 16.6467 2.60136 15.2518 2.52596C12.9897 2.41285 10.6899 2.48826 8.4656 2.90297C6.05275 3.31767 4.39391 4.7126 3.56449 6.97466C3.18748 7.99258 3.11208 9.1236 3.03668 10.2169C2.96128 11.6119 2.99898 13.0445 3.11208 14.4394C3.14978 15.2688 3.26289 16.136 3.56449 16.9277C4.24311 18.775 5.60034 19.9814 7.40998 20.6978C7.74929 20.8486 7.90009 20.9994 7.90009 21.3764C7.86239 21.9419 7.90009 22.6205 7.90009 23.2614Z" fill="white"/>
<path d="M14.6485 15.2309C14.7993 15.1555 14.9878 15.0801 15.1386 14.967C15.3271 14.8162 15.4402 14.59 15.6287 14.4392C16.0057 14.0622 16.4581 13.9114 16.9105 14.1753C17.7399 14.7408 18.5694 15.3063 19.3611 15.9472C19.6627 16.1734 19.7758 16.5127 19.5873 16.8897C19.1726 17.8323 18.5694 18.5863 17.5137 18.8879C17.3629 18.9256 17.2121 18.9256 17.0613 18.8879C13.5552 17.6438 10.6145 15.6833 8.65404 12.4411C7.97543 11.3477 7.48532 10.1413 6.91981 8.97257C6.6182 8.40706 6.7313 7.87925 7.07061 7.35144C7.48532 6.74822 8.01313 6.29582 8.65404 5.99421C9.03105 5.8057 9.44576 5.84341 9.70967 6.18271C10.3129 6.93673 10.8784 7.72845 11.4062 8.55787C11.7832 9.16108 11.5947 9.65119 11.0669 10.1036C10.9538 10.179 10.8784 10.2544 10.7653 10.3298C10.426 10.5937 10.3506 10.933 10.5014 11.31C11.1423 13.082 12.311 14.4015 14.1207 15.0801C14.2715 15.1555 14.4223 15.1555 14.6485 15.2309Z" fill="white"/>
<path d="M20.0778 11.7627C20.0778 11.8758 20.1532 12.0266 20.1155 12.1397C20.0401 12.2905 19.927 12.5167 19.7762 12.5544C19.6631 12.5921 19.3992 12.3659 19.3615 12.2528C19.2484 11.8758 19.2483 11.4988 19.2106 11.1218C19.0598 8.89742 17.3633 6.78618 15.2144 6.25836C14.7619 6.14526 14.2718 6.10756 13.7817 6.03216C13.6686 6.03216 13.5932 5.99446 13.4801 5.99446C13.2162 5.95676 13.0277 5.88136 13.0277 5.57975C13.0654 5.24044 13.3293 5.16504 13.5932 5.16504C16.4962 5.27814 18.9844 6.93698 19.8139 9.91534C19.9647 10.5186 20.0401 11.1595 20.1155 11.7627C20.1155 11.725 20.1155 11.7627 20.0778 11.7627Z" fill="white"/>
<path d="M18.4562 11.3477C18.4185 11.4231 18.4562 11.5739 18.3808 11.6493C18.2677 11.7624 18.1169 11.9132 17.9661 11.9132C17.853 11.9132 17.6645 11.7247 17.6645 11.6116C17.5514 11.1969 17.5514 10.7068 17.4383 10.2921C17.0613 8.85947 15.8549 7.87925 14.3468 7.72845C14.196 7.72845 14.0829 7.69075 13.9321 7.65305C13.7059 7.61534 13.5551 7.46454 13.5928 7.23834C13.6305 6.97443 13.819 6.86133 14.0452 6.86133C16.2696 7.01213 18.1546 8.40706 18.4185 10.8576C18.4185 10.9707 18.4562 11.1592 18.4562 11.3477Z" fill="white"/>
<path d="M14.5731 8.55811C15.8549 8.59581 16.8351 9.68913 16.7597 10.8956C16.7597 11.1595 16.6466 11.3857 16.3827 11.348C16.2319 11.3103 16.0811 11.1218 15.9303 10.971C15.8926 10.9333 15.9303 10.8579 15.9303 10.8202C15.7418 9.83993 15.4779 9.57603 14.46 9.38752C14.1961 9.34982 14.0076 9.19902 14.0076 8.93511C14.0453 8.67121 14.2338 8.55811 14.4977 8.55811C14.5731 8.55811 14.6108 8.55811 14.5731 8.55811Z" fill="white"/>
</svg>
