<svg width="28" height="28" viewBox="0 0 28 28" fill="none" xmlns="http://www.w3.org/2000/svg">
<path d="M0.661255 27.0508L2.56803 19.7914C1.50024 17.8046 0.890068 15.5886 0.890068 13.3726C0.890068 5.96034 6.91549 0 14.2375 0C21.5596 0 27.585 5.96034 27.585 13.3726C27.585 20.7084 21.6358 26.7451 14.2375 26.7451C12.0257 26.7451 9.89007 26.2102 7.90702 25.1404L0.661255 27.0508ZM8.28837 22.3895L8.746 22.6952C10.424 23.6885 12.3307 24.2235 14.2375 24.2235C20.1867 24.2235 25.068 19.3329 25.068 13.3726C25.068 7.41222 20.1867 2.52168 14.2375 2.52168C8.28837 2.52168 3.40702 7.41222 3.40702 13.3726C3.40702 15.3593 3.94092 17.2697 5.00871 18.9508L5.3138 19.4093L4.246 23.4593L8.28837 22.3895Z" fill="white"/>
<path fill-rule="evenodd" clip-rule="evenodd" d="M19.195 15.2064C18.6611 14.9008 17.8984 14.5187 17.2883 14.7479C16.7544 14.9772 16.4493 15.7413 16.1442 16.1234C15.9917 16.3526 15.7628 16.3526 15.534 16.2762C13.7035 15.5121 12.2544 14.2894 11.1866 12.6083C11.034 12.3791 11.034 12.1498 11.2628 11.9206C11.5679 11.5385 11.9493 11.1564 12.0256 10.6215C12.1018 10.163 11.873 9.55172 11.6442 9.09324C11.4154 8.55833 11.1103 7.71777 10.5001 7.41211C9.96624 7.10646 9.2798 7.25928 8.82217 7.64136C8.05946 8.25268 7.6781 9.32248 7.6781 10.3159C7.6781 10.6215 7.75437 10.8508 7.75437 11.1564C7.90691 11.8442 8.212 12.4555 8.59335 12.9904C8.82217 13.4489 9.12725 13.8309 9.43234 14.2894C10.4239 15.6649 11.6442 16.8111 13.0934 17.7281C13.7798 18.1866 14.6188 18.5687 15.3815 18.7979C16.2967 19.1036 17.0595 19.4092 18.051 19.2564C19.0425 19.0271 20.034 18.4158 20.4917 17.4224C20.6442 17.1168 20.6442 16.8111 20.5679 16.5055C20.5679 15.8941 19.7289 15.5121 19.195 15.2064Z" fill="white"/>
</svg>
